<?xml version="1.0" encoding="utf-8" standalone="no"?>
<!DOCTYPE svg PUBLIC "-//W3C//DTD SVG 1.1//EN"
  "http://www.w3.org/Graphics/SVG/1.1/DTD/svg11.dtd">
<!-- Created with matplotlib (https://matplotlib.org/) -->
<svg height="640pt" version="1.1" viewBox="0 0 640 640" width="640pt" xmlns="http://www.w3.org/2000/svg" xmlns:xlink="http://www.w3.org/1999/xlink">
 <defs>
  <style type="text/css">
*{stroke-linecap:butt;stroke-linejoin:round;white-space:pre;}
  </style>
 </defs>
 <g id="figure_1">
  <g id="patch_1">
   <path d="M 0 640 
L 640 640 
L 640 0 
L 0 0 
z
" style="fill:#ffffff;"/>
  </g>
  <g id="axes_1">
   <g id="patch_2">
    <path d="M 50.565625 579.248967 
L 629.2 579.248967 
L 629.2 10.8 
L 50.565625 10.8 
z
" style="fill:#ffffff;"/>
   </g>
   <g id="matplotlib.axis_1">
    <g id="xtick_1">
     <g id="line2d_1">
      <defs>
       <path d="M 0 0 
L 0 3.5 
" id="m109a37c76d" style="stroke:#000000;stroke-width:0.8;"/>
      </defs>
      <g>
       <use style="stroke:#000000;stroke-width:0.8;" x="122.001968" xlink:href="#m109a37c76d" y="579.248967"/>
      </g>
     </g>
     <g id="text_1">
      <!-- 2008-04 -->
      <defs>
       <path d="M 19.1875 8.296875 
L 53.609375 8.296875 
L 53.609375 0 
L 7.328125 0 
L 7.328125 8.296875 
Q 12.9375 14.109375 22.625 23.890625 
Q 32.328125 33.6875 34.8125 36.53125 
Q 39.546875 41.84375 41.421875 45.53125 
Q 43.3125 49.21875 43.3125 52.78125 
Q 43.3125 58.59375 39.234375 62.25 
Q 35.15625 65.921875 28.609375 65.921875 
Q 23.96875 65.921875 18.8125 64.3125 
Q 13.671875 62.703125 7.8125 59.421875 
L 7.8125 69.390625 
Q 13.765625 71.78125 18.9375 73 
Q 24.125 74.21875 28.421875 74.21875 
Q 39.75 74.21875 46.484375 68.546875 
Q 53.21875 62.890625 53.21875 53.421875 
Q 53.21875 48.921875 51.53125 44.890625 
Q 49.859375 40.875 45.40625 35.40625 
Q 44.1875 33.984375 37.640625 27.21875 
Q 31.109375 20.453125 19.1875 8.296875 
z
" id="DejaVuSans-50"/>
       <path d="M 31.78125 66.40625 
Q 24.171875 66.40625 20.328125 58.90625 
Q 16.5 51.421875 16.5 36.375 
Q 16.5 21.390625 20.328125 13.890625 
Q 24.171875 6.390625 31.78125 6.390625 
Q 39.453125 6.390625 43.28125 13.890625 
Q 47.125 21.390625 47.125 36.375 
Q 47.125 51.421875 43.28125 58.90625 
Q 39.453125 66.40625 31.78125 66.40625 
z
M 31.78125 74.21875 
Q 44.046875 74.21875 50.515625 64.515625 
Q 56.984375 54.828125 56.984375 36.375 
Q 56.984375 17.96875 50.515625 8.265625 
Q 44.046875 -1.421875 31.78125 -1.421875 
Q 19.53125 -1.421875 13.0625 8.265625 
Q 6.59375 17.96875 6.59375 36.375 
Q 6.59375 54.828125 13.0625 64.515625 
Q 19.53125 74.21875 31.78125 74.21875 
z
" id="DejaVuSans-48"/>
       <path d="M 31.78125 34.625 
Q 24.75 34.625 20.71875 30.859375 
Q 16.703125 27.09375 16.703125 20.515625 
Q 16.703125 13.921875 20.71875 10.15625 
Q 24.75 6.390625 31.78125 6.390625 
Q 38.8125 6.390625 42.859375 10.171875 
Q 46.921875 13.96875 46.921875 20.515625 
Q 46.921875 27.09375 42.890625 30.859375 
Q 38.875 34.625 31.78125 34.625 
z
M 21.921875 38.8125 
Q 15.578125 40.375 12.03125 44.71875 
Q 8.5 49.078125 8.5 55.328125 
Q 8.5 64.0625 14.71875 69.140625 
Q 20.953125 74.21875 31.78125 74.21875 
Q 42.671875 74.21875 48.875 69.140625 
Q 55.078125 64.0625 55.078125 55.328125 
Q 55.078125 49.078125 51.53125 44.71875 
Q 48 40.375 41.703125 38.8125 
Q 48.828125 37.15625 52.796875 32.3125 
Q 56.78125 27.484375 56.78125 20.515625 
Q 56.78125 9.90625 50.3125 4.234375 
Q 43.84375 -1.421875 31.78125 -1.421875 
Q 19.734375 -1.421875 13.25 4.234375 
Q 6.78125 9.90625 6.78125 20.515625 
Q 6.78125 27.484375 10.78125 32.3125 
Q 14.796875 37.15625 21.921875 38.8125 
z
M 18.3125 54.390625 
Q 18.3125 48.734375 21.84375 45.5625 
Q 25.390625 42.390625 31.78125 42.390625 
Q 38.140625 42.390625 41.71875 45.5625 
Q 45.3125 48.734375 45.3125 54.390625 
Q 45.3125 60.0625 41.71875 63.234375 
Q 38.140625 66.40625 31.78125 66.40625 
Q 25.390625 66.40625 21.84375 63.234375 
Q 18.3125 60.0625 18.3125 54.390625 
z
" id="DejaVuSans-56"/>
       <path d="M 4.890625 31.390625 
L 31.203125 31.390625 
L 31.203125 23.390625 
L 4.890625 23.390625 
z
" id="DejaVuSans-45"/>
       <path d="M 37.796875 64.3125 
L 12.890625 25.390625 
L 37.796875 25.390625 
z
M 35.203125 72.90625 
L 47.609375 72.90625 
L 47.609375 25.390625 
L 58.015625 25.390625 
L 58.015625 17.1875 
L 47.609375 17.1875 
L 47.609375 0 
L 37.796875 0 
L 37.796875 17.1875 
L 4.890625 17.1875 
L 4.890625 26.703125 
z
" id="DejaVuSans-52"/>
      </defs>
      <g transform="translate(84.777147 613.720813)rotate(-30)scale(0.1 -0.1)">
       <use xlink:href="#DejaVuSans-50"/>
       <use x="63.623047" xlink:href="#DejaVuSans-48"/>
       <use x="127.246094" xlink:href="#DejaVuSans-48"/>
       <use x="190.869141" xlink:href="#DejaVuSans-56"/>
       <use x="254.492188" xlink:href="#DejaVuSans-45"/>
       <use x="290.576172" xlink:href="#DejaVuSans-48"/>
       <use x="354.199219" xlink:href="#DejaVuSans-52"/>
      </g>
     </g>
    </g>
    <g id="xtick_2">
     <g id="line2d_2">
      <g>
       <use style="stroke:#000000;stroke-width:0.8;" x="194.232047" xlink:href="#m109a37c76d" y="579.248967"/>
      </g>
     </g>
     <g id="text_2">
      <!-- 2008-07 -->
      <defs>
       <path d="M 8.203125 72.90625 
L 55.078125 72.90625 
L 55.078125 68.703125 
L 28.609375 0 
L 18.3125 0 
L 43.21875 64.59375 
L 8.203125 64.59375 
z
" id="DejaVuSans-55"/>
      </defs>
      <g transform="translate(157.007227 613.720813)rotate(-30)scale(0.1 -0.1)">
       <use xlink:href="#DejaVuSans-50"/>
       <use x="63.623047" xlink:href="#DejaVuSans-48"/>
       <use x="127.246094" xlink:href="#DejaVuSans-48"/>
       <use x="190.869141" xlink:href="#DejaVuSans-56"/>
       <use x="254.492188" xlink:href="#DejaVuSans-45"/>
       <use x="290.576172" xlink:href="#DejaVuSans-48"/>
       <use x="354.199219" xlink:href="#DejaVuSans-55"/>
      </g>
     </g>
    </g>
    <g id="xtick_3">
     <g id="line2d_3">
      <g>
       <use style="stroke:#000000;stroke-width:0.8;" x="267.255864" xlink:href="#m109a37c76d" y="579.248967"/>
      </g>
     </g>
     <g id="text_3">
      <!-- 2008-10 -->
      <defs>
       <path d="M 12.40625 8.296875 
L 28.515625 8.296875 
L 28.515625 63.921875 
L 10.984375 60.40625 
L 10.984375 69.390625 
L 28.421875 72.90625 
L 38.28125 72.90625 
L 38.28125 8.296875 
L 54.390625 8.296875 
L 54.390625 0 
L 12.40625 0 
z
" id="DejaVuSans-49"/>
      </defs>
      <g transform="translate(230.031043 613.720813)rotate(-30)scale(0.1 -0.1)">
       <use xlink:href="#DejaVuSans-50"/>
       <use x="63.623047" xlink:href="#DejaVuSans-48"/>
       <use x="127.246094" xlink:href="#DejaVuSans-48"/>
       <use x="190.869141" xlink:href="#DejaVuSans-56"/>
       <use x="254.492188" xlink:href="#DejaVuSans-45"/>
       <use x="290.576172" xlink:href="#DejaVuSans-49"/>
       <use x="354.199219" xlink:href="#DejaVuSans-48"/>
      </g>
     </g>
    </g>
    <g id="xtick_4">
     <g id="line2d_4">
      <g>
       <use style="stroke:#000000;stroke-width:0.8;" x="340.279681" xlink:href="#m109a37c76d" y="579.248967"/>
      </g>
     </g>
     <g id="text_4">
      <!-- 2009-01 -->
      <defs>
       <path d="M 10.984375 1.515625 
L 10.984375 10.5 
Q 14.703125 8.734375 18.5 7.8125 
Q 22.3125 6.890625 25.984375 6.890625 
Q 35.75 6.890625 40.890625 13.453125 
Q 46.046875 20.015625 46.78125 33.40625 
Q 43.953125 29.203125 39.59375 26.953125 
Q 35.25 24.703125 29.984375 24.703125 
Q 19.046875 24.703125 12.671875 31.3125 
Q 6.296875 37.9375 6.296875 49.421875 
Q 6.296875 60.640625 12.9375 67.421875 
Q 19.578125 74.21875 30.609375 74.21875 
Q 43.265625 74.21875 49.921875 64.515625 
Q 56.59375 54.828125 56.59375 36.375 
Q 56.59375 19.140625 48.40625 8.859375 
Q 40.234375 -1.421875 26.421875 -1.421875 
Q 22.703125 -1.421875 18.890625 -0.6875 
Q 15.09375 0.046875 10.984375 1.515625 
z
M 30.609375 32.421875 
Q 37.25 32.421875 41.125 36.953125 
Q 45.015625 41.5 45.015625 49.421875 
Q 45.015625 57.28125 41.125 61.84375 
Q 37.25 66.40625 30.609375 66.40625 
Q 23.96875 66.40625 20.09375 61.84375 
Q 16.21875 57.28125 16.21875 49.421875 
Q 16.21875 41.5 20.09375 36.953125 
Q 23.96875 32.421875 30.609375 32.421875 
z
" id="DejaVuSans-57"/>
      </defs>
      <g transform="translate(303.05486 613.720813)rotate(-30)scale(0.1 -0.1)">
       <use xlink:href="#DejaVuSans-50"/>
       <use x="63.623047" xlink:href="#DejaVuSans-48"/>
       <use x="127.246094" xlink:href="#DejaVuSans-48"/>
       <use x="190.869141" xlink:href="#DejaVuSans-57"/>
       <use x="254.492188" xlink:href="#DejaVuSans-45"/>
       <use x="290.576172" xlink:href="#DejaVuSans-48"/>
       <use x="354.199219" xlink:href="#DejaVuSans-49"/>
      </g>
     </g>
    </g>
    <g id="xtick_5">
     <g id="line2d_5">
      <g>
       <use style="stroke:#000000;stroke-width:0.8;" x="411.716024" xlink:href="#m109a37c76d" y="579.248967"/>
      </g>
     </g>
     <g id="text_5">
      <!-- 2009-04 -->
      <g transform="translate(374.491203 613.720813)rotate(-30)scale(0.1 -0.1)">
       <use xlink:href="#DejaVuSans-50"/>
       <use x="63.623047" xlink:href="#DejaVuSans-48"/>
       <use x="127.246094" xlink:href="#DejaVuSans-48"/>
       <use x="190.869141" xlink:href="#DejaVuSans-57"/>
       <use x="254.492188" xlink:href="#DejaVuSans-45"/>
       <use x="290.576172" xlink:href="#DejaVuSans-48"/>
       <use x="354.199219" xlink:href="#DejaVuSans-52"/>
      </g>
     </g>
    </g>
    <g id="xtick_6">
     <g id="line2d_6">
      <g>
       <use style="stroke:#000000;stroke-width:0.8;" x="483.946103" xlink:href="#m109a37c76d" y="579.248967"/>
      </g>
     </g>
     <g id="text_6">
      <!-- 2009-07 -->
      <g transform="translate(446.721283 613.720813)rotate(-30)scale(0.1 -0.1)">
       <use xlink:href="#DejaVuSans-50"/>
       <use x="63.623047" xlink:href="#DejaVuSans-48"/>
       <use x="127.246094" xlink:href="#DejaVuSans-48"/>
       <use x="190.869141" xlink:href="#DejaVuSans-57"/>
       <use x="254.492188" xlink:href="#DejaVuSans-45"/>
       <use x="290.576172" xlink:href="#DejaVuSans-48"/>
       <use x="354.199219" xlink:href="#DejaVuSans-55"/>
      </g>
     </g>
    </g>
    <g id="xtick_7">
     <g id="line2d_7">
      <g>
       <use style="stroke:#000000;stroke-width:0.8;" x="556.96992" xlink:href="#m109a37c76d" y="579.248967"/>
      </g>
     </g>
     <g id="text_7">
      <!-- 2009-10 -->
      <g transform="translate(519.745099 613.720813)rotate(-30)scale(0.1 -0.1)">
       <use xlink:href="#DejaVuSans-50"/>
       <use x="63.623047" xlink:href="#DejaVuSans-48"/>
       <use x="127.246094" xlink:href="#DejaVuSans-48"/>
       <use x="190.869141" xlink:href="#DejaVuSans-57"/>
       <use x="254.492188" xlink:href="#DejaVuSans-45"/>
       <use x="290.576172" xlink:href="#DejaVuSans-49"/>
       <use x="354.199219" xlink:href="#DejaVuSans-48"/>
      </g>
     </g>
    </g>
    <g id="text_8">
     <!-- Date -->
     <defs>
      <path d="M 19.671875 64.796875 
L 19.671875 8.109375 
L 31.59375 8.109375 
Q 46.6875 8.109375 53.6875 14.9375 
Q 60.6875 21.78125 60.6875 36.53125 
Q 60.6875 51.171875 53.6875 57.984375 
Q 46.6875 64.796875 31.59375 64.796875 
z
M 9.8125 72.90625 
L 30.078125 72.90625 
Q 51.265625 72.90625 61.171875 64.09375 
Q 71.09375 55.28125 71.09375 36.53125 
Q 71.09375 17.671875 61.125 8.828125 
Q 51.171875 0 30.078125 0 
L 9.8125 0 
z
" id="DejaVuSans-68"/>
      <path d="M 34.28125 27.484375 
Q 23.390625 27.484375 19.1875 25 
Q 14.984375 22.515625 14.984375 16.5 
Q 14.984375 11.71875 18.140625 8.90625 
Q 21.296875 6.109375 26.703125 6.109375 
Q 34.1875 6.109375 38.703125 11.40625 
Q 43.21875 16.703125 43.21875 25.484375 
L 43.21875 27.484375 
z
M 52.203125 31.203125 
L 52.203125 0 
L 43.21875 0 
L 43.21875 8.296875 
Q 40.140625 3.328125 35.546875 0.953125 
Q 30.953125 -1.421875 24.3125 -1.421875 
Q 15.921875 -1.421875 10.953125 3.296875 
Q 6 8.015625 6 15.921875 
Q 6 25.140625 12.171875 29.828125 
Q 18.359375 34.515625 30.609375 34.515625 
L 43.21875 34.515625 
L 43.21875 35.40625 
Q 43.21875 41.609375 39.140625 45 
Q 35.0625 48.390625 27.6875 48.390625 
Q 23 48.390625 18.546875 47.265625 
Q 14.109375 46.140625 10.015625 43.890625 
L 10.015625 52.203125 
Q 14.9375 54.109375 19.578125 55.046875 
Q 24.21875 56 28.609375 56 
Q 40.484375 56 46.34375 49.84375 
Q 52.203125 43.703125 52.203125 31.203125 
z
" id="DejaVuSans-97"/>
      <path d="M 18.3125 70.21875 
L 18.3125 54.6875 
L 36.8125 54.6875 
L 36.8125 47.703125 
L 18.3125 47.703125 
L 18.3125 18.015625 
Q 18.3125 11.328125 20.140625 9.421875 
Q 21.96875 7.515625 27.59375 7.515625 
L 36.8125 7.515625 
L 36.8125 0 
L 27.59375 0 
Q 17.1875 0 13.234375 3.875 
Q 9.28125 7.765625 9.28125 18.015625 
L 9.28125 47.703125 
L 2.6875 47.703125 
L 2.6875 54.6875 
L 9.28125 54.6875 
L 9.28125 70.21875 
z
" id="DejaVuSans-116"/>
      <path d="M 56.203125 29.59375 
L 56.203125 25.203125 
L 14.890625 25.203125 
Q 15.484375 15.921875 20.484375 11.0625 
Q 25.484375 6.203125 34.421875 6.203125 
Q 39.59375 6.203125 44.453125 7.46875 
Q 49.3125 8.734375 54.109375 11.28125 
L 54.109375 2.78125 
Q 49.265625 0.734375 44.1875 -0.34375 
Q 39.109375 -1.421875 33.890625 -1.421875 
Q 20.796875 -1.421875 13.15625 6.1875 
Q 5.515625 13.8125 5.515625 26.8125 
Q 5.515625 40.234375 12.765625 48.109375 
Q 20.015625 56 32.328125 56 
Q 43.359375 56 49.78125 48.890625 
Q 56.203125 41.796875 56.203125 29.59375 
z
M 47.21875 32.234375 
Q 47.125 39.59375 43.09375 43.984375 
Q 39.0625 48.390625 32.421875 48.390625 
Q 24.90625 48.390625 20.390625 44.140625 
Q 15.875 39.890625 15.1875 32.171875 
z
" id="DejaVuSans-101"/>
     </defs>
     <g transform="translate(327.932031 627.120312)scale(0.1 -0.1)">
      <use xlink:href="#DejaVuSans-68"/>
      <use x="77.001953" xlink:href="#DejaVuSans-97"/>
      <use x="138.28125" xlink:href="#DejaVuSans-116"/>
      <use x="177.490234" xlink:href="#DejaVuSans-101"/>
     </g>
    </g>
   </g>
   <g id="matplotlib.axis_2">
    <g id="ytick_1">
     <g id="line2d_8">
      <defs>
       <path d="M 0 0 
L -3.5 0 
" id="ma15f7de0fe" style="stroke:#000000;stroke-width:0.8;"/>
      </defs>
      <g>
       <use style="stroke:#000000;stroke-width:0.8;" x="50.565625" xlink:href="#ma15f7de0fe" y="569.935579"/>
      </g>
     </g>
     <g id="text_9">
      <!-- 0 -->
      <g transform="translate(37.203125 573.734798)scale(0.1 -0.1)">
       <use xlink:href="#DejaVuSans-48"/>
      </g>
     </g>
    </g>
    <g id="ytick_2">
     <g id="line2d_9">
      <g>
       <use style="stroke:#000000;stroke-width:0.8;" x="50.565625" xlink:href="#ma15f7de0fe" y="480.1247"/>
      </g>
     </g>
     <g id="text_10">
      <!-- 50 -->
      <defs>
       <path d="M 10.796875 72.90625 
L 49.515625 72.90625 
L 49.515625 64.59375 
L 19.828125 64.59375 
L 19.828125 46.734375 
Q 21.96875 47.46875 24.109375 47.828125 
Q 26.265625 48.1875 28.421875 48.1875 
Q 40.625 48.1875 47.75 41.5 
Q 54.890625 34.8125 54.890625 23.390625 
Q 54.890625 11.625 47.5625 5.09375 
Q 40.234375 -1.421875 26.90625 -1.421875 
Q 22.3125 -1.421875 17.546875 -0.640625 
Q 12.796875 0.140625 7.71875 1.703125 
L 7.71875 11.625 
Q 12.109375 9.234375 16.796875 8.0625 
Q 21.484375 6.890625 26.703125 6.890625 
Q 35.15625 6.890625 40.078125 11.328125 
Q 45.015625 15.765625 45.015625 23.390625 
Q 45.015625 31 40.078125 35.4375 
Q 35.15625 39.890625 26.703125 39.890625 
Q 22.75 39.890625 18.8125 39.015625 
Q 14.890625 38.140625 10.796875 36.28125 
z
" id="DejaVuSans-53"/>
      </defs>
      <g transform="translate(30.840625 483.923919)scale(0.1 -0.1)">
       <use xlink:href="#DejaVuSans-53"/>
       <use x="63.623047" xlink:href="#DejaVuSans-48"/>
      </g>
     </g>
    </g>
    <g id="ytick_3">
     <g id="line2d_10">
      <g>
       <use style="stroke:#000000;stroke-width:0.8;" x="50.565625" xlink:href="#ma15f7de0fe" y="390.313821"/>
      </g>
     </g>
     <g id="text_11">
      <!-- 100 -->
      <g transform="translate(24.478125 394.113039)scale(0.1 -0.1)">
       <use xlink:href="#DejaVuSans-49"/>
       <use x="63.623047" xlink:href="#DejaVuSans-48"/>
       <use x="127.246094" xlink:href="#DejaVuSans-48"/>
      </g>
     </g>
    </g>
    <g id="ytick_4">
     <g id="line2d_11">
      <g>
       <use style="stroke:#000000;stroke-width:0.8;" x="50.565625" xlink:href="#ma15f7de0fe" y="300.502942"/>
      </g>
     </g>
     <g id="text_12">
      <!-- 150 -->
      <g transform="translate(24.478125 304.30216)scale(0.1 -0.1)">
       <use xlink:href="#DejaVuSans-49"/>
       <use x="63.623047" xlink:href="#DejaVuSans-53"/>
       <use x="127.246094" xlink:href="#DejaVuSans-48"/>
      </g>
     </g>
    </g>
    <g id="ytick_5">
     <g id="line2d_12">
      <g>
       <use style="stroke:#000000;stroke-width:0.8;" x="50.565625" xlink:href="#ma15f7de0fe" y="210.692062"/>
      </g>
     </g>
     <g id="text_13">
      <!-- 200 -->
      <g transform="translate(24.478125 214.491281)scale(0.1 -0.1)">
       <use xlink:href="#DejaVuSans-50"/>
       <use x="63.623047" xlink:href="#DejaVuSans-48"/>
       <use x="127.246094" xlink:href="#DejaVuSans-48"/>
      </g>
     </g>
    </g>
    <g id="ytick_6">
     <g id="line2d_13">
      <g>
       <use style="stroke:#000000;stroke-width:0.8;" x="50.565625" xlink:href="#ma15f7de0fe" y="120.881183"/>
      </g>
     </g>
     <g id="text_14">
      <!-- 250 -->
      <g transform="translate(24.478125 124.680402)scale(0.1 -0.1)">
       <use xlink:href="#DejaVuSans-50"/>
       <use x="63.623047" xlink:href="#DejaVuSans-53"/>
       <use x="127.246094" xlink:href="#DejaVuSans-48"/>
      </g>
     </g>
    </g>
    <g id="ytick_7">
     <g id="line2d_14">
      <g>
       <use style="stroke:#000000;stroke-width:0.8;" x="50.565625" xlink:href="#ma15f7de0fe" y="31.070304"/>
      </g>
     </g>
     <g id="text_15">
      <!-- 300 -->
      <defs>
       <path d="M 40.578125 39.3125 
Q 47.65625 37.796875 51.625 33 
Q 55.609375 28.21875 55.609375 21.1875 
Q 55.609375 10.40625 48.1875 4.484375 
Q 40.765625 -1.421875 27.09375 -1.421875 
Q 22.515625 -1.421875 17.65625 -0.515625 
Q 12.796875 0.390625 7.625 2.203125 
L 7.625 11.71875 
Q 11.71875 9.328125 16.59375 8.109375 
Q 21.484375 6.890625 26.8125 6.890625 
Q 36.078125 6.890625 40.9375 10.546875 
Q 45.796875 14.203125 45.796875 21.1875 
Q 45.796875 27.640625 41.28125 31.265625 
Q 36.765625 34.90625 28.71875 34.90625 
L 20.21875 34.90625 
L 20.21875 43.015625 
L 29.109375 43.015625 
Q 36.375 43.015625 40.234375 45.921875 
Q 44.09375 48.828125 44.09375 54.296875 
Q 44.09375 59.90625 40.109375 62.90625 
Q 36.140625 65.921875 28.71875 65.921875 
Q 24.65625 65.921875 20.015625 65.03125 
Q 15.375 64.15625 9.8125 62.3125 
L 9.8125 71.09375 
Q 15.4375 72.65625 20.34375 73.4375 
Q 25.25 74.21875 29.59375 74.21875 
Q 40.828125 74.21875 47.359375 69.109375 
Q 53.90625 64.015625 53.90625 55.328125 
Q 53.90625 49.265625 50.4375 45.09375 
Q 46.96875 40.921875 40.578125 39.3125 
z
" id="DejaVuSans-51"/>
      </defs>
      <g transform="translate(24.478125 34.869523)scale(0.1 -0.1)">
       <use xlink:href="#DejaVuSans-51"/>
       <use x="63.623047" xlink:href="#DejaVuSans-48"/>
       <use x="127.246094" xlink:href="#DejaVuSans-48"/>
      </g>
     </g>
    </g>
    <g id="text_16">
     <!-- Closing Prices, USD -->
     <defs>
      <path d="M 64.40625 67.28125 
L 64.40625 56.890625 
Q 59.421875 61.53125 53.78125 63.8125 
Q 48.140625 66.109375 41.796875 66.109375 
Q 29.296875 66.109375 22.65625 58.46875 
Q 16.015625 50.828125 16.015625 36.375 
Q 16.015625 21.96875 22.65625 14.328125 
Q 29.296875 6.6875 41.796875 6.6875 
Q 48.140625 6.6875 53.78125 8.984375 
Q 59.421875 11.28125 64.40625 15.921875 
L 64.40625 5.609375 
Q 59.234375 2.09375 53.4375 0.328125 
Q 47.65625 -1.421875 41.21875 -1.421875 
Q 24.65625 -1.421875 15.125 8.703125 
Q 5.609375 18.84375 5.609375 36.375 
Q 5.609375 53.953125 15.125 64.078125 
Q 24.65625 74.21875 41.21875 74.21875 
Q 47.75 74.21875 53.53125 72.484375 
Q 59.328125 70.75 64.40625 67.28125 
z
" id="DejaVuSans-67"/>
      <path d="M 9.421875 75.984375 
L 18.40625 75.984375 
L 18.40625 0 
L 9.421875 0 
z
" id="DejaVuSans-108"/>
      <path d="M 30.609375 48.390625 
Q 23.390625 48.390625 19.1875 42.75 
Q 14.984375 37.109375 14.984375 27.296875 
Q 14.984375 17.484375 19.15625 11.84375 
Q 23.34375 6.203125 30.609375 6.203125 
Q 37.796875 6.203125 41.984375 11.859375 
Q 46.1875 17.53125 46.1875 27.296875 
Q 46.1875 37.015625 41.984375 42.703125 
Q 37.796875 48.390625 30.609375 48.390625 
z
M 30.609375 56 
Q 42.328125 56 49.015625 48.375 
Q 55.71875 40.765625 55.71875 27.296875 
Q 55.71875 13.875 49.015625 6.21875 
Q 42.328125 -1.421875 30.609375 -1.421875 
Q 18.84375 -1.421875 12.171875 6.21875 
Q 5.515625 13.875 5.515625 27.296875 
Q 5.515625 40.765625 12.171875 48.375 
Q 18.84375 56 30.609375 56 
z
" id="DejaVuSans-111"/>
      <path d="M 44.28125 53.078125 
L 44.28125 44.578125 
Q 40.484375 46.53125 36.375 47.5 
Q 32.28125 48.484375 27.875 48.484375 
Q 21.1875 48.484375 17.84375 46.4375 
Q 14.5 44.390625 14.5 40.28125 
Q 14.5 37.15625 16.890625 35.375 
Q 19.28125 33.59375 26.515625 31.984375 
L 29.59375 31.296875 
Q 39.15625 29.25 43.1875 25.515625 
Q 47.21875 21.78125 47.21875 15.09375 
Q 47.21875 7.46875 41.1875 3.015625 
Q 35.15625 -1.421875 24.609375 -1.421875 
Q 20.21875 -1.421875 15.453125 -0.5625 
Q 10.6875 0.296875 5.421875 2 
L 5.421875 11.28125 
Q 10.40625 8.6875 15.234375 7.390625 
Q 20.0625 6.109375 24.8125 6.109375 
Q 31.15625 6.109375 34.5625 8.28125 
Q 37.984375 10.453125 37.984375 14.40625 
Q 37.984375 18.0625 35.515625 20.015625 
Q 33.0625 21.96875 24.703125 23.78125 
L 21.578125 24.515625 
Q 13.234375 26.265625 9.515625 29.90625 
Q 5.8125 33.546875 5.8125 39.890625 
Q 5.8125 47.609375 11.28125 51.796875 
Q 16.75 56 26.8125 56 
Q 31.78125 56 36.171875 55.265625 
Q 40.578125 54.546875 44.28125 53.078125 
z
" id="DejaVuSans-115"/>
      <path d="M 9.421875 54.6875 
L 18.40625 54.6875 
L 18.40625 0 
L 9.421875 0 
z
M 9.421875 75.984375 
L 18.40625 75.984375 
L 18.40625 64.59375 
L 9.421875 64.59375 
z
" id="DejaVuSans-105"/>
      <path d="M 54.890625 33.015625 
L 54.890625 0 
L 45.90625 0 
L 45.90625 32.71875 
Q 45.90625 40.484375 42.875 44.328125 
Q 39.84375 48.1875 33.796875 48.1875 
Q 26.515625 48.1875 22.3125 43.546875 
Q 18.109375 38.921875 18.109375 30.90625 
L 18.109375 0 
L 9.078125 0 
L 9.078125 54.6875 
L 18.109375 54.6875 
L 18.109375 46.1875 
Q 21.34375 51.125 25.703125 53.5625 
Q 30.078125 56 35.796875 56 
Q 45.21875 56 50.046875 50.171875 
Q 54.890625 44.34375 54.890625 33.015625 
z
" id="DejaVuSans-110"/>
      <path d="M 45.40625 27.984375 
Q 45.40625 37.75 41.375 43.109375 
Q 37.359375 48.484375 30.078125 48.484375 
Q 22.859375 48.484375 18.828125 43.109375 
Q 14.796875 37.75 14.796875 27.984375 
Q 14.796875 18.265625 18.828125 12.890625 
Q 22.859375 7.515625 30.078125 7.515625 
Q 37.359375 7.515625 41.375 12.890625 
Q 45.40625 18.265625 45.40625 27.984375 
z
M 54.390625 6.78125 
Q 54.390625 -7.171875 48.1875 -13.984375 
Q 42 -20.796875 29.203125 -20.796875 
Q 24.46875 -20.796875 20.265625 -20.09375 
Q 16.0625 -19.390625 12.109375 -17.921875 
L 12.109375 -9.1875 
Q 16.0625 -11.328125 19.921875 -12.34375 
Q 23.78125 -13.375 27.78125 -13.375 
Q 36.625 -13.375 41.015625 -8.765625 
Q 45.40625 -4.15625 45.40625 5.171875 
L 45.40625 9.625 
Q 42.625 4.78125 38.28125 2.390625 
Q 33.9375 0 27.875 0 
Q 17.828125 0 11.671875 7.65625 
Q 5.515625 15.328125 5.515625 27.984375 
Q 5.515625 40.671875 11.671875 48.328125 
Q 17.828125 56 27.875 56 
Q 33.9375 56 38.28125 53.609375 
Q 42.625 51.21875 45.40625 46.390625 
L 45.40625 54.6875 
L 54.390625 54.6875 
z
" id="DejaVuSans-103"/>
      <path id="DejaVuSans-32"/>
      <path d="M 19.671875 64.796875 
L 19.671875 37.40625 
L 32.078125 37.40625 
Q 38.96875 37.40625 42.71875 40.96875 
Q 46.484375 44.53125 46.484375 51.125 
Q 46.484375 57.671875 42.71875 61.234375 
Q 38.96875 64.796875 32.078125 64.796875 
z
M 9.8125 72.90625 
L 32.078125 72.90625 
Q 44.34375 72.90625 50.609375 67.359375 
Q 56.890625 61.8125 56.890625 51.125 
Q 56.890625 40.328125 50.609375 34.8125 
Q 44.34375 29.296875 32.078125 29.296875 
L 19.671875 29.296875 
L 19.671875 0 
L 9.8125 0 
z
" id="DejaVuSans-80"/>
      <path d="M 41.109375 46.296875 
Q 39.59375 47.171875 37.8125 47.578125 
Q 36.03125 48 33.890625 48 
Q 26.265625 48 22.1875 43.046875 
Q 18.109375 38.09375 18.109375 28.8125 
L 18.109375 0 
L 9.078125 0 
L 9.078125 54.6875 
L 18.109375 54.6875 
L 18.109375 46.1875 
Q 20.953125 51.171875 25.484375 53.578125 
Q 30.03125 56 36.53125 56 
Q 37.453125 56 38.578125 55.875 
Q 39.703125 55.765625 41.0625 55.515625 
z
" id="DejaVuSans-114"/>
      <path d="M 48.78125 52.59375 
L 48.78125 44.1875 
Q 44.96875 46.296875 41.140625 47.34375 
Q 37.3125 48.390625 33.40625 48.390625 
Q 24.65625 48.390625 19.8125 42.84375 
Q 14.984375 37.3125 14.984375 27.296875 
Q 14.984375 17.28125 19.8125 11.734375 
Q 24.65625 6.203125 33.40625 6.203125 
Q 37.3125 6.203125 41.140625 7.25 
Q 44.96875 8.296875 48.78125 10.40625 
L 48.78125 2.09375 
Q 45.015625 0.34375 40.984375 -0.53125 
Q 36.96875 -1.421875 32.421875 -1.421875 
Q 20.0625 -1.421875 12.78125 6.34375 
Q 5.515625 14.109375 5.515625 27.296875 
Q 5.515625 40.671875 12.859375 48.328125 
Q 20.21875 56 33.015625 56 
Q 37.15625 56 41.109375 55.140625 
Q 45.0625 54.296875 48.78125 52.59375 
z
" id="DejaVuSans-99"/>
      <path d="M 11.71875 12.40625 
L 22.015625 12.40625 
L 22.015625 4 
L 14.015625 -11.625 
L 7.71875 -11.625 
L 11.71875 4 
z
" id="DejaVuSans-44"/>
      <path d="M 8.6875 72.90625 
L 18.609375 72.90625 
L 18.609375 28.609375 
Q 18.609375 16.890625 22.84375 11.734375 
Q 27.09375 6.59375 36.625 6.59375 
Q 46.09375 6.59375 50.34375 11.734375 
Q 54.59375 16.890625 54.59375 28.609375 
L 54.59375 72.90625 
L 64.5 72.90625 
L 64.5 27.390625 
Q 64.5 13.140625 57.4375 5.859375 
Q 50.390625 -1.421875 36.625 -1.421875 
Q 22.796875 -1.421875 15.734375 5.859375 
Q 8.6875 13.140625 8.6875 27.390625 
z
" id="DejaVuSans-85"/>
      <path d="M 53.515625 70.515625 
L 53.515625 60.890625 
Q 47.90625 63.578125 42.921875 64.890625 
Q 37.9375 66.21875 33.296875 66.21875 
Q 25.25 66.21875 20.875 63.09375 
Q 16.5 59.96875 16.5 54.203125 
Q 16.5 49.359375 19.40625 46.890625 
Q 22.3125 44.4375 30.421875 42.921875 
L 36.375 41.703125 
Q 47.40625 39.59375 52.65625 34.296875 
Q 57.90625 29 57.90625 20.125 
Q 57.90625 9.515625 50.796875 4.046875 
Q 43.703125 -1.421875 29.984375 -1.421875 
Q 24.8125 -1.421875 18.96875 -0.25 
Q 13.140625 0.921875 6.890625 3.21875 
L 6.890625 13.375 
Q 12.890625 10.015625 18.65625 8.296875 
Q 24.421875 6.59375 29.984375 6.59375 
Q 38.421875 6.59375 43.015625 9.90625 
Q 47.609375 13.234375 47.609375 19.390625 
Q 47.609375 24.75 44.3125 27.78125 
Q 41.015625 30.8125 33.5 32.328125 
L 27.484375 33.5 
Q 16.453125 35.6875 11.515625 40.375 
Q 6.59375 45.0625 6.59375 53.421875 
Q 6.59375 63.09375 13.40625 68.65625 
Q 20.21875 74.21875 32.171875 74.21875 
Q 37.3125 74.21875 42.625 73.28125 
Q 47.953125 72.359375 53.515625 70.515625 
z
" id="DejaVuSans-83"/>
     </defs>
     <g transform="translate(18.398438 343.64089)rotate(-90)scale(0.1 -0.1)">
      <use xlink:href="#DejaVuSans-67"/>
      <use x="69.824219" xlink:href="#DejaVuSans-108"/>
      <use x="97.607422" xlink:href="#DejaVuSans-111"/>
      <use x="158.789062" xlink:href="#DejaVuSans-115"/>
      <use x="210.888672" xlink:href="#DejaVuSans-105"/>
      <use x="238.671875" xlink:href="#DejaVuSans-110"/>
      <use x="302.050781" xlink:href="#DejaVuSans-103"/>
      <use x="365.527344" xlink:href="#DejaVuSans-32"/>
      <use x="397.314453" xlink:href="#DejaVuSans-80"/>
      <use x="457.601562" xlink:href="#DejaVuSans-114"/>
      <use x="498.714844" xlink:href="#DejaVuSans-105"/>
      <use x="526.498047" xlink:href="#DejaVuSans-99"/>
      <use x="581.478516" xlink:href="#DejaVuSans-101"/>
      <use x="643.001953" xlink:href="#DejaVuSans-115"/>
      <use x="695.101562" xlink:href="#DejaVuSans-44"/>
      <use x="726.888672" xlink:href="#DejaVuSans-32"/>
      <use x="758.675781" xlink:href="#DejaVuSans-85"/>
      <use x="831.869141" xlink:href="#DejaVuSans-83"/>
      <use x="895.345703" xlink:href="#DejaVuSans-68"/>
     </g>
    </g>
   </g>
   <g id="line2d_15">
    <path clip-path="url(#pce311e24c8)" d="M 50.565625 50.469432 
L 51.359362 50.289854 
L 52.153099 62.683744 
L 54.534311 62.324479 
L 55.328048 82.442138 
L 56.121785 76.155376 
L 56.915522 65.018806 
L 57.709259 56.935827 
L 60.090471 47.954739 
L 60.884208 86.034573 
L 61.677945 98.608096 
L 62.471682 121.59966 
L 63.265419 130.76038 
L 66.440368 131.658489 
L 67.234105 96.452613 
L 68.027842 79.029335 
L 68.821579 91.423226 
L 71.202791 73.281417 
L 71.996528 68.611241 
L 72.790265 69.150138 
L 73.584002 63.941064 
L 74.377739 36.638589 
L 76.758951 45.08078 
L 77.552688 84.058723 
L 78.346425 86.393784 
L 79.140162 90.345484 
L 79.933899 102.380164 
L 82.315111 106.33181 
L 83.108848 99.14694 
L 83.902585 96.811878 
L 84.696322 107.589184 
L 85.490059 112.259333 
L 88.665008 115.133292 
L 89.458745 112.079728 
L 90.252482 119.983074 
L 91.046219 118.725728 
L 93.427431 125.55136 
L 94.221168 121.779292 
L 95.014905 107.948395 
L 95.808642 120.701551 
L 96.602379 144.052379 
L 98.983591 155.18895 
L 99.777328 172.971493 
L 100.571065 172.073384 
L 101.364802 189.676322 
L 102.158539 194.346472 
L 104.539751 216.260348 
L 105.333488 183.928431 
L 106.127225 188.957819 
L 106.920962 191.47254 
L 107.714699 214.643736 
L 110.09591 235.47987 
L 110.889648 197.938907 
L 111.683385 203.32756 
L 112.477122 165.786623 
L 115.65207 151.955753 
L 116.445808 149.261426 
L 117.239545 173.869602 
L 118.033282 178.539778 
L 118.827019 195.783451 
L 121.20823 185.185778 
L 122.001968 141.717318 
L 122.795705 138.484121 
L 123.589442 132.376965 
L 124.383179 137.40638 
L 126.76439 128.066054 
L 127.558128 143.154271 
L 128.351865 146.387468 
L 129.145602 144.052379 
L 129.939339 150.339141 
L 132.32055 165.60699 
L 133.114288 160.39797 
L 134.701762 138.304488 
L 135.495499 118.905333 
L 137.87671 120.342313 
L 138.670448 118.725728 
L 139.464185 127.527183 
L 140.257922 107.229919 
L 141.051659 92.141702 
L 143.43287 88.369634 
L 144.226608 97.17109 
L 145.020345 116.031401 
L 145.814082 103.09864 
L 146.607819 95.91377 
L 148.98903 107.409551 
L 149.782767 105.254069 
L 150.576505 130.221509 
L 151.370242 133.454706 
L 152.163979 145.489359 
L 154.54519 145.309753 
L 155.338927 156.266664 
L 156.132665 152.314991 
L 156.926402 143.693141 
L 157.720139 154.650079 
L 160.10135 156.985167 
L 160.895087 172.791861 
L 161.688825 191.652145 
L 162.482562 179.797125 
L 163.276299 190.574431 
L 166.451247 180.87484 
L 167.244985 181.952581 
L 168.038722 174.049234 
L 171.21367 184.467275 
L 172.007407 185.185778 
L 172.801145 191.292907 
L 173.594882 188.778213 
L 174.388619 209.614321 
L 176.76983 217.876933 
L 177.563567 206.021886 
L 178.357305 224.882171 
L 179.944779 202.070213 
L 182.32599 195.783451 
L 183.119727 202.429451 
L 183.913465 203.507192 
L 184.707202 207.638498 
L 185.500939 223.265585 
L 187.88215 236.737217 
L 188.675887 231.348565 
L 189.469624 231.348565 
L 190.263362 252.543937 
L 191.057099 260.088046 
L 193.43831 268.889501 
L 194.232047 262.243502 
L 195.025784 267.452549 
L 195.819522 267.811787 
L 198.99447 275.355895 
L 199.788207 257.573352 
L 200.581944 274.637419 
L 201.375682 277.511351 
L 202.169419 279.127963 
L 204.55063 296.551268 
L 205.344367 308.406288 
L 206.138104 274.098548 
L 207.725579 222.367477 
L 210.10679 216.260348 
L 210.900527 194.705737 
L 211.694264 190.574431 
L 212.488002 227.576497 
L 213.281739 231.348565 
L 215.66295 256.854849 
L 216.456687 238.533435 
L 217.250424 232.067041 
L 218.044162 234.222524 
L 218.837899 230.989326 
L 221.21911 231.707803 
L 222.012847 212.129042 
L 222.806584 216.080715 
L 223.600322 238.174197 
L 224.394059 221.649 
L 226.77527 213.925259 
L 227.569007 236.91685 
L 228.362744 250.029217 
L 229.156481 245.179435 
L 229.950219 236.737217 
L 232.33143 253.442046 
L 233.125167 261.165787 
L 233.918904 255.777135 
L 234.712641 256.136373 
L 235.506379 244.10172 
L 237.88759 253.621652 
L 238.681327 249.490373 
L 239.475064 244.460958 
L 240.268801 227.217259 
L 241.062539 228.833871 
L 244.237487 226.678388 
L 245.031224 217.6973 
L 245.824961 241.227761 
L 246.618699 227.396891 
L 248.99991 204.944172 
L 249.793647 230.809694 
L 250.587384 234.402129 
L 251.381121 235.659476 
L 252.174859 247.33489 
L 254.55607 296.19203 
L 255.349807 287.03131 
L 256.143544 317.926247 
L 256.937281 270.865351 
L 257.731019 199.016648 
L 260.11223 210.51243 
L 260.905967 210.871695 
L 261.699704 229.372714 
L 262.493441 221.289735 
L 263.287178 207.997736 
L 265.66839 251.106958 
L 267.255864 156.805535 
L 268.049601 165.786623 
L 268.843338 240.329653 
L 271.22455 257.214087 
L 272.018287 297.808615 
L 272.812024 311.280247 
L 273.605761 337.68464 
L 274.399498 316.489267 
L 276.78071 287.03131 
L 277.574447 235.47987 
L 278.368184 278.40946 
L 279.161921 284.336983 
L 279.955658 302.658397 
L 282.33687 298.886357 
L 283.924344 330.679402 
L 284.718081 334.451443 
L 285.511818 351.874761 
L 287.89303 359.239251 
L 288.686767 329.06279 
L 289.480504 338.043878 
L 290.274241 334.451443 
L 291.067978 324.751879 
L 293.44919 318.64475 
L 294.242927 306.250832 
L 295.036664 343.073293 
L 295.830401 363.011319 
L 296.624138 357.622666 
L 299.00535 368.579592 
L 299.799087 375.94408 
L 300.592824 396.7802 
L 301.386561 400.193017 
L 302.180298 398.93567 
L 304.56151 410.251832 
L 305.355247 419.771793 
L 306.942721 485.333734 
L 307.736458 502.218174 
L 310.11767 463.060633 
L 310.911407 460.725552 
L 311.705144 443.302239 
L 313.292618 421.029138 
L 315.67383 454.079545 
L 316.467567 440.248675 
L 317.261304 429.471369 
L 318.055041 437.015478 
L 318.848778 431.447207 
L 321.22999 417.795955 
L 322.023727 416.538594 
L 322.817464 420.84952 
L 323.611201 433.961913 
L 324.404938 431.626825 
L 326.78615 437.015478 
L 327.579887 422.106867 
L 329.961098 443.84111 
L 332.34231 448.690892 
L 333.136047 452.822198 
L 333.929784 448.152021 
L 335.517258 449.05013 
L 337.89847 451.924089 
L 338.692207 447.792783 
L 339.485944 449.409383 
L 341.073418 441.68564 
L 343.45463 442.763369 
L 344.248367 435.937751 
L 345.042104 441.506022 
L 345.835841 441.326404 
L 346.629578 448.690892 
L 349.01079 469.347394 
L 349.804527 463.958742 
L 350.598264 488.566924 
L 351.392001 501.140447 
L 352.185738 507.067964 
L 355.360687 519.641487 
L 356.154424 504.014392 
L 356.948161 514.073212 
L 357.741898 507.606827 
L 360.12311 510.121535 
L 360.916847 506.169855 
L 361.710584 494.314822 
L 363.298058 506.169855 
L 365.67927 504.373637 
L 366.473007 507.786454 
L 367.266744 507.247582 
L 368.060481 506.5291 
L 368.854218 499.703475 
L 371.23543 498.984984 
L 372.029167 509.76229 
L 372.822904 503.655147 
L 373.616641 505.092128 
L 374.410378 507.247582 
L 377.585327 514.971321 
L 378.379064 517.665647 
L 379.172801 524.850518 
L 379.966538 534.909336 
L 382.347749 531.496523 
L 383.141487 523.233922 
L 383.935224 524.670894 
L 384.728961 525.748626 
L 385.522698 542.992315 
L 387.903909 548.380968 
L 388.697647 548.021724 
L 389.491384 549.63832 
L 390.285121 551.61416 
L 391.078858 551.434538 
L 393.460069 551.075294 
L 394.253807 543.890424 
L 395.047544 542.273828 
L 395.841281 539.938744 
L 396.635018 537.962908 
L 399.809967 524.850518 
L 400.603704 514.612079 
L 401.397441 523.233922 
L 402.191178 522.874677 
L 404.572389 513.71397 
L 405.366127 515.86943 
L 406.159864 516.94716 
L 406.953601 519.461865 
L 407.747338 522.874677 
L 410.128549 528.442953 
L 410.922287 524.491276 
L 411.716024 521.79695 
L 412.509761 520.719217 
L 413.303498 518.743378 
L 415.684709 521.078459 
L 416.478447 520.359974 
L 417.272184 521.437704 
L 418.065921 515.330564 
L 422.034606 497.907258 
L 422.828344 498.625739 
L 423.622081 497.907258 
L 424.415818 504.373637 
L 426.797029 517.126782 
L 427.590766 511.738126 
L 428.384504 511.558508 
L 429.178241 512.456616 
L 429.971978 512.636238 
L 432.353189 514.791697 
L 433.146926 518.024891 
L 433.940664 513.893589 
L 435.528138 516.587915 
L 437.909349 512.456616 
L 438.703086 510.480781 
L 439.496824 500.601584 
L 440.290561 501.499693 
L 441.084298 497.72763 
L 443.465509 500.601584 
L 444.259246 504.194019 
L 445.052984 508.684563 
L 445.846721 506.169855 
L 446.640458 507.427209 
L 449.021669 504.553255 
L 449.815406 502.218174 
L 450.609144 503.655147 
L 451.402881 503.116283 
L 452.196618 504.014392 
L 455.371566 502.218174 
L 456.165303 503.475528 
L 456.959041 504.014392 
L 457.752778 503.116283 
L 460.133989 503.655147 
L 460.927726 506.888345 
L 461.721463 509.043799 
L 462.515201 505.81061 
L 463.308938 507.786454 
L 466.483886 508.684563 
L 467.277623 507.427209 
L 468.071361 507.427209 
L 468.865098 507.606827 
L 471.246309 509.403045 
L 472.040046 511.558508 
L 472.833783 514.612079 
L 473.627521 513.71397 
L 474.421258 512.99548 
L 476.802469 516.049052 
L 477.596206 515.86943 
L 478.389943 515.330564 
L 479.183681 515.510188 
L 479.977418 515.510188 
L 482.358629 515.689806 
L 483.152366 516.587915 
L 483.946103 516.587915 
L 484.739841 518.204514 
L 487.914789 519.821108 
L 488.708526 521.617326 
L 489.502263 522.874677 
L 490.296001 521.617326 
L 491.089738 523.413544 
L 493.470949 520.000732 
L 494.264686 517.486024 
L 495.058423 512.99548 
L 495.85216 515.510188 
L 496.645898 515.689806 
L 499.027109 519.821108 
L 499.820846 522.335813 
L 500.614583 519.641487 
L 501.40832 520.18035 
L 502.202058 520.898841 
L 504.583269 521.617326 
L 506.170743 512.097371 
L 506.96448 513.534347 
L 507.758218 512.99548 
L 510.139429 512.815862 
L 510.933166 511.558508 
L 511.726903 505.630991 
L 512.52064 501.679311 
L 513.314378 500.781202 
L 515.695589 499.164603 
L 516.489326 503.655147 
L 517.283063 498.446121 
L 518.0768 497.009149 
L 518.870538 497.368385 
L 521.251749 498.086876 
L 522.045486 495.572167 
L 522.839223 495.751795 
L 523.63296 489.465033 
L 524.426698 485.513353 
L 526.807909 483.35789 
L 527.601646 484.615244 
L 528.395383 486.770707 
L 529.18912 479.226591 
L 529.982858 475.993401 
L 532.364069 480.1247 
L 533.157806 488.387297 
L 533.951543 488.028061 
L 534.74528 484.255999 
L 535.539017 482.819026 
L 538.713966 485.872598 
L 539.507703 486.231843 
L 540.30144 484.615244 
L 541.095177 487.129952 
L 543.476389 488.746542 
L 544.270126 495.931413 
L 545.063863 494.494441 
L 545.8576 490.54276 
L 546.651337 493.416714 
L 549.032549 490.363142 
L 549.826286 486.411461 
L 550.620023 488.746542 
L 551.41376 490.363142 
L 552.207497 491.261251 
L 554.588709 487.848434 
L 556.176183 482.998644 
L 556.96992 488.566924 
L 557.763657 488.746542 
L 560.144869 486.052216 
L 560.938606 486.052216 
L 561.732343 486.59108 
L 562.52608 486.411461 
L 563.319817 486.770707 
L 565.701029 484.255999 
L 566.494766 483.178272 
L 567.288503 480.1247 
L 568.08224 484.615244 
L 568.875977 487.489188 
L 571.257189 488.387297 
L 572.050926 490.363142 
L 572.844663 490.54276 
L 573.6384 489.824278 
L 574.432137 489.824278 
L 576.813349 493.237086 
L 577.607086 493.237086 
L 578.400823 496.649903 
L 579.19456 492.518605 
L 579.988297 496.470276 
L 582.369509 498.266494 
L 583.163246 497.368385 
L 583.956983 498.625739 
L 584.75072 497.009149 
L 585.544457 497.009149 
L 587.925669 494.674059 
L 588.719406 494.853686 
L 589.513143 495.212931 
L 590.30688 497.009149 
L 591.100617 497.188767 
L 593.481829 494.853686 
L 595.069303 492.877841 
L 595.86304 493.416714 
L 596.656777 494.494441 
L 599.037989 493.057468 
L 599.831726 494.314822 
L 600.625463 495.033304 
L 602.212937 497.009149 
L 604.594149 496.11104 
L 605.387886 496.290658 
L 606.181623 496.290658 
L 606.97536 497.188767 
L 607.769097 497.009149 
L 610.150309 497.548012 
L 610.944046 499.703475 
L 611.737783 500.601584 
L 612.53152 500.421957 
L 613.325257 498.984984 
L 615.706469 503.475528 
L 616.500206 505.990237 
L 617.293943 507.966072 
L 618.08768 512.456616 
L 618.881417 508.864181 
L 621.262629 508.504936 
L 622.056366 509.941908 
L 622.850103 510.840017 
L 623.64384 509.76229 
L 626.818789 509.043799 
L 627.612526 509.403045 
L 628.406263 510.301153 
L 629.2 510.480781 
L 629.2 510.480781 
" style="fill:none;stroke:#1f77b4;stroke-linecap:square;stroke-width:1.5;"/>
   </g>
   <g id="line2d_16">
    <path clip-path="url(#pce311e24c8)" d="M 50.565625 478.418291 
L 51.359362 478.436257 
L 52.153099 481.382054 
L 54.534311 483.160306 
L 55.328048 486.59108 
L 56.121785 484.202114 
L 56.915522 482.980686 
L 57.709259 483.016612 
L 60.090471 482.100536 
L 60.884208 485.279843 
L 61.677945 484.81283 
L 62.471682 488.656733 
L 63.265419 488.908202 
L 66.440368 482.765142 
L 67.234105 477.071128 
L 68.027842 477.915352 
L 68.821579 482.118503 
L 71.202791 480.861149 
L 71.996528 481.094659 
L 72.790265 482.585516 
L 73.584002 481.310203 
L 74.377739 483.268081 
L 76.758951 483.66325 
L 77.552688 488.099904 
L 78.346425 489.195597 
L 79.140162 489.321332 
L 79.933899 492.356943 
L 82.315111 493.542447 
L 83.108848 493.219128 
L 83.902585 492.285093 
L 84.696322 493.380787 
L 85.490059 493.919651 
L 88.665008 495.410508 
L 89.458745 491.710305 
L 90.252482 492.39287 
L 91.046219 490.560726 
L 93.427431 488.602849 
L 94.221168 489.231523 
L 95.014905 487.525115 
L 95.808642 490.183515 
L 96.602379 494.278896 
L 99.777328 495.661986 
L 100.571065 495.446434 
L 101.364802 498.679631 
L 102.158539 498.338344 
L 104.539751 501.140447 
L 105.333488 493.61429 
L 106.127225 496.2727 
L 106.920962 495.212931 
L 107.714699 498.895175 
L 110.09591 504.589182 
L 110.889648 492.949692 
L 111.683385 491.889923 
L 112.477122 480.717455 
L 115.65207 482.369972 
L 116.445808 481.112618 
L 117.239545 484.094339 
L 118.033282 487.866399 
L 118.827019 489.572801 
L 121.20823 487.848434 
L 122.001968 482.190354 
L 122.795705 481.759258 
L 123.589442 482.136462 
L 124.383179 484.435626 
L 126.76439 483.555475 
L 127.558128 484.3997 
L 129.145602 490.111671 
L 129.939339 491.566604 
L 132.32055 492.752108 
L 133.114288 491.76419 
L 133.908025 488.35138 
L 134.701762 486.555162 
L 135.495499 484.130265 
L 137.87671 485.154107 
L 138.670448 485.172073 
L 139.464185 484.830788 
L 140.257922 479.424177 
L 141.051659 478.957155 
L 143.43287 480.286359 
L 144.226608 481.992768 
L 145.020345 482.639408 
L 145.814082 479.531944 
L 146.607819 479.567871 
L 148.98903 482.423857 
L 149.782767 481.831108 
L 150.576505 485.136149 
L 151.370242 486.447386 
L 152.163979 487.381421 
L 154.54519 484.345808 
L 155.338927 486.213876 
L 156.132665 485.585203 
L 156.926402 484.23804 
L 157.720139 485.136149 
L 160.10135 486.950325 
L 160.895087 489.465033 
L 161.688825 492.895809 
L 162.482562 492.788032 
L 163.276299 494.799794 
L 166.451247 494.063345 
L 167.244985 493.111353 
L 168.038722 491.297175 
L 168.832459 490.488875 
L 172.007407 493.326896 
L 172.801145 492.051583 
L 173.594882 489.842237 
L 174.388619 496.631938 
L 176.76983 499.18257 
L 177.563567 499.469963 
L 178.357305 503.242018 
L 179.151042 500.996746 
L 179.944779 496.218808 
L 182.32599 493.973536 
L 183.119727 497.027107 
L 183.913465 496.847487 
L 184.707202 497.745596 
L 185.500939 500.457883 
L 187.88215 502.64927 
L 188.675887 500.906937 
L 189.469624 501.355992 
L 190.263362 503.780882 
L 191.057099 503.996433 
L 193.43831 505.146011 
L 194.232047 504.194019 
L 195.025784 505.505256 
L 195.819522 505.433406 
L 198.99447 506.942228 
L 199.788207 504.391596 
L 200.581944 508.88214 
L 201.375682 509.744331 
L 202.169419 509.870065 
L 204.55063 512.905671 
L 205.344367 514.252834 
L 206.138104 506.978155 
L 206.931842 501.104521 
L 207.725579 500.655467 
L 210.10679 504.445488 
L 210.900527 500.475849 
L 211.694264 499.685508 
L 212.488002 503.044433 
L 213.281739 503.924583 
L 215.66295 507.139814 
L 216.456687 504.373637 
L 217.250424 500.601584 
L 218.044162 499.020909 
L 218.837899 496.093072 
L 221.21911 495.428474 
L 222.012847 492.338978 
L 222.806584 492.374904 
L 223.600322 493.308937 
L 224.394059 489.033937 
L 226.77527 488.405265 
L 227.569007 493.596332 
L 228.362744 497.817439 
L 229.156481 496.937298 
L 229.950219 496.506202 
L 232.33143 498.823325 
L 233.125167 501.53561 
L 233.918904 502.757038 
L 234.712641 503.367754 
L 235.506379 500.080679 
L 237.88759 501.284141 
L 238.681327 500.637501 
L 239.475064 499.793284 
L 240.268801 497.009149 
L 241.062539 496.596012 
L 244.237487 495.751795 
L 245.031224 494.189087 
L 245.824961 497.476162 
L 246.618699 495.644018 
L 248.99991 492.213244 
L 249.793647 497.368385 
L 250.587384 500.026794 
L 251.381121 500.403998 
L 252.174859 503.062398 
L 254.55607 512.115337 
L 255.349807 518.384133 
L 256.143544 530.867847 
L 256.937281 529.430874 
L 257.731019 521.0605 
L 260.11223 521.276045 
L 260.905967 519.641487 
L 261.699704 525.407343 
L 262.493441 521.258083 
L 263.287178 525.479194 
L 265.66839 532.232972 
L 266.462127 528.622575 
L 267.255864 526.071946 
L 268.049601 528.245371 
L 268.843338 526.970054 
L 271.22455 527.724466 
L 272.018287 538.232339 
L 272.812024 539.759125 
L 273.605761 547.57267 
L 274.399498 552.548193 
L 276.78071 537.424041 
L 277.574447 530.526563 
L 278.368184 537.370156 
L 279.955658 535.376353 
L 282.33687 534.424357 
L 283.130607 533.651982 
L 283.924344 535.214693 
L 284.718081 537.459965 
L 285.511818 540.262065 
L 287.89303 545.273512 
L 288.686767 542.633072 
L 289.480504 543.423407 
L 291.067978 538.55566 
L 293.44919 537.603663 
L 294.242927 535.987067 
L 295.830401 542.29179 
L 296.624138 541.232022 
L 299.799087 544.644835 
L 300.592824 548.488741 
L 301.386561 546.207545 
L 302.180298 548.327081 
L 304.56151 549.782018 
L 305.355247 548.327081 
L 306.148984 551.524349 
L 306.942721 553.410377 
L 307.736458 551.883592 
L 310.11767 545.902188 
L 310.911407 544.303554 
L 311.705144 543.890424 
L 313.292618 543.44137 
L 315.67383 549.548509 
L 316.467567 548.309119 
L 317.261304 545.057965 
L 318.055041 543.100088 
L 318.848778 541.699039 
L 321.22999 540.657234 
L 322.023727 543.046202 
L 322.817464 543.710802 
L 323.611201 545.255549 
L 324.404938 545.057965 
L 326.78615 545.435171 
L 327.579887 540.962591 
L 328.373624 540.297989 
L 329.167361 540.782968 
L 329.961098 542.184017 
L 332.34231 543.746727 
L 333.136047 543.998197 
L 335.517258 543.620991 
L 337.89847 543.171937 
L 338.692207 542.651034 
L 339.485944 541.124247 
L 341.073418 539.417842 
L 343.45463 538.286223 
L 344.248367 534.765639 
L 345.042104 537.424041 
L 345.835841 536.130764 
L 346.629578 535.699674 
L 349.01079 536.184649 
L 349.804527 536.058914 
L 350.598264 539.058597 
L 351.392001 540.729081 
L 352.185738 541.932547 
L 355.360687 546.405129 
L 356.154424 539.651349 
L 356.948161 538.358074 
L 357.741898 536.32835 
L 360.12311 535.663748 
L 360.916847 534.388431 
L 361.710584 528.622575 
L 362.504321 531.532449 
L 363.298058 533.598097 
L 366.473007 532.322781 
L 368.060481 528.281291 
L 368.854218 528.856081 
L 371.23543 527.52688 
L 372.029167 532.592214 
L 372.822904 528.784234 
L 373.616641 528.640537 
L 374.410378 528.74831 
L 377.585327 534.44232 
L 378.379064 533.687908 
L 379.172801 534.136963 
L 379.966538 535.035071 
L 382.347749 536.130764 
L 383.141487 530.293057 
L 383.935224 530.849884 
L 384.728961 531.622258 
L 385.522698 534.837486 
L 387.903909 537.693472 
L 388.697647 537.280343 
L 389.491384 535.088958 
L 390.285121 537.639587 
L 391.078858 539.076561 
L 393.460069 540.333913 
L 394.253807 532.502405 
L 395.841281 526.503038 
L 396.635018 524.257766 
L 399.016229 528.550724 
L 399.809967 527.16764 
L 400.603704 526.485074 
L 401.397441 532.143159 
L 402.191178 533.580135 
L 404.572389 526.053983 
L 406.159864 523.395581 
L 406.953601 523.862598 
L 407.747338 526.197681 
L 410.128549 530.185286 
L 410.922287 529.035705 
L 411.716024 527.311336 
L 412.509761 528.424989 
L 413.303498 526.718586 
L 415.684709 528.065749 
L 416.478447 528.047785 
L 417.272184 529.1794 
L 418.065921 524.401463 
L 421.240869 521.63529 
L 422.034606 527.419109 
L 422.828344 527.814275 
L 423.622081 526.880245 
L 424.415818 525.030139 
L 426.797029 527.688541 
L 427.590766 525.658816 
L 428.384504 529.628455 
L 429.178241 530.490643 
L 429.971978 530.490643 
L 433.146926 532.071312 
L 433.940664 528.496839 
L 434.734401 527.472997 
L 435.528138 523.557241 
L 437.909349 521.40178 
L 438.703086 521.0605 
L 439.496824 518.725416 
L 440.290561 521.186236 
L 441.084298 519.282241 
L 443.465509 523.108187 
L 444.259246 522.47951 
L 445.052984 524.850518 
L 445.846721 522.210078 
L 446.640458 523.000415 
L 449.815406 518.006929 
L 450.609144 519.641487 
L 452.196618 519.228357 
L 455.371566 517.809345 
L 456.165303 518.545792 
L 457.752778 515.474262 
L 460.133989 516.246637 
L 460.927726 515.887392 
L 461.721463 516.551994 
L 462.515201 513.893589 
L 463.308938 514.306722 
L 465.690149 513.552311 
L 466.483886 514.288758 
L 467.277623 517.378253 
L 468.865098 516.587915 
L 471.246309 518.923 
L 472.040046 519.461865 
L 472.833783 520.57552 
L 473.627521 519.587598 
L 474.421258 519.156508 
L 476.802469 522.102307 
L 477.596206 520.18035 
L 478.389943 520.270163 
L 479.183681 519.874993 
L 479.977418 518.52783 
L 482.358629 517.665647 
L 483.152366 518.725416 
L 483.946103 518.994847 
L 484.739841 521.455666 
L 487.914789 521.707137 
L 489.502263 524.132031 
L 490.296001 523.44947 
L 491.089738 523.341693 
L 493.470949 519.803146 
L 494.264686 519.857035 
L 495.058423 518.204514 
L 495.85216 518.635607 
L 496.645898 519.659449 
L 499.027109 519.030773 
L 499.820846 520.431824 
L 500.614583 520.467745 
L 501.40832 518.671527 
L 502.202058 519.192432 
L 504.583269 519.551678 
L 505.377006 520.665331 
L 506.170743 521.150309 
L 506.96448 518.994847 
L 507.758218 518.743378 
L 510.139429 517.288443 
L 510.933166 515.923316 
L 511.726903 514.163025 
L 512.52064 515.061134 
L 513.314378 513.857668 
L 515.695589 514.558191 
L 516.489326 516.246637 
L 517.283063 516.084976 
L 518.870538 516.426255 
L 521.251749 518.671527 
L 522.045486 518.240435 
L 522.839223 518.150626 
L 523.63296 517.198629 
L 524.426698 516.605877 
L 526.807909 516.677728 
L 527.601646 515.707768 
L 528.395383 516.893272 
L 529.18912 516.336446 
L 529.982858 516.929198 
L 532.364069 517.91712 
L 533.157806 520.629405 
L 533.951543 521.276045 
L 534.74528 520.270163 
L 535.539017 520.270163 
L 538.713966 520.000732 
L 539.507703 518.653569 
L 540.30144 518.491909 
L 541.095177 518.168588 
L 544.270126 518.312286 
L 545.063863 515.779619 
L 545.8576 514.163025 
L 546.651337 513.570273 
L 549.032549 513.157139 
L 549.826286 510.696323 
L 550.620023 512.402732 
L 551.41376 514.737813 
L 552.207497 515.061134 
L 554.588709 513.80378 
L 556.176183 514.468382 
L 556.96992 516.282558 
L 557.763657 517.019011 
L 560.144869 516.336446 
L 560.938606 514.630038 
L 561.732343 513.965439 
L 562.52608 512.564388 
L 563.319817 512.294957 
L 565.701029 512.887709 
L 566.494766 514.001365 
L 567.288503 510.965752 
L 568.08224 511.181304 
L 568.875977 510.678357 
L 571.257189 510.462813 
L 572.050926 511.522583 
L 573.6384 505.738759 
L 574.432137 507.067964 
L 576.813349 507.427209 
L 577.607086 508.666595 
L 578.400823 511.899787 
L 579.19456 509.456937 
L 579.988297 512.241072 
L 582.369509 512.492541 
L 583.163246 512.205148 
L 583.956983 513.390649 
L 584.75072 511.702209 
L 585.544457 511.378889 
L 587.925669 508.95399 
L 588.719406 509.403045 
L 589.513143 509.313236 
L 590.30688 510.64244 
L 591.100617 510.498739 
L 593.481829 508.451051 
L 594.275566 509.816175 
L 595.069303 510.067643 
L 595.86304 511.899787 
L 596.656777 512.276998 
L 599.037989 511.342963 
L 599.831726 512.241072 
L 600.625463 513.498423 
L 602.212937 515.132981 
L 604.594149 513.211028 
L 605.387886 513.318801 
L 606.181623 514.971321 
L 606.97536 515.689806 
L 607.769097 514.306722 
L 610.944046 515.779619 
L 611.737783 515.420375 
L 612.53152 515.635921 
L 613.325257 516.444218 
L 615.706469 515.743695 
L 616.500206 516.318484 
L 617.293943 515.438338 
L 618.08768 517.629721 
L 618.881417 517.468065 
L 621.262629 516.659765 
L 622.056366 516.767539 
L 622.850103 517.10882 
L 623.64384 516.767539 
L 626.818789 517.324364 
L 627.612526 517.072896 
L 629.2 516.767539 
L 629.2 516.767539 
" style="fill:none;stroke:#ff7f0e;stroke-linecap:square;stroke-width:1.5;"/>
   </g>
   <g id="line2d_17">
    <path clip-path="url(#pce311e24c8)" d="M 50.565625 197.040798 
L 51.359362 201.998376 
L 52.153099 210.81781 
L 54.534311 220.158136 
L 55.328048 229.552347 
L 56.121785 225.510857 
L 56.915522 216.242368 
L 57.709259 212.955288 
L 60.090471 207.728314 
L 60.884208 222.744695 
L 61.677945 215.182606 
L 62.471682 226.893952 
L 63.265419 233.665673 
L 66.440368 227.414845 
L 67.234105 211.787757 
L 68.027842 212.129042 
L 68.821579 226.193429 
L 71.202791 217.427878 
L 71.996528 217.787116 
L 72.790265 213.296573 
L 73.584002 211.500355 
L 74.377739 196.717491 
L 76.758951 209.255083 
L 77.552688 228.905707 
L 78.346425 233.737538 
L 79.140162 227.827966 
L 79.933899 233.917143 
L 82.315111 236.072626 
L 83.108848 245.448883 
L 83.902585 246.293107 
L 84.696322 252.795406 
L 85.490059 249.472393 
L 88.665008 257.752958 
L 89.458745 251.556012 
L 90.252482 255.292149 
L 91.046219 250.72974 
L 93.427431 251.358427 
L 94.221168 259.728808 
L 95.014905 245.179435 
L 95.808642 252.543937 
L 96.602379 265.243181 
L 99.777328 276.074372 
L 100.571065 273.613563 
L 101.364802 284.96567 
L 102.158539 282.415018 
L 104.539751 290.480044 
L 105.333488 277.026365 
L 106.127225 277.13416 
L 106.920962 272.769338 
L 107.714699 288.180887 
L 110.09591 298.670792 
L 110.889648 254.537741 
L 111.683385 270.883305 
L 112.477122 247.281006 
L 115.65207 248.628169 
L 116.445808 247.281006 
L 117.239545 254.735325 
L 118.033282 267.919556 
L 118.827019 274.547603 
L 121.20823 272.859155 
L 122.001968 252.256535 
L 122.795705 252.238584 
L 123.589442 252.849291 
L 124.383179 254.879026 
L 126.76439 248.897618 
L 127.558128 248.592264 
L 128.351865 257.142251 
L 129.939339 269.428372 
L 132.32055 276.092352 
L 133.114288 274.996657 
L 133.908025 266.284991 
L 134.701762 260.806522 
L 135.495499 246.742162 
L 137.87671 245.897938 
L 138.670448 247.047515 
L 139.464185 247.783945 
L 140.257922 230.827674 
L 141.051659 225.061803 
L 143.43287 228.223137 
L 144.226608 223.840388 
L 145.020345 226.193429 
L 145.814082 212.398464 
L 146.607819 210.207076 
L 148.98903 215.865178 
L 149.782767 214.985021 
L 150.576505 229.085339 
L 151.370242 232.749613 
L 152.163979 232.085021 
L 154.54519 224.918102 
L 155.338927 228.061483 
L 156.132665 228.420721 
L 157.720139 233.791422 
L 160.10135 238.713067 
L 160.895087 242.251618 
L 161.688825 249.131108 
L 162.482562 251.645829 
L 163.276299 259.836577 
L 166.451247 257.537421 
L 167.244985 255.902855 
L 168.038722 253.370183 
L 168.832459 253.064828 
L 171.21367 260.375448 
L 172.007407 263.53678 
L 172.801145 260.806522 
L 173.594882 252.723543 
L 174.388619 265.584468 
L 176.76983 272.194561 
L 177.563567 269.590024 
L 178.357305 278.229854 
L 179.151042 270.416297 
L 179.944779 249.687959 
L 182.32599 242.862327 
L 183.119727 247.622292 
L 183.913465 241.640884 
L 184.707202 234.168639 
L 185.500939 239.844667 
L 187.88215 249.149088 
L 188.675887 243.05991 
L 189.469624 240.060231 
L 190.263362 253.334277 
L 191.057099 256.387841 
L 193.43831 255.777135 
L 194.232047 255.004747 
L 195.025784 248.78985 
L 195.819522 248.610217 
L 198.99447 264.901896 
L 199.788207 255.777135 
L 200.581944 266.338876 
L 201.375682 264.291188 
L 202.169419 278.086153 
L 204.55063 284.929739 
L 205.344367 286.492439 
L 206.138104 259.441406 
L 206.931842 244.389095 
L 207.725579 241.515163 
L 210.10679 245.215366 
L 210.900527 232.174837 
L 211.694264 232.480191 
L 212.488002 246.149406 
L 213.281739 249.023338 
L 215.66295 259.36957 
L 216.456687 243.68857 
L 217.250424 235.533755 
L 218.837899 243.023979 
L 221.21911 250.460318 
L 222.012847 245.233319 
L 222.806584 247.424707 
L 223.600322 260.393399 
L 224.394059 253.891101 
L 226.77527 250.208849 
L 227.569007 269.428372 
L 228.362744 273.73931 
L 229.156481 270.703699 
L 229.950219 276.828806 
L 232.33143 282.46893 
L 233.125167 286.133201 
L 233.918904 285.684146 
L 234.712641 288.971228 
L 235.506379 282.882051 
L 237.88759 290.246527 
L 238.681327 289.887288 
L 239.475064 290.659676 
L 240.268801 279.253684 
L 241.062539 275.40978 
L 244.237487 272.984876 
L 245.031224 268.871548 
L 245.824961 280.924181 
L 246.618699 276.721012 
L 248.99991 265.063576 
L 249.793647 279.541086 
L 250.587384 286.869657 
L 251.381121 287.875534 
L 252.174859 292.940853 
L 254.55607 326.548097 
L 255.349807 331.020687 
L 256.143544 364.268666 
L 256.937281 375.94408 
L 257.731019 336.786531 
L 260.11223 352.988421 
L 260.905967 345.318565 
L 261.699704 331.03864 
L 263.287178 322.075506 
L 265.66839 353.132122 
L 267.255864 328.344314 
L 268.049601 333.661131 
L 268.843338 340.019728 
L 271.22455 347.204599 
L 272.018287 363.370557 
L 272.812024 366.962992 
L 274.399498 410.431452 
L 276.78071 370.555427 
L 277.574447 349.180434 
L 278.368184 366.693556 
L 279.161921 368.040719 
L 279.955658 364.627904 
L 282.33687 351.695143 
L 283.130607 351.964579 
L 284.718081 374.90227 
L 285.511818 389.59533 
L 287.89303 403.102895 
L 288.686767 401.8635 
L 289.480504 394.516963 
L 290.274241 406.282193 
L 291.067978 403.785453 
L 293.44919 409.910562 
L 294.242927 399.294909 
L 295.830401 424.944894 
L 296.624138 430.225777 
L 299.00535 442.026927 
L 299.799087 435.79405 
L 300.592824 449.966205 
L 301.386561 444.218314 
L 302.180298 450.073974 
L 304.56151 457.689939 
L 305.355247 458.516204 
L 306.148984 470.820293 
L 306.942721 476.532265 
L 307.736458 474.179218 
L 311.705144 432.524934 
L 313.292618 428.052356 
L 315.67383 451.816307 
L 316.467567 453.181436 
L 317.261304 446.086382 
L 318.055041 448.637007 
L 318.848778 442.90707 
L 321.22999 431.357389 
L 322.023727 439.224831 
L 322.817464 441.452137 
L 324.404938 448.259804 
L 326.78615 450.55896 
L 327.579887 433.423043 
L 328.373624 428.42956 
L 329.167361 426.148356 
L 329.961098 424.926928 
L 332.34231 431.626825 
L 333.136047 434.860022 
L 333.929784 432.632703 
L 335.517258 433.476927 
L 337.89847 432.417164 
L 338.692207 422.537968 
L 339.485944 418.352779 
L 341.073418 414.095738 
L 343.45463 410.467384 
L 344.248367 410.593119 
L 345.042104 418.155193 
L 345.835841 416.520628 
L 346.629578 419.197003 
L 349.01079 430.423363 
L 349.804527 429.974309 
L 350.598264 433.979867 
L 351.392001 437.320831 
L 352.185738 438.721879 
L 355.360687 463.599496 
L 356.154424 444.379966 
L 356.948161 442.350246 
L 357.741898 435.380913 
L 360.12311 436.65624 
L 360.916847 429.363587 
L 361.710584 412.407302 
L 362.504321 421.352459 
L 363.298058 424.926928 
L 365.67927 419.825676 
L 366.473007 421.190805 
L 368.060481 403.15678 
L 368.854218 396.474847 
L 371.23543 394.103842 
L 372.029167 407.557506 
L 372.822904 399.815814 
L 374.410378 396.690399 
L 377.585327 415.981772 
L 378.379064 418.155193 
L 379.172801 415.442901 
L 379.966538 417.993541 
L 382.347749 426.112437 
L 383.141487 402.923263 
L 383.935224 408.419698 
L 384.728961 404.414125 
L 385.522698 406.336078 
L 387.903909 414.975894 
L 388.697647 421.981131 
L 389.491384 416.41286 
L 390.285121 423.148676 
L 391.078858 434.051715 
L 393.460069 437.105294 
L 394.253807 416.754145 
L 395.047544 403.983038 
L 395.841281 395.253419 
L 396.635018 392.469276 
L 399.016229 401.270744 
L 399.809967 392.128004 
L 400.603704 380.883678 
L 401.397441 391.571168 
L 402.191178 395.127684 
L 404.572389 368.884945 
L 405.366127 371.273918 
L 406.159864 367.052808 
L 406.953601 368.777175 
L 407.747338 375.800379 
L 410.128549 389.487562 
L 410.922287 379.500596 
L 413.303498 355.467196 
L 415.684709 360.406794 
L 416.478447 361.430638 
L 417.272184 363.819611 
L 418.065921 346.611843 
L 421.240869 336.157871 
L 422.034606 363.172971 
L 422.828344 352.251967 
L 423.622081 352.251967 
L 424.415818 353.311742 
L 426.797029 363.352591 
L 427.590766 353.742829 
L 428.384504 353.509326 
L 429.178241 349.342101 
L 429.971978 352.054381 
L 432.353189 352.77287 
L 433.146926 353.186007 
L 433.940664 341.492627 
L 434.734401 339.12162 
L 435.528138 341.672245 
L 437.909349 328.955021 
L 438.703086 327.086967 
L 439.496824 319.866165 
L 440.290561 329.727409 
L 441.084298 319.201574 
L 443.465509 326.045157 
L 444.259246 326.709749 
L 445.052984 337.756503 
L 445.846721 329.960899 
L 446.640458 328.523947 
L 449.021669 312.807043 
L 449.815406 316.399478 
L 450.609144 324.859648 
L 451.402881 323.566368 
L 452.196618 325.021301 
L 455.371566 314.782866 
L 456.165303 318.447164 
L 456.959041 310.112716 
L 460.133989 310.687492 
L 460.927726 312.842947 
L 461.721463 314.60326 
L 462.515201 301.454935 
L 463.308938 302.281206 
L 465.690149 303.46669 
L 466.483886 301.742335 
L 467.277623 306.466397 
L 468.071361 309.214608 
L 468.865098 308.334452 
L 471.246309 313.058511 
L 472.040046 310.992845 
L 472.833783 318.950103 
L 473.627521 312.914812 
L 474.421258 312.842947 
L 476.802469 323.835817 
L 477.596206 316.327615 
L 478.389943 313.705152 
L 479.183681 310.507886 
L 479.977418 306.358602 
L 482.358629 301.652519 
L 483.152366 305.101255 
L 483.946103 305.316792 
L 484.739841 312.196309 
L 487.914789 306.861539 
L 489.502263 321.069627 
L 490.296001 312.699246 
L 491.089738 315.106199 
L 493.470949 301.50882 
L 494.264686 301.113648 
L 495.058423 291.054846 
L 495.85216 288.21682 
L 496.645898 288.21682 
L 499.027109 282.486881 
L 499.820846 282.900004 
L 500.614583 281.714493 
L 501.40832 272.751385 
L 502.202058 274.062617 
L 504.583269 275.589413 
L 505.377006 281.570821 
L 506.170743 283.546644 
L 506.96448 278.193923 
L 507.758218 276.613242 
L 510.139429 275.176263 
L 510.933166 273.254324 
L 511.726903 267.021448 
L 512.52064 270.416297 
L 513.314378 275.984582 
L 516.489326 283.941814 
L 517.283063 275.786997 
L 518.0768 274.493718 
L 521.251749 287.480364 
L 522.045486 281.678588 
L 522.839223 282.666514 
L 523.63296 278.355575 
L 524.426698 276.236051 
L 526.807909 277.906521 
L 527.601646 273.667447 
L 528.395383 271.853276 
L 529.18912 273.523746 
L 529.982858 274.601488 
L 532.364069 272.733405 
L 533.157806 282.235412 
L 533.951543 285.163256 
L 534.74528 279.559037 
L 535.539017 277.205998 
L 538.713966 269.572073 
L 539.507703 264.093604 
L 540.30144 255.831019 
L 541.095177 256.136373 
L 543.476389 250.72974 
L 544.270126 252.615774 
L 545.063863 246.849931 
L 546.651337 240.904455 
L 549.032549 242.323456 
L 549.826286 236.701286 
L 550.620023 240.078184 
L 551.41376 241.119992 
L 552.207497 247.514523 
L 556.176183 238.802857 
L 556.96992 248.430585 
L 557.763657 247.316937 
L 560.144869 234.994885 
L 560.938606 234.078823 
L 561.732343 227.792061 
L 562.52608 231.94132 
L 563.319817 229.911585 
L 565.701029 228.384816 
L 566.494766 233.629768 
L 567.288503 224.558864 
L 568.08224 231.115047 
L 568.875977 238.766952 
L 571.257189 236.737217 
L 572.050926 237.707162 
L 572.844663 247.945624 
L 573.6384 239.988368 
L 574.432137 245.969774 
L 576.813349 247.74804 
L 577.607086 249.113155 
L 578.400823 260.698753 
L 579.19456 249.167039 
L 579.988297 264.273237 
L 582.369509 263.357175 
L 583.163246 261.686678 
L 583.956983 265.476699 
L 584.75072 258.471461 
L 585.544457 261.381324 
L 587.925669 252.777428 
L 588.719406 252.885222 
L 589.513143 246.885836 
L 590.30688 249.346672 
L 591.100617 252.436168 
L 593.481829 251.556012 
L 594.275566 252.723543 
L 595.069303 252.184699 
L 595.86304 259.495291 
L 596.656777 264.560637 
L 599.037989 260.986155 
L 599.831726 262.548855 
L 600.625463 266.518508 
L 602.212937 275.068493 
L 604.594149 265.189297 
L 605.387886 268.835617 
L 606.181623 270.577949 
L 606.97536 274.817025 
L 607.769097 269.536141 
L 610.150309 275.625317 
L 610.944046 279.235733 
L 611.737783 270.973121 
L 612.53152 270.452229 
L 613.325257 271.76346 
L 615.706469 271.583828 
L 616.500206 277.619121 
L 617.293943 273.577631 
L 618.08768 280.870296 
L 618.881417 276.810828 
L 621.262629 272.751385 
L 622.850103 276.020487 
L 623.64384 275.40978 
L 626.818789 275.786997 
L 627.612526 275.140358 
L 628.406263 270.506113 
L 629.2 266.662209 
L 629.2 266.662209 
" style="fill:none;stroke:#2ca02c;stroke-linecap:square;stroke-width:1.5;"/>
   </g>
   <g id="line2d_18">
    <path clip-path="url(#pce311e24c8)" d="M 50.565625 494.189087 
L 51.359362 494.709985 
L 52.153099 496.416393 
L 54.534311 495.679944 
L 55.328048 498.625739 
L 56.121785 497.619863 
L 56.915522 495.697903 
L 57.709259 496.542127 
L 60.090471 495.644018 
L 60.884208 499.57774 
L 61.677945 495.518285 
L 62.471682 498.015025 
L 63.265419 498.823325 
L 66.440368 496.542127 
L 67.234105 487.812509 
L 68.027842 489.177638 
L 68.821579 491.548645 
L 71.202791 488.081944 
L 71.996528 484.705053 
L 72.790265 484.88468 
L 73.584002 484.794862 
L 74.377739 483.268081 
L 76.758951 486.914401 
L 77.552688 491.099591 
L 78.346425 491.404944 
L 79.140162 488.908202 
L 79.933899 491.225325 
L 82.315111 492.06955 
L 83.108848 492.141394 
L 83.902585 490.722387 
L 84.696322 493.398746 
L 85.490059 492.249169 
L 88.665008 493.003576 
L 89.458745 492.428787 
L 90.252482 492.572488 
L 91.046219 491.027741 
L 93.427431 490.848121 
L 94.221168 491.404944 
L 95.014905 490.165556 
L 96.602379 496.919331 
L 98.983591 498.410195 
L 99.777328 499.541814 
L 100.571065 500.350106 
L 101.364802 502.81093 
L 102.158539 502.469645 
L 104.539751 504.409562 
L 105.333488 500.170488 
L 106.127225 500.583616 
L 106.920962 501.481725 
L 107.714699 504.301787 
L 110.09591 497.530046 
L 110.889648 493.219128 
L 111.683385 493.650216 
L 112.477122 487.363455 
L 115.65207 486.321652 
L 116.445808 487.201795 
L 117.239545 490.70442 
L 118.033282 492.949692 
L 118.827019 493.219128 
L 121.20823 492.788032 
L 122.001968 485.513353 
L 122.795705 486.878474 
L 123.589442 486.806631 
L 124.383179 488.081944 
L 126.76439 488.135828 
L 127.558128 489.357256 
L 128.351865 490.363142 
L 129.145602 491.153474 
L 129.939339 493.542447 
L 132.32055 495.392549 
L 133.114288 494.278896 
L 133.908025 489.177638 
L 134.701762 488.890243 
L 135.495499 487.740666 
L 137.87671 488.692658 
L 138.670448 487.938243 
L 139.464185 488.836352 
L 140.257922 485.567237 
L 141.051659 484.094339 
L 143.43287 484.902639 
L 144.226608 485.369652 
L 145.020345 484.345808 
L 145.814082 481.471863 
L 146.607819 482.531631 
L 148.98903 483.717135 
L 149.782767 483.35789 
L 150.576505 486.285726 
L 151.370242 487.219761 
L 152.163979 486.285726 
L 154.54519 485.082257 
L 155.338927 488.243603 
L 156.132665 487.47123 
L 156.926402 485.477428 
L 157.720139 486.357577 
L 160.10135 487.327529 
L 160.895087 491.440869 
L 161.688825 493.740033 
L 162.482562 492.608414 
L 163.276299 493.919651 
L 166.451247 492.680264 
L 167.244985 492.949692 
L 168.038722 491.674379 
L 168.832459 492.698223 
L 172.801145 495.159039 
L 173.594882 494.314822 
L 174.388619 497.925216 
L 176.76983 502.559461 
L 177.563567 501.158406 
L 178.357305 503.242018 
L 179.151042 501.661352 
L 179.944779 498.841283 
L 182.32599 498.194651 
L 183.119727 499.811243 
L 183.913465 500.350106 
L 184.707202 500.511766 
L 185.500939 501.93078 
L 187.88215 503.709039 
L 188.675887 502.18225 
L 189.469624 501.84097 
L 190.263362 504.696956 
L 191.057099 506.978155 
L 194.232047 508.828257 
L 195.025784 507.786454 
L 195.819522 506.511134 
L 198.99447 508.792331 
L 199.788207 505.684876 
L 200.581944 508.361242 
L 201.375682 507.948114 
L 202.169419 510.373004 
L 204.55063 513.013442 
L 205.344367 514.21691 
L 206.931842 496.649903 
L 207.725579 498.050951 
L 210.10679 500.511766 
L 210.900527 496.542127 
L 211.694264 494.566291 
L 212.488002 499.631625 
L 213.281739 498.94906 
L 215.66295 502.290025 
L 216.456687 496.739713 
L 217.250424 495.266814 
L 218.044162 496.955257 
L 218.837899 496.721754 
L 221.21911 497.835407 
L 222.012847 494.692026 
L 222.806584 495.590135 
L 223.600322 498.428155 
L 224.394059 496.164923 
L 226.77527 494.692026 
L 227.569007 501.823012 
L 228.362744 503.637188 
L 229.156481 502.02059 
L 229.950219 501.553576 
L 232.33143 503.942541 
L 233.125167 506.026154 
L 233.918904 503.475528 
L 234.712641 504.804733 
L 235.506379 502.272066 
L 237.88759 505.038236 
L 239.475064 503.22406 
L 240.268801 500.098638 
L 241.062539 500.799161 
L 244.237487 499.901052 
L 245.031224 498.607781 
L 245.824961 501.84097 
L 246.618699 498.805366 
L 248.99991 495.30274 
L 249.793647 499.038869 
L 250.587384 499.164603 
L 251.381121 495.123113 
L 252.174859 495.985305 
L 254.55607 503.475528 
L 255.349807 496.757671 
L 256.143544 505.684876 
L 256.937281 497.548012 
L 257.731019 485.423544 
L 260.11223 496.649903 
L 260.905967 497.080992 
L 261.699704 497.188767 
L 262.493441 491.871965 
L 263.287178 483.286039 
L 265.66839 496.290658 
L 266.462127 486.052216 
L 267.255864 480.789299 
L 268.049601 480.394136 
L 268.843338 487.489188 
L 271.22455 490.902005 
L 272.018287 499.308304 
L 272.812024 499.34423 
L 273.605761 504.050318 
L 274.399498 495.141081 
L 276.78071 494.512399 
L 277.574447 496.811563 
L 278.368184 500.799161 
L 279.161921 497.206725 
L 279.955658 499.290338 
L 282.33687 496.901372 
L 283.130607 498.553889 
L 283.924344 503.170175 
L 284.718081 501.948747 
L 285.511818 506.29559 
L 287.89303 508.864181 
L 288.686767 502.397801 
L 289.480504 505.792651 
L 290.274241 502.361875 
L 291.067978 495.841604 
L 293.44919 496.775637 
L 294.242927 494.189087 
L 295.036664 499.487924 
L 295.830401 501.212298 
L 296.624138 502.128365 
L 299.00535 504.535297 
L 299.799087 504.643073 
L 300.592824 507.840337 
L 301.386561 503.134249 
L 302.180298 508.019957 
L 305.355247 512.205148 
L 306.148984 518.797266 
L 306.942721 527.940014 
L 307.736458 529.125517 
L 310.11767 520.395898 
L 310.911407 516.462182 
L 311.705144 514.935395 
L 313.292618 513.06733 
L 315.67383 523.018374 
L 316.467567 518.68949 
L 317.261304 515.599997 
L 318.055041 514.109137 
L 318.848778 510.031726 
L 321.22999 504.391596 
L 322.023727 508.936032 
L 322.817464 509.726366 
L 323.611201 516.156823 
L 324.404938 514.360605 
L 326.78615 518.509871 
L 327.579887 511.827944 
L 328.373624 512.708085 
L 329.167361 515.671848 
L 329.961098 515.474262 
L 332.34231 516.372371 
L 333.136047 517.647683 
L 333.929784 516.318484 
L 337.89847 516.444218 
L 338.692207 514.234872 
L 339.485944 513.300837 
L 341.073418 513.624158 
L 343.45463 517.396215 
L 344.248367 516.264599 
L 345.042104 519.479827 
L 345.835841 521.042538 
L 346.629578 523.28781 
L 349.01079 525.191799 
L 349.804527 522.605246 
L 350.598264 523.395581 
L 352.185738 528.945894 
L 355.360687 537.442003 
L 356.154424 529.287177 
L 356.948161 528.442953 
L 357.741898 526.323414 
L 360.12311 525.928248 
L 360.916847 524.922368 
L 361.710584 520.252201 
L 362.504321 524.257766 
L 363.298058 524.114068 
L 365.67927 524.670894 
L 366.473007 526.736548 
L 367.266744 526.754507 
L 368.060481 525.856398 
L 368.854218 520.306089 
L 371.23543 520.934762 
L 372.029167 525.7127 
L 372.822904 523.072262 
L 373.616641 522.892639 
L 374.410378 525.586965 
L 377.585327 531.047468 
L 378.379064 531.298939 
L 379.172801 532.933497 
L 379.966538 534.190849 
L 382.347749 534.891374 
L 383.141487 532.179085 
L 383.935224 530.903771 
L 384.728961 528.532766 
L 385.522698 528.892007 
L 387.903909 531.927615 
L 388.697647 532.197048 
L 389.491384 535.268581 
L 390.285121 540.118367 
L 391.078858 541.321833 
L 393.460069 541.375719 
L 394.253807 534.909336 
L 395.047544 533.29274 
L 395.841281 528.263329 
L 396.635018 527.275411 
L 399.016229 528.460915 
L 400.603704 521.240119 
L 401.397441 525.119949 
L 402.191178 528.353142 
L 404.572389 518.096738 
L 405.366127 522.515435 
L 406.159864 518.635607 
L 406.953601 517.665647 
L 407.747338 520.719217 
L 410.128549 525.299572 
L 411.716024 519.390018 
L 412.509761 519.354092 
L 413.303498 517.342326 
L 415.684709 519.282241 
L 416.478447 520.98865 
L 417.272184 520.665331 
L 418.065921 511.109453 
L 421.240869 509.403045 
L 422.034606 514.791697 
L 422.828344 511.450733 
L 423.622081 510.229303 
L 424.415818 510.193386 
L 426.797029 516.605877 
L 427.590766 511.504623 
L 428.384504 512.636238 
L 429.178241 510.283195 
L 429.971978 509.977834 
L 432.353189 511.055568 
L 433.146926 511.037603 
L 433.940664 508.001997 
L 434.734401 510.660399 
L 435.528138 511.576466 
L 437.909349 505.64895 
L 438.703086 507.391283 
L 439.496824 503.080359 
L 440.290561 506.636868 
L 441.084298 499.990868 
L 443.465509 505.577099 
L 444.259246 506.421323 
L 445.052984 508.774372 
L 445.846721 506.098004 
L 446.640458 507.229623 
L 449.021669 503.008515 
L 450.609144 507.876263 
L 451.402881 507.247582 
L 452.196618 508.127732 
L 455.371566 504.301787 
L 456.165303 507.678678 
L 456.959041 504.104201 
L 457.752778 503.655147 
L 460.133989 505.07416 
L 460.927726 507.966072 
L 461.721463 508.900106 
L 462.515201 506.439291 
L 463.308938 507.876263 
L 465.690149 506.367441 
L 466.483886 506.600951 
L 467.277623 507.355358 
L 468.071361 507.175738 
L 468.865098 506.834454 
L 471.246309 508.864181 
L 472.040046 509.76229 
L 472.833783 511.145378 
L 473.627521 508.558828 
L 474.421258 507.067964 
L 476.802469 510.893909 
L 477.596206 509.636555 
L 478.389943 509.83414 
L 479.183681 508.612713 
L 479.977418 508.055881 
L 482.358629 507.786454 
L 483.152366 508.666595 
L 483.946103 509.277311 
L 484.739841 511.971638 
L 487.914789 511.378889 
L 488.708526 511.001678 
L 489.502263 511.181304 
L 490.296001 509.546746 
L 491.089738 511.845902 
L 493.470949 507.588869 
L 494.264686 507.606827 
L 495.058423 504.804733 
L 495.85216 505.038236 
L 496.645898 503.673114 
L 499.027109 503.511453 
L 499.820846 503.583303 
L 500.614583 503.780882 
L 501.40832 501.409875 
L 502.202058 501.823012 
L 504.583269 501.445801 
L 505.377006 501.53561 
L 506.170743 502.092441 
L 506.96448 500.835087 
L 507.758218 500.511766 
L 510.139429 498.805366 
L 510.933166 497.709672 
L 511.726903 494.88961 
L 512.52064 496.739713 
L 513.314378 493.8478 
L 515.695589 493.255052 
L 516.489326 495.859562 
L 517.283063 494.117237 
L 518.0768 492.877841 
L 518.870538 493.686141 
L 521.251749 496.775637 
L 522.045486 495.033304 
L 522.839223 495.554209 
L 523.63296 493.740033 
L 524.426698 491.512719 
L 526.807909 492.680264 
L 527.601646 491.656413 
L 528.395383 492.159359 
L 529.18912 491.889923 
L 529.982858 492.841924 
L 532.364069 491.871965 
L 533.157806 495.087196 
L 533.951543 496.542127 
L 534.74528 494.296855 
L 535.539017 493.883727 
L 538.713966 493.524481 
L 539.507703 492.949692 
L 540.30144 492.662299 
L 541.095177 493.596332 
L 543.476389 491.35106 
L 544.270126 492.356943 
L 545.063863 489.73446 
L 545.8576 489.177638 
L 546.651337 489.195597 
L 549.032549 489.914087 
L 549.826286 486.465346 
L 550.620023 488.998013 
L 552.207497 491.530678 
L 554.588709 489.447067 
L 555.382446 489.321332 
L 556.176183 491.225325 
L 556.96992 495.626059 
L 557.763657 494.745909 
L 560.144869 491.261251 
L 560.938606 489.267447 
L 561.732343 487.848434 
L 562.52608 488.566924 
L 563.319817 487.579006 
L 565.701029 487.165869 
L 566.494766 487.920284 
L 567.288503 485.225958 
L 568.08224 485.225958 
L 568.875977 487.201795 
L 571.257189 487.345495 
L 572.050926 487.255685 
L 572.844663 489.73446 
L 573.6384 487.830475 
L 576.813349 491.225325 
L 577.607086 491.081624 
L 578.400823 493.273013 
L 579.19456 490.273333 
L 579.988297 494.907571 
L 582.369509 493.452631 
L 583.163246 493.237086 
L 583.956983 494.117237 
L 584.75072 491.135515 
L 585.544457 491.836039 
L 587.925669 490.273333 
L 588.719406 490.596652 
L 589.513143 490.327216 
L 590.30688 492.159359 
L 591.100617 492.877841 
L 593.481829 492.626372 
L 594.275566 492.410828 
L 595.069303 492.015658 
L 595.86304 493.506523 
L 596.656777 493.668182 
L 599.037989 492.195284 
L 599.831726 493.632256 
L 600.625463 494.207046 
L 602.212937 495.697903 
L 604.594149 493.61429 
L 606.181623 494.620176 
L 606.97536 495.572167 
L 607.769097 494.961454 
L 610.150309 495.841604 
L 611.737783 495.949379 
L 612.53152 495.805679 
L 613.325257 496.362509 
L 615.706469 494.907571 
L 616.500206 496.542127 
L 617.293943 495.644018 
L 618.08768 497.601897 
L 618.881417 496.380467 
L 621.262629 494.674059 
L 622.056366 494.602215 
L 622.850103 495.284774 
L 623.64384 494.692026 
L 626.818789 494.99738 
L 627.612526 495.410508 
L 628.406263 495.338665 
L 629.2 495.087196 
L 629.2 495.087196 
" style="fill:none;stroke:#d62728;stroke-linecap:square;stroke-width:1.5;"/>
   </g>
   <g id="patch_3">
    <path d="M 50.565625 579.248967 
L 50.565625 10.8 
" style="fill:none;stroke:#000000;stroke-linecap:square;stroke-linejoin:miter;stroke-width:0.8;"/>
   </g>
   <g id="patch_4">
    <path d="M 629.2 579.248967 
L 629.2 10.8 
" style="fill:none;stroke:#000000;stroke-linecap:square;stroke-linejoin:miter;stroke-width:0.8;"/>
   </g>
   <g id="patch_5">
    <path d="M 50.565625 579.248967 
L 629.2 579.248967 
" style="fill:none;stroke:#000000;stroke-linecap:square;stroke-linejoin:miter;stroke-width:0.8;"/>
   </g>
   <g id="patch_6">
    <path d="M 50.565625 10.8 
L 629.2 10.8 
" style="fill:none;stroke:#000000;stroke-linecap:square;stroke-linejoin:miter;stroke-width:0.8;"/>
   </g>
   <g id="legend_1">
    <g id="patch_7">
     <path d="M 511.767187 77.5125 
L 622.2 77.5125 
Q 624.2 77.5125 624.2 75.5125 
L 624.2 17.8 
Q 624.2 15.8 622.2 15.8 
L 511.767187 15.8 
Q 509.767187 15.8 509.767187 17.8 
L 509.767187 75.5125 
Q 509.767187 77.5125 511.767187 77.5125 
z
" style="fill:#ffffff;opacity:0.8;stroke:#cccccc;stroke-linejoin:miter;"/>
    </g>
    <g id="line2d_19">
     <path d="M 513.767187 23.898438 
L 533.767187 23.898438 
" style="fill:none;stroke:#1f77b4;stroke-linecap:square;stroke-width:1.5;"/>
    </g>
    <g id="line2d_20"/>
    <g id="text_17">
     <!-- Citibank -->
     <defs>
      <path d="M 48.6875 27.296875 
Q 48.6875 37.203125 44.609375 42.84375 
Q 40.53125 48.484375 33.40625 48.484375 
Q 26.265625 48.484375 22.1875 42.84375 
Q 18.109375 37.203125 18.109375 27.296875 
Q 18.109375 17.390625 22.1875 11.75 
Q 26.265625 6.109375 33.40625 6.109375 
Q 40.53125 6.109375 44.609375 11.75 
Q 48.6875 17.390625 48.6875 27.296875 
z
M 18.109375 46.390625 
Q 20.953125 51.265625 25.265625 53.625 
Q 29.59375 56 35.59375 56 
Q 45.5625 56 51.78125 48.09375 
Q 58.015625 40.1875 58.015625 27.296875 
Q 58.015625 14.40625 51.78125 6.484375 
Q 45.5625 -1.421875 35.59375 -1.421875 
Q 29.59375 -1.421875 25.265625 0.953125 
Q 20.953125 3.328125 18.109375 8.203125 
L 18.109375 0 
L 9.078125 0 
L 9.078125 75.984375 
L 18.109375 75.984375 
z
" id="DejaVuSans-98"/>
      <path d="M 9.078125 75.984375 
L 18.109375 75.984375 
L 18.109375 31.109375 
L 44.921875 54.6875 
L 56.390625 54.6875 
L 27.390625 29.109375 
L 57.625 0 
L 45.90625 0 
L 18.109375 26.703125 
L 18.109375 0 
L 9.078125 0 
z
" id="DejaVuSans-107"/>
     </defs>
     <g transform="translate(541.767187 27.398438)scale(0.1 -0.1)">
      <use xlink:href="#DejaVuSans-67"/>
      <use x="69.824219" xlink:href="#DejaVuSans-105"/>
      <use x="97.607422" xlink:href="#DejaVuSans-116"/>
      <use x="136.816406" xlink:href="#DejaVuSans-105"/>
      <use x="164.599609" xlink:href="#DejaVuSans-98"/>
      <use x="228.076172" xlink:href="#DejaVuSans-97"/>
      <use x="289.355469" xlink:href="#DejaVuSans-110"/>
      <use x="352.734375" xlink:href="#DejaVuSans-107"/>
     </g>
    </g>
    <g id="line2d_21">
     <path d="M 513.767187 38.576563 
L 533.767187 38.576563 
" style="fill:none;stroke:#ff7f0e;stroke-linecap:square;stroke-width:1.5;"/>
    </g>
    <g id="line2d_22"/>
    <g id="text_18">
     <!-- Morgan Stanley -->
     <defs>
      <path d="M 9.8125 72.90625 
L 24.515625 72.90625 
L 43.109375 23.296875 
L 61.8125 72.90625 
L 76.515625 72.90625 
L 76.515625 0 
L 66.890625 0 
L 66.890625 64.015625 
L 48.09375 14.015625 
L 38.1875 14.015625 
L 19.390625 64.015625 
L 19.390625 0 
L 9.8125 0 
z
" id="DejaVuSans-77"/>
      <path d="M 32.171875 -5.078125 
Q 28.375 -14.84375 24.75 -17.8125 
Q 21.140625 -20.796875 15.09375 -20.796875 
L 7.90625 -20.796875 
L 7.90625 -13.28125 
L 13.1875 -13.28125 
Q 16.890625 -13.28125 18.9375 -11.515625 
Q 21 -9.765625 23.484375 -3.21875 
L 25.09375 0.875 
L 2.984375 54.6875 
L 12.5 54.6875 
L 29.59375 11.921875 
L 46.6875 54.6875 
L 56.203125 54.6875 
z
" id="DejaVuSans-121"/>
     </defs>
     <g transform="translate(541.767187 42.076563)scale(0.1 -0.1)">
      <use xlink:href="#DejaVuSans-77"/>
      <use x="86.279297" xlink:href="#DejaVuSans-111"/>
      <use x="147.460938" xlink:href="#DejaVuSans-114"/>
      <use x="188.558594" xlink:href="#DejaVuSans-103"/>
      <use x="252.035156" xlink:href="#DejaVuSans-97"/>
      <use x="313.314453" xlink:href="#DejaVuSans-110"/>
      <use x="376.693359" xlink:href="#DejaVuSans-32"/>
      <use x="408.480469" xlink:href="#DejaVuSans-83"/>
      <use x="471.957031" xlink:href="#DejaVuSans-116"/>
      <use x="511.166016" xlink:href="#DejaVuSans-97"/>
      <use x="572.445312" xlink:href="#DejaVuSans-110"/>
      <use x="635.824219" xlink:href="#DejaVuSans-108"/>
      <use x="663.607422" xlink:href="#DejaVuSans-101"/>
      <use x="725.130859" xlink:href="#DejaVuSans-121"/>
     </g>
    </g>
    <g id="line2d_23">
     <path d="M 513.767187 53.254688 
L 533.767187 53.254688 
" style="fill:none;stroke:#2ca02c;stroke-linecap:square;stroke-width:1.5;"/>
    </g>
    <g id="line2d_24"/>
    <g id="text_19">
     <!-- Goldman Sachs -->
     <defs>
      <path d="M 59.515625 10.40625 
L 59.515625 29.984375 
L 43.40625 29.984375 
L 43.40625 38.09375 
L 69.28125 38.09375 
L 69.28125 6.78125 
Q 63.578125 2.734375 56.6875 0.65625 
Q 49.8125 -1.421875 42 -1.421875 
Q 24.90625 -1.421875 15.25 8.5625 
Q 5.609375 18.5625 5.609375 36.375 
Q 5.609375 54.25 15.25 64.234375 
Q 24.90625 74.21875 42 74.21875 
Q 49.125 74.21875 55.546875 72.453125 
Q 61.96875 70.703125 67.390625 67.28125 
L 67.390625 56.78125 
Q 61.921875 61.421875 55.765625 63.765625 
Q 49.609375 66.109375 42.828125 66.109375 
Q 29.4375 66.109375 22.71875 58.640625 
Q 16.015625 51.171875 16.015625 36.375 
Q 16.015625 21.625 22.71875 14.15625 
Q 29.4375 6.6875 42.828125 6.6875 
Q 48.046875 6.6875 52.140625 7.59375 
Q 56.25 8.5 59.515625 10.40625 
z
" id="DejaVuSans-71"/>
      <path d="M 45.40625 46.390625 
L 45.40625 75.984375 
L 54.390625 75.984375 
L 54.390625 0 
L 45.40625 0 
L 45.40625 8.203125 
Q 42.578125 3.328125 38.25 0.953125 
Q 33.9375 -1.421875 27.875 -1.421875 
Q 17.96875 -1.421875 11.734375 6.484375 
Q 5.515625 14.40625 5.515625 27.296875 
Q 5.515625 40.1875 11.734375 48.09375 
Q 17.96875 56 27.875 56 
Q 33.9375 56 38.25 53.625 
Q 42.578125 51.265625 45.40625 46.390625 
z
M 14.796875 27.296875 
Q 14.796875 17.390625 18.875 11.75 
Q 22.953125 6.109375 30.078125 6.109375 
Q 37.203125 6.109375 41.296875 11.75 
Q 45.40625 17.390625 45.40625 27.296875 
Q 45.40625 37.203125 41.296875 42.84375 
Q 37.203125 48.484375 30.078125 48.484375 
Q 22.953125 48.484375 18.875 42.84375 
Q 14.796875 37.203125 14.796875 27.296875 
z
" id="DejaVuSans-100"/>
      <path d="M 52 44.1875 
Q 55.375 50.25 60.0625 53.125 
Q 64.75 56 71.09375 56 
Q 79.640625 56 84.28125 50.015625 
Q 88.921875 44.046875 88.921875 33.015625 
L 88.921875 0 
L 79.890625 0 
L 79.890625 32.71875 
Q 79.890625 40.578125 77.09375 44.375 
Q 74.3125 48.1875 68.609375 48.1875 
Q 61.625 48.1875 57.5625 43.546875 
Q 53.515625 38.921875 53.515625 30.90625 
L 53.515625 0 
L 44.484375 0 
L 44.484375 32.71875 
Q 44.484375 40.625 41.703125 44.40625 
Q 38.921875 48.1875 33.109375 48.1875 
Q 26.21875 48.1875 22.15625 43.53125 
Q 18.109375 38.875 18.109375 30.90625 
L 18.109375 0 
L 9.078125 0 
L 9.078125 54.6875 
L 18.109375 54.6875 
L 18.109375 46.1875 
Q 21.1875 51.21875 25.484375 53.609375 
Q 29.78125 56 35.6875 56 
Q 41.65625 56 45.828125 52.96875 
Q 50 49.953125 52 44.1875 
z
" id="DejaVuSans-109"/>
      <path d="M 54.890625 33.015625 
L 54.890625 0 
L 45.90625 0 
L 45.90625 32.71875 
Q 45.90625 40.484375 42.875 44.328125 
Q 39.84375 48.1875 33.796875 48.1875 
Q 26.515625 48.1875 22.3125 43.546875 
Q 18.109375 38.921875 18.109375 30.90625 
L 18.109375 0 
L 9.078125 0 
L 9.078125 75.984375 
L 18.109375 75.984375 
L 18.109375 46.1875 
Q 21.34375 51.125 25.703125 53.5625 
Q 30.078125 56 35.796875 56 
Q 45.21875 56 50.046875 50.171875 
Q 54.890625 44.34375 54.890625 33.015625 
z
" id="DejaVuSans-104"/>
     </defs>
     <g transform="translate(541.767187 56.754688)scale(0.1 -0.1)">
      <use xlink:href="#DejaVuSans-71"/>
      <use x="77.490234" xlink:href="#DejaVuSans-111"/>
      <use x="138.671875" xlink:href="#DejaVuSans-108"/>
      <use x="166.455078" xlink:href="#DejaVuSans-100"/>
      <use x="229.931641" xlink:href="#DejaVuSans-109"/>
      <use x="327.34375" xlink:href="#DejaVuSans-97"/>
      <use x="388.623047" xlink:href="#DejaVuSans-110"/>
      <use x="452.001953" xlink:href="#DejaVuSans-32"/>
      <use x="483.789062" xlink:href="#DejaVuSans-83"/>
      <use x="547.265625" xlink:href="#DejaVuSans-97"/>
      <use x="608.544922" xlink:href="#DejaVuSans-99"/>
      <use x="663.525391" xlink:href="#DejaVuSans-104"/>
      <use x="726.904297" xlink:href="#DejaVuSans-115"/>
     </g>
    </g>
    <g id="line2d_25">
     <path d="M 513.767187 67.932812 
L 533.767187 67.932812 
" style="fill:none;stroke:#d62728;stroke-linecap:square;stroke-width:1.5;"/>
    </g>
    <g id="line2d_26"/>
    <g id="text_20">
     <!-- J.P. Morgan -->
     <defs>
      <path d="M 9.8125 72.90625 
L 19.671875 72.90625 
L 19.671875 5.078125 
Q 19.671875 -8.109375 14.671875 -14.0625 
Q 9.671875 -20.015625 -1.421875 -20.015625 
L -5.171875 -20.015625 
L -5.171875 -11.71875 
L -2.09375 -11.71875 
Q 4.4375 -11.71875 7.125 -8.046875 
Q 9.8125 -4.390625 9.8125 5.078125 
z
" id="DejaVuSans-74"/>
      <path d="M 10.6875 12.40625 
L 21 12.40625 
L 21 0 
L 10.6875 0 
z
" id="DejaVuSans-46"/>
     </defs>
     <g transform="translate(541.767187 71.432812)scale(0.1 -0.1)">
      <use xlink:href="#DejaVuSans-74"/>
      <use x="29.492188" xlink:href="#DejaVuSans-46"/>
      <use x="61.279297" xlink:href="#DejaVuSans-80"/>
      <use x="121.347656" xlink:href="#DejaVuSans-46"/>
      <use x="153.134766" xlink:href="#DejaVuSans-32"/>
      <use x="184.921875" xlink:href="#DejaVuSans-77"/>
      <use x="271.201172" xlink:href="#DejaVuSans-111"/>
      <use x="332.382812" xlink:href="#DejaVuSans-114"/>
      <use x="373.480469" xlink:href="#DejaVuSans-103"/>
      <use x="436.957031" xlink:href="#DejaVuSans-97"/>
      <use x="498.236328" xlink:href="#DejaVuSans-110"/>
     </g>
    </g>
   </g>
  </g>
 </g>
 <defs>
  <clipPath id="pce311e24c8">
   <rect height="568.448967" width="578.634375" x="50.565625" y="10.8"/>
  </clipPath>
 </defs>
</svg>
