<?xml version="1.0" encoding="utf-8" standalone="no"?>
<!DOCTYPE svg PUBLIC "-//W3C//DTD SVG 1.1//EN"
  "http://www.w3.org/Graphics/SVG/1.1/DTD/svg11.dtd">
<!-- Created with matplotlib (https://matplotlib.org/) -->
<svg height="640pt" version="1.1" viewBox="0 0 640 640" width="640pt" xmlns="http://www.w3.org/2000/svg" xmlns:xlink="http://www.w3.org/1999/xlink">
 <defs>
  <style type="text/css">
*{stroke-linecap:butt;stroke-linejoin:round;white-space:pre;}
  </style>
 </defs>
 <g id="figure_1">
  <g id="patch_1">
   <path d="M 0 640 
L 640 640 
L 640 0 
L 0 0 
z
" style="fill:#ffffff;"/>
  </g>
  <g id="axes_1">
   <g id="patch_2">
    <path d="M 55.760937 579.248967 
L 629.2 579.248967 
L 629.2 10.8 
L 55.760937 10.8 
z
" style="fill:#ffffff;"/>
   </g>
   <g id="matplotlib.axis_1">
    <g id="xtick_1">
     <g id="line2d_1">
      <defs>
       <path d="M 0 0 
L 0 3.5 
" id="mc54f2cf2b9" style="stroke:#000000;stroke-width:0.8;"/>
      </defs>
      <g>
       <use style="stroke:#000000;stroke-width:0.8;" x="126.555883" xlink:href="#mc54f2cf2b9" y="579.248967"/>
      </g>
     </g>
     <g id="text_1">
      <!-- 2008-04 -->
      <defs>
       <path d="M 19.1875 8.296875 
L 53.609375 8.296875 
L 53.609375 0 
L 7.328125 0 
L 7.328125 8.296875 
Q 12.9375 14.109375 22.625 23.890625 
Q 32.328125 33.6875 34.8125 36.53125 
Q 39.546875 41.84375 41.421875 45.53125 
Q 43.3125 49.21875 43.3125 52.78125 
Q 43.3125 58.59375 39.234375 62.25 
Q 35.15625 65.921875 28.609375 65.921875 
Q 23.96875 65.921875 18.8125 64.3125 
Q 13.671875 62.703125 7.8125 59.421875 
L 7.8125 69.390625 
Q 13.765625 71.78125 18.9375 73 
Q 24.125 74.21875 28.421875 74.21875 
Q 39.75 74.21875 46.484375 68.546875 
Q 53.21875 62.890625 53.21875 53.421875 
Q 53.21875 48.921875 51.53125 44.890625 
Q 49.859375 40.875 45.40625 35.40625 
Q 44.1875 33.984375 37.640625 27.21875 
Q 31.109375 20.453125 19.1875 8.296875 
z
" id="DejaVuSans-50"/>
       <path d="M 31.78125 66.40625 
Q 24.171875 66.40625 20.328125 58.90625 
Q 16.5 51.421875 16.5 36.375 
Q 16.5 21.390625 20.328125 13.890625 
Q 24.171875 6.390625 31.78125 6.390625 
Q 39.453125 6.390625 43.28125 13.890625 
Q 47.125 21.390625 47.125 36.375 
Q 47.125 51.421875 43.28125 58.90625 
Q 39.453125 66.40625 31.78125 66.40625 
z
M 31.78125 74.21875 
Q 44.046875 74.21875 50.515625 64.515625 
Q 56.984375 54.828125 56.984375 36.375 
Q 56.984375 17.96875 50.515625 8.265625 
Q 44.046875 -1.421875 31.78125 -1.421875 
Q 19.53125 -1.421875 13.0625 8.265625 
Q 6.59375 17.96875 6.59375 36.375 
Q 6.59375 54.828125 13.0625 64.515625 
Q 19.53125 74.21875 31.78125 74.21875 
z
" id="DejaVuSans-48"/>
       <path d="M 31.78125 34.625 
Q 24.75 34.625 20.71875 30.859375 
Q 16.703125 27.09375 16.703125 20.515625 
Q 16.703125 13.921875 20.71875 10.15625 
Q 24.75 6.390625 31.78125 6.390625 
Q 38.8125 6.390625 42.859375 10.171875 
Q 46.921875 13.96875 46.921875 20.515625 
Q 46.921875 27.09375 42.890625 30.859375 
Q 38.875 34.625 31.78125 34.625 
z
M 21.921875 38.8125 
Q 15.578125 40.375 12.03125 44.71875 
Q 8.5 49.078125 8.5 55.328125 
Q 8.5 64.0625 14.71875 69.140625 
Q 20.953125 74.21875 31.78125 74.21875 
Q 42.671875 74.21875 48.875 69.140625 
Q 55.078125 64.0625 55.078125 55.328125 
Q 55.078125 49.078125 51.53125 44.71875 
Q 48 40.375 41.703125 38.8125 
Q 48.828125 37.15625 52.796875 32.3125 
Q 56.78125 27.484375 56.78125 20.515625 
Q 56.78125 9.90625 50.3125 4.234375 
Q 43.84375 -1.421875 31.78125 -1.421875 
Q 19.734375 -1.421875 13.25 4.234375 
Q 6.78125 9.90625 6.78125 20.515625 
Q 6.78125 27.484375 10.78125 32.3125 
Q 14.796875 37.15625 21.921875 38.8125 
z
M 18.3125 54.390625 
Q 18.3125 48.734375 21.84375 45.5625 
Q 25.390625 42.390625 31.78125 42.390625 
Q 38.140625 42.390625 41.71875 45.5625 
Q 45.3125 48.734375 45.3125 54.390625 
Q 45.3125 60.0625 41.71875 63.234375 
Q 38.140625 66.40625 31.78125 66.40625 
Q 25.390625 66.40625 21.84375 63.234375 
Q 18.3125 60.0625 18.3125 54.390625 
z
" id="DejaVuSans-56"/>
       <path d="M 4.890625 31.390625 
L 31.203125 31.390625 
L 31.203125 23.390625 
L 4.890625 23.390625 
z
" id="DejaVuSans-45"/>
       <path d="M 37.796875 64.3125 
L 12.890625 25.390625 
L 37.796875 25.390625 
z
M 35.203125 72.90625 
L 47.609375 72.90625 
L 47.609375 25.390625 
L 58.015625 25.390625 
L 58.015625 17.1875 
L 47.609375 17.1875 
L 47.609375 0 
L 37.796875 0 
L 37.796875 17.1875 
L 4.890625 17.1875 
L 4.890625 26.703125 
z
" id="DejaVuSans-52"/>
      </defs>
      <g transform="translate(89.331063 613.720813)rotate(-30)scale(0.1 -0.1)">
       <use xlink:href="#DejaVuSans-50"/>
       <use x="63.623047" xlink:href="#DejaVuSans-48"/>
       <use x="127.246094" xlink:href="#DejaVuSans-48"/>
       <use x="190.869141" xlink:href="#DejaVuSans-56"/>
       <use x="254.492188" xlink:href="#DejaVuSans-45"/>
       <use x="290.576172" xlink:href="#DejaVuSans-48"/>
       <use x="354.199219" xlink:href="#DejaVuSans-52"/>
      </g>
     </g>
    </g>
    <g id="xtick_2">
     <g id="line2d_2">
      <g>
       <use style="stroke:#000000;stroke-width:0.8;" x="198.13744" xlink:href="#mc54f2cf2b9" y="579.248967"/>
      </g>
     </g>
     <g id="text_2">
      <!-- 2008-07 -->
      <defs>
       <path d="M 8.203125 72.90625 
L 55.078125 72.90625 
L 55.078125 68.703125 
L 28.609375 0 
L 18.3125 0 
L 43.21875 64.59375 
L 8.203125 64.59375 
z
" id="DejaVuSans-55"/>
      </defs>
      <g transform="translate(160.912619 613.720813)rotate(-30)scale(0.1 -0.1)">
       <use xlink:href="#DejaVuSans-50"/>
       <use x="63.623047" xlink:href="#DejaVuSans-48"/>
       <use x="127.246094" xlink:href="#DejaVuSans-48"/>
       <use x="190.869141" xlink:href="#DejaVuSans-56"/>
       <use x="254.492188" xlink:href="#DejaVuSans-45"/>
       <use x="290.576172" xlink:href="#DejaVuSans-48"/>
       <use x="354.199219" xlink:href="#DejaVuSans-55"/>
      </g>
     </g>
    </g>
    <g id="xtick_3">
     <g id="line2d_3">
      <g>
       <use style="stroke:#000000;stroke-width:0.8;" x="270.505607" xlink:href="#mc54f2cf2b9" y="579.248967"/>
      </g>
     </g>
     <g id="text_3">
      <!-- 2008-10 -->
      <defs>
       <path d="M 12.40625 8.296875 
L 28.515625 8.296875 
L 28.515625 63.921875 
L 10.984375 60.40625 
L 10.984375 69.390625 
L 28.421875 72.90625 
L 38.28125 72.90625 
L 38.28125 8.296875 
L 54.390625 8.296875 
L 54.390625 0 
L 12.40625 0 
z
" id="DejaVuSans-49"/>
      </defs>
      <g transform="translate(233.280786 613.720813)rotate(-30)scale(0.1 -0.1)">
       <use xlink:href="#DejaVuSans-50"/>
       <use x="63.623047" xlink:href="#DejaVuSans-48"/>
       <use x="127.246094" xlink:href="#DejaVuSans-48"/>
       <use x="190.869141" xlink:href="#DejaVuSans-56"/>
       <use x="254.492188" xlink:href="#DejaVuSans-45"/>
       <use x="290.576172" xlink:href="#DejaVuSans-49"/>
       <use x="354.199219" xlink:href="#DejaVuSans-48"/>
      </g>
     </g>
    </g>
    <g id="xtick_4">
     <g id="line2d_4">
      <g>
       <use style="stroke:#000000;stroke-width:0.8;" x="342.873774" xlink:href="#mc54f2cf2b9" y="579.248967"/>
      </g>
     </g>
     <g id="text_4">
      <!-- 2009-01 -->
      <defs>
       <path d="M 10.984375 1.515625 
L 10.984375 10.5 
Q 14.703125 8.734375 18.5 7.8125 
Q 22.3125 6.890625 25.984375 6.890625 
Q 35.75 6.890625 40.890625 13.453125 
Q 46.046875 20.015625 46.78125 33.40625 
Q 43.953125 29.203125 39.59375 26.953125 
Q 35.25 24.703125 29.984375 24.703125 
Q 19.046875 24.703125 12.671875 31.3125 
Q 6.296875 37.9375 6.296875 49.421875 
Q 6.296875 60.640625 12.9375 67.421875 
Q 19.578125 74.21875 30.609375 74.21875 
Q 43.265625 74.21875 49.921875 64.515625 
Q 56.59375 54.828125 56.59375 36.375 
Q 56.59375 19.140625 48.40625 8.859375 
Q 40.234375 -1.421875 26.421875 -1.421875 
Q 22.703125 -1.421875 18.890625 -0.6875 
Q 15.09375 0.046875 10.984375 1.515625 
z
M 30.609375 32.421875 
Q 37.25 32.421875 41.125 36.953125 
Q 45.015625 41.5 45.015625 49.421875 
Q 45.015625 57.28125 41.125 61.84375 
Q 37.25 66.40625 30.609375 66.40625 
Q 23.96875 66.40625 20.09375 61.84375 
Q 16.21875 57.28125 16.21875 49.421875 
Q 16.21875 41.5 20.09375 36.953125 
Q 23.96875 32.421875 30.609375 32.421875 
z
" id="DejaVuSans-57"/>
      </defs>
      <g transform="translate(305.648953 613.720813)rotate(-30)scale(0.1 -0.1)">
       <use xlink:href="#DejaVuSans-50"/>
       <use x="63.623047" xlink:href="#DejaVuSans-48"/>
       <use x="127.246094" xlink:href="#DejaVuSans-48"/>
       <use x="190.869141" xlink:href="#DejaVuSans-57"/>
       <use x="254.492188" xlink:href="#DejaVuSans-45"/>
       <use x="290.576172" xlink:href="#DejaVuSans-48"/>
       <use x="354.199219" xlink:href="#DejaVuSans-49"/>
      </g>
     </g>
    </g>
    <g id="xtick_5">
     <g id="line2d_5">
      <g>
       <use style="stroke:#000000;stroke-width:0.8;" x="413.66872" xlink:href="#mc54f2cf2b9" y="579.248967"/>
      </g>
     </g>
     <g id="text_5">
      <!-- 2009-04 -->
      <g transform="translate(376.443899 613.720813)rotate(-30)scale(0.1 -0.1)">
       <use xlink:href="#DejaVuSans-50"/>
       <use x="63.623047" xlink:href="#DejaVuSans-48"/>
       <use x="127.246094" xlink:href="#DejaVuSans-48"/>
       <use x="190.869141" xlink:href="#DejaVuSans-57"/>
       <use x="254.492188" xlink:href="#DejaVuSans-45"/>
       <use x="290.576172" xlink:href="#DejaVuSans-48"/>
       <use x="354.199219" xlink:href="#DejaVuSans-52"/>
      </g>
     </g>
    </g>
    <g id="xtick_6">
     <g id="line2d_6">
      <g>
       <use style="stroke:#000000;stroke-width:0.8;" x="485.250276" xlink:href="#mc54f2cf2b9" y="579.248967"/>
      </g>
     </g>
     <g id="text_6">
      <!-- 2009-07 -->
      <g transform="translate(448.025456 613.720813)rotate(-30)scale(0.1 -0.1)">
       <use xlink:href="#DejaVuSans-50"/>
       <use x="63.623047" xlink:href="#DejaVuSans-48"/>
       <use x="127.246094" xlink:href="#DejaVuSans-48"/>
       <use x="190.869141" xlink:href="#DejaVuSans-57"/>
       <use x="254.492188" xlink:href="#DejaVuSans-45"/>
       <use x="290.576172" xlink:href="#DejaVuSans-48"/>
       <use x="354.199219" xlink:href="#DejaVuSans-55"/>
      </g>
     </g>
    </g>
    <g id="xtick_7">
     <g id="line2d_7">
      <g>
       <use style="stroke:#000000;stroke-width:0.8;" x="557.618444" xlink:href="#mc54f2cf2b9" y="579.248967"/>
      </g>
     </g>
     <g id="text_7">
      <!-- 2009-10 -->
      <g transform="translate(520.393623 613.720813)rotate(-30)scale(0.1 -0.1)">
       <use xlink:href="#DejaVuSans-50"/>
       <use x="63.623047" xlink:href="#DejaVuSans-48"/>
       <use x="127.246094" xlink:href="#DejaVuSans-48"/>
       <use x="190.869141" xlink:href="#DejaVuSans-57"/>
       <use x="254.492188" xlink:href="#DejaVuSans-45"/>
       <use x="290.576172" xlink:href="#DejaVuSans-49"/>
       <use x="354.199219" xlink:href="#DejaVuSans-48"/>
      </g>
     </g>
    </g>
    <g id="text_8">
     <!-- Date -->
     <defs>
      <path d="M 19.671875 64.796875 
L 19.671875 8.109375 
L 31.59375 8.109375 
Q 46.6875 8.109375 53.6875 14.9375 
Q 60.6875 21.78125 60.6875 36.53125 
Q 60.6875 51.171875 53.6875 57.984375 
Q 46.6875 64.796875 31.59375 64.796875 
z
M 9.8125 72.90625 
L 30.078125 72.90625 
Q 51.265625 72.90625 61.171875 64.09375 
Q 71.09375 55.28125 71.09375 36.53125 
Q 71.09375 17.671875 61.125 8.828125 
Q 51.171875 0 30.078125 0 
L 9.8125 0 
z
" id="DejaVuSans-68"/>
      <path d="M 34.28125 27.484375 
Q 23.390625 27.484375 19.1875 25 
Q 14.984375 22.515625 14.984375 16.5 
Q 14.984375 11.71875 18.140625 8.90625 
Q 21.296875 6.109375 26.703125 6.109375 
Q 34.1875 6.109375 38.703125 11.40625 
Q 43.21875 16.703125 43.21875 25.484375 
L 43.21875 27.484375 
z
M 52.203125 31.203125 
L 52.203125 0 
L 43.21875 0 
L 43.21875 8.296875 
Q 40.140625 3.328125 35.546875 0.953125 
Q 30.953125 -1.421875 24.3125 -1.421875 
Q 15.921875 -1.421875 10.953125 3.296875 
Q 6 8.015625 6 15.921875 
Q 6 25.140625 12.171875 29.828125 
Q 18.359375 34.515625 30.609375 34.515625 
L 43.21875 34.515625 
L 43.21875 35.40625 
Q 43.21875 41.609375 39.140625 45 
Q 35.0625 48.390625 27.6875 48.390625 
Q 23 48.390625 18.546875 47.265625 
Q 14.109375 46.140625 10.015625 43.890625 
L 10.015625 52.203125 
Q 14.9375 54.109375 19.578125 55.046875 
Q 24.21875 56 28.609375 56 
Q 40.484375 56 46.34375 49.84375 
Q 52.203125 43.703125 52.203125 31.203125 
z
" id="DejaVuSans-97"/>
      <path d="M 18.3125 70.21875 
L 18.3125 54.6875 
L 36.8125 54.6875 
L 36.8125 47.703125 
L 18.3125 47.703125 
L 18.3125 18.015625 
Q 18.3125 11.328125 20.140625 9.421875 
Q 21.96875 7.515625 27.59375 7.515625 
L 36.8125 7.515625 
L 36.8125 0 
L 27.59375 0 
Q 17.1875 0 13.234375 3.875 
Q 9.28125 7.765625 9.28125 18.015625 
L 9.28125 47.703125 
L 2.6875 47.703125 
L 2.6875 54.6875 
L 9.28125 54.6875 
L 9.28125 70.21875 
z
" id="DejaVuSans-116"/>
      <path d="M 56.203125 29.59375 
L 56.203125 25.203125 
L 14.890625 25.203125 
Q 15.484375 15.921875 20.484375 11.0625 
Q 25.484375 6.203125 34.421875 6.203125 
Q 39.59375 6.203125 44.453125 7.46875 
Q 49.3125 8.734375 54.109375 11.28125 
L 54.109375 2.78125 
Q 49.265625 0.734375 44.1875 -0.34375 
Q 39.109375 -1.421875 33.890625 -1.421875 
Q 20.796875 -1.421875 13.15625 6.1875 
Q 5.515625 13.8125 5.515625 26.8125 
Q 5.515625 40.234375 12.765625 48.109375 
Q 20.015625 56 32.328125 56 
Q 43.359375 56 49.78125 48.890625 
Q 56.203125 41.796875 56.203125 29.59375 
z
M 47.21875 32.234375 
Q 47.125 39.59375 43.09375 43.984375 
Q 39.0625 48.390625 32.421875 48.390625 
Q 24.90625 48.390625 20.390625 44.140625 
Q 15.875 39.890625 15.1875 32.171875 
z
" id="DejaVuSans-101"/>
     </defs>
     <g transform="translate(330.529687 627.120312)scale(0.1 -0.1)">
      <use xlink:href="#DejaVuSans-68"/>
      <use x="77.001953" xlink:href="#DejaVuSans-97"/>
      <use x="138.28125" xlink:href="#DejaVuSans-116"/>
      <use x="177.490234" xlink:href="#DejaVuSans-101"/>
     </g>
    </g>
   </g>
   <g id="matplotlib.axis_2">
    <g id="ytick_1">
     <g id="line2d_8">
      <defs>
       <path d="M 0 0 
L -3.5 0 
" id="m71d1abc97e" style="stroke:#000000;stroke-width:0.8;"/>
      </defs>
      <g>
       <use style="stroke:#000000;stroke-width:0.8;" x="55.760937" xlink:href="#m71d1abc97e" y="554.609011"/>
      </g>
     </g>
     <g id="text_9">
      <!-- −0.2 -->
      <defs>
       <path d="M 10.59375 35.5 
L 73.1875 35.5 
L 73.1875 27.203125 
L 10.59375 27.203125 
z
" id="DejaVuSans-8722"/>
       <path d="M 10.6875 12.40625 
L 21 12.40625 
L 21 0 
L 10.6875 0 
z
" id="DejaVuSans-46"/>
      </defs>
      <g transform="translate(24.478125 558.40823)scale(0.1 -0.1)">
       <use xlink:href="#DejaVuSans-8722"/>
       <use x="83.789062" xlink:href="#DejaVuSans-48"/>
       <use x="147.412109" xlink:href="#DejaVuSans-46"/>
       <use x="179.199219" xlink:href="#DejaVuSans-50"/>
      </g>
     </g>
    </g>
    <g id="ytick_2">
     <g id="line2d_9">
      <g>
       <use style="stroke:#000000;stroke-width:0.8;" x="55.760937" xlink:href="#m71d1abc97e" y="459.923824"/>
      </g>
     </g>
     <g id="text_10">
      <!-- −0.1 -->
      <g transform="translate(24.478125 463.723043)scale(0.1 -0.1)">
       <use xlink:href="#DejaVuSans-8722"/>
       <use x="83.789062" xlink:href="#DejaVuSans-48"/>
       <use x="147.412109" xlink:href="#DejaVuSans-46"/>
       <use x="179.199219" xlink:href="#DejaVuSans-49"/>
      </g>
     </g>
    </g>
    <g id="ytick_3">
     <g id="line2d_10">
      <g>
       <use style="stroke:#000000;stroke-width:0.8;" x="55.760937" xlink:href="#m71d1abc97e" y="365.238637"/>
      </g>
     </g>
     <g id="text_11">
      <!-- 0.0 -->
      <g transform="translate(32.857812 369.037855)scale(0.1 -0.1)">
       <use xlink:href="#DejaVuSans-48"/>
       <use x="63.623047" xlink:href="#DejaVuSans-46"/>
       <use x="95.410156" xlink:href="#DejaVuSans-48"/>
      </g>
     </g>
    </g>
    <g id="ytick_4">
     <g id="line2d_11">
      <g>
       <use style="stroke:#000000;stroke-width:0.8;" x="55.760937" xlink:href="#m71d1abc97e" y="270.553449"/>
      </g>
     </g>
     <g id="text_12">
      <!-- 0.1 -->
      <g transform="translate(32.857812 274.352668)scale(0.1 -0.1)">
       <use xlink:href="#DejaVuSans-48"/>
       <use x="63.623047" xlink:href="#DejaVuSans-46"/>
       <use x="95.410156" xlink:href="#DejaVuSans-49"/>
      </g>
     </g>
    </g>
    <g id="ytick_5">
     <g id="line2d_12">
      <g>
       <use style="stroke:#000000;stroke-width:0.8;" x="55.760937" xlink:href="#m71d1abc97e" y="175.868262"/>
      </g>
     </g>
     <g id="text_13">
      <!-- 0.2 -->
      <g transform="translate(32.857812 179.667481)scale(0.1 -0.1)">
       <use xlink:href="#DejaVuSans-48"/>
       <use x="63.623047" xlink:href="#DejaVuSans-46"/>
       <use x="95.410156" xlink:href="#DejaVuSans-50"/>
      </g>
     </g>
    </g>
    <g id="ytick_6">
     <g id="line2d_13">
      <g>
       <use style="stroke:#000000;stroke-width:0.8;" x="55.760937" xlink:href="#m71d1abc97e" y="81.183074"/>
      </g>
     </g>
     <g id="text_14">
      <!-- 0.3 -->
      <defs>
       <path d="M 40.578125 39.3125 
Q 47.65625 37.796875 51.625 33 
Q 55.609375 28.21875 55.609375 21.1875 
Q 55.609375 10.40625 48.1875 4.484375 
Q 40.765625 -1.421875 27.09375 -1.421875 
Q 22.515625 -1.421875 17.65625 -0.515625 
Q 12.796875 0.390625 7.625 2.203125 
L 7.625 11.71875 
Q 11.71875 9.328125 16.59375 8.109375 
Q 21.484375 6.890625 26.8125 6.890625 
Q 36.078125 6.890625 40.9375 10.546875 
Q 45.796875 14.203125 45.796875 21.1875 
Q 45.796875 27.640625 41.28125 31.265625 
Q 36.765625 34.90625 28.71875 34.90625 
L 20.21875 34.90625 
L 20.21875 43.015625 
L 29.109375 43.015625 
Q 36.375 43.015625 40.234375 45.921875 
Q 44.09375 48.828125 44.09375 54.296875 
Q 44.09375 59.90625 40.109375 62.90625 
Q 36.140625 65.921875 28.71875 65.921875 
Q 24.65625 65.921875 20.015625 65.03125 
Q 15.375 64.15625 9.8125 62.3125 
L 9.8125 71.09375 
Q 15.4375 72.65625 20.34375 73.4375 
Q 25.25 74.21875 29.59375 74.21875 
Q 40.828125 74.21875 47.359375 69.109375 
Q 53.90625 64.015625 53.90625 55.328125 
Q 53.90625 49.265625 50.4375 45.09375 
Q 46.96875 40.921875 40.578125 39.3125 
z
" id="DejaVuSans-51"/>
      </defs>
      <g transform="translate(32.857812 84.982293)scale(0.1 -0.1)">
       <use xlink:href="#DejaVuSans-48"/>
       <use x="63.623047" xlink:href="#DejaVuSans-46"/>
       <use x="95.410156" xlink:href="#DejaVuSans-51"/>
      </g>
     </g>
    </g>
    <g id="text_15">
     <!-- Daily Return, % -->
     <defs>
      <path d="M 9.421875 54.6875 
L 18.40625 54.6875 
L 18.40625 0 
L 9.421875 0 
z
M 9.421875 75.984375 
L 18.40625 75.984375 
L 18.40625 64.59375 
L 9.421875 64.59375 
z
" id="DejaVuSans-105"/>
      <path d="M 9.421875 75.984375 
L 18.40625 75.984375 
L 18.40625 0 
L 9.421875 0 
z
" id="DejaVuSans-108"/>
      <path d="M 32.171875 -5.078125 
Q 28.375 -14.84375 24.75 -17.8125 
Q 21.140625 -20.796875 15.09375 -20.796875 
L 7.90625 -20.796875 
L 7.90625 -13.28125 
L 13.1875 -13.28125 
Q 16.890625 -13.28125 18.9375 -11.515625 
Q 21 -9.765625 23.484375 -3.21875 
L 25.09375 0.875 
L 2.984375 54.6875 
L 12.5 54.6875 
L 29.59375 11.921875 
L 46.6875 54.6875 
L 56.203125 54.6875 
z
" id="DejaVuSans-121"/>
      <path id="DejaVuSans-32"/>
      <path d="M 44.390625 34.1875 
Q 47.5625 33.109375 50.5625 29.59375 
Q 53.5625 26.078125 56.59375 19.921875 
L 66.609375 0 
L 56 0 
L 46.6875 18.703125 
Q 43.0625 26.03125 39.671875 28.421875 
Q 36.28125 30.8125 30.421875 30.8125 
L 19.671875 30.8125 
L 19.671875 0 
L 9.8125 0 
L 9.8125 72.90625 
L 32.078125 72.90625 
Q 44.578125 72.90625 50.734375 67.671875 
Q 56.890625 62.453125 56.890625 51.90625 
Q 56.890625 45.015625 53.6875 40.46875 
Q 50.484375 35.9375 44.390625 34.1875 
z
M 19.671875 64.796875 
L 19.671875 38.921875 
L 32.078125 38.921875 
Q 39.203125 38.921875 42.84375 42.21875 
Q 46.484375 45.515625 46.484375 51.90625 
Q 46.484375 58.296875 42.84375 61.546875 
Q 39.203125 64.796875 32.078125 64.796875 
z
" id="DejaVuSans-82"/>
      <path d="M 8.5 21.578125 
L 8.5 54.6875 
L 17.484375 54.6875 
L 17.484375 21.921875 
Q 17.484375 14.15625 20.5 10.265625 
Q 23.53125 6.390625 29.59375 6.390625 
Q 36.859375 6.390625 41.078125 11.03125 
Q 45.3125 15.671875 45.3125 23.6875 
L 45.3125 54.6875 
L 54.296875 54.6875 
L 54.296875 0 
L 45.3125 0 
L 45.3125 8.40625 
Q 42.046875 3.421875 37.71875 1 
Q 33.40625 -1.421875 27.6875 -1.421875 
Q 18.265625 -1.421875 13.375 4.4375 
Q 8.5 10.296875 8.5 21.578125 
z
M 31.109375 56 
z
" id="DejaVuSans-117"/>
      <path d="M 41.109375 46.296875 
Q 39.59375 47.171875 37.8125 47.578125 
Q 36.03125 48 33.890625 48 
Q 26.265625 48 22.1875 43.046875 
Q 18.109375 38.09375 18.109375 28.8125 
L 18.109375 0 
L 9.078125 0 
L 9.078125 54.6875 
L 18.109375 54.6875 
L 18.109375 46.1875 
Q 20.953125 51.171875 25.484375 53.578125 
Q 30.03125 56 36.53125 56 
Q 37.453125 56 38.578125 55.875 
Q 39.703125 55.765625 41.0625 55.515625 
z
" id="DejaVuSans-114"/>
      <path d="M 54.890625 33.015625 
L 54.890625 0 
L 45.90625 0 
L 45.90625 32.71875 
Q 45.90625 40.484375 42.875 44.328125 
Q 39.84375 48.1875 33.796875 48.1875 
Q 26.515625 48.1875 22.3125 43.546875 
Q 18.109375 38.921875 18.109375 30.90625 
L 18.109375 0 
L 9.078125 0 
L 9.078125 54.6875 
L 18.109375 54.6875 
L 18.109375 46.1875 
Q 21.34375 51.125 25.703125 53.5625 
Q 30.078125 56 35.796875 56 
Q 45.21875 56 50.046875 50.171875 
Q 54.890625 44.34375 54.890625 33.015625 
z
" id="DejaVuSans-110"/>
      <path d="M 11.71875 12.40625 
L 22.015625 12.40625 
L 22.015625 4 
L 14.015625 -11.625 
L 7.71875 -11.625 
L 11.71875 4 
z
" id="DejaVuSans-44"/>
      <path d="M 72.703125 32.078125 
Q 68.453125 32.078125 66.03125 28.46875 
Q 63.625 24.859375 63.625 18.40625 
Q 63.625 12.0625 66.03125 8.421875 
Q 68.453125 4.78125 72.703125 4.78125 
Q 76.859375 4.78125 79.265625 8.421875 
Q 81.6875 12.0625 81.6875 18.40625 
Q 81.6875 24.8125 79.265625 28.4375 
Q 76.859375 32.078125 72.703125 32.078125 
z
M 72.703125 38.28125 
Q 80.421875 38.28125 84.953125 32.90625 
Q 89.5 27.546875 89.5 18.40625 
Q 89.5 9.28125 84.9375 3.921875 
Q 80.375 -1.421875 72.703125 -1.421875 
Q 64.890625 -1.421875 60.34375 3.921875 
Q 55.8125 9.28125 55.8125 18.40625 
Q 55.8125 27.59375 60.375 32.9375 
Q 64.9375 38.28125 72.703125 38.28125 
z
M 22.3125 68.015625 
Q 18.109375 68.015625 15.6875 64.375 
Q 13.28125 60.75 13.28125 54.390625 
Q 13.28125 47.953125 15.671875 44.328125 
Q 18.0625 40.71875 22.3125 40.71875 
Q 26.5625 40.71875 28.96875 44.328125 
Q 31.390625 47.953125 31.390625 54.390625 
Q 31.390625 60.6875 28.953125 64.34375 
Q 26.515625 68.015625 22.3125 68.015625 
z
M 66.40625 74.21875 
L 74.21875 74.21875 
L 28.609375 -1.421875 
L 20.796875 -1.421875 
z
M 22.3125 74.21875 
Q 30.03125 74.21875 34.609375 68.875 
Q 39.203125 63.53125 39.203125 54.390625 
Q 39.203125 45.171875 34.640625 39.84375 
Q 30.078125 34.515625 22.3125 34.515625 
Q 14.546875 34.515625 10.03125 39.859375 
Q 5.515625 45.21875 5.515625 54.390625 
Q 5.515625 63.484375 10.046875 68.84375 
Q 14.59375 74.21875 22.3125 74.21875 
z
" id="DejaVuSans-37"/>
     </defs>
     <g transform="translate(18.398437 334.094015)rotate(-90)scale(0.1 -0.1)">
      <use xlink:href="#DejaVuSans-68"/>
      <use x="77.001953" xlink:href="#DejaVuSans-97"/>
      <use x="138.28125" xlink:href="#DejaVuSans-105"/>
      <use x="166.064453" xlink:href="#DejaVuSans-108"/>
      <use x="193.847656" xlink:href="#DejaVuSans-121"/>
      <use x="253.027344" xlink:href="#DejaVuSans-32"/>
      <use x="284.814453" xlink:href="#DejaVuSans-82"/>
      <use x="354.234375" xlink:href="#DejaVuSans-101"/>
      <use x="415.757812" xlink:href="#DejaVuSans-116"/>
      <use x="454.966797" xlink:href="#DejaVuSans-117"/>
      <use x="518.345703" xlink:href="#DejaVuSans-114"/>
      <use x="559.443359" xlink:href="#DejaVuSans-110"/>
      <use x="622.822266" xlink:href="#DejaVuSans-44"/>
      <use x="654.609375" xlink:href="#DejaVuSans-32"/>
      <use x="686.396484" xlink:href="#DejaVuSans-37"/>
     </g>
    </g>
   </g>
   <g id="line2d_14">
    <path clip-path="url(#p6355ed9d5e)" d="M 56.547548 369.978178 
L 57.334159 389.548873 
L 59.69399 373.609949 
L 60.480601 399.727009 
L 61.267211 349.2513 
L 62.053822 343.866317 
L 62.840432 362.038973 
L 65.200264 352.237052 
L 65.986874 413.423135 
L 66.773485 351.269968 
L 67.560095 403.231269 
L 68.346706 378.140826 
L 71.493148 335.782739 
L 72.279758 291.806757 
L 73.066369 362.840426 
L 73.852979 398.281403 
L 76.212811 336.369908 
L 76.999421 354.10889 
L 77.786032 366.945773 
L 78.572642 357.87819 
L 79.359253 343.687895 
L 81.719084 387.976222 
L 82.505695 419.820763 
L 83.292305 373.81627 
L 84.078916 355.855053 
L 84.865526 391.07479 
L 87.225358 374.913936 
L 88.011968 367.434535 
L 88.798579 357.480641 
L 89.585189 386.72446 
L 90.3718 363.26017 
L 93.518242 379.782799 
L 94.304853 345.42901 
L 95.091463 374.606829 
L 95.878074 350.825258 
L 98.237905 362.908054 
L 99.024516 372.945119 
L 99.811126 338.089979 
L 100.597737 395.277386 
L 101.384347 409.153394 
L 103.744179 385.645934 
L 104.530789 382.564565 
L 105.3174 364.751912 
L 106.10401 403.425842 
L 106.890621 363.689812 
L 109.250452 401.760288 
L 110.037063 290.993147 
L 110.823673 378.056832 
L 111.610284 362.932312 
L 112.396894 413.42429 
L 114.756726 382.483843 
L 115.543336 243.900293 
L 116.329947 379.006923 
L 117.116557 268.922853 
L 120.262999 359.523999 
L 121.04961 361.813034 
L 121.83622 402.522216 
L 123.409441 386.612615 
L 125.769273 350.771411 
L 126.555883 283.441726 
L 127.342494 366.102704 
L 128.129105 363.150884 
L 128.915715 379.304947 
L 131.275547 353.351926 
L 132.062157 378.944427 
L 132.848768 383.840842 
L 133.635378 379.688379 
L 134.421989 384.736276 
L 136.78182 388.414763 
L 138.355041 325.307104 
L 139.141652 348.955588 
L 139.928262 333.588392 
L 142.288094 370.940612 
L 143.074704 363.07934 
L 143.861315 372.035538 
L 144.647925 317.339203 
L 145.434536 348.140979 
L 147.794367 371.22705 
L 148.580978 372.334658 
L 149.367588 375.166002 
L 150.154199 332.619845 
L 150.940809 363.074474 
L 153.300641 385.394262 
L 154.087251 360.957419 
L 154.873862 404.245419 
L 155.660472 375.827318 
L 156.447083 371.273999 
L 158.806914 348.007212 
L 159.593525 387.488924 
L 160.380135 359.210567 
L 161.166746 352.727891 
L 161.953356 378.128469 
L 164.313188 377.846775 
L 165.099799 395.788171 
L 165.886409 398.475202 
L 166.67302 355.829136 
L 167.45963 388.055813 
L 170.606072 351.251653 
L 171.392683 362.511227 
L 172.179293 348.996449 
L 172.965904 367.285003 
L 175.325735 386.076628 
L 176.112346 372.028883 
L 176.898956 364.415294 
L 177.685567 348.089747 
L 178.472177 419.144041 
L 180.832009 399.278097 
L 181.618619 351.236171 
L 182.40523 404.158535 
L 183.19184 336.939637 
L 183.978451 315.651884 
L 186.338282 346.785211 
L 187.124893 387.737835 
L 187.911503 362.77578 
L 188.698114 365.978353 
L 189.484724 393.18246 
L 191.844556 394.765609 
L 192.631166 345.330395 
L 193.417777 363.413917 
L 194.204387 407.879941 
L 194.990998 382.196562 
L 197.350829 380.626065 
L 198.13744 357.953518 
L 198.92405 365.260377 
L 199.710661 360.265959 
L 202.857103 397.202159 
L 203.643714 322.253265 
L 204.430324 412.206092 
L 205.216935 367.70046 
L 206.003545 386.985525 
L 208.363377 407.428291 
L 209.149987 387.397664 
L 209.936598 243.125294 
L 210.723208 278.11076 
L 211.509819 347.951705 
L 213.86965 384.799229 
L 214.656261 313.422628 
L 215.442871 353.780411 
L 216.229482 425.142468 
L 217.016092 370.764244 
L 219.375924 413.372775 
L 220.162534 309.584637 
L 220.949145 336.320609 
L 221.735755 369.413138 
L 222.522366 355.052259 
L 224.882197 372.595138 
L 225.668808 327.527723 
L 226.455418 372.385494 
L 227.242029 401.423586 
L 228.028639 327.777159 
L 230.388471 350.665601 
L 231.175081 432.260607 
L 231.961692 397.348477 
L 232.748302 350.563267 
L 233.534913 360.904861 
L 235.894745 397.400527 
L 236.681355 390.534964 
L 237.467966 355.512776 
L 238.254576 375.132878 
L 239.041187 330.136702 
L 241.401018 391.982902 
L 242.187629 356.468504 
L 242.974239 355.86568 
L 243.76085 322.544148 
L 244.54746 364.258407 
L 247.693902 355.994076 
L 248.480513 346.408654 
L 249.267123 411.530337 
L 250.053734 335.298218 
L 252.413565 317.723799 
L 253.200176 420.804893 
L 253.986786 382.811511 
L 254.773397 354.726184 
L 255.560007 389.535673 
L 257.919839 485.829182 
L 258.706449 363.403965 
L 259.49306 510.230595 
L 260.27967 295.787505 
L 261.066281 172.024561 
L 263.426112 421.512831 
L 264.212723 350.547416 
L 264.999333 389.874135 
L 265.785944 315.812908 
L 266.572554 346.355696 
L 268.932386 494.580457 
L 269.718996 258.538408 
L 270.505607 295.01408 
L 271.292218 386.273771 
L 272.078828 426.784881 
L 274.43866 398.716722 
L 275.22527 497.251313 
L 276.011881 392.594045 
L 276.798491 490.880163 
L 277.585102 393.60491 
L 279.944933 70.65652 
L 280.731544 253.723001 
L 281.518154 468.416341 
L 282.304765 352.009084 
L 283.091375 376.238357 
L 285.451207 332.461444 
L 286.237817 380.013266 
L 287.024428 417.368085 
L 287.811038 393.278733 
L 288.597649 436.144878 
L 290.95748 440.494557 
L 291.744091 279.170129 
L 292.530701 382.468565 
L 294.103922 308.734089 
L 296.463754 363.871573 
L 297.250364 317.656206 
L 298.036975 456.761199 
L 298.823585 433.175321 
L 299.610196 361.776419 
L 301.970027 426.590532 
L 302.756638 370.869293 
L 303.543248 463.24138 
L 304.329859 315.444847 
L 305.116469 412.968207 
L 307.476301 423.556667 
L 308.262912 368.555278 
L 309.049522 508.93087 
L 309.836133 507.956631 
L 312.982575 36.638589 
L 313.769185 310.216948 
L 314.555796 301.334187 
L 316.129017 303.778098 
L 318.488848 553.410377 
L 319.275459 303.484484 
L 320.062069 281.325952 
L 320.84868 357.702792 
L 321.63529 314.492997 
L 323.995122 289.361741 
L 324.781732 412.448018 
L 325.568343 384.842144 
L 326.354953 431.305629 
L 327.141564 358.061713 
L 329.501395 400.196397 
L 330.288006 230.740207 
L 331.074616 366.240356 
L 331.861227 389.647874 
L 332.647837 386.804377 
L 335.007669 402.512969 
L 335.794279 386.746961 
L 336.58089 344.894878 
L 338.154111 366.387524 
L 340.513942 365.147331 
L 341.300553 325.562541 
L 342.087163 344.435047 
L 343.660385 330.753004 
L 346.020216 368.795418 
L 346.806827 321.290655 
L 347.593437 418.382243 
L 348.380048 360.273595 
L 349.166658 390.774677 
L 351.52649 436.211822 
L 352.3131 337.229889 
L 353.099711 451.891663 
L 353.886321 434.783711 
L 354.672932 412.671349 
L 357.819374 544.332893 
L 358.605984 121.554972 
L 359.392595 382.506651 
L 360.179205 297.600187 
L 362.539037 370.206655 
L 363.325647 322.428613 
L 364.112258 229.722108 
L 364.898868 431.867484 
L 365.685479 404.164493 
L 368.04531 346.450294 
L 368.831921 388.922521 
L 369.618531 336.439048 
L 370.405142 331.780356 
L 371.191752 303.733251 
L 373.551584 354.920664 
L 374.338194 470.661455 
L 375.124805 291.65662 
L 375.911415 366.462326 
L 376.698026 385.127784 
L 379.844468 482.633091 
L 380.631079 376.683335 
L 382.2043 435.941424 
L 384.564131 366.893499 
L 385.350742 216.991917 
L 386.137352 375.641795 
L 386.923963 355.302671 
L 387.710573 482.281711 
L 390.070405 461.85136 
L 390.857015 370.63941 
L 391.643626 377.173375 
L 392.430236 449.108972 
L 393.216847 400.586846 
L 395.576678 376.052346 
L 396.363289 122.574173 
L 397.149899 300.916719 
L 397.93651 282.752936 
L 398.72312 328.025241 
L 401.082952 332.662029 
L 402.656173 274.186673 
L 403.442783 465.195576 
L 406.589225 176.23568 
L 407.375836 390.618098 
L 408.162446 338.115751 
L 409.735667 415.334421 
L 412.095499 453.546816 
L 412.882109 306.268414 
L 413.66872 317.797702 
L 414.455331 357.520617 
L 415.241941 325.854927 
L 417.601773 397.598043 
L 418.388383 370.78707 
L 419.174994 377.928026 
L 419.961604 242.007705 
L 423.108046 273.732984 
L 423.894657 428.929497 
L 424.681267 342.955435 
L 425.467878 352.660941 
L 426.254488 377.328029 
L 428.61432 461.677428 
L 429.40093 296.057421 
L 430.187541 390.059273 
L 430.974151 359.665127 
L 431.760762 367.677106 
L 434.120593 386.724157 
L 434.907204 381.499838 
L 435.693814 299.083052 
L 436.480425 372.404649 
L 437.267035 355.892711 
L 439.626867 298.675123 
L 440.413477 360.017685 
L 441.200088 291.242296 
L 441.986698 401.606725 
L 442.773309 307.720017 
L 445.13314 417.905757 
L 445.919751 378.075715 
L 446.706361 412.75484 
L 447.492972 323.350719 
L 448.279582 376.604884 
L 450.639414 303.532738 
L 451.426025 364.030349 
L 452.212635 393.94046 
L 452.999246 358.906155 
L 453.785856 371.961888 
L 456.932298 327.616148 
L 457.718909 388.556641 
L 458.505519 338.937785 
L 459.29213 353.371377 
L 461.651961 375.96551 
L 462.438572 387.723914 
L 463.225182 381.430718 
L 464.011793 319.148675 
L 464.798403 380.362857 
L 467.158235 360.05833 
L 467.944845 368.360353 
L 468.731456 380.510801 
L 469.518066 365.167639 
L 470.304677 362.146836 
L 472.664508 394.310312 
L 473.451119 377.745636 
L 474.237729 395.558409 
L 475.02434 340.551603 
L 475.81095 354.370714 
L 478.170782 416.192387 
L 478.957392 342.675517 
L 479.744003 361.634553 
L 480.530613 356.369477 
L 481.317224 352.933122 
L 483.677055 356.792737 
L 484.463666 380.352241 
L 485.250276 369.036202 
L 486.036887 400.515158 
L 489.183329 366.54354 
L 489.96994 384.705042 
L 490.75655 384.629891 
L 491.543161 340.839737 
L 492.329771 384.716745 
L 494.689603 299.918624 
L 495.476213 353.29197 
L 496.262824 317.661751 
L 497.049434 376.105202 
L 497.836045 365.764877 
L 500.195876 374.914415 
L 500.982487 384.228007 
L 501.769097 351.738748 
L 502.555708 343.334415 
L 503.342318 373.533731 
L 505.70215 370.293385 
L 506.48876 350.95215 
L 507.275371 351.192274 
L 508.061981 351.849784 
L 508.848592 359.418398 
L 511.208423 350.786372 
L 511.995034 348.70026 
L 512.781644 319.273074 
L 513.568255 362.992405 
L 514.354865 351.980901 
L 516.714697 365.576853 
L 517.501307 397.198751 
L 518.287918 333.605139 
L 519.074528 356.359893 
L 519.861139 372.1192 
L 522.220971 395.077512 
L 523.007581 344.463473 
L 523.794192 367.856669 
L 524.580802 331.500826 
L 525.367413 342.313556 
L 527.727244 364.384304 
L 528.513855 357.792019 
L 529.300465 376.465068 
L 530.087076 341.787311 
L 530.873686 363.167254 
L 533.233518 375.584871 
L 534.020128 416.676276 
L 535.593349 337.544061 
L 536.37996 358.057537 
L 539.526402 364.96039 
L 540.313012 353.765943 
L 541.099623 352.642042 
L 541.886233 373.819083 
L 544.246065 359.394246 
L 545.032675 390.697576 
L 545.819286 336.725937 
L 546.605896 342.037382 
L 547.392507 369.10059 
L 549.752338 357.184663 
L 550.538949 328.959806 
L 551.325559 388.256178 
L 552.11217 383.931809 
L 552.89878 377.741451 
L 555.258612 339.299528 
L 556.045222 357.946377 
L 556.831833 364.384463 
L 557.618444 408.259452 
L 558.405054 365.386685 
L 560.764886 334.318361 
L 561.551496 351.05622 
L 562.338107 355.319834 
L 563.124717 363.745634 
L 563.911328 360.849583 
L 566.271159 358.264913 
L 567.05777 372.674686 
L 567.84438 329.899392 
L 568.630991 382.43299 
L 569.417601 382.053017 
L 571.777433 365.916509 
L 572.564043 375.623747 
L 573.350654 368.809374 
L 574.137264 340.096996 
L 574.923875 376.916749 
L 577.283706 385.354079 
L 578.070317 370.502861 
L 578.856927 403.38958 
L 579.643538 323.841351 
L 580.430148 413.136642 
L 582.78998 366.758232 
L 583.57659 359.131095 
L 584.363201 379.827888 
L 585.149811 338.04834 
L 585.936422 368.240224 
L 588.296253 336.519519 
L 589.082864 368.587883 
L 589.869474 360.736958 
L 590.656085 383.370004 
L 591.442695 369.715869 
L 593.802527 348.056645 
L 594.589138 367.304573 
L 595.375748 361.828631 
L 596.162359 384.113366 
L 596.948969 374.474206 
L 599.308801 349.552965 
L 600.095411 378.311243 
L 600.882022 377.486525 
L 602.455243 389.669133 
L 604.815074 339.44724 
L 605.601685 370.600786 
L 606.388295 375.143461 
L 607.174906 377.563718 
L 607.961516 352.439004 
L 610.321348 379.074387 
L 611.107958 377.212653 
L 611.894569 360.082169 
L 612.681179 364.689118 
L 613.46779 366.683504 
L 615.827621 372.296772 
L 616.614232 386.651499 
L 617.400842 362.497683 
L 618.187453 403.973469 
L 618.974063 342.391086 
L 621.333895 351.429748 
L 622.120505 372.244767 
L 622.907116 373.841395 
L 623.693726 357.021023 
L 626.840168 366.15508 
L 627.626779 366.288354 
L 628.413389 364.318729 
L 629.2 361.231938 
L 629.2 361.231938 
" style="fill:none;stroke:#1f77b4;stroke-linecap:square;stroke-width:1.5;"/>
   </g>
   <g id="patch_3">
    <path d="M 55.760937 579.248967 
L 55.760937 10.8 
" style="fill:none;stroke:#000000;stroke-linecap:square;stroke-linejoin:miter;stroke-width:0.8;"/>
   </g>
   <g id="patch_4">
    <path d="M 629.2 579.248967 
L 629.2 10.8 
" style="fill:none;stroke:#000000;stroke-linecap:square;stroke-linejoin:miter;stroke-width:0.8;"/>
   </g>
   <g id="patch_5">
    <path d="M 55.760938 579.248967 
L 629.2 579.248967 
" style="fill:none;stroke:#000000;stroke-linecap:square;stroke-linejoin:miter;stroke-width:0.8;"/>
   </g>
   <g id="patch_6">
    <path d="M 55.760938 10.8 
L 629.2 10.8 
" style="fill:none;stroke:#000000;stroke-linecap:square;stroke-linejoin:miter;stroke-width:0.8;"/>
   </g>
  </g>
 </g>
 <defs>
  <clipPath id="p6355ed9d5e">
   <rect height="568.448967" width="573.439062" x="55.760937" y="10.8"/>
  </clipPath>
 </defs>
</svg>
