<?xml version="1.0" encoding="utf-8" standalone="no"?>
<!DOCTYPE svg PUBLIC "-//W3C//DTD SVG 1.1//EN"
  "http://www.w3.org/Graphics/SVG/1.1/DTD/svg11.dtd">
<!-- Created with matplotlib (https://matplotlib.org/) -->
<svg height="287pt" version="1.1" viewBox="0 0 314 287" width="314pt" xmlns="http://www.w3.org/2000/svg" xmlns:xlink="http://www.w3.org/1999/xlink">
 <defs>
  <style type="text/css">
*{stroke-linecap:butt;stroke-linejoin:round;white-space:pre;}
  </style>
 </defs>
 <g id="figure_1">
  <g id="patch_1">
   <path d="M 0 287 
L 314 287 
L 314 0 
L 0 0 
z
" style="fill:#ffffff;"/>
  </g>
  <g id="axes_1">
   <g id="patch_2">
    <path d="M 50.565625 245.84375 
L 301.330091 245.84375 
L 301.330091 25.918125 
L 50.565625 25.918125 
z
" style="fill:#ffffff;"/>
   </g>
   <g id="matplotlib.axis_1">
    <g id="xtick_1">
     <g id="line2d_1">
      <defs>
       <path d="M 0 0 
L 0 3.5 
" id="m2fc879a8ef" style="stroke:#000000;stroke-width:0.8;"/>
      </defs>
      <g>
       <use style="stroke:#000000;stroke-width:0.8;" x="57.287749" xlink:href="#m2fc879a8ef" y="245.84375"/>
      </g>
     </g>
     <g id="text_1">
      <!-- 2005 -->
      <defs>
       <path d="M 19.1875 8.296875 
L 53.609375 8.296875 
L 53.609375 0 
L 7.328125 0 
L 7.328125 8.296875 
Q 12.9375 14.109375 22.625 23.890625 
Q 32.328125 33.6875 34.8125 36.53125 
Q 39.546875 41.84375 41.421875 45.53125 
Q 43.3125 49.21875 43.3125 52.78125 
Q 43.3125 58.59375 39.234375 62.25 
Q 35.15625 65.921875 28.609375 65.921875 
Q 23.96875 65.921875 18.8125 64.3125 
Q 13.671875 62.703125 7.8125 59.421875 
L 7.8125 69.390625 
Q 13.765625 71.78125 18.9375 73 
Q 24.125 74.21875 28.421875 74.21875 
Q 39.75 74.21875 46.484375 68.546875 
Q 53.21875 62.890625 53.21875 53.421875 
Q 53.21875 48.921875 51.53125 44.890625 
Q 49.859375 40.875 45.40625 35.40625 
Q 44.1875 33.984375 37.640625 27.21875 
Q 31.109375 20.453125 19.1875 8.296875 
z
" id="DejaVuSans-50"/>
       <path d="M 31.78125 66.40625 
Q 24.171875 66.40625 20.328125 58.90625 
Q 16.5 51.421875 16.5 36.375 
Q 16.5 21.390625 20.328125 13.890625 
Q 24.171875 6.390625 31.78125 6.390625 
Q 39.453125 6.390625 43.28125 13.890625 
Q 47.125 21.390625 47.125 36.375 
Q 47.125 51.421875 43.28125 58.90625 
Q 39.453125 66.40625 31.78125 66.40625 
z
M 31.78125 74.21875 
Q 44.046875 74.21875 50.515625 64.515625 
Q 56.984375 54.828125 56.984375 36.375 
Q 56.984375 17.96875 50.515625 8.265625 
Q 44.046875 -1.421875 31.78125 -1.421875 
Q 19.53125 -1.421875 13.0625 8.265625 
Q 6.59375 17.96875 6.59375 36.375 
Q 6.59375 54.828125 13.0625 64.515625 
Q 19.53125 74.21875 31.78125 74.21875 
z
" id="DejaVuSans-48"/>
       <path d="M 10.796875 72.90625 
L 49.515625 72.90625 
L 49.515625 64.59375 
L 19.828125 64.59375 
L 19.828125 46.734375 
Q 21.96875 47.46875 24.109375 47.828125 
Q 26.265625 48.1875 28.421875 48.1875 
Q 40.625 48.1875 47.75 41.5 
Q 54.890625 34.8125 54.890625 23.390625 
Q 54.890625 11.625 47.5625 5.09375 
Q 40.234375 -1.421875 26.90625 -1.421875 
Q 22.3125 -1.421875 17.546875 -0.640625 
Q 12.796875 0.140625 7.71875 1.703125 
L 7.71875 11.625 
Q 12.109375 9.234375 16.796875 8.0625 
Q 21.484375 6.890625 26.703125 6.890625 
Q 35.15625 6.890625 40.078125 11.328125 
Q 45.015625 15.765625 45.015625 23.390625 
Q 45.015625 31 40.078125 35.4375 
Q 35.15625 39.890625 26.703125 39.890625 
Q 22.75 39.890625 18.8125 39.015625 
Q 14.890625 38.140625 10.796875 36.28125 
z
" id="DejaVuSans-53"/>
      </defs>
      <g transform="translate(44.562749 260.442187)scale(0.1 -0.1)">
       <use xlink:href="#DejaVuSans-50"/>
       <use x="63.623047" xlink:href="#DejaVuSans-48"/>
       <use x="127.246094" xlink:href="#DejaVuSans-48"/>
       <use x="190.869141" xlink:href="#DejaVuSans-53"/>
      </g>
     </g>
    </g>
    <g id="xtick_2">
     <g id="line2d_2">
      <g>
       <use style="stroke:#000000;stroke-width:0.8;" x="96.079455" xlink:href="#m2fc879a8ef" y="245.84375"/>
      </g>
     </g>
     <g id="text_2">
      <!-- 2006 -->
      <defs>
       <path d="M 33.015625 40.375 
Q 26.375 40.375 22.484375 35.828125 
Q 18.609375 31.296875 18.609375 23.390625 
Q 18.609375 15.53125 22.484375 10.953125 
Q 26.375 6.390625 33.015625 6.390625 
Q 39.65625 6.390625 43.53125 10.953125 
Q 47.40625 15.53125 47.40625 23.390625 
Q 47.40625 31.296875 43.53125 35.828125 
Q 39.65625 40.375 33.015625 40.375 
z
M 52.59375 71.296875 
L 52.59375 62.3125 
Q 48.875 64.0625 45.09375 64.984375 
Q 41.3125 65.921875 37.59375 65.921875 
Q 27.828125 65.921875 22.671875 59.328125 
Q 17.53125 52.734375 16.796875 39.40625 
Q 19.671875 43.65625 24.015625 45.921875 
Q 28.375 48.1875 33.59375 48.1875 
Q 44.578125 48.1875 50.953125 41.515625 
Q 57.328125 34.859375 57.328125 23.390625 
Q 57.328125 12.15625 50.6875 5.359375 
Q 44.046875 -1.421875 33.015625 -1.421875 
Q 20.359375 -1.421875 13.671875 8.265625 
Q 6.984375 17.96875 6.984375 36.375 
Q 6.984375 53.65625 15.1875 63.9375 
Q 23.390625 74.21875 37.203125 74.21875 
Q 40.921875 74.21875 44.703125 73.484375 
Q 48.484375 72.75 52.59375 71.296875 
z
" id="DejaVuSans-54"/>
      </defs>
      <g transform="translate(83.354455 260.442187)scale(0.1 -0.1)">
       <use xlink:href="#DejaVuSans-50"/>
       <use x="63.623047" xlink:href="#DejaVuSans-48"/>
       <use x="127.246094" xlink:href="#DejaVuSans-48"/>
       <use x="190.869141" xlink:href="#DejaVuSans-54"/>
      </g>
     </g>
    </g>
    <g id="xtick_3">
     <g id="line2d_3">
      <g>
       <use style="stroke:#000000;stroke-width:0.8;" x="134.871161" xlink:href="#m2fc879a8ef" y="245.84375"/>
      </g>
     </g>
     <g id="text_3">
      <!-- 2007 -->
      <defs>
       <path d="M 8.203125 72.90625 
L 55.078125 72.90625 
L 55.078125 68.703125 
L 28.609375 0 
L 18.3125 0 
L 43.21875 64.59375 
L 8.203125 64.59375 
z
" id="DejaVuSans-55"/>
      </defs>
      <g transform="translate(122.146161 260.442187)scale(0.1 -0.1)">
       <use xlink:href="#DejaVuSans-50"/>
       <use x="63.623047" xlink:href="#DejaVuSans-48"/>
       <use x="127.246094" xlink:href="#DejaVuSans-48"/>
       <use x="190.869141" xlink:href="#DejaVuSans-55"/>
      </g>
     </g>
    </g>
    <g id="xtick_4">
     <g id="line2d_4">
      <g>
       <use style="stroke:#000000;stroke-width:0.8;" x="173.662867" xlink:href="#m2fc879a8ef" y="245.84375"/>
      </g>
     </g>
     <g id="text_4">
      <!-- 2008 -->
      <defs>
       <path d="M 31.78125 34.625 
Q 24.75 34.625 20.71875 30.859375 
Q 16.703125 27.09375 16.703125 20.515625 
Q 16.703125 13.921875 20.71875 10.15625 
Q 24.75 6.390625 31.78125 6.390625 
Q 38.8125 6.390625 42.859375 10.171875 
Q 46.921875 13.96875 46.921875 20.515625 
Q 46.921875 27.09375 42.890625 30.859375 
Q 38.875 34.625 31.78125 34.625 
z
M 21.921875 38.8125 
Q 15.578125 40.375 12.03125 44.71875 
Q 8.5 49.078125 8.5 55.328125 
Q 8.5 64.0625 14.71875 69.140625 
Q 20.953125 74.21875 31.78125 74.21875 
Q 42.671875 74.21875 48.875 69.140625 
Q 55.078125 64.0625 55.078125 55.328125 
Q 55.078125 49.078125 51.53125 44.71875 
Q 48 40.375 41.703125 38.8125 
Q 48.828125 37.15625 52.796875 32.3125 
Q 56.78125 27.484375 56.78125 20.515625 
Q 56.78125 9.90625 50.3125 4.234375 
Q 43.84375 -1.421875 31.78125 -1.421875 
Q 19.734375 -1.421875 13.25 4.234375 
Q 6.78125 9.90625 6.78125 20.515625 
Q 6.78125 27.484375 10.78125 32.3125 
Q 14.796875 37.15625 21.921875 38.8125 
z
M 18.3125 54.390625 
Q 18.3125 48.734375 21.84375 45.5625 
Q 25.390625 42.390625 31.78125 42.390625 
Q 38.140625 42.390625 41.71875 45.5625 
Q 45.3125 48.734375 45.3125 54.390625 
Q 45.3125 60.0625 41.71875 63.234375 
Q 38.140625 66.40625 31.78125 66.40625 
Q 25.390625 66.40625 21.84375 63.234375 
Q 18.3125 60.0625 18.3125 54.390625 
z
" id="DejaVuSans-56"/>
      </defs>
      <g transform="translate(160.937867 260.442187)scale(0.1 -0.1)">
       <use xlink:href="#DejaVuSans-50"/>
       <use x="63.623047" xlink:href="#DejaVuSans-48"/>
       <use x="127.246094" xlink:href="#DejaVuSans-48"/>
       <use x="190.869141" xlink:href="#DejaVuSans-56"/>
      </g>
     </g>
    </g>
    <g id="xtick_5">
     <g id="line2d_5">
      <g>
       <use style="stroke:#000000;stroke-width:0.8;" x="212.560852" xlink:href="#m2fc879a8ef" y="245.84375"/>
      </g>
     </g>
     <g id="text_5">
      <!-- 2009 -->
      <defs>
       <path d="M 10.984375 1.515625 
L 10.984375 10.5 
Q 14.703125 8.734375 18.5 7.8125 
Q 22.3125 6.890625 25.984375 6.890625 
Q 35.75 6.890625 40.890625 13.453125 
Q 46.046875 20.015625 46.78125 33.40625 
Q 43.953125 29.203125 39.59375 26.953125 
Q 35.25 24.703125 29.984375 24.703125 
Q 19.046875 24.703125 12.671875 31.3125 
Q 6.296875 37.9375 6.296875 49.421875 
Q 6.296875 60.640625 12.9375 67.421875 
Q 19.578125 74.21875 30.609375 74.21875 
Q 43.265625 74.21875 49.921875 64.515625 
Q 56.59375 54.828125 56.59375 36.375 
Q 56.59375 19.140625 48.40625 8.859375 
Q 40.234375 -1.421875 26.421875 -1.421875 
Q 22.703125 -1.421875 18.890625 -0.6875 
Q 15.09375 0.046875 10.984375 1.515625 
z
M 30.609375 32.421875 
Q 37.25 32.421875 41.125 36.953125 
Q 45.015625 41.5 45.015625 49.421875 
Q 45.015625 57.28125 41.125 61.84375 
Q 37.25 66.40625 30.609375 66.40625 
Q 23.96875 66.40625 20.09375 61.84375 
Q 16.21875 57.28125 16.21875 49.421875 
Q 16.21875 41.5 20.09375 36.953125 
Q 23.96875 32.421875 30.609375 32.421875 
z
" id="DejaVuSans-57"/>
      </defs>
      <g transform="translate(199.835852 260.442187)scale(0.1 -0.1)">
       <use xlink:href="#DejaVuSans-50"/>
       <use x="63.623047" xlink:href="#DejaVuSans-48"/>
       <use x="127.246094" xlink:href="#DejaVuSans-48"/>
       <use x="190.869141" xlink:href="#DejaVuSans-57"/>
      </g>
     </g>
    </g>
    <g id="xtick_6">
     <g id="line2d_6">
      <g>
       <use style="stroke:#000000;stroke-width:0.8;" x="251.352558" xlink:href="#m2fc879a8ef" y="245.84375"/>
      </g>
     </g>
     <g id="text_6">
      <!-- 2010 -->
      <defs>
       <path d="M 12.40625 8.296875 
L 28.515625 8.296875 
L 28.515625 63.921875 
L 10.984375 60.40625 
L 10.984375 69.390625 
L 28.421875 72.90625 
L 38.28125 72.90625 
L 38.28125 8.296875 
L 54.390625 8.296875 
L 54.390625 0 
L 12.40625 0 
z
" id="DejaVuSans-49"/>
      </defs>
      <g transform="translate(238.627558 260.442187)scale(0.1 -0.1)">
       <use xlink:href="#DejaVuSans-50"/>
       <use x="63.623047" xlink:href="#DejaVuSans-48"/>
       <use x="127.246094" xlink:href="#DejaVuSans-49"/>
       <use x="190.869141" xlink:href="#DejaVuSans-48"/>
      </g>
     </g>
    </g>
    <g id="xtick_7">
     <g id="line2d_7">
      <g>
       <use style="stroke:#000000;stroke-width:0.8;" x="290.144264" xlink:href="#m2fc879a8ef" y="245.84375"/>
      </g>
     </g>
     <g id="text_7">
      <!-- 2011 -->
      <g transform="translate(277.419264 260.442187)scale(0.1 -0.1)">
       <use xlink:href="#DejaVuSans-50"/>
       <use x="63.623047" xlink:href="#DejaVuSans-48"/>
       <use x="127.246094" xlink:href="#DejaVuSans-49"/>
       <use x="190.869141" xlink:href="#DejaVuSans-49"/>
      </g>
     </g>
    </g>
    <g id="text_8">
     <!-- Date -->
     <defs>
      <path d="M 19.671875 64.796875 
L 19.671875 8.109375 
L 31.59375 8.109375 
Q 46.6875 8.109375 53.6875 14.9375 
Q 60.6875 21.78125 60.6875 36.53125 
Q 60.6875 51.171875 53.6875 57.984375 
Q 46.6875 64.796875 31.59375 64.796875 
z
M 9.8125 72.90625 
L 30.078125 72.90625 
Q 51.265625 72.90625 61.171875 64.09375 
Q 71.09375 55.28125 71.09375 36.53125 
Q 71.09375 17.671875 61.125 8.828125 
Q 51.171875 0 30.078125 0 
L 9.8125 0 
z
" id="DejaVuSans-68"/>
      <path d="M 34.28125 27.484375 
Q 23.390625 27.484375 19.1875 25 
Q 14.984375 22.515625 14.984375 16.5 
Q 14.984375 11.71875 18.140625 8.90625 
Q 21.296875 6.109375 26.703125 6.109375 
Q 34.1875 6.109375 38.703125 11.40625 
Q 43.21875 16.703125 43.21875 25.484375 
L 43.21875 27.484375 
z
M 52.203125 31.203125 
L 52.203125 0 
L 43.21875 0 
L 43.21875 8.296875 
Q 40.140625 3.328125 35.546875 0.953125 
Q 30.953125 -1.421875 24.3125 -1.421875 
Q 15.921875 -1.421875 10.953125 3.296875 
Q 6 8.015625 6 15.921875 
Q 6 25.140625 12.171875 29.828125 
Q 18.359375 34.515625 30.609375 34.515625 
L 43.21875 34.515625 
L 43.21875 35.40625 
Q 43.21875 41.609375 39.140625 45 
Q 35.0625 48.390625 27.6875 48.390625 
Q 23 48.390625 18.546875 47.265625 
Q 14.109375 46.140625 10.015625 43.890625 
L 10.015625 52.203125 
Q 14.9375 54.109375 19.578125 55.046875 
Q 24.21875 56 28.609375 56 
Q 40.484375 56 46.34375 49.84375 
Q 52.203125 43.703125 52.203125 31.203125 
z
" id="DejaVuSans-97"/>
      <path d="M 18.3125 70.21875 
L 18.3125 54.6875 
L 36.8125 54.6875 
L 36.8125 47.703125 
L 18.3125 47.703125 
L 18.3125 18.015625 
Q 18.3125 11.328125 20.140625 9.421875 
Q 21.96875 7.515625 27.59375 7.515625 
L 36.8125 7.515625 
L 36.8125 0 
L 27.59375 0 
Q 17.1875 0 13.234375 3.875 
Q 9.28125 7.765625 9.28125 18.015625 
L 9.28125 47.703125 
L 2.6875 47.703125 
L 2.6875 54.6875 
L 9.28125 54.6875 
L 9.28125 70.21875 
z
" id="DejaVuSans-116"/>
      <path d="M 56.203125 29.59375 
L 56.203125 25.203125 
L 14.890625 25.203125 
Q 15.484375 15.921875 20.484375 11.0625 
Q 25.484375 6.203125 34.421875 6.203125 
Q 39.59375 6.203125 44.453125 7.46875 
Q 49.3125 8.734375 54.109375 11.28125 
L 54.109375 2.78125 
Q 49.265625 0.734375 44.1875 -0.34375 
Q 39.109375 -1.421875 33.890625 -1.421875 
Q 20.796875 -1.421875 13.15625 6.1875 
Q 5.515625 13.8125 5.515625 26.8125 
Q 5.515625 40.234375 12.765625 48.109375 
Q 20.015625 56 32.328125 56 
Q 43.359375 56 49.78125 48.890625 
Q 56.203125 41.796875 56.203125 29.59375 
z
M 47.21875 32.234375 
Q 47.125 39.59375 43.09375 43.984375 
Q 39.0625 48.390625 32.421875 48.390625 
Q 24.90625 48.390625 20.390625 44.140625 
Q 15.875 39.890625 15.1875 32.171875 
z
" id="DejaVuSans-101"/>
     </defs>
     <g transform="translate(163.997077 274.120313)scale(0.1 -0.1)">
      <use xlink:href="#DejaVuSans-68"/>
      <use x="77.001953" xlink:href="#DejaVuSans-97"/>
      <use x="138.28125" xlink:href="#DejaVuSans-116"/>
      <use x="177.490234" xlink:href="#DejaVuSans-101"/>
     </g>
    </g>
   </g>
   <g id="matplotlib.axis_2">
    <g id="ytick_1">
     <g id="line2d_8">
      <defs>
       <path d="M 0 0 
L -3.5 0 
" id="mda4f7356b3" style="stroke:#000000;stroke-width:0.8;"/>
      </defs>
      <g>
       <use style="stroke:#000000;stroke-width:0.8;" x="50.565625" xlink:href="#mda4f7356b3" y="245.016145"/>
      </g>
     </g>
     <g id="text_9">
      <!-- 0 -->
      <g transform="translate(37.203125 248.815364)scale(0.1 -0.1)">
       <use xlink:href="#DejaVuSans-48"/>
      </g>
     </g>
    </g>
    <g id="ytick_2">
     <g id="line2d_9">
      <g>
       <use style="stroke:#000000;stroke-width:0.8;" x="50.565625" xlink:href="#mda4f7356b3" y="204.975342"/>
      </g>
     </g>
     <g id="text_10">
      <!-- 50 -->
      <g transform="translate(30.840625 208.774561)scale(0.1 -0.1)">
       <use xlink:href="#DejaVuSans-53"/>
       <use x="63.623047" xlink:href="#DejaVuSans-48"/>
      </g>
     </g>
    </g>
    <g id="ytick_3">
     <g id="line2d_10">
      <g>
       <use style="stroke:#000000;stroke-width:0.8;" x="50.565625" xlink:href="#mda4f7356b3" y="164.934539"/>
      </g>
     </g>
     <g id="text_11">
      <!-- 100 -->
      <g transform="translate(24.478125 168.733758)scale(0.1 -0.1)">
       <use xlink:href="#DejaVuSans-49"/>
       <use x="63.623047" xlink:href="#DejaVuSans-48"/>
       <use x="127.246094" xlink:href="#DejaVuSans-48"/>
      </g>
     </g>
    </g>
    <g id="ytick_4">
     <g id="line2d_11">
      <g>
       <use style="stroke:#000000;stroke-width:0.8;" x="50.565625" xlink:href="#mda4f7356b3" y="124.893737"/>
      </g>
     </g>
     <g id="text_12">
      <!-- 150 -->
      <g transform="translate(24.478125 128.692955)scale(0.1 -0.1)">
       <use xlink:href="#DejaVuSans-49"/>
       <use x="63.623047" xlink:href="#DejaVuSans-53"/>
       <use x="127.246094" xlink:href="#DejaVuSans-48"/>
      </g>
     </g>
    </g>
    <g id="ytick_5">
     <g id="line2d_12">
      <g>
       <use style="stroke:#000000;stroke-width:0.8;" x="50.565625" xlink:href="#mda4f7356b3" y="84.852934"/>
      </g>
     </g>
     <g id="text_13">
      <!-- 200 -->
      <g transform="translate(24.478125 88.652152)scale(0.1 -0.1)">
       <use xlink:href="#DejaVuSans-50"/>
       <use x="63.623047" xlink:href="#DejaVuSans-48"/>
       <use x="127.246094" xlink:href="#DejaVuSans-48"/>
      </g>
     </g>
    </g>
    <g id="ytick_6">
     <g id="line2d_13">
      <g>
       <use style="stroke:#000000;stroke-width:0.8;" x="50.565625" xlink:href="#mda4f7356b3" y="44.812131"/>
      </g>
     </g>
     <g id="text_14">
      <!-- 250 -->
      <g transform="translate(24.478125 48.61135)scale(0.1 -0.1)">
       <use xlink:href="#DejaVuSans-50"/>
       <use x="63.623047" xlink:href="#DejaVuSans-53"/>
       <use x="127.246094" xlink:href="#DejaVuSans-48"/>
      </g>
     </g>
    </g>
    <g id="text_15">
     <!-- Loss -->
     <defs>
      <path d="M 9.8125 72.90625 
L 19.671875 72.90625 
L 19.671875 8.296875 
L 55.171875 8.296875 
L 55.171875 0 
L 9.8125 0 
z
" id="DejaVuSans-76"/>
      <path d="M 30.609375 48.390625 
Q 23.390625 48.390625 19.1875 42.75 
Q 14.984375 37.109375 14.984375 27.296875 
Q 14.984375 17.484375 19.15625 11.84375 
Q 23.34375 6.203125 30.609375 6.203125 
Q 37.796875 6.203125 41.984375 11.859375 
Q 46.1875 17.53125 46.1875 27.296875 
Q 46.1875 37.015625 41.984375 42.703125 
Q 37.796875 48.390625 30.609375 48.390625 
z
M 30.609375 56 
Q 42.328125 56 49.015625 48.375 
Q 55.71875 40.765625 55.71875 27.296875 
Q 55.71875 13.875 49.015625 6.21875 
Q 42.328125 -1.421875 30.609375 -1.421875 
Q 18.84375 -1.421875 12.171875 6.21875 
Q 5.515625 13.875 5.515625 27.296875 
Q 5.515625 40.765625 12.171875 48.375 
Q 18.84375 56 30.609375 56 
z
" id="DejaVuSans-111"/>
      <path d="M 44.28125 53.078125 
L 44.28125 44.578125 
Q 40.484375 46.53125 36.375 47.5 
Q 32.28125 48.484375 27.875 48.484375 
Q 21.1875 48.484375 17.84375 46.4375 
Q 14.5 44.390625 14.5 40.28125 
Q 14.5 37.15625 16.890625 35.375 
Q 19.28125 33.59375 26.515625 31.984375 
L 29.59375 31.296875 
Q 39.15625 29.25 43.1875 25.515625 
Q 47.21875 21.78125 47.21875 15.09375 
Q 47.21875 7.46875 41.1875 3.015625 
Q 35.15625 -1.421875 24.609375 -1.421875 
Q 20.21875 -1.421875 15.453125 -0.5625 
Q 10.6875 0.296875 5.421875 2 
L 5.421875 11.28125 
Q 10.40625 8.6875 15.234375 7.390625 
Q 20.0625 6.109375 24.8125 6.109375 
Q 31.15625 6.109375 34.5625 8.28125 
Q 37.984375 10.453125 37.984375 14.40625 
Q 37.984375 18.0625 35.515625 20.015625 
Q 33.0625 21.96875 24.703125 23.78125 
L 21.578125 24.515625 
Q 13.234375 26.265625 9.515625 29.90625 
Q 5.8125 33.546875 5.8125 39.890625 
Q 5.8125 47.609375 11.28125 51.796875 
Q 16.75 56 26.8125 56 
Q 31.78125 56 36.171875 55.265625 
Q 40.578125 54.546875 44.28125 53.078125 
z
" id="DejaVuSans-115"/>
     </defs>
     <g transform="translate(18.398438 146.934844)rotate(-90)scale(0.1 -0.1)">
      <use xlink:href="#DejaVuSans-76"/>
      <use x="55.697266" xlink:href="#DejaVuSans-111"/>
      <use x="116.878906" xlink:href="#DejaVuSans-115"/>
      <use x="168.978516" xlink:href="#DejaVuSans-115"/>
     </g>
    </g>
   </g>
   <g id="line2d_14">
    <path clip-path="url(#pa9ae4f3099)" d="M 61.96401 231.198237 
L 62.070288 231.177615 
L 62.176567 231.897603 
L 62.389124 229.977678 
L 62.920518 229.090658 
L 63.133075 229.52965 
L 63.55819 228.371871 
L 63.664468 228.494509 
L 63.877025 229.413405 
L 64.195861 229.705233 
L 64.30214 229.584172 
L 64.408419 229.006139 
L 64.514697 229.076978 
L 64.620976 227.867209 
L 64.939812 227.894299 
L 65.046091 228.368274 
L 65.258648 227.888043 
L 65.364927 227.977036 
L 65.683762 227.813497 
L 65.790041 225.694285 
L 65.89632 225.700149 
L 66.002598 225.871446 
L 66.427713 225.896448 
L 66.746549 224.123594 
L 66.852828 223.966756 
L 67.171663 224.385907 
L 67.490499 226.431552 
L 67.596778 226.272777 
L 67.915614 226.206597 
L 68.021893 227.089013 
L 68.23445 224.958851 
L 68.340729 224.594104 
L 68.765843 225.250731 
L 68.872122 224.284337 
L 68.9784 224.312383 
L 69.084679 224.027122 
L 69.509794 224.35949 
L 69.722351 223.299692 
L 70.147466 220.638285 
L 70.253744 221.244012 
L 70.360023 222.827416 
L 70.57258 222.387159 
L 70.891416 222.305247 
L 70.997695 221.311716 
L 71.103973 221.720099 
L 71.316531 219.839013 
L 71.954203 219.389589 
L 72.060481 219.583602 
L 72.379317 219.688361 
L 72.485596 219.556052 
L 72.698153 221.187236 
L 72.804432 221.445992 
L 73.229546 221.550791 
L 73.335825 221.382134 
L 73.442104 222.181735 
L 73.548382 222.022221 
L 74.079776 222.866135 
L 74.186054 223.146576 
L 74.292333 224.185826 
L 74.611169 225.038086 
L 74.823726 227.274919 
L 74.930005 227.034188 
L 75.036283 227.280604 
L 75.355119 227.556105 
L 75.461398 227.406939 
L 75.673955 230.236053 
L 75.780234 231.841299 
L 76.205348 234.237239 
L 76.311627 234.025975 
L 76.417906 233.102206 
L 76.524184 233.334039 
L 77.055578 233.238056 
L 77.268135 233.969244 
L 77.586971 234.188907 
L 77.799528 234.502361 
L 78.012085 235.355154 
L 78.4372 234.241361 
L 78.543479 234.229012 
L 78.756036 233.849316 
L 79.074872 233.797711 
L 79.181151 233.652668 
L 79.287429 233.919196 
L 79.393708 233.837504 
L 79.499986 233.943751 
L 79.818822 233.935202 
L 79.925101 233.280488 
L 80.03138 233.477285 
L 80.243937 232.327448 
L 80.881609 231.982953 
L 80.987888 232.551563 
L 81.306723 232.349401 
L 81.413002 231.871148 
L 81.625559 231.885244 
L 82.050674 231.921204 
L 82.156953 231.726815 
L 82.263231 230.332066 
L 82.36951 230.477539 
L 82.475789 230.178544 
L 82.794625 231.047881 
L 83.007182 230.6967 
L 83.219739 230.792586 
L 83.644854 230.264099 
L 83.857411 230.357149 
L 83.96369 230.394042 
L 84.282526 231.427643 
L 84.388804 231.044675 
L 84.495083 231.296924 
L 84.601362 231.245915 
L 84.70764 231.450365 
L 85.026476 231.722192 
L 85.132755 232.037665 
L 85.345312 230.438259 
L 85.451591 230.585047 
L 85.982984 231.918252 
L 86.089263 231.719928 
L 86.195541 231.643113 
L 86.514377 231.743712 
L 86.726934 230.336627 
L 86.939492 231.899099 
L 87.258328 232.273987 
L 87.470885 231.03392 
L 87.683442 230.863337 
L 88.002278 230.954712 
L 88.108557 231.242705 
L 88.321114 228.675486 
L 88.427393 228.6927 
L 88.746229 227.113357 
L 88.958786 227.676567 
L 89.171343 227.362468 
L 89.490179 227.556448 
L 89.596458 227.23181 
L 89.702737 228.509456 
L 89.809015 228.388265 
L 89.915294 228.493754 
L 90.23413 228.644526 
L 90.552966 227.926321 
L 90.659244 228.175827 
L 90.97808 228.15016 
L 91.190638 228.749304 
L 91.722031 229.000808 
L 91.934588 230.940177 
L 92.147145 231.253535 
L 92.678539 228.601779 
L 92.891096 230.807289 
L 93.209932 230.850844 
L 93.316211 231.534229 
L 93.528768 230.745314 
L 93.635046 231.368873 
L 93.953882 231.696417 
L 94.060161 231.456329 
L 94.16644 231.845393 
L 94.272718 231.233034 
L 94.378997 231.378034 
L 94.804112 230.882538 
L 95.122947 232.203041 
L 95.654341 231.583611 
L 95.760619 232.347362 
L 95.866898 232.270741 
L 96.292013 231.669099 
L 96.50457 230.674503 
L 96.610849 230.709243 
L 97.035963 230.988003 
L 97.142242 232.017727 
L 97.24852 231.837138 
L 97.354799 233.287916 
L 97.779914 232.910302 
L 97.992471 232.607269 
L 98.09875 228.361271 
L 98.523864 228.747739 
L 98.630143 228.718341 
L 98.736421 227.4664 
L 98.8427 227.696993 
L 99.161536 227.798707 
L 99.374093 228.416172 
L 99.480372 228.373918 
L 99.586651 228.199439 
L 99.905487 228.183844 
L 100.118044 227.052654 
L 100.330601 227.496125 
L 100.649437 227.196736 
L 100.861994 227.685498 
L 100.968273 228.650269 
L 101.074552 228.372391 
L 101.499666 228.048806 
L 101.818502 227.123577 
L 102.137338 227.256352 
L 102.243617 226.140871 
L 102.456174 226.726207 
L 102.562453 226.710734 
L 102.881289 231.021626 
L 102.987567 230.962108 
L 103.093846 230.772296 
L 103.200125 230.192799 
L 103.306403 231.717604 
L 103.625239 231.52941 
L 103.837796 229.280049 
L 103.944075 229.270241 
L 104.050354 229.687014 
L 104.36919 229.878916 
L 104.475468 229.397583 
L 104.581747 229.910664 
L 104.794304 229.798966 
L 105.431976 230.200605 
L 105.538255 230.024928 
L 105.963369 230.305285 
L 106.175927 231.23863 
L 106.282205 230.4327 
L 106.601041 230.60782 
L 106.70732 230.428358 
L 106.919877 230.715279 
L 107.344992 230.73803 
L 107.557549 230.268126 
L 107.770106 230.710911 
L 108.088942 230.625012 
L 108.195221 229.608619 
L 108.407778 231.246662 
L 108.514057 231.263822 
L 108.939172 229.183606 
L 109.151729 230.066363 
L 109.258007 228.466542 
L 109.683122 228.047675 
L 109.789401 228.025457 
L 110.001958 224.569915 
L 110.427073 224.253357 
L 110.63963 221.679919 
L 110.745909 221.729347 
L 111.064744 221.71286 
L 111.171023 221.200841 
L 111.277302 222.172742 
L 111.914974 219.859577 
L 112.021252 220.394717 
L 112.658924 218.411527 
L 112.765203 219.160726 
L 112.871481 219.111129 
L 112.97776 219.265309 
L 113.296596 218.234911 
L 113.402875 215.559063 
L 113.509153 215.694174 
L 113.721711 214.154827 
L 114.146825 215.488765 
L 114.253104 214.269897 
L 114.359382 214.36933 
L 114.465661 215.387764 
L 114.784497 216.106653 
L 114.890776 215.64685 
L 114.997054 215.725231 
L 115.103333 216.062714 
L 115.528448 215.814408 
L 115.741005 215.99322 
L 115.847284 216.608113 
L 115.953562 216.361547 
L 116.272398 216.493951 
L 116.484955 216.762012 
L 116.697513 215.001303 
L 117.016349 214.861009 
L 117.122627 216.412552 
L 117.335185 214.458688 
L 117.441463 214.077073 
L 117.760299 213.530278 
L 117.866578 214.843314 
L 118.079135 219.023652 
L 118.185414 219.485704 
L 118.610528 220.094054 
L 118.716807 219.919118 
L 118.929364 220.677679 
L 119.2482 220.813195 
L 119.460758 220.267251 
L 119.567036 220.295311 
L 119.673315 222.165416 
L 119.992151 222.455482 
L 120.098429 222.24183 
L 120.310987 222.605866 
L 120.417265 222.817475 
L 120.84238 222.604669 
L 121.161216 226.676712 
L 121.480052 227.010367 
L 121.58633 226.278478 
L 121.798888 229.485472 
L 121.905166 230.238845 
L 122.330281 231.922761 
L 122.649117 230.703475 
L 122.967953 232.072873 
L 123.18051 230.352648 
L 123.393067 230.540664 
L 123.711903 230.640413 
L 123.924461 231.357633 
L 124.030739 232.68125 
L 124.137018 232.549092 
L 124.455854 232.838594 
L 124.77469 233.643494 
L 124.880968 233.358051 
L 125.199804 233.395783 
L 125.624919 232.965845 
L 126.36887 234.456007 
L 126.687705 234.217307 
L 126.793984 233.581293 
L 127.006541 234.53966 
L 127.11282 234.487647 
L 127.431656 234.202022 
L 127.644213 235.847131 
L 127.750492 235.740616 
L 127.856771 233.64183 
L 128.175607 233.68066 
L 128.281885 233.556618 
L 128.388164 231.291944 
L 128.600721 231.60066 
L 129.025836 230.779395 
L 129.132114 231.02333 
L 129.238393 230.18898 
L 129.344672 230.264067 
L 129.663508 230.309104 
L 129.876065 230.826855 
L 130.088622 231.060455 
L 130.513737 231.036003 
L 130.620015 231.224778 
L 130.832573 230.989927 
L 131.151409 227.659265 
L 131.257687 227.732018 
L 131.363966 228.059519 
L 131.470245 227.51766 
L 131.576523 227.67547 
L 131.895359 226.627048 
L 132.107916 226.875208 
L 132.320474 226.076191 
L 132.63931 227.404111 
L 132.851867 226.95391 
L 133.064424 228.878397 
L 133.38326 228.818477 
L 133.595817 229.193171 
L 133.702096 228.870467 
L 133.808375 229.00288 
L 134.233489 229.043431 
L 134.552325 227.794856 
L 135.189997 227.659253 
L 135.296276 227.210371 
L 135.615112 227.173126 
L 135.72139 226.944811 
L 135.827669 227.333649 
L 136.040226 230.732269 
L 136.465341 230.700544 
L 136.57162 231.34944 
L 136.677898 230.977974 
L 136.784177 232.119717 
L 137.31557 231.585539 
L 137.528127 229.158254 
L 137.846963 228.845719 
L 137.953242 228.939244 
L 138.165799 228.626334 
L 138.272078 228.858657 
L 138.590914 228.701262 
L 138.803471 229.143385 
L 138.90975 229.473734 
L 139.016028 228.631785 
L 139.334864 228.756015 
L 139.547422 229.04002 
L 139.759979 229.074901 
L 140.185094 229.472374 
L 140.397651 229.294315 
L 140.503929 228.44842 
L 140.822765 226.930301 
L 141.035323 217.272041 
L 141.141601 217.347465 
L 141.24788 216.221238 
L 141.566716 214.913879 
L 141.779273 213.680103 
L 141.885552 213.989598 
L 141.991831 215.284873 
L 142.310666 215.290521 
L 142.523224 211.898568 
L 142.629502 212.02366 
L 142.735781 211.605508 
L 143.160896 211.506018 
L 143.373453 208.986095 
L 143.798568 209.598605 
L 143.904846 209.539193 
L 144.011125 209.012641 
L 144.223682 209.1311 
L 144.755075 209.012875 
L 145.286469 209.632742 
L 145.392747 210.655121 
L 145.499026 217.733846 
L 145.605305 217.693558 
L 145.711583 217.616064 
L 146.030419 218.636337 
L 146.242976 221.268962 
L 146.455534 221.692076 
L 146.77437 221.647655 
L 146.880648 221.384073 
L 146.986927 226.817615 
L 147.199484 226.325039 
L 147.730877 226.343414 
L 147.943435 230.697806 
L 148.262271 230.504271 
L 148.368549 230.263818 
L 148.474828 230.987624 
L 148.687385 229.691209 
L 149.1125 229.248739 
L 149.218778 228.754201 
L 149.431336 228.836 
L 149.85645 228.665015 
L 149.962729 229.102938 
L 150.069008 228.323801 
L 150.175286 228.421808 
L 150.70668 230.436625 
L 150.919237 230.196831 
L 151.344351 229.638967 
L 151.45063 229.398092 
L 151.663187 227.132825 
L 151.982023 227.178794 
L 152.088302 226.756118 
L 152.300859 224.958591 
L 152.407138 224.918671 
L 152.832252 225.145875 
L 152.938531 224.144097 
L 153.04481 224.214279 
L 153.151088 223.325037 
L 153.682482 222.373255 
L 153.78876 223.043292 
L 153.895039 222.546786 
L 154.320154 219.169853 
L 154.532711 218.809383 
L 154.957825 219.18011 
L 155.064104 217.306162 
L 155.170383 217.319577 
L 155.276661 216.149045 
L 155.38294 216.429185 
L 155.701776 216.118818 
L 155.808055 216.282026 
L 156.020612 214.748376 
L 156.126891 214.367801 
L 156.445726 215.041385 
L 156.552005 212.212251 
L 156.658284 212.66226 
L 156.764562 211.876669 
L 156.870841 211.902791 
L 157.189677 211.704316 
L 157.402234 210.769128 
L 157.508513 211.3294 
L 157.614792 208.48511 
L 157.933627 205.20906 
L 158.039906 205.547324 
L 158.146185 205.328756 
L 158.358742 199.870812 
L 158.677578 199.870087 
L 158.783857 200.071082 
L 158.890135 199.977245 
L 159.102693 196.027265 
L 159.421529 195.935641 
L 159.527807 197.192214 
L 159.634086 197.17813 
L 159.846643 197.642064 
L 160.165479 197.299202 
L 160.271758 194.74067 
L 160.378036 195.565504 
L 160.484315 195.492255 
L 160.590594 196.213076 
L 161.015708 196.106404 
L 161.121987 197.262567 
L 161.228266 197.187092 
L 161.334544 198.877277 
L 161.759659 199.217137 
L 161.865937 200.198258 
L 161.972216 199.52606 
L 162.078495 199.586218 
L 162.397331 202.00874 
L 162.716167 199.360457 
L 162.822445 205.592538 
L 163.141281 204.974878 
L 163.24756 205.257006 
L 163.460117 208.739889 
L 163.566396 209.735786 
L 164.097789 211.171769 
L 164.204068 210.941482 
L 164.310346 211.17142 
L 164.629182 210.555348 
L 164.735461 211.657447 
L 164.84174 214.843384 
L 164.948018 214.399231 
L 165.054297 215.395858 
L 165.373133 213.800984 
L 165.479411 212.077466 
L 165.58569 213.989487 
L 165.691969 213.524664 
L 165.798247 209.7671 
L 166.329641 209.767349 
L 166.435919 210.362614 
L 166.542198 208.897778 
L 166.861034 209.788462 
L 166.967312 214.036465 
L 167.073591 213.966824 
L 167.286148 203.500568 
L 167.604984 200.835488 
L 167.711263 201.026376 
L 167.817542 196.82967 
L 167.92382 196.903763 
L 168.348935 197.683531 
L 168.561492 192.769983 
L 168.774049 190.283451 
L 169.092885 188.136059 
L 169.199164 188.182203 
L 169.518 186.273954 
L 169.836836 184.27346 
L 169.943115 184.370341 
L 170.155672 181.443821 
L 170.26195 181.469169 
L 170.580786 183.628767 
L 170.793344 181.566952 
L 171.005901 181.489223 
L 171.324737 181.81156 
L 171.431016 177.662194 
L 171.537294 177.7406 
L 171.643573 177.461386 
L 171.749852 182.341555 
L 172.068687 184.290805 
L 172.387523 189.802008 
L 172.493802 189.355472 
L 172.812638 189.366772 
L 173.025195 189.219642 
L 173.131474 191.184525 
L 173.237753 191.043082 
L 173.556589 193.630906 
L 173.769146 191.976347 
L 173.875424 194.639359 
L 173.981703 193.523905 
L 174.300539 195.100397 
L 174.406818 193.171183 
L 174.725654 200.255883 
L 175.04449 200.563002 
L 175.257047 196.287994 
L 175.469604 195.258936 
L 175.894719 194.784327 
L 176.000997 188.182882 
L 176.107276 188.80722 
L 176.213555 191.296206 
L 176.532391 191.00555 
L 176.744948 191.565593 
L 176.851227 192.038183 
L 176.957505 193.30629 
L 177.276341 191.735701 
L 177.38262 186.332924 
L 177.488898 186.511048 
L 177.595177 186.643364 
L 177.701456 185.287096 
L 178.12657 186.446325 
L 178.232849 186.446659 
L 178.445406 187.368082 
L 178.976799 188.288511 
L 179.189357 190.448651 
L 179.508193 190.600838 
L 179.72075 189.819757 
L 179.827029 192.277472 
L 179.933307 188.483497 
L 180.252143 190.295402 
L 180.358422 190.008847 
L 180.464701 190.651401 
L 180.677258 195.428091 
L 180.996094 195.00057 
L 181.208651 187.803226 
L 181.31493 187.840613 
L 181.421208 184.189963 
L 181.740044 184.272594 
L 181.846323 168.964826 
L 181.952602 172.725047 
L 182.05888 166.13357 
L 182.483995 166.080615 
L 182.590273 167.566375 
L 182.909109 162.805527 
L 183.227945 163.984088 
L 183.334224 160.382478 
L 183.440503 161.008694 
L 183.65306 160.527822 
L 183.971896 160.505971 
L 184.290732 158.540738 
L 185.034682 163.360776 
L 185.140961 166.380159 
L 185.459797 166.067981 
L 185.672354 170.700959 
L 185.884911 171.402084 
L 186.310026 176.116521 
L 186.522583 187.058381 
L 186.628862 195.282356 
L 187.053977 193.850928 
L 187.160255 193.606795 
L 187.372813 196.563042 
L 187.691648 196.540282 
L 187.904206 203.110219 
L 188.116763 203.238061 
L 188.435599 202.504322 
L 188.648156 199.119916 
L 188.754435 199.920025 
L 188.860714 199.5983 
L 189.285828 201.216493 
L 189.392107 201.158682 
L 189.604664 202.81109 
L 190.242336 202.682005 
L 190.348615 200.106476 
L 190.773729 198.03443 
L 191.092565 192.255579 
L 191.623958 191.734625 
L 191.730237 194.627454 
L 191.836516 193.320981 
L 192.26163 191.60934 
L 192.367909 192.678353 
L 192.580466 188.955945 
L 192.899302 188.833594 
L 193.005581 189.14405 
L 193.218138 193.004281 
L 193.749531 190.048341 
L 193.962089 186.201012 
L 194.493482 182.685731 
L 194.706039 162.084726 
L 194.812318 162.083998 
L 195.237432 166.581805 
L 195.343711 166.556618 
L 195.556268 163.626815 
L 195.981383 159.580358 
L 196.087662 160.721314 
L 196.19394 160.51769 
L 196.300219 160.746912 
L 196.619055 162.011334 
L 196.725333 163.731012 
L 196.831612 163.116662 
L 196.937891 160.748428 
L 197.044169 163.778743 
L 197.363005 164.99934 
L 197.575563 157.348099 
L 197.78812 157.62813 
L 198.106956 157.611036 
L 198.213234 156.516829 
L 198.319513 160.044252 
L 198.425792 159.727616 
L 198.53207 160.974878 
L 198.850906 162.438909 
L 198.957185 163.939669 
L 199.169742 178.846356 
L 199.276021 178.722349 
L 199.701136 179.885956 
L 199.807414 181.6506 
L 199.913693 177.860087 
L 200.019971 183.378179 
L 200.338807 182.44271 
L 200.445086 181.308591 
L 200.657643 182.715195 
L 200.763922 181.514097 
L 201.082758 163.331456 
L 201.189037 163.53722 
L 201.507873 121.082806 
L 201.932987 117.715548 
L 202.145544 122.332285 
L 202.251823 122.36258 
L 202.676938 106.963545 
L 202.783216 107.496198 
L 202.889495 106.360915 
L 202.995774 102.890723 
L 203.31461 101.077748 
L 203.633445 78.579415 
L 203.739724 77.90612 
L 204.164839 45.022248 
L 204.271117 37.983214 
L 204.377396 40.234159 
L 204.483675 39.461588 
L 204.802511 39.528403 
L 204.908789 41.633236 
L 205.227625 35.914744 
L 205.546461 40.275518 
L 205.65274 39.652376 
L 205.865297 51.277645 
L 205.971576 61.331328 
L 206.39669 64.120779 
L 206.609248 55.523219 
L 206.715526 55.329004 
L 207.140641 64.654128 
L 207.246919 59.700914 
L 207.353198 59.959096 
L 207.459477 60.847276 
L 207.778313 59.441478 
L 207.884591 69.426536 
L 208.097149 56.358088 
L 208.203427 56.448822 
L 208.522263 48.334302 
L 208.628542 51.164089 
L 208.73482 57.022387 
L 208.947378 56.59364 
L 209.372492 38.513039 
L 209.478771 37.961039 
L 209.691328 41.542867 
L 210.116443 47.349284 
L 210.222722 47.013206 
L 210.435279 43.972855 
L 210.754115 42.50693 
L 210.966672 38.630717 
L 211.179229 46.093219 
L 211.498065 44.454312 
L 211.92318 53.939634 
L 212.242016 53.378005 
L 212.454573 60.14335 
L 212.66713 60.996651 
L 212.985966 74.474572 
L 213.092245 90.17899 
L 213.198524 88.030038 
L 213.304802 128.975497 
L 213.411081 127.477144 
L 213.729917 122.554376 
L 213.836195 123.419091 
L 213.942474 145.102231 
L 214.048753 140.446655 
L 214.155031 140.899718 
L 214.580146 115.934714 
L 214.686425 88.294727 
L 214.792703 89.006045 
L 214.898982 90.337487 
L 215.217818 90.866406 
L 215.324097 94.956279 
L 215.536654 87.401411 
L 215.642932 90.464399 
L 216.068047 90.834282 
L 216.386883 95.145448 
L 216.705719 94.969782 
L 216.918276 86.153269 
L 217.024555 85.634987 
L 217.130834 84.46232 
L 217.662227 74.475352 
L 217.874784 71.312746 
L 218.19362 71.185889 
L 218.299899 65.948964 
L 218.406177 69.664609 
L 218.512456 69.464338 
L 218.618735 66.021199 
L 218.937571 63.4317 
L 219.043849 65.458134 
L 219.256406 101.57421 
L 219.362685 100.694339 
L 219.681521 101.713235 
L 219.894078 77.339142 
L 220.106636 85.442366 
L 220.425472 87.76908 
L 220.53175 87.543268 
L 220.638029 87.847142 
L 220.850586 77.65842 
L 221.275701 66.641798 
L 221.381979 75.441461 
L 221.488258 74.753239 
L 221.913373 66.865205 
L 222.12593 78.158021 
L 222.232209 80.697215 
L 222.338487 86.581659 
L 222.657323 84.86472 
L 222.763602 88.670707 
L 222.86988 88.563084 
L 222.976159 86.123064 
L 223.826388 110.624776 
L 224.145224 103.707961 
L 224.251503 105.60806 
L 224.357781 121.520954 
L 224.46406 121.088746 
L 224.570339 121.189632 
L 224.889175 119.326074 
L 225.101732 117.690829 
L 225.208011 118.787027 
L 225.314289 128.603065 
L 225.633125 130.357993 
L 225.845683 146.760595 
L 225.951961 143.818815 
L 226.05824 144.351499 
L 226.377076 144.063923 
L 226.483354 152.736931 
L 226.589633 149.038975 
L 226.695912 149.175214 
L 226.80219 148.366568 
L 227.121026 147.6275 
L 227.227305 149.757718 
L 227.333584 148.229668 
L 227.439862 149.09986 
L 227.546141 155.479967 
L 227.971255 159.306026 
L 228.077534 163.740973 
L 228.183813 163.715642 
L 228.608927 163.781903 
L 228.821485 175.969893 
L 228.927763 177.227476 
L 229.034042 176.176364 
L 229.352878 176.464701 
L 229.777992 180.128967 
L 230.096828 177.870262 
L 230.203107 179.900498 
L 230.309386 177.8538 
L 230.521943 184.936811 
L 230.840779 183.30377 
L 231.159615 193.14057 
L 231.265893 194.561248 
L 231.584729 195.23731 
L 231.691008 198.782561 
L 231.797287 198.649335 
L 231.903565 197.809873 
L 232.32868 197.713066 
L 232.434959 196.912266 
L 232.647516 198.38441 
L 232.753795 198.232683 
L 233.07263 192.477211 
L 233.178909 192.911717 
L 233.285188 192.168251 
L 233.391466 192.527355 
L 233.497745 194.349916 
L 233.816581 194.69059 
L 233.92286 193.602909 
L 234.029138 193.743074 
L 234.135417 194.366869 
L 234.241696 194.031146 
L 234.560532 193.785964 
L 234.879367 199.497869 
L 234.985646 199.686471 
L 235.304482 199.676065 
L 235.410761 206.281529 
L 235.623318 204.60646 
L 235.729597 204.654972 
L 236.048433 204.309164 
L 236.154711 201.011016 
L 236.367269 202.336357 
L 236.473547 205.659749 
L 236.792383 202.81379 
L 237.00494 206.231196 
L 237.111219 205.859848 
L 237.217498 208.07343 
L 237.536334 211.795498 
L 237.642612 211.705093 
L 237.961448 213.803956 
L 238.280284 213.739616 
L 238.492841 206.860663 
L 238.59912 206.620158 
L 238.705399 207.377182 
L 239.236792 207.671734 
L 239.343071 207.670304 
L 239.449349 206.828333 
L 239.768185 206.828935 
L 239.980743 203.928041 
L 240.087021 205.726813 
L 240.1933 205.469551 
L 240.512136 205.466095 
L 240.618414 204.643357 
L 240.724693 205.873794 
L 240.93725 204.06404 
L 241.256086 204.188305 
L 241.362365 207.190711 
L 241.468644 207.124462 
L 241.574922 202.345851 
L 241.681201 203.137482 
L 242.000037 202.653615 
L 242.212594 202.773923 
L 242.425151 203.68371 
L 242.743987 203.775594 
L 242.850266 203.967841 
L 242.956545 210.058109 
L 243.169102 208.286196 
L 243.487938 208.072079 
L 243.806774 206.703281 
L 243.913052 206.472682 
L 244.231888 204.884548 
L 244.338167 206.726037 
L 244.657003 196.919979 
L 244.975839 196.782619 
L 245.188396 198.889802 
L 245.400953 199.848425 
L 245.719789 199.674427 
L 245.826068 199.451773 
L 245.932347 199.518157 
L 246.038625 202.819387 
L 246.144904 202.655092 
L 246.46374 203.432386 
L 246.676297 203.340703 
L 246.888855 201.791866 
L 247.20769 201.628022 
L 247.313969 201.298806 
L 247.420248 202.423536 
L 247.632805 201.75181 
L 247.951641 201.787698 
L 248.270477 201.253201 
L 248.376756 201.889223 
L 248.695592 201.751821 
L 248.908149 202.563918 
L 249.120706 208.875426 
L 249.439542 214.981539 
L 249.758378 209.966365 
L 249.864657 210.4066 
L 250.183493 210.245266 
L 250.289771 211.603936 
L 250.502328 211.318142 
L 251.246279 213.003102 
L 251.671394 211.240787 
L 251.777672 211.350244 
L 251.99023 211.905048 
L 252.096508 211.844444 
L 252.521623 212.374437 
L 252.73418 213.588877 
L 252.840459 212.336518 
L 253.265573 212.877338 
L 253.371852 212.609983 
L 253.584409 204.993202 
L 253.903245 204.950023 
L 254.115802 203.614242 
L 254.222081 203.867148 
L 254.32836 204.741696 
L 254.647196 204.366173 
L 254.859753 208.208395 
L 254.966032 203.253106 
L 255.07231 203.397492 
L 255.497425 202.52184 
L 255.709982 202.577079 
L 255.816261 202.494436 
L 256.241375 201.697595 
L 256.453933 203.461994 
L 256.879047 203.528802 
L 257.091605 202.794453 
L 257.197883 204.088849 
L 257.304162 204.005794 
L 257.622998 203.948128 
L 257.729276 205.468281 
L 257.941834 205.326034 
L 258.048112 211.419783 
L 258.579506 216.946336 
L 258.685784 216.906667 
L 258.792063 215.978977 
L 259.323456 216.250838 
L 259.429735 216.397582 
L 259.536013 223.1201 
L 259.854849 223.153595 
L 259.961128 225.679731 
L 260.173685 225.3786 
L 260.5988 225.47085 
L 260.811357 224.988525 
L 260.917636 225.189514 
L 261.449029 225.429841 
L 261.661586 227.946157 
L 261.767865 229.06469 
L 262.086701 228.980064 
L 262.19298 228.740674 
L 262.405537 225.741562 
L 262.511816 211.311446 
L 263.043209 210.981288 
L 263.255766 210.943216 
L 263.574602 208.197047 
L 263.787159 206.195095 
L 263.893438 205.890823 
L 263.999717 200.527261 
L 264.318553 201.032122 
L 264.743667 195.56161 
L 265.168782 194.291668 
L 265.27506 194.857393 
L 265.487618 193.188367 
L 265.806454 192.908239 
L 266.231568 186.78306 
L 266.656683 185.507075 
L 266.762961 187.114071 
L 266.86924 185.777731 
L 266.975519 192.761497 
L 267.400633 191.821394 
L 268.038305 188.120922 
L 268.357141 191.976766 
L 268.46342 192.398214 
L 268.782256 196.195068 
L 268.888534 195.781786 
L 269.101092 196.952154 
L 269.20737 200.648481 
L 269.526206 200.577818 
L 269.632485 200.670581 
L 269.738763 201.157585 
L 269.951321 199.507675 
L 270.270157 200.043537 
L 270.376435 196.718413 
L 270.482714 198.005902 
L 270.588993 197.938982 
L 270.695271 201.378922 
L 271.226665 204.155094 
L 271.332943 204.276362 
L 271.439222 204.091246 
L 271.758058 205.883508 
L 271.864336 205.296407 
L 272.076894 207.428487 
L 272.183172 205.060786 
L 272.502008 207.701321 
L 272.608287 210.216306 
L 272.714566 210.152889 
L 272.820844 210.277794 
L 272.927123 210.151122 
L 273.245959 210.157776 
L 273.458516 211.231896 
L 273.671073 211.514453 
L 274.096188 210.895904 
L 274.202467 212.366495 
L 274.308745 212.220969 
L 274.415024 213.217797 
L 274.840139 214.231131 
L 275.052696 216.352659 
L 275.158974 216.238656 
L 275.584089 216.293975 
L 275.690368 218.216094 
L 275.796646 216.970734 
L 275.902925 217.242119 
L 276.221761 216.918513 
L 276.434318 218.701382 
L 276.540597 217.940125 
L 276.646876 220.880197 
L 276.965711 219.001709 
L 277.07199 219.249374 
L 277.178269 217.222255 
L 277.284547 217.477015 
L 277.390826 215.77008 
L 278.028498 213.547366 
L 278.134777 213.545701 
L 278.559891 212.98039 
L 278.66617 213.244988 
L 278.772448 213.189289 
L 278.878727 212.727421 
L 279.197563 213.096683 
L 279.41012 211.270138 
L 279.516399 213.4167 
L 279.622678 213.180527 
L 280.260349 212.470837 
L 280.366628 212.831346 
L 280.791743 212.409327 
L 281.0043 213.711915 
L 281.110579 214.870658 
L 281.429415 214.732361 
L 281.535693 216.656372 
L 281.641972 216.267713 
L 281.854529 212.59922 
L 282.173365 212.768073 
L 282.385922 214.484377 
L 282.59848 214.212648 
L 283.34243 216.315475 
L 283.661266 216.308259 
L 283.767545 217.195841 
L 283.873823 219.245528 
L 284.086381 217.702739 
L 284.405217 217.903222 
L 284.511495 215.996948 
L 284.617774 216.228951 
L 284.830331 214.958285 
L 285.149167 215.505757 
L 285.468003 214.142261 
L 285.574282 213.887428 
L 286.105675 210.903761 
L 286.743347 214.702373 
L 286.849626 214.618075 
L 286.955904 213.73413 
L 287.062183 214.628158 
L 287.699855 214.675938 
L 287.806133 214.645804 
L 288.124969 214.874505 
L 288.443805 212.485181 
L 288.550084 214.303665 
L 288.975198 216.007818 
L 289.081477 218.095693 
L 289.187756 217.821373 
L 289.61287 218.342309 
L 289.719149 219.623091 
L 289.825428 219.077202 
L 289.931706 220.207696 
L 289.931706 220.207696 
" style="fill:none;stroke:#1f77b4;stroke-linecap:square;stroke-width:1.5;"/>
   </g>
   <g id="patch_3">
    <path d="M 50.565625 245.84375 
L 50.565625 25.918125 
" style="fill:none;stroke:#000000;stroke-linecap:square;stroke-linejoin:miter;stroke-width:0.8;"/>
   </g>
   <g id="patch_4">
    <path d="M 301.330091 245.84375 
L 301.330091 25.918125 
" style="fill:none;stroke:#000000;stroke-linecap:square;stroke-linejoin:miter;stroke-width:0.8;"/>
   </g>
   <g id="patch_5">
    <path d="M 50.565625 245.84375 
L 301.330091 245.84375 
" style="fill:none;stroke:#000000;stroke-linecap:square;stroke-linejoin:miter;stroke-width:0.8;"/>
   </g>
   <g id="patch_6">
    <path d="M 50.565625 25.918125 
L 301.330091 25.918125 
" style="fill:none;stroke:#000000;stroke-linecap:square;stroke-linejoin:miter;stroke-width:0.8;"/>
   </g>
   <g id="text_16">
    <!-- Risk exposure, initial portfolio $100,000 -->
    <defs>
     <path d="M 44.390625 34.1875 
Q 47.5625 33.109375 50.5625 29.59375 
Q 53.5625 26.078125 56.59375 19.921875 
L 66.609375 0 
L 56 0 
L 46.6875 18.703125 
Q 43.0625 26.03125 39.671875 28.421875 
Q 36.28125 30.8125 30.421875 30.8125 
L 19.671875 30.8125 
L 19.671875 0 
L 9.8125 0 
L 9.8125 72.90625 
L 32.078125 72.90625 
Q 44.578125 72.90625 50.734375 67.671875 
Q 56.890625 62.453125 56.890625 51.90625 
Q 56.890625 45.015625 53.6875 40.46875 
Q 50.484375 35.9375 44.390625 34.1875 
z
M 19.671875 64.796875 
L 19.671875 38.921875 
L 32.078125 38.921875 
Q 39.203125 38.921875 42.84375 42.21875 
Q 46.484375 45.515625 46.484375 51.90625 
Q 46.484375 58.296875 42.84375 61.546875 
Q 39.203125 64.796875 32.078125 64.796875 
z
" id="DejaVuSans-82"/>
     <path d="M 9.421875 54.6875 
L 18.40625 54.6875 
L 18.40625 0 
L 9.421875 0 
z
M 9.421875 75.984375 
L 18.40625 75.984375 
L 18.40625 64.59375 
L 9.421875 64.59375 
z
" id="DejaVuSans-105"/>
     <path d="M 9.078125 75.984375 
L 18.109375 75.984375 
L 18.109375 31.109375 
L 44.921875 54.6875 
L 56.390625 54.6875 
L 27.390625 29.109375 
L 57.625 0 
L 45.90625 0 
L 18.109375 26.703125 
L 18.109375 0 
L 9.078125 0 
z
" id="DejaVuSans-107"/>
     <path id="DejaVuSans-32"/>
     <path d="M 54.890625 54.6875 
L 35.109375 28.078125 
L 55.90625 0 
L 45.3125 0 
L 29.390625 21.484375 
L 13.484375 0 
L 2.875 0 
L 24.125 28.609375 
L 4.6875 54.6875 
L 15.28125 54.6875 
L 29.78125 35.203125 
L 44.28125 54.6875 
z
" id="DejaVuSans-120"/>
     <path d="M 18.109375 8.203125 
L 18.109375 -20.796875 
L 9.078125 -20.796875 
L 9.078125 54.6875 
L 18.109375 54.6875 
L 18.109375 46.390625 
Q 20.953125 51.265625 25.265625 53.625 
Q 29.59375 56 35.59375 56 
Q 45.5625 56 51.78125 48.09375 
Q 58.015625 40.1875 58.015625 27.296875 
Q 58.015625 14.40625 51.78125 6.484375 
Q 45.5625 -1.421875 35.59375 -1.421875 
Q 29.59375 -1.421875 25.265625 0.953125 
Q 20.953125 3.328125 18.109375 8.203125 
z
M 48.6875 27.296875 
Q 48.6875 37.203125 44.609375 42.84375 
Q 40.53125 48.484375 33.40625 48.484375 
Q 26.265625 48.484375 22.1875 42.84375 
Q 18.109375 37.203125 18.109375 27.296875 
Q 18.109375 17.390625 22.1875 11.75 
Q 26.265625 6.109375 33.40625 6.109375 
Q 40.53125 6.109375 44.609375 11.75 
Q 48.6875 17.390625 48.6875 27.296875 
z
" id="DejaVuSans-112"/>
     <path d="M 8.5 21.578125 
L 8.5 54.6875 
L 17.484375 54.6875 
L 17.484375 21.921875 
Q 17.484375 14.15625 20.5 10.265625 
Q 23.53125 6.390625 29.59375 6.390625 
Q 36.859375 6.390625 41.078125 11.03125 
Q 45.3125 15.671875 45.3125 23.6875 
L 45.3125 54.6875 
L 54.296875 54.6875 
L 54.296875 0 
L 45.3125 0 
L 45.3125 8.40625 
Q 42.046875 3.421875 37.71875 1 
Q 33.40625 -1.421875 27.6875 -1.421875 
Q 18.265625 -1.421875 13.375 4.4375 
Q 8.5 10.296875 8.5 21.578125 
z
M 31.109375 56 
z
" id="DejaVuSans-117"/>
     <path d="M 41.109375 46.296875 
Q 39.59375 47.171875 37.8125 47.578125 
Q 36.03125 48 33.890625 48 
Q 26.265625 48 22.1875 43.046875 
Q 18.109375 38.09375 18.109375 28.8125 
L 18.109375 0 
L 9.078125 0 
L 9.078125 54.6875 
L 18.109375 54.6875 
L 18.109375 46.1875 
Q 20.953125 51.171875 25.484375 53.578125 
Q 30.03125 56 36.53125 56 
Q 37.453125 56 38.578125 55.875 
Q 39.703125 55.765625 41.0625 55.515625 
z
" id="DejaVuSans-114"/>
     <path d="M 11.71875 12.40625 
L 22.015625 12.40625 
L 22.015625 4 
L 14.015625 -11.625 
L 7.71875 -11.625 
L 11.71875 4 
z
" id="DejaVuSans-44"/>
     <path d="M 54.890625 33.015625 
L 54.890625 0 
L 45.90625 0 
L 45.90625 32.71875 
Q 45.90625 40.484375 42.875 44.328125 
Q 39.84375 48.1875 33.796875 48.1875 
Q 26.515625 48.1875 22.3125 43.546875 
Q 18.109375 38.921875 18.109375 30.90625 
L 18.109375 0 
L 9.078125 0 
L 9.078125 54.6875 
L 18.109375 54.6875 
L 18.109375 46.1875 
Q 21.34375 51.125 25.703125 53.5625 
Q 30.078125 56 35.796875 56 
Q 45.21875 56 50.046875 50.171875 
Q 54.890625 44.34375 54.890625 33.015625 
z
" id="DejaVuSans-110"/>
     <path d="M 9.421875 75.984375 
L 18.40625 75.984375 
L 18.40625 0 
L 9.421875 0 
z
" id="DejaVuSans-108"/>
     <path d="M 37.109375 75.984375 
L 37.109375 68.5 
L 28.515625 68.5 
Q 23.6875 68.5 21.796875 66.546875 
Q 19.921875 64.59375 19.921875 59.515625 
L 19.921875 54.6875 
L 34.71875 54.6875 
L 34.71875 47.703125 
L 19.921875 47.703125 
L 19.921875 0 
L 10.890625 0 
L 10.890625 47.703125 
L 2.296875 47.703125 
L 2.296875 54.6875 
L 10.890625 54.6875 
L 10.890625 58.5 
Q 10.890625 67.625 15.140625 71.796875 
Q 19.390625 75.984375 28.609375 75.984375 
z
" id="DejaVuSans-102"/>
     <path d="M 33.796875 -14.703125 
L 28.90625 -14.703125 
L 28.859375 0 
Q 23.734375 0.09375 18.609375 1.1875 
Q 13.484375 2.296875 8.296875 4.5 
L 8.296875 13.28125 
Q 13.28125 10.15625 18.375 8.5625 
Q 23.484375 6.984375 28.90625 6.9375 
L 28.90625 29.203125 
Q 18.109375 30.953125 13.203125 35.15625 
Q 8.296875 39.359375 8.296875 46.6875 
Q 8.296875 54.640625 13.625 59.21875 
Q 18.953125 63.8125 28.90625 64.5 
L 28.90625 75.984375 
L 33.796875 75.984375 
L 33.796875 64.65625 
Q 38.328125 64.453125 42.578125 63.6875 
Q 46.828125 62.9375 50.875 61.625 
L 50.875 53.078125 
Q 46.828125 55.125 42.546875 56.25 
Q 38.28125 57.375 33.796875 57.5625 
L 33.796875 36.71875 
Q 44.875 35.015625 50.09375 30.609375 
Q 55.328125 26.21875 55.328125 18.609375 
Q 55.328125 10.359375 49.78125 5.59375 
Q 44.234375 0.828125 33.796875 0.09375 
z
M 28.90625 37.59375 
L 28.90625 57.625 
Q 23.25 56.984375 20.265625 54.390625 
Q 17.28125 51.8125 17.28125 47.515625 
Q 17.28125 43.3125 20.03125 40.96875 
Q 22.796875 38.625 28.90625 37.59375 
z
M 33.796875 28.21875 
L 33.796875 7.078125 
Q 39.984375 7.90625 43.140625 10.59375 
Q 46.296875 13.28125 46.296875 17.671875 
Q 46.296875 21.96875 43.28125 24.5 
Q 40.28125 27.046875 33.796875 28.21875 
z
" id="DejaVuSans-36"/>
    </defs>
    <g transform="translate(55.954421 19.918125)scale(0.12 -0.12)">
     <use xlink:href="#DejaVuSans-82"/>
     <use x="69.482422" xlink:href="#DejaVuSans-105"/>
     <use x="97.265625" xlink:href="#DejaVuSans-115"/>
     <use x="149.365234" xlink:href="#DejaVuSans-107"/>
     <use x="207.275391" xlink:href="#DejaVuSans-32"/>
     <use x="239.0625" xlink:href="#DejaVuSans-101"/>
     <use x="300.570312" xlink:href="#DejaVuSans-120"/>
     <use x="359.75" xlink:href="#DejaVuSans-112"/>
     <use x="423.226562" xlink:href="#DejaVuSans-111"/>
     <use x="484.408203" xlink:href="#DejaVuSans-115"/>
     <use x="536.507812" xlink:href="#DejaVuSans-117"/>
     <use x="599.886719" xlink:href="#DejaVuSans-114"/>
     <use x="640.96875" xlink:href="#DejaVuSans-101"/>
     <use x="702.492188" xlink:href="#DejaVuSans-44"/>
     <use x="734.279297" xlink:href="#DejaVuSans-32"/>
     <use x="766.066406" xlink:href="#DejaVuSans-105"/>
     <use x="793.849609" xlink:href="#DejaVuSans-110"/>
     <use x="857.228516" xlink:href="#DejaVuSans-105"/>
     <use x="885.011719" xlink:href="#DejaVuSans-116"/>
     <use x="924.220703" xlink:href="#DejaVuSans-105"/>
     <use x="952.003906" xlink:href="#DejaVuSans-97"/>
     <use x="1013.283203" xlink:href="#DejaVuSans-108"/>
     <use x="1041.066406" xlink:href="#DejaVuSans-32"/>
     <use x="1072.853516" xlink:href="#DejaVuSans-112"/>
     <use x="1136.330078" xlink:href="#DejaVuSans-111"/>
     <use x="1197.511719" xlink:href="#DejaVuSans-114"/>
     <use x="1238.625" xlink:href="#DejaVuSans-116"/>
     <use x="1277.833984" xlink:href="#DejaVuSans-102"/>
     <use x="1313.039062" xlink:href="#DejaVuSans-111"/>
     <use x="1374.220703" xlink:href="#DejaVuSans-108"/>
     <use x="1402.003906" xlink:href="#DejaVuSans-105"/>
     <use x="1429.787109" xlink:href="#DejaVuSans-111"/>
     <use x="1490.96875" xlink:href="#DejaVuSans-32"/>
     <use x="1522.755859" xlink:href="#DejaVuSans-36"/>
     <use x="1586.378906" xlink:href="#DejaVuSans-49"/>
     <use x="1650.001953" xlink:href="#DejaVuSans-48"/>
     <use x="1713.625" xlink:href="#DejaVuSans-48"/>
     <use x="1777.248047" xlink:href="#DejaVuSans-44"/>
     <use x="1809.035156" xlink:href="#DejaVuSans-48"/>
     <use x="1872.658203" xlink:href="#DejaVuSans-48"/>
     <use x="1936.28125" xlink:href="#DejaVuSans-48"/>
    </g>
   </g>
  </g>
 </g>
 <defs>
  <clipPath id="pa9ae4f3099">
   <rect height="219.925625" width="250.764466" x="50.565625" y="25.918125"/>
  </clipPath>
 </defs>
</svg>
