<?xml version="1.0" encoding="utf-8" standalone="no"?>
<!DOCTYPE svg PUBLIC "-//W3C//DTD SVG 1.1//EN"
  "http://www.w3.org/Graphics/SVG/1.1/DTD/svg11.dtd">
<!-- Created with matplotlib (https://matplotlib.org/) -->
<svg height="640pt" version="1.1" viewBox="0 0 640 640" width="640pt" xmlns="http://www.w3.org/2000/svg" xmlns:xlink="http://www.w3.org/1999/xlink">
 <defs>
  <style type="text/css">
*{stroke-linecap:butt;stroke-linejoin:round;white-space:pre;}
  </style>
 </defs>
 <g id="figure_1">
  <g id="patch_1">
   <path d="M 0 640 
L 640 640 
L 640 0 
L 0 0 
z
" style="fill:#ffffff;"/>
  </g>
  <g id="axes_1">
   <g id="patch_2">
    <path d="M 47.38125 579.248967 
L 629.2 579.248967 
L 629.2 10.8 
L 47.38125 10.8 
z
" style="fill:#ffffff;"/>
   </g>
   <g id="matplotlib.axis_1">
    <g id="xtick_1">
     <g id="line2d_1">
      <defs>
       <path d="M 0 0 
L 0 3.5 
" id="m0f65ac4866" style="stroke:#000000;stroke-width:0.8;"/>
      </defs>
      <g>
       <use style="stroke:#000000;stroke-width:0.8;" x="119.210725" xlink:href="#m0f65ac4866" y="579.248967"/>
      </g>
     </g>
     <g id="text_1">
      <!-- 2008-04 -->
      <defs>
       <path d="M 19.1875 8.296875 
L 53.609375 8.296875 
L 53.609375 0 
L 7.328125 0 
L 7.328125 8.296875 
Q 12.9375 14.109375 22.625 23.890625 
Q 32.328125 33.6875 34.8125 36.53125 
Q 39.546875 41.84375 41.421875 45.53125 
Q 43.3125 49.21875 43.3125 52.78125 
Q 43.3125 58.59375 39.234375 62.25 
Q 35.15625 65.921875 28.609375 65.921875 
Q 23.96875 65.921875 18.8125 64.3125 
Q 13.671875 62.703125 7.8125 59.421875 
L 7.8125 69.390625 
Q 13.765625 71.78125 18.9375 73 
Q 24.125 74.21875 28.421875 74.21875 
Q 39.75 74.21875 46.484375 68.546875 
Q 53.21875 62.890625 53.21875 53.421875 
Q 53.21875 48.921875 51.53125 44.890625 
Q 49.859375 40.875 45.40625 35.40625 
Q 44.1875 33.984375 37.640625 27.21875 
Q 31.109375 20.453125 19.1875 8.296875 
z
" id="DejaVuSans-50"/>
       <path d="M 31.78125 66.40625 
Q 24.171875 66.40625 20.328125 58.90625 
Q 16.5 51.421875 16.5 36.375 
Q 16.5 21.390625 20.328125 13.890625 
Q 24.171875 6.390625 31.78125 6.390625 
Q 39.453125 6.390625 43.28125 13.890625 
Q 47.125 21.390625 47.125 36.375 
Q 47.125 51.421875 43.28125 58.90625 
Q 39.453125 66.40625 31.78125 66.40625 
z
M 31.78125 74.21875 
Q 44.046875 74.21875 50.515625 64.515625 
Q 56.984375 54.828125 56.984375 36.375 
Q 56.984375 17.96875 50.515625 8.265625 
Q 44.046875 -1.421875 31.78125 -1.421875 
Q 19.53125 -1.421875 13.0625 8.265625 
Q 6.59375 17.96875 6.59375 36.375 
Q 6.59375 54.828125 13.0625 64.515625 
Q 19.53125 74.21875 31.78125 74.21875 
z
" id="DejaVuSans-48"/>
       <path d="M 31.78125 34.625 
Q 24.75 34.625 20.71875 30.859375 
Q 16.703125 27.09375 16.703125 20.515625 
Q 16.703125 13.921875 20.71875 10.15625 
Q 24.75 6.390625 31.78125 6.390625 
Q 38.8125 6.390625 42.859375 10.171875 
Q 46.921875 13.96875 46.921875 20.515625 
Q 46.921875 27.09375 42.890625 30.859375 
Q 38.875 34.625 31.78125 34.625 
z
M 21.921875 38.8125 
Q 15.578125 40.375 12.03125 44.71875 
Q 8.5 49.078125 8.5 55.328125 
Q 8.5 64.0625 14.71875 69.140625 
Q 20.953125 74.21875 31.78125 74.21875 
Q 42.671875 74.21875 48.875 69.140625 
Q 55.078125 64.0625 55.078125 55.328125 
Q 55.078125 49.078125 51.53125 44.71875 
Q 48 40.375 41.703125 38.8125 
Q 48.828125 37.15625 52.796875 32.3125 
Q 56.78125 27.484375 56.78125 20.515625 
Q 56.78125 9.90625 50.3125 4.234375 
Q 43.84375 -1.421875 31.78125 -1.421875 
Q 19.734375 -1.421875 13.25 4.234375 
Q 6.78125 9.90625 6.78125 20.515625 
Q 6.78125 27.484375 10.78125 32.3125 
Q 14.796875 37.15625 21.921875 38.8125 
z
M 18.3125 54.390625 
Q 18.3125 48.734375 21.84375 45.5625 
Q 25.390625 42.390625 31.78125 42.390625 
Q 38.140625 42.390625 41.71875 45.5625 
Q 45.3125 48.734375 45.3125 54.390625 
Q 45.3125 60.0625 41.71875 63.234375 
Q 38.140625 66.40625 31.78125 66.40625 
Q 25.390625 66.40625 21.84375 63.234375 
Q 18.3125 60.0625 18.3125 54.390625 
z
" id="DejaVuSans-56"/>
       <path d="M 4.890625 31.390625 
L 31.203125 31.390625 
L 31.203125 23.390625 
L 4.890625 23.390625 
z
" id="DejaVuSans-45"/>
       <path d="M 37.796875 64.3125 
L 12.890625 25.390625 
L 37.796875 25.390625 
z
M 35.203125 72.90625 
L 47.609375 72.90625 
L 47.609375 25.390625 
L 58.015625 25.390625 
L 58.015625 17.1875 
L 47.609375 17.1875 
L 47.609375 0 
L 37.796875 0 
L 37.796875 17.1875 
L 4.890625 17.1875 
L 4.890625 26.703125 
z
" id="DejaVuSans-52"/>
      </defs>
      <g transform="translate(81.985904 613.720813)rotate(-30)scale(0.1 -0.1)">
       <use xlink:href="#DejaVuSans-50"/>
       <use x="63.623047" xlink:href="#DejaVuSans-48"/>
       <use x="127.246094" xlink:href="#DejaVuSans-48"/>
       <use x="190.869141" xlink:href="#DejaVuSans-56"/>
       <use x="254.492188" xlink:href="#DejaVuSans-45"/>
       <use x="290.576172" xlink:href="#DejaVuSans-48"/>
       <use x="354.199219" xlink:href="#DejaVuSans-52"/>
      </g>
     </g>
    </g>
    <g id="xtick_2">
     <g id="line2d_2">
      <g>
       <use style="stroke:#000000;stroke-width:0.8;" x="191.838306" xlink:href="#m0f65ac4866" y="579.248967"/>
      </g>
     </g>
     <g id="text_2">
      <!-- 2008-07 -->
      <defs>
       <path d="M 8.203125 72.90625 
L 55.078125 72.90625 
L 55.078125 68.703125 
L 28.609375 0 
L 18.3125 0 
L 43.21875 64.59375 
L 8.203125 64.59375 
z
" id="DejaVuSans-55"/>
      </defs>
      <g transform="translate(154.613485 613.720813)rotate(-30)scale(0.1 -0.1)">
       <use xlink:href="#DejaVuSans-50"/>
       <use x="63.623047" xlink:href="#DejaVuSans-48"/>
       <use x="127.246094" xlink:href="#DejaVuSans-48"/>
       <use x="190.869141" xlink:href="#DejaVuSans-56"/>
       <use x="254.492188" xlink:href="#DejaVuSans-45"/>
       <use x="290.576172" xlink:href="#DejaVuSans-48"/>
       <use x="354.199219" xlink:href="#DejaVuSans-55"/>
      </g>
     </g>
    </g>
    <g id="xtick_3">
     <g id="line2d_3">
      <g>
       <use style="stroke:#000000;stroke-width:0.8;" x="265.263992" xlink:href="#m0f65ac4866" y="579.248967"/>
      </g>
     </g>
     <g id="text_3">
      <!-- 2008-10 -->
      <defs>
       <path d="M 12.40625 8.296875 
L 28.515625 8.296875 
L 28.515625 63.921875 
L 10.984375 60.40625 
L 10.984375 69.390625 
L 28.421875 72.90625 
L 38.28125 72.90625 
L 38.28125 8.296875 
L 54.390625 8.296875 
L 54.390625 0 
L 12.40625 0 
z
" id="DejaVuSans-49"/>
      </defs>
      <g transform="translate(228.039171 613.720813)rotate(-30)scale(0.1 -0.1)">
       <use xlink:href="#DejaVuSans-50"/>
       <use x="63.623047" xlink:href="#DejaVuSans-48"/>
       <use x="127.246094" xlink:href="#DejaVuSans-48"/>
       <use x="190.869141" xlink:href="#DejaVuSans-56"/>
       <use x="254.492188" xlink:href="#DejaVuSans-45"/>
       <use x="290.576172" xlink:href="#DejaVuSans-49"/>
       <use x="354.199219" xlink:href="#DejaVuSans-48"/>
      </g>
     </g>
    </g>
    <g id="xtick_4">
     <g id="line2d_4">
      <g>
       <use style="stroke:#000000;stroke-width:0.8;" x="338.689678" xlink:href="#m0f65ac4866" y="579.248967"/>
      </g>
     </g>
     <g id="text_4">
      <!-- 2009-01 -->
      <defs>
       <path d="M 10.984375 1.515625 
L 10.984375 10.5 
Q 14.703125 8.734375 18.5 7.8125 
Q 22.3125 6.890625 25.984375 6.890625 
Q 35.75 6.890625 40.890625 13.453125 
Q 46.046875 20.015625 46.78125 33.40625 
Q 43.953125 29.203125 39.59375 26.953125 
Q 35.25 24.703125 29.984375 24.703125 
Q 19.046875 24.703125 12.671875 31.3125 
Q 6.296875 37.9375 6.296875 49.421875 
Q 6.296875 60.640625 12.9375 67.421875 
Q 19.578125 74.21875 30.609375 74.21875 
Q 43.265625 74.21875 49.921875 64.515625 
Q 56.59375 54.828125 56.59375 36.375 
Q 56.59375 19.140625 48.40625 8.859375 
Q 40.234375 -1.421875 26.421875 -1.421875 
Q 22.703125 -1.421875 18.890625 -0.6875 
Q 15.09375 0.046875 10.984375 1.515625 
z
M 30.609375 32.421875 
Q 37.25 32.421875 41.125 36.953125 
Q 45.015625 41.5 45.015625 49.421875 
Q 45.015625 57.28125 41.125 61.84375 
Q 37.25 66.40625 30.609375 66.40625 
Q 23.96875 66.40625 20.09375 61.84375 
Q 16.21875 57.28125 16.21875 49.421875 
Q 16.21875 41.5 20.09375 36.953125 
Q 23.96875 32.421875 30.609375 32.421875 
z
" id="DejaVuSans-57"/>
      </defs>
      <g transform="translate(301.464857 613.720813)rotate(-30)scale(0.1 -0.1)">
       <use xlink:href="#DejaVuSans-50"/>
       <use x="63.623047" xlink:href="#DejaVuSans-48"/>
       <use x="127.246094" xlink:href="#DejaVuSans-48"/>
       <use x="190.869141" xlink:href="#DejaVuSans-57"/>
       <use x="254.492188" xlink:href="#DejaVuSans-45"/>
       <use x="290.576172" xlink:href="#DejaVuSans-48"/>
       <use x="354.199219" xlink:href="#DejaVuSans-49"/>
      </g>
     </g>
    </g>
    <g id="xtick_5">
     <g id="line2d_5">
      <g>
       <use style="stroke:#000000;stroke-width:0.8;" x="410.519153" xlink:href="#m0f65ac4866" y="579.248967"/>
      </g>
     </g>
     <g id="text_5">
      <!-- 2009-04 -->
      <g transform="translate(373.294332 613.720813)rotate(-30)scale(0.1 -0.1)">
       <use xlink:href="#DejaVuSans-50"/>
       <use x="63.623047" xlink:href="#DejaVuSans-48"/>
       <use x="127.246094" xlink:href="#DejaVuSans-48"/>
       <use x="190.869141" xlink:href="#DejaVuSans-57"/>
       <use x="254.492188" xlink:href="#DejaVuSans-45"/>
       <use x="290.576172" xlink:href="#DejaVuSans-48"/>
       <use x="354.199219" xlink:href="#DejaVuSans-52"/>
      </g>
     </g>
    </g>
    <g id="xtick_6">
     <g id="line2d_6">
      <g>
       <use style="stroke:#000000;stroke-width:0.8;" x="483.146734" xlink:href="#m0f65ac4866" y="579.248967"/>
      </g>
     </g>
     <g id="text_6">
      <!-- 2009-07 -->
      <g transform="translate(445.921913 613.720813)rotate(-30)scale(0.1 -0.1)">
       <use xlink:href="#DejaVuSans-50"/>
       <use x="63.623047" xlink:href="#DejaVuSans-48"/>
       <use x="127.246094" xlink:href="#DejaVuSans-48"/>
       <use x="190.869141" xlink:href="#DejaVuSans-57"/>
       <use x="254.492188" xlink:href="#DejaVuSans-45"/>
       <use x="290.576172" xlink:href="#DejaVuSans-48"/>
       <use x="354.199219" xlink:href="#DejaVuSans-55"/>
      </g>
     </g>
    </g>
    <g id="xtick_7">
     <g id="line2d_7">
      <g>
       <use style="stroke:#000000;stroke-width:0.8;" x="556.572419" xlink:href="#m0f65ac4866" y="579.248967"/>
      </g>
     </g>
     <g id="text_7">
      <!-- 2009-10 -->
      <g transform="translate(519.347599 613.720813)rotate(-30)scale(0.1 -0.1)">
       <use xlink:href="#DejaVuSans-50"/>
       <use x="63.623047" xlink:href="#DejaVuSans-48"/>
       <use x="127.246094" xlink:href="#DejaVuSans-48"/>
       <use x="190.869141" xlink:href="#DejaVuSans-57"/>
       <use x="254.492188" xlink:href="#DejaVuSans-45"/>
       <use x="290.576172" xlink:href="#DejaVuSans-49"/>
       <use x="354.199219" xlink:href="#DejaVuSans-48"/>
      </g>
     </g>
    </g>
    <g id="text_8">
     <!-- Date -->
     <defs>
      <path d="M 19.671875 64.796875 
L 19.671875 8.109375 
L 31.59375 8.109375 
Q 46.6875 8.109375 53.6875 14.9375 
Q 60.6875 21.78125 60.6875 36.53125 
Q 60.6875 51.171875 53.6875 57.984375 
Q 46.6875 64.796875 31.59375 64.796875 
z
M 9.8125 72.90625 
L 30.078125 72.90625 
Q 51.265625 72.90625 61.171875 64.09375 
Q 71.09375 55.28125 71.09375 36.53125 
Q 71.09375 17.671875 61.125 8.828125 
Q 51.171875 0 30.078125 0 
L 9.8125 0 
z
" id="DejaVuSans-68"/>
      <path d="M 34.28125 27.484375 
Q 23.390625 27.484375 19.1875 25 
Q 14.984375 22.515625 14.984375 16.5 
Q 14.984375 11.71875 18.140625 8.90625 
Q 21.296875 6.109375 26.703125 6.109375 
Q 34.1875 6.109375 38.703125 11.40625 
Q 43.21875 16.703125 43.21875 25.484375 
L 43.21875 27.484375 
z
M 52.203125 31.203125 
L 52.203125 0 
L 43.21875 0 
L 43.21875 8.296875 
Q 40.140625 3.328125 35.546875 0.953125 
Q 30.953125 -1.421875 24.3125 -1.421875 
Q 15.921875 -1.421875 10.953125 3.296875 
Q 6 8.015625 6 15.921875 
Q 6 25.140625 12.171875 29.828125 
Q 18.359375 34.515625 30.609375 34.515625 
L 43.21875 34.515625 
L 43.21875 35.40625 
Q 43.21875 41.609375 39.140625 45 
Q 35.0625 48.390625 27.6875 48.390625 
Q 23 48.390625 18.546875 47.265625 
Q 14.109375 46.140625 10.015625 43.890625 
L 10.015625 52.203125 
Q 14.9375 54.109375 19.578125 55.046875 
Q 24.21875 56 28.609375 56 
Q 40.484375 56 46.34375 49.84375 
Q 52.203125 43.703125 52.203125 31.203125 
z
" id="DejaVuSans-97"/>
      <path d="M 18.3125 70.21875 
L 18.3125 54.6875 
L 36.8125 54.6875 
L 36.8125 47.703125 
L 18.3125 47.703125 
L 18.3125 18.015625 
Q 18.3125 11.328125 20.140625 9.421875 
Q 21.96875 7.515625 27.59375 7.515625 
L 36.8125 7.515625 
L 36.8125 0 
L 27.59375 0 
Q 17.1875 0 13.234375 3.875 
Q 9.28125 7.765625 9.28125 18.015625 
L 9.28125 47.703125 
L 2.6875 47.703125 
L 2.6875 54.6875 
L 9.28125 54.6875 
L 9.28125 70.21875 
z
" id="DejaVuSans-116"/>
      <path d="M 56.203125 29.59375 
L 56.203125 25.203125 
L 14.890625 25.203125 
Q 15.484375 15.921875 20.484375 11.0625 
Q 25.484375 6.203125 34.421875 6.203125 
Q 39.59375 6.203125 44.453125 7.46875 
Q 49.3125 8.734375 54.109375 11.28125 
L 54.109375 2.78125 
Q 49.265625 0.734375 44.1875 -0.34375 
Q 39.109375 -1.421875 33.890625 -1.421875 
Q 20.796875 -1.421875 13.15625 6.1875 
Q 5.515625 13.8125 5.515625 26.8125 
Q 5.515625 40.234375 12.765625 48.109375 
Q 20.015625 56 32.328125 56 
Q 43.359375 56 49.78125 48.890625 
Q 56.203125 41.796875 56.203125 29.59375 
z
M 47.21875 32.234375 
Q 47.125 39.59375 43.09375 43.984375 
Q 39.0625 48.390625 32.421875 48.390625 
Q 24.90625 48.390625 20.390625 44.140625 
Q 15.875 39.890625 15.1875 32.171875 
z
" id="DejaVuSans-101"/>
     </defs>
     <g transform="translate(326.339844 627.120312)scale(0.1 -0.1)">
      <use xlink:href="#DejaVuSans-68"/>
      <use x="77.001953" xlink:href="#DejaVuSans-97"/>
      <use x="138.28125" xlink:href="#DejaVuSans-116"/>
      <use x="177.490234" xlink:href="#DejaVuSans-101"/>
     </g>
    </g>
   </g>
   <g id="matplotlib.axis_2">
    <g id="ytick_1">
     <g id="line2d_8">
      <defs>
       <path d="M 0 0 
L -3.5 0 
" id="m5fdb8416d0" style="stroke:#000000;stroke-width:0.8;"/>
      </defs>
      <g>
       <use style="stroke:#000000;stroke-width:0.8;" x="47.38125" xlink:href="#m5fdb8416d0" y="565.432305"/>
      </g>
     </g>
     <g id="text_9">
      <!-- 0.2 -->
      <defs>
       <path d="M 10.6875 12.40625 
L 21 12.40625 
L 21 0 
L 10.6875 0 
z
" id="DejaVuSans-46"/>
      </defs>
      <g transform="translate(24.478125 569.231524)scale(0.1 -0.1)">
       <use xlink:href="#DejaVuSans-48"/>
       <use x="63.623047" xlink:href="#DejaVuSans-46"/>
       <use x="95.410156" xlink:href="#DejaVuSans-50"/>
      </g>
     </g>
    </g>
    <g id="ytick_2">
     <g id="line2d_9">
      <g>
       <use style="stroke:#000000;stroke-width:0.8;" x="47.38125" xlink:href="#m5fdb8416d0" y="492.099359"/>
      </g>
     </g>
     <g id="text_10">
      <!-- 0.4 -->
      <g transform="translate(24.478125 495.898578)scale(0.1 -0.1)">
       <use xlink:href="#DejaVuSans-48"/>
       <use x="63.623047" xlink:href="#DejaVuSans-46"/>
       <use x="95.410156" xlink:href="#DejaVuSans-52"/>
      </g>
     </g>
    </g>
    <g id="ytick_3">
     <g id="line2d_10">
      <g>
       <use style="stroke:#000000;stroke-width:0.8;" x="47.38125" xlink:href="#m5fdb8416d0" y="418.766412"/>
      </g>
     </g>
     <g id="text_11">
      <!-- 0.6 -->
      <defs>
       <path d="M 33.015625 40.375 
Q 26.375 40.375 22.484375 35.828125 
Q 18.609375 31.296875 18.609375 23.390625 
Q 18.609375 15.53125 22.484375 10.953125 
Q 26.375 6.390625 33.015625 6.390625 
Q 39.65625 6.390625 43.53125 10.953125 
Q 47.40625 15.53125 47.40625 23.390625 
Q 47.40625 31.296875 43.53125 35.828125 
Q 39.65625 40.375 33.015625 40.375 
z
M 52.59375 71.296875 
L 52.59375 62.3125 
Q 48.875 64.0625 45.09375 64.984375 
Q 41.3125 65.921875 37.59375 65.921875 
Q 27.828125 65.921875 22.671875 59.328125 
Q 17.53125 52.734375 16.796875 39.40625 
Q 19.671875 43.65625 24.015625 45.921875 
Q 28.375 48.1875 33.59375 48.1875 
Q 44.578125 48.1875 50.953125 41.515625 
Q 57.328125 34.859375 57.328125 23.390625 
Q 57.328125 12.15625 50.6875 5.359375 
Q 44.046875 -1.421875 33.015625 -1.421875 
Q 20.359375 -1.421875 13.671875 8.265625 
Q 6.984375 17.96875 6.984375 36.375 
Q 6.984375 53.65625 15.1875 63.9375 
Q 23.390625 74.21875 37.203125 74.21875 
Q 40.921875 74.21875 44.703125 73.484375 
Q 48.484375 72.75 52.59375 71.296875 
z
" id="DejaVuSans-54"/>
      </defs>
      <g transform="translate(24.478125 422.565631)scale(0.1 -0.1)">
       <use xlink:href="#DejaVuSans-48"/>
       <use x="63.623047" xlink:href="#DejaVuSans-46"/>
       <use x="95.410156" xlink:href="#DejaVuSans-54"/>
      </g>
     </g>
    </g>
    <g id="ytick_4">
     <g id="line2d_11">
      <g>
       <use style="stroke:#000000;stroke-width:0.8;" x="47.38125" xlink:href="#m5fdb8416d0" y="345.433466"/>
      </g>
     </g>
     <g id="text_12">
      <!-- 0.8 -->
      <g transform="translate(24.478125 349.232685)scale(0.1 -0.1)">
       <use xlink:href="#DejaVuSans-48"/>
       <use x="63.623047" xlink:href="#DejaVuSans-46"/>
       <use x="95.410156" xlink:href="#DejaVuSans-56"/>
      </g>
     </g>
    </g>
    <g id="ytick_5">
     <g id="line2d_12">
      <g>
       <use style="stroke:#000000;stroke-width:0.8;" x="47.38125" xlink:href="#m5fdb8416d0" y="272.10052"/>
      </g>
     </g>
     <g id="text_13">
      <!-- 1.0 -->
      <g transform="translate(24.478125 275.899738)scale(0.1 -0.1)">
       <use xlink:href="#DejaVuSans-49"/>
       <use x="63.623047" xlink:href="#DejaVuSans-46"/>
       <use x="95.410156" xlink:href="#DejaVuSans-48"/>
      </g>
     </g>
    </g>
    <g id="ytick_6">
     <g id="line2d_13">
      <g>
       <use style="stroke:#000000;stroke-width:0.8;" x="47.38125" xlink:href="#m5fdb8416d0" y="198.767573"/>
      </g>
     </g>
     <g id="text_14">
      <!-- 1.2 -->
      <g transform="translate(24.478125 202.566792)scale(0.1 -0.1)">
       <use xlink:href="#DejaVuSans-49"/>
       <use x="63.623047" xlink:href="#DejaVuSans-46"/>
       <use x="95.410156" xlink:href="#DejaVuSans-50"/>
      </g>
     </g>
    </g>
    <g id="ytick_7">
     <g id="line2d_14">
      <g>
       <use style="stroke:#000000;stroke-width:0.8;" x="47.38125" xlink:href="#m5fdb8416d0" y="125.434627"/>
      </g>
     </g>
     <g id="text_15">
      <!-- 1.4 -->
      <g transform="translate(24.478125 129.233846)scale(0.1 -0.1)">
       <use xlink:href="#DejaVuSans-49"/>
       <use x="63.623047" xlink:href="#DejaVuSans-46"/>
       <use x="95.410156" xlink:href="#DejaVuSans-52"/>
      </g>
     </g>
    </g>
    <g id="ytick_8">
     <g id="line2d_15">
      <g>
       <use style="stroke:#000000;stroke-width:0.8;" x="47.38125" xlink:href="#m5fdb8416d0" y="52.101681"/>
      </g>
     </g>
     <g id="text_16">
      <!-- 1.6 -->
      <g transform="translate(24.478125 55.900899)scale(0.1 -0.1)">
       <use xlink:href="#DejaVuSans-49"/>
       <use x="63.623047" xlink:href="#DejaVuSans-46"/>
       <use x="95.410156" xlink:href="#DejaVuSans-54"/>
      </g>
     </g>
    </g>
    <g id="text_17">
     <!-- Annualized Volatility, 30-day Window -->
     <defs>
      <path d="M 34.1875 63.1875 
L 20.796875 26.90625 
L 47.609375 26.90625 
z
M 28.609375 72.90625 
L 39.796875 72.90625 
L 67.578125 0 
L 57.328125 0 
L 50.6875 18.703125 
L 17.828125 18.703125 
L 11.1875 0 
L 0.78125 0 
z
" id="DejaVuSans-65"/>
      <path d="M 54.890625 33.015625 
L 54.890625 0 
L 45.90625 0 
L 45.90625 32.71875 
Q 45.90625 40.484375 42.875 44.328125 
Q 39.84375 48.1875 33.796875 48.1875 
Q 26.515625 48.1875 22.3125 43.546875 
Q 18.109375 38.921875 18.109375 30.90625 
L 18.109375 0 
L 9.078125 0 
L 9.078125 54.6875 
L 18.109375 54.6875 
L 18.109375 46.1875 
Q 21.34375 51.125 25.703125 53.5625 
Q 30.078125 56 35.796875 56 
Q 45.21875 56 50.046875 50.171875 
Q 54.890625 44.34375 54.890625 33.015625 
z
" id="DejaVuSans-110"/>
      <path d="M 8.5 21.578125 
L 8.5 54.6875 
L 17.484375 54.6875 
L 17.484375 21.921875 
Q 17.484375 14.15625 20.5 10.265625 
Q 23.53125 6.390625 29.59375 6.390625 
Q 36.859375 6.390625 41.078125 11.03125 
Q 45.3125 15.671875 45.3125 23.6875 
L 45.3125 54.6875 
L 54.296875 54.6875 
L 54.296875 0 
L 45.3125 0 
L 45.3125 8.40625 
Q 42.046875 3.421875 37.71875 1 
Q 33.40625 -1.421875 27.6875 -1.421875 
Q 18.265625 -1.421875 13.375 4.4375 
Q 8.5 10.296875 8.5 21.578125 
z
M 31.109375 56 
z
" id="DejaVuSans-117"/>
      <path d="M 9.421875 75.984375 
L 18.40625 75.984375 
L 18.40625 0 
L 9.421875 0 
z
" id="DejaVuSans-108"/>
      <path d="M 9.421875 54.6875 
L 18.40625 54.6875 
L 18.40625 0 
L 9.421875 0 
z
M 9.421875 75.984375 
L 18.40625 75.984375 
L 18.40625 64.59375 
L 9.421875 64.59375 
z
" id="DejaVuSans-105"/>
      <path d="M 5.515625 54.6875 
L 48.1875 54.6875 
L 48.1875 46.484375 
L 14.40625 7.171875 
L 48.1875 7.171875 
L 48.1875 0 
L 4.296875 0 
L 4.296875 8.203125 
L 38.09375 47.515625 
L 5.515625 47.515625 
z
" id="DejaVuSans-122"/>
      <path d="M 45.40625 46.390625 
L 45.40625 75.984375 
L 54.390625 75.984375 
L 54.390625 0 
L 45.40625 0 
L 45.40625 8.203125 
Q 42.578125 3.328125 38.25 0.953125 
Q 33.9375 -1.421875 27.875 -1.421875 
Q 17.96875 -1.421875 11.734375 6.484375 
Q 5.515625 14.40625 5.515625 27.296875 
Q 5.515625 40.1875 11.734375 48.09375 
Q 17.96875 56 27.875 56 
Q 33.9375 56 38.25 53.625 
Q 42.578125 51.265625 45.40625 46.390625 
z
M 14.796875 27.296875 
Q 14.796875 17.390625 18.875 11.75 
Q 22.953125 6.109375 30.078125 6.109375 
Q 37.203125 6.109375 41.296875 11.75 
Q 45.40625 17.390625 45.40625 27.296875 
Q 45.40625 37.203125 41.296875 42.84375 
Q 37.203125 48.484375 30.078125 48.484375 
Q 22.953125 48.484375 18.875 42.84375 
Q 14.796875 37.203125 14.796875 27.296875 
z
" id="DejaVuSans-100"/>
      <path id="DejaVuSans-32"/>
      <path d="M 28.609375 0 
L 0.78125 72.90625 
L 11.078125 72.90625 
L 34.1875 11.53125 
L 57.328125 72.90625 
L 67.578125 72.90625 
L 39.796875 0 
z
" id="DejaVuSans-86"/>
      <path d="M 30.609375 48.390625 
Q 23.390625 48.390625 19.1875 42.75 
Q 14.984375 37.109375 14.984375 27.296875 
Q 14.984375 17.484375 19.15625 11.84375 
Q 23.34375 6.203125 30.609375 6.203125 
Q 37.796875 6.203125 41.984375 11.859375 
Q 46.1875 17.53125 46.1875 27.296875 
Q 46.1875 37.015625 41.984375 42.703125 
Q 37.796875 48.390625 30.609375 48.390625 
z
M 30.609375 56 
Q 42.328125 56 49.015625 48.375 
Q 55.71875 40.765625 55.71875 27.296875 
Q 55.71875 13.875 49.015625 6.21875 
Q 42.328125 -1.421875 30.609375 -1.421875 
Q 18.84375 -1.421875 12.171875 6.21875 
Q 5.515625 13.875 5.515625 27.296875 
Q 5.515625 40.765625 12.171875 48.375 
Q 18.84375 56 30.609375 56 
z
" id="DejaVuSans-111"/>
      <path d="M 32.171875 -5.078125 
Q 28.375 -14.84375 24.75 -17.8125 
Q 21.140625 -20.796875 15.09375 -20.796875 
L 7.90625 -20.796875 
L 7.90625 -13.28125 
L 13.1875 -13.28125 
Q 16.890625 -13.28125 18.9375 -11.515625 
Q 21 -9.765625 23.484375 -3.21875 
L 25.09375 0.875 
L 2.984375 54.6875 
L 12.5 54.6875 
L 29.59375 11.921875 
L 46.6875 54.6875 
L 56.203125 54.6875 
z
" id="DejaVuSans-121"/>
      <path d="M 11.71875 12.40625 
L 22.015625 12.40625 
L 22.015625 4 
L 14.015625 -11.625 
L 7.71875 -11.625 
L 11.71875 4 
z
" id="DejaVuSans-44"/>
      <path d="M 40.578125 39.3125 
Q 47.65625 37.796875 51.625 33 
Q 55.609375 28.21875 55.609375 21.1875 
Q 55.609375 10.40625 48.1875 4.484375 
Q 40.765625 -1.421875 27.09375 -1.421875 
Q 22.515625 -1.421875 17.65625 -0.515625 
Q 12.796875 0.390625 7.625 2.203125 
L 7.625 11.71875 
Q 11.71875 9.328125 16.59375 8.109375 
Q 21.484375 6.890625 26.8125 6.890625 
Q 36.078125 6.890625 40.9375 10.546875 
Q 45.796875 14.203125 45.796875 21.1875 
Q 45.796875 27.640625 41.28125 31.265625 
Q 36.765625 34.90625 28.71875 34.90625 
L 20.21875 34.90625 
L 20.21875 43.015625 
L 29.109375 43.015625 
Q 36.375 43.015625 40.234375 45.921875 
Q 44.09375 48.828125 44.09375 54.296875 
Q 44.09375 59.90625 40.109375 62.90625 
Q 36.140625 65.921875 28.71875 65.921875 
Q 24.65625 65.921875 20.015625 65.03125 
Q 15.375 64.15625 9.8125 62.3125 
L 9.8125 71.09375 
Q 15.4375 72.65625 20.34375 73.4375 
Q 25.25 74.21875 29.59375 74.21875 
Q 40.828125 74.21875 47.359375 69.109375 
Q 53.90625 64.015625 53.90625 55.328125 
Q 53.90625 49.265625 50.4375 45.09375 
Q 46.96875 40.921875 40.578125 39.3125 
z
" id="DejaVuSans-51"/>
      <path d="M 3.328125 72.90625 
L 13.28125 72.90625 
L 28.609375 11.28125 
L 43.890625 72.90625 
L 54.984375 72.90625 
L 70.3125 11.28125 
L 85.59375 72.90625 
L 95.609375 72.90625 
L 77.296875 0 
L 64.890625 0 
L 49.515625 63.28125 
L 33.984375 0 
L 21.578125 0 
z
" id="DejaVuSans-87"/>
      <path d="M 4.203125 54.6875 
L 13.1875 54.6875 
L 24.421875 12.015625 
L 35.59375 54.6875 
L 46.1875 54.6875 
L 57.421875 12.015625 
L 68.609375 54.6875 
L 77.59375 54.6875 
L 63.28125 0 
L 52.6875 0 
L 40.921875 44.828125 
L 29.109375 0 
L 18.5 0 
z
" id="DejaVuSans-119"/>
     </defs>
     <g transform="translate(18.398438 388.185421)rotate(-90)scale(0.1 -0.1)">
      <use xlink:href="#DejaVuSans-65"/>
      <use x="68.408203" xlink:href="#DejaVuSans-110"/>
      <use x="131.787109" xlink:href="#DejaVuSans-110"/>
      <use x="195.166016" xlink:href="#DejaVuSans-117"/>
      <use x="258.544922" xlink:href="#DejaVuSans-97"/>
      <use x="319.824219" xlink:href="#DejaVuSans-108"/>
      <use x="347.607422" xlink:href="#DejaVuSans-105"/>
      <use x="375.390625" xlink:href="#DejaVuSans-122"/>
      <use x="427.880859" xlink:href="#DejaVuSans-101"/>
      <use x="489.404297" xlink:href="#DejaVuSans-100"/>
      <use x="552.880859" xlink:href="#DejaVuSans-32"/>
      <use x="584.667969" xlink:href="#DejaVuSans-86"/>
      <use x="652.966797" xlink:href="#DejaVuSans-111"/>
      <use x="714.148438" xlink:href="#DejaVuSans-108"/>
      <use x="741.931641" xlink:href="#DejaVuSans-97"/>
      <use x="803.210938" xlink:href="#DejaVuSans-116"/>
      <use x="842.419922" xlink:href="#DejaVuSans-105"/>
      <use x="870.203125" xlink:href="#DejaVuSans-108"/>
      <use x="897.986328" xlink:href="#DejaVuSans-105"/>
      <use x="925.769531" xlink:href="#DejaVuSans-116"/>
      <use x="964.978516" xlink:href="#DejaVuSans-121"/>
      <use x="1024.158203" xlink:href="#DejaVuSans-44"/>
      <use x="1055.945312" xlink:href="#DejaVuSans-32"/>
      <use x="1087.732422" xlink:href="#DejaVuSans-51"/>
      <use x="1151.355469" xlink:href="#DejaVuSans-48"/>
      <use x="1214.978516" xlink:href="#DejaVuSans-45"/>
      <use x="1251.0625" xlink:href="#DejaVuSans-100"/>
      <use x="1314.539062" xlink:href="#DejaVuSans-97"/>
      <use x="1375.818359" xlink:href="#DejaVuSans-121"/>
      <use x="1434.998047" xlink:href="#DejaVuSans-32"/>
      <use x="1466.785156" xlink:href="#DejaVuSans-87"/>
      <use x="1565.630859" xlink:href="#DejaVuSans-105"/>
      <use x="1593.414062" xlink:href="#DejaVuSans-110"/>
      <use x="1656.792969" xlink:href="#DejaVuSans-100"/>
      <use x="1720.269531" xlink:href="#DejaVuSans-111"/>
      <use x="1781.451172" xlink:href="#DejaVuSans-119"/>
     </g>
    </g>
   </g>
   <g id="line2d_16">
    <path clip-path="url(#p5e6c0446ee)" d="M 81.699777 475.756262 
L 82.497882 475.671813 
L 85.690303 476.983972 
L 86.488409 475.23081 
L 87.286514 479.442568 
L 88.084619 479.648235 
L 90.478935 481.682342 
L 91.27704 481.623979 
L 92.075146 479.106702 
L 92.873251 484.852101 
L 93.671356 478.469127 
L 96.065672 482.354613 
L 96.863777 481.876832 
L 97.661883 486.184847 
L 98.459988 509.571106 
L 99.258093 509.64719 
L 101.652409 508.674609 
L 102.450514 484.611899 
L 103.24862 485.64316 
L 104.046725 485.419496 
L 104.84483 479.265114 
L 107.239146 482.738003 
L 108.037251 425.555223 
L 108.835357 433.259231 
L 109.633462 405.069749 
L 112.825883 405.218779 
L 113.623988 407.169605 
L 114.422094 403.440326 
L 115.220199 401.037325 
L 116.018304 400.134733 
L 118.41262 400.621739 
L 119.210725 383.345886 
L 120.806936 384.833253 
L 121.605041 384.502382 
L 123.999357 384.648166 
L 124.797462 384.050756 
L 125.595568 383.255384 
L 129.586094 389.517464 
L 130.384199 390.501938 
L 131.182305 387.898818 
L 131.98041 387.523994 
L 132.778515 390.625302 
L 135.172831 390.307169 
L 135.970936 395.22241 
L 136.769041 407.510312 
L 137.567147 403.515178 
L 138.365252 403.295641 
L 140.759568 411.629934 
L 141.557673 412.856833 
L 142.355778 453.529268 
L 143.153884 452.223677 
L 143.951989 484.338584 
L 146.346305 482.206468 
L 147.14441 482.194671 
L 147.942515 481.617366 
L 148.740621 485.271571 
L 149.538726 487.469042 
L 151.933042 487.17179 
L 152.731147 514.837405 
L 153.529252 514.653627 
L 154.327358 513.89358 
L 155.125463 514.06563 
L 157.519779 513.938171 
L 159.115989 506.566636 
L 159.914095 506.942935 
L 160.7122 506.269421 
L 164.702726 508.429706 
L 165.500832 515.273618 
L 166.298937 516.805111 
L 168.693253 520.991792 
L 170.289463 521.014973 
L 171.087569 519.001351 
L 171.885674 519.870998 
L 174.27999 518.67945 
L 175.078095 516.346186 
L 175.8762 511.054957 
L 176.674306 504.911431 
L 177.472411 497.340803 
L 179.866727 494.992104 
L 180.664832 494.650736 
L 181.462937 494.793499 
L 182.261043 500.148763 
L 183.059148 497.736254 
L 185.453464 494.995413 
L 186.251569 494.415551 
L 187.049674 495.567747 
L 187.847779 489.936702 
L 188.645885 491.081823 
L 191.040201 490.928493 
L 191.838306 490.189325 
L 192.636411 492.68384 
L 193.434516 495.864562 
L 196.626938 493.498719 
L 197.425043 485.104814 
L 198.223148 479.010306 
L 199.021253 479.251819 
L 199.819359 480.352976 
L 202.213675 475.626258 
L 203.01178 475.486853 
L 203.809885 419.450551 
L 204.60799 396.757156 
L 205.406096 396.743521 
L 207.800412 403.529042 
L 208.598517 400.017775 
L 209.396622 400.155174 
L 210.194727 394.284533 
L 210.992833 396.067485 
L 213.387148 396.795521 
L 214.185254 389.158601 
L 214.983359 388.247524 
L 215.781464 388.198804 
L 216.57957 387.966145 
L 218.973885 389.985505 
L 219.771991 389.46619 
L 220.570096 389.904276 
L 221.368201 386.076294 
L 222.166307 388.355503 
L 224.560622 389.334654 
L 225.358728 377.314621 
L 226.156833 374.322998 
L 226.954938 373.973617 
L 230.147359 373.945698 
L 230.945465 376.3984 
L 231.74357 382.093511 
L 232.541675 381.777332 
L 233.339781 380.728025 
L 235.734096 383.764626 
L 236.532202 385.620957 
L 237.330307 424.671977 
L 238.128412 442.709788 
L 238.926517 443.700885 
L 242.118939 444.738655 
L 242.917044 452.693618 
L 243.715149 446.309752 
L 244.513254 455.122589 
L 247.705676 445.216831 
L 248.503781 454.340454 
L 249.301886 456.99587 
L 250.099991 455.124774 
L 252.494307 412.33052 
L 253.292413 412.173005 
L 254.090518 368.996139 
L 254.888623 354.036554 
L 255.686728 276.57772 
L 258.081044 274.436735 
L 258.87915 274.428606 
L 259.677255 280.842848 
L 260.47536 277.744209 
L 261.273465 277.483452 
L 263.667781 249.650814 
L 264.465886 231.590854 
L 265.263992 225.213247 
L 266.062097 224.421879 
L 266.860202 218.476139 
L 269.254518 218.831728 
L 270.052623 194.816089 
L 270.850729 194.479135 
L 271.648834 175.417472 
L 272.446939 179.344087 
L 274.841255 63.614649 
L 275.63936 49.316451 
L 276.437466 38.690431 
L 277.235571 40.381765 
L 278.033676 41.508392 
L 280.427992 42.932239 
L 281.226097 45.75107 
L 282.024203 43.378525 
L 282.822308 43.041018 
L 283.620413 38.833005 
L 286.014729 47.9337 
L 286.812834 39.083373 
L 287.61094 61.893814 
L 288.409045 66.737399 
L 289.20715 107.796002 
L 291.601466 111.185939 
L 292.399571 108.496082 
L 293.197677 99.458007 
L 293.995782 98.449307 
L 294.793887 99.159397 
L 297.188203 113.859994 
L 297.986308 130.379416 
L 298.784414 129.75795 
L 299.582519 124.625138 
L 300.380624 126.09727 
L 302.77494 124.014484 
L 303.573045 142.781073 
L 304.371151 120.475699 
L 305.169256 115.304331 
L 305.967361 115.382804 
L 308.361677 88.595896 
L 309.159782 101.651905 
L 309.957888 105.040665 
L 311.554098 99.760709 
L 313.948414 62.610223 
L 314.746519 58.717391 
L 315.544624 48.874142 
L 316.34273 50.818844 
L 317.140835 47.92526 
L 319.535151 46.636638 
L 320.333256 50.516039 
L 321.131361 58.318841 
L 321.929467 54.037468 
L 322.727572 54.623333 
L 325.121888 57.907947 
L 325.919993 36.638589 
L 326.718098 39.427841 
L 327.516204 47.522469 
L 328.314309 52.013417 
L 330.708625 50.565505 
L 331.50673 54.154293 
L 332.304835 53.740099 
L 333.901046 65.02901 
L 336.295362 67.507656 
L 337.093467 69.042591 
L 337.891572 73.620376 
L 339.487783 72.993243 
L 341.882099 101.119351 
L 342.680204 131.945823 
L 343.478309 127.853282 
L 344.276415 275.667996 
L 345.07452 277.9493 
L 347.468836 274.642058 
L 348.266941 279.97902 
L 349.065046 335.542552 
L 349.863152 332.726286 
L 350.661257 344.995551 
L 353.853678 286.82705 
L 354.651783 189.170437 
L 355.449889 199.022737 
L 356.247994 193.394747 
L 358.64231 193.738124 
L 359.440415 196.750504 
L 360.23852 171.156174 
L 361.036626 166.401453 
L 361.834731 189.877904 
L 364.229047 189.216635 
L 365.027152 189.262395 
L 365.825257 188.525793 
L 366.623362 189.03668 
L 367.421468 185.001798 
L 369.815784 185.317631 
L 370.613889 168.909801 
L 371.411994 161.851634 
L 372.210099 163.725612 
L 373.008205 163.650485 
L 376.200626 147.522061 
L 376.998731 147.464342 
L 377.796836 149.193966 
L 378.594942 146.680477 
L 380.989258 146.856939 
L 381.787363 116.932769 
L 382.585468 122.860893 
L 383.383573 123.773834 
L 384.181679 116.138352 
L 386.575995 110.746461 
L 387.3741 113.230613 
L 388.172205 154.867692 
L 388.97031 233.201719 
L 389.768416 232.108966 
L 392.162731 241.646431 
L 392.960837 150.455492 
L 393.758942 147.288796 
L 394.557047 163.195918 
L 395.355153 166.982102 
L 397.749468 167.899937 
L 398.547574 163.799527 
L 399.345679 155.14728 
L 400.143784 141.027749 
L 400.94189 140.980898 
L 403.336205 101.914186 
L 404.134311 100.817269 
L 404.932416 115.763941 
L 405.730521 120.78395 
L 406.528627 116.988197 
L 408.922942 107.258962 
L 409.721048 122.33967 
L 410.519153 121.017908 
L 411.317258 124.438153 
L 412.115364 132.647789 
L 414.509679 130.134559 
L 415.307785 154.170775 
L 416.10589 154.043331 
L 416.903995 137.410502 
L 420.096416 153.479258 
L 420.894522 162.453467 
L 421.692627 163.438629 
L 422.490732 164.918244 
L 423.288837 179.328457 
L 425.683153 163.993183 
L 426.481259 162.944751 
L 427.279364 232.185192 
L 428.077469 235.798797 
L 428.875574 243.164781 
L 432.067996 242.371514 
L 432.866101 241.277249 
L 433.664206 252.688015 
L 434.462311 272.569699 
L 436.856627 269.798843 
L 437.654733 332.169566 
L 438.452838 325.247538 
L 439.250943 321.847119 
L 440.049048 317.70487 
L 442.443364 317.069901 
L 443.241469 336.392921 
L 444.039575 334.338589 
L 444.83768 335.202964 
L 445.635785 334.404047 
L 448.030101 330.364325 
L 448.828206 333.859338 
L 449.626312 331.27527 
L 450.424417 332.261075 
L 451.222522 361.912332 
L 454.414943 377.692235 
L 455.213049 387.424868 
L 456.011154 387.015703 
L 459.203575 387.157045 
L 460.00168 413.601819 
L 460.799786 424.088805 
L 461.597891 421.899621 
L 462.395996 420.519184 
L 464.790312 420.73631 
L 465.588417 422.818238 
L 466.386523 422.953543 
L 467.184628 434.137154 
L 467.982733 434.589619 
L 470.377049 431.118938 
L 471.175154 443.693544 
L 471.97326 440.609311 
L 472.771365 457.621408 
L 473.56947 461.692289 
L 475.963786 465.899273 
L 476.761891 473.18275 
L 477.559997 473.657659 
L 478.358102 482.616804 
L 479.156207 489.273035 
L 481.550523 489.619956 
L 482.348628 506.479828 
L 483.146734 506.50315 
L 483.944839 504.572101 
L 487.13726 504.921959 
L 487.935365 503.618441 
L 488.733471 510.857309 
L 489.531576 508.738263 
L 490.329681 512.100469 
L 492.723997 490.660387 
L 493.522102 490.056038 
L 494.320207 482.029983 
L 495.118313 482.646889 
L 495.916418 491.907259 
L 498.310734 492.459528 
L 499.108839 491.260099 
L 499.906944 490.290494 
L 500.70505 489.037906 
L 501.503155 488.743088 
L 503.897471 488.697293 
L 504.695576 491.603846 
L 505.493681 491.756329 
L 506.291787 496.103459 
L 507.089892 498.230511 
L 509.484208 497.90147 
L 510.282313 511.784779 
L 511.080418 505.043141 
L 511.878524 505.004906 
L 512.676629 504.782866 
L 515.070945 504.814298 
L 515.86905 498.440475 
L 516.667155 497.01071 
L 517.465261 497.407392 
L 518.263366 504.855322 
L 520.657682 498.828353 
L 521.455787 501.157185 
L 522.253892 504.171918 
L 523.051998 502.29836 
L 523.850103 505.304107 
L 526.244419 521.657784 
L 527.042524 521.765423 
L 527.840629 529.684453 
L 528.638735 529.599417 
L 529.43684 529.783371 
L 531.831156 529.649229 
L 532.629261 514.640987 
L 533.427366 513.920494 
L 534.225472 512.728552 
L 535.023577 513.675364 
L 539.812209 514.451712 
L 540.610314 513.794531 
L 543.00463 513.794297 
L 543.802735 509.805267 
L 544.60084 507.555454 
L 545.398945 514.760427 
L 546.197051 514.509315 
L 548.591367 514.932217 
L 549.389472 509.455738 
L 550.187577 512.343944 
L 550.985682 513.887445 
L 551.783788 512.9694 
L 554.178104 510.604709 
L 554.976209 516.378006 
L 555.774314 517.84043 
L 556.572419 507.095725 
L 557.370525 512.253057 
L 560.562946 509.367927 
L 561.361051 509.199291 
L 562.159156 510.101053 
L 562.957262 512.413064 
L 565.351578 512.276309 
L 566.149683 512.601647 
L 566.947788 523.358948 
L 567.745893 521.730127 
L 568.543999 522.508372 
L 570.938314 522.530351 
L 571.73642 521.607908 
L 572.534525 521.890354 
L 573.33263 519.584832 
L 574.130736 519.161875 
L 576.525051 516.634003 
L 577.323157 520.389651 
L 578.121262 516.175312 
L 578.919367 510.119781 
L 579.717473 499.139249 
L 582.111788 499.530535 
L 582.909894 506.172707 
L 583.707999 507.560995 
L 584.506104 505.089649 
L 585.30421 505.781426 
L 587.698525 505.036373 
L 588.496631 505.264736 
L 589.294736 505.157137 
L 590.092841 512.831484 
L 590.890947 512.706767 
L 594.083368 517.252656 
L 594.881473 517.768299 
L 595.679578 516.126482 
L 596.477683 516.02498 
L 599.670105 514.31341 
L 600.46821 521.594457 
L 602.06442 520.213649 
L 604.458736 516.773563 
L 606.054947 516.778848 
L 606.853052 516.274133 
L 607.651157 519.179003 
L 610.045473 518.952946 
L 610.843579 520.110675 
L 611.641684 519.805508 
L 612.439789 527.197692 
L 613.237894 538.783008 
L 615.63221 553.410377 
L 616.430316 550.481926 
L 617.228421 550.80404 
L 618.026526 542.550116 
L 618.824631 544.211216 
L 621.218947 542.33581 
L 622.017052 549.320242 
L 622.815158 549.151552 
L 623.613263 548.604494 
L 626.805684 550.129455 
L 627.603789 550.112366 
L 628.401895 553.119625 
L 629.2 552.708829 
L 629.2 552.708829 
" style="fill:none;stroke:#1f77b4;stroke-linecap:square;stroke-width:1.5;"/>
   </g>
   <g id="patch_3">
    <path d="M 47.38125 579.248967 
L 47.38125 10.8 
" style="fill:none;stroke:#000000;stroke-linecap:square;stroke-linejoin:miter;stroke-width:0.8;"/>
   </g>
   <g id="patch_4">
    <path d="M 629.2 579.248967 
L 629.2 10.8 
" style="fill:none;stroke:#000000;stroke-linecap:square;stroke-linejoin:miter;stroke-width:0.8;"/>
   </g>
   <g id="patch_5">
    <path d="M 47.38125 579.248967 
L 629.2 579.248967 
" style="fill:none;stroke:#000000;stroke-linecap:square;stroke-linejoin:miter;stroke-width:0.8;"/>
   </g>
   <g id="patch_6">
    <path d="M 47.38125 10.8 
L 629.2 10.8 
" style="fill:none;stroke:#000000;stroke-linecap:square;stroke-linejoin:miter;stroke-width:0.8;"/>
   </g>
  </g>
 </g>
 <defs>
  <clipPath id="p5e6c0446ee">
   <rect height="568.448967" width="581.81875" x="47.38125" y="10.8"/>
  </clipPath>
 </defs>
</svg>
