<?xml version="1.0" encoding="utf-8" standalone="no"?>
<!DOCTYPE svg PUBLIC "-//W3C//DTD SVG 1.1//EN"
  "http://www.w3.org/Graphics/SVG/1.1/DTD/svg11.dtd">
<!-- Created with matplotlib (https://matplotlib.org/) -->
<svg height="287pt" version="1.1" viewBox="0 0 314 287" width="314pt" xmlns="http://www.w3.org/2000/svg" xmlns:xlink="http://www.w3.org/1999/xlink">
 <defs>
  <style type="text/css">
*{stroke-linecap:butt;stroke-linejoin:round;white-space:pre;}
  </style>
 </defs>
 <g id="figure_1">
  <g id="patch_1">
   <path d="M 0 287 
L 314 287 
L 314 0 
L 0 0 
z
" style="fill:#ffffff;"/>
  </g>
  <g id="axes_1">
   <g id="patch_2">
    <path d="M 53.74375 226.248967 
L 303.2 226.248967 
L 303.2 10.8 
L 53.74375 10.8 
z
" style="fill:#ffffff;"/>
   </g>
   <g id="matplotlib.axis_1">
    <g id="xtick_1">
     <g id="line2d_1">
      <defs>
       <path d="M 0 0 
L 0 3.5 
" id="m42c5356c8c" style="stroke:#000000;stroke-width:0.8;"/>
      </defs>
      <g>
       <use style="stroke:#000000;stroke-width:0.8;" x="59.561972" xlink:href="#m42c5356c8c" y="226.248967"/>
      </g>
     </g>
     <g id="text_1">
      <!-- 2008-03 -->
      <defs>
       <path d="M 19.1875 8.296875 
L 53.609375 8.296875 
L 53.609375 0 
L 7.328125 0 
L 7.328125 8.296875 
Q 12.9375 14.109375 22.625 23.890625 
Q 32.328125 33.6875 34.8125 36.53125 
Q 39.546875 41.84375 41.421875 45.53125 
Q 43.3125 49.21875 43.3125 52.78125 
Q 43.3125 58.59375 39.234375 62.25 
Q 35.15625 65.921875 28.609375 65.921875 
Q 23.96875 65.921875 18.8125 64.3125 
Q 13.671875 62.703125 7.8125 59.421875 
L 7.8125 69.390625 
Q 13.765625 71.78125 18.9375 73 
Q 24.125 74.21875 28.421875 74.21875 
Q 39.75 74.21875 46.484375 68.546875 
Q 53.21875 62.890625 53.21875 53.421875 
Q 53.21875 48.921875 51.53125 44.890625 
Q 49.859375 40.875 45.40625 35.40625 
Q 44.1875 33.984375 37.640625 27.21875 
Q 31.109375 20.453125 19.1875 8.296875 
z
" id="DejaVuSans-50"/>
       <path d="M 31.78125 66.40625 
Q 24.171875 66.40625 20.328125 58.90625 
Q 16.5 51.421875 16.5 36.375 
Q 16.5 21.390625 20.328125 13.890625 
Q 24.171875 6.390625 31.78125 6.390625 
Q 39.453125 6.390625 43.28125 13.890625 
Q 47.125 21.390625 47.125 36.375 
Q 47.125 51.421875 43.28125 58.90625 
Q 39.453125 66.40625 31.78125 66.40625 
z
M 31.78125 74.21875 
Q 44.046875 74.21875 50.515625 64.515625 
Q 56.984375 54.828125 56.984375 36.375 
Q 56.984375 17.96875 50.515625 8.265625 
Q 44.046875 -1.421875 31.78125 -1.421875 
Q 19.53125 -1.421875 13.0625 8.265625 
Q 6.59375 17.96875 6.59375 36.375 
Q 6.59375 54.828125 13.0625 64.515625 
Q 19.53125 74.21875 31.78125 74.21875 
z
" id="DejaVuSans-48"/>
       <path d="M 31.78125 34.625 
Q 24.75 34.625 20.71875 30.859375 
Q 16.703125 27.09375 16.703125 20.515625 
Q 16.703125 13.921875 20.71875 10.15625 
Q 24.75 6.390625 31.78125 6.390625 
Q 38.8125 6.390625 42.859375 10.171875 
Q 46.921875 13.96875 46.921875 20.515625 
Q 46.921875 27.09375 42.890625 30.859375 
Q 38.875 34.625 31.78125 34.625 
z
M 21.921875 38.8125 
Q 15.578125 40.375 12.03125 44.71875 
Q 8.5 49.078125 8.5 55.328125 
Q 8.5 64.0625 14.71875 69.140625 
Q 20.953125 74.21875 31.78125 74.21875 
Q 42.671875 74.21875 48.875 69.140625 
Q 55.078125 64.0625 55.078125 55.328125 
Q 55.078125 49.078125 51.53125 44.71875 
Q 48 40.375 41.703125 38.8125 
Q 48.828125 37.15625 52.796875 32.3125 
Q 56.78125 27.484375 56.78125 20.515625 
Q 56.78125 9.90625 50.3125 4.234375 
Q 43.84375 -1.421875 31.78125 -1.421875 
Q 19.734375 -1.421875 13.25 4.234375 
Q 6.78125 9.90625 6.78125 20.515625 
Q 6.78125 27.484375 10.78125 32.3125 
Q 14.796875 37.15625 21.921875 38.8125 
z
M 18.3125 54.390625 
Q 18.3125 48.734375 21.84375 45.5625 
Q 25.390625 42.390625 31.78125 42.390625 
Q 38.140625 42.390625 41.71875 45.5625 
Q 45.3125 48.734375 45.3125 54.390625 
Q 45.3125 60.0625 41.71875 63.234375 
Q 38.140625 66.40625 31.78125 66.40625 
Q 25.390625 66.40625 21.84375 63.234375 
Q 18.3125 60.0625 18.3125 54.390625 
z
" id="DejaVuSans-56"/>
       <path d="M 4.890625 31.390625 
L 31.203125 31.390625 
L 31.203125 23.390625 
L 4.890625 23.390625 
z
" id="DejaVuSans-45"/>
       <path d="M 40.578125 39.3125 
Q 47.65625 37.796875 51.625 33 
Q 55.609375 28.21875 55.609375 21.1875 
Q 55.609375 10.40625 48.1875 4.484375 
Q 40.765625 -1.421875 27.09375 -1.421875 
Q 22.515625 -1.421875 17.65625 -0.515625 
Q 12.796875 0.390625 7.625 2.203125 
L 7.625 11.71875 
Q 11.71875 9.328125 16.59375 8.109375 
Q 21.484375 6.890625 26.8125 6.890625 
Q 36.078125 6.890625 40.9375 10.546875 
Q 45.796875 14.203125 45.796875 21.1875 
Q 45.796875 27.640625 41.28125 31.265625 
Q 36.765625 34.90625 28.71875 34.90625 
L 20.21875 34.90625 
L 20.21875 43.015625 
L 29.109375 43.015625 
Q 36.375 43.015625 40.234375 45.921875 
Q 44.09375 48.828125 44.09375 54.296875 
Q 44.09375 59.90625 40.109375 62.90625 
Q 36.140625 65.921875 28.71875 65.921875 
Q 24.65625 65.921875 20.015625 65.03125 
Q 15.375 64.15625 9.8125 62.3125 
L 9.8125 71.09375 
Q 15.4375 72.65625 20.34375 73.4375 
Q 25.25 74.21875 29.59375 74.21875 
Q 40.828125 74.21875 47.359375 69.109375 
Q 53.90625 64.015625 53.90625 55.328125 
Q 53.90625 49.265625 50.4375 45.09375 
Q 46.96875 40.921875 40.578125 39.3125 
z
" id="DejaVuSans-51"/>
      </defs>
      <g transform="translate(22.337151 260.720813)rotate(-30)scale(0.1 -0.1)">
       <use xlink:href="#DejaVuSans-50"/>
       <use x="63.623047" xlink:href="#DejaVuSans-48"/>
       <use x="127.246094" xlink:href="#DejaVuSans-48"/>
       <use x="190.869141" xlink:href="#DejaVuSans-56"/>
       <use x="254.492188" xlink:href="#DejaVuSans-45"/>
       <use x="290.576172" xlink:href="#DejaVuSans-48"/>
       <use x="354.199219" xlink:href="#DejaVuSans-51"/>
      </g>
     </g>
    </g>
    <g id="xtick_2">
     <g id="line2d_2">
      <g>
       <use style="stroke:#000000;stroke-width:0.8;" x="81.743941" xlink:href="#m42c5356c8c" y="226.248967"/>
      </g>
     </g>
     <g id="text_2">
      <!-- 2008-05 -->
      <defs>
       <path d="M 10.796875 72.90625 
L 49.515625 72.90625 
L 49.515625 64.59375 
L 19.828125 64.59375 
L 19.828125 46.734375 
Q 21.96875 47.46875 24.109375 47.828125 
Q 26.265625 48.1875 28.421875 48.1875 
Q 40.625 48.1875 47.75 41.5 
Q 54.890625 34.8125 54.890625 23.390625 
Q 54.890625 11.625 47.5625 5.09375 
Q 40.234375 -1.421875 26.90625 -1.421875 
Q 22.3125 -1.421875 17.546875 -0.640625 
Q 12.796875 0.140625 7.71875 1.703125 
L 7.71875 11.625 
Q 12.109375 9.234375 16.796875 8.0625 
Q 21.484375 6.890625 26.703125 6.890625 
Q 35.15625 6.890625 40.078125 11.328125 
Q 45.015625 15.765625 45.015625 23.390625 
Q 45.015625 31 40.078125 35.4375 
Q 35.15625 39.890625 26.703125 39.890625 
Q 22.75 39.890625 18.8125 39.015625 
Q 14.890625 38.140625 10.796875 36.28125 
z
" id="DejaVuSans-53"/>
      </defs>
      <g transform="translate(44.519121 260.720813)rotate(-30)scale(0.1 -0.1)">
       <use xlink:href="#DejaVuSans-50"/>
       <use x="63.623047" xlink:href="#DejaVuSans-48"/>
       <use x="127.246094" xlink:href="#DejaVuSans-48"/>
       <use x="190.869141" xlink:href="#DejaVuSans-56"/>
       <use x="254.492188" xlink:href="#DejaVuSans-45"/>
       <use x="290.576172" xlink:href="#DejaVuSans-48"/>
       <use x="354.199219" xlink:href="#DejaVuSans-53"/>
      </g>
     </g>
    </g>
    <g id="xtick_3">
     <g id="line2d_3">
      <g>
       <use style="stroke:#000000;stroke-width:0.8;" x="103.925911" xlink:href="#m42c5356c8c" y="226.248967"/>
      </g>
     </g>
     <g id="text_3">
      <!-- 2008-07 -->
      <defs>
       <path d="M 8.203125 72.90625 
L 55.078125 72.90625 
L 55.078125 68.703125 
L 28.609375 0 
L 18.3125 0 
L 43.21875 64.59375 
L 8.203125 64.59375 
z
" id="DejaVuSans-55"/>
      </defs>
      <g transform="translate(66.70109 260.720813)rotate(-30)scale(0.1 -0.1)">
       <use xlink:href="#DejaVuSans-50"/>
       <use x="63.623047" xlink:href="#DejaVuSans-48"/>
       <use x="127.246094" xlink:href="#DejaVuSans-48"/>
       <use x="190.869141" xlink:href="#DejaVuSans-56"/>
       <use x="254.492188" xlink:href="#DejaVuSans-45"/>
       <use x="290.576172" xlink:href="#DejaVuSans-48"/>
       <use x="354.199219" xlink:href="#DejaVuSans-55"/>
      </g>
     </g>
    </g>
    <g id="xtick_4">
     <g id="line2d_4">
      <g>
       <use style="stroke:#000000;stroke-width:0.8;" x="126.47152" xlink:href="#m42c5356c8c" y="226.248967"/>
      </g>
     </g>
     <g id="text_4">
      <!-- 2008-09 -->
      <defs>
       <path d="M 10.984375 1.515625 
L 10.984375 10.5 
Q 14.703125 8.734375 18.5 7.8125 
Q 22.3125 6.890625 25.984375 6.890625 
Q 35.75 6.890625 40.890625 13.453125 
Q 46.046875 20.015625 46.78125 33.40625 
Q 43.953125 29.203125 39.59375 26.953125 
Q 35.25 24.703125 29.984375 24.703125 
Q 19.046875 24.703125 12.671875 31.3125 
Q 6.296875 37.9375 6.296875 49.421875 
Q 6.296875 60.640625 12.9375 67.421875 
Q 19.578125 74.21875 30.609375 74.21875 
Q 43.265625 74.21875 49.921875 64.515625 
Q 56.59375 54.828125 56.59375 36.375 
Q 56.59375 19.140625 48.40625 8.859375 
Q 40.234375 -1.421875 26.421875 -1.421875 
Q 22.703125 -1.421875 18.890625 -0.6875 
Q 15.09375 0.046875 10.984375 1.515625 
z
M 30.609375 32.421875 
Q 37.25 32.421875 41.125 36.953125 
Q 45.015625 41.5 45.015625 49.421875 
Q 45.015625 57.28125 41.125 61.84375 
Q 37.25 66.40625 30.609375 66.40625 
Q 23.96875 66.40625 20.09375 61.84375 
Q 16.21875 57.28125 16.21875 49.421875 
Q 16.21875 41.5 20.09375 36.953125 
Q 23.96875 32.421875 30.609375 32.421875 
z
" id="DejaVuSans-57"/>
      </defs>
      <g transform="translate(89.246699 260.720813)rotate(-30)scale(0.1 -0.1)">
       <use xlink:href="#DejaVuSans-50"/>
       <use x="63.623047" xlink:href="#DejaVuSans-48"/>
       <use x="127.246094" xlink:href="#DejaVuSans-48"/>
       <use x="190.869141" xlink:href="#DejaVuSans-56"/>
       <use x="254.492188" xlink:href="#DejaVuSans-45"/>
       <use x="290.576172" xlink:href="#DejaVuSans-48"/>
       <use x="354.199219" xlink:href="#DejaVuSans-57"/>
      </g>
     </g>
    </g>
    <g id="xtick_5">
     <g id="line2d_5">
      <g>
       <use style="stroke:#000000;stroke-width:0.8;" x="148.653489" xlink:href="#m42c5356c8c" y="226.248967"/>
      </g>
     </g>
     <g id="text_5">
      <!-- 2008-11 -->
      <defs>
       <path d="M 12.40625 8.296875 
L 28.515625 8.296875 
L 28.515625 63.921875 
L 10.984375 60.40625 
L 10.984375 69.390625 
L 28.421875 72.90625 
L 38.28125 72.90625 
L 38.28125 8.296875 
L 54.390625 8.296875 
L 54.390625 0 
L 12.40625 0 
z
" id="DejaVuSans-49"/>
      </defs>
      <g transform="translate(111.428669 260.720813)rotate(-30)scale(0.1 -0.1)">
       <use xlink:href="#DejaVuSans-50"/>
       <use x="63.623047" xlink:href="#DejaVuSans-48"/>
       <use x="127.246094" xlink:href="#DejaVuSans-48"/>
       <use x="190.869141" xlink:href="#DejaVuSans-56"/>
       <use x="254.492188" xlink:href="#DejaVuSans-45"/>
       <use x="290.576172" xlink:href="#DejaVuSans-49"/>
       <use x="354.199219" xlink:href="#DejaVuSans-49"/>
      </g>
     </g>
    </g>
    <g id="xtick_6">
     <g id="line2d_6">
      <g>
       <use style="stroke:#000000;stroke-width:0.8;" x="170.835459" xlink:href="#m42c5356c8c" y="226.248967"/>
      </g>
     </g>
     <g id="text_6">
      <!-- 2009-01 -->
      <g transform="translate(133.610638 260.720813)rotate(-30)scale(0.1 -0.1)">
       <use xlink:href="#DejaVuSans-50"/>
       <use x="63.623047" xlink:href="#DejaVuSans-48"/>
       <use x="127.246094" xlink:href="#DejaVuSans-48"/>
       <use x="190.869141" xlink:href="#DejaVuSans-57"/>
       <use x="254.492188" xlink:href="#DejaVuSans-45"/>
       <use x="290.576172" xlink:href="#DejaVuSans-48"/>
       <use x="354.199219" xlink:href="#DejaVuSans-49"/>
      </g>
     </g>
    </g>
    <g id="xtick_7">
     <g id="line2d_7">
      <g>
       <use style="stroke:#000000;stroke-width:0.8;" x="192.290151" xlink:href="#m42c5356c8c" y="226.248967"/>
      </g>
     </g>
     <g id="text_7">
      <!-- 2009-03 -->
      <g transform="translate(155.06533 260.720813)rotate(-30)scale(0.1 -0.1)">
       <use xlink:href="#DejaVuSans-50"/>
       <use x="63.623047" xlink:href="#DejaVuSans-48"/>
       <use x="127.246094" xlink:href="#DejaVuSans-48"/>
       <use x="190.869141" xlink:href="#DejaVuSans-57"/>
       <use x="254.492188" xlink:href="#DejaVuSans-45"/>
       <use x="290.576172" xlink:href="#DejaVuSans-48"/>
       <use x="354.199219" xlink:href="#DejaVuSans-51"/>
      </g>
     </g>
    </g>
    <g id="xtick_8">
     <g id="line2d_8">
      <g>
       <use style="stroke:#000000;stroke-width:0.8;" x="214.472121" xlink:href="#m42c5356c8c" y="226.248967"/>
      </g>
     </g>
     <g id="text_8">
      <!-- 2009-05 -->
      <g transform="translate(177.2473 260.720813)rotate(-30)scale(0.1 -0.1)">
       <use xlink:href="#DejaVuSans-50"/>
       <use x="63.623047" xlink:href="#DejaVuSans-48"/>
       <use x="127.246094" xlink:href="#DejaVuSans-48"/>
       <use x="190.869141" xlink:href="#DejaVuSans-57"/>
       <use x="254.492188" xlink:href="#DejaVuSans-45"/>
       <use x="290.576172" xlink:href="#DejaVuSans-48"/>
       <use x="354.199219" xlink:href="#DejaVuSans-53"/>
      </g>
     </g>
    </g>
    <g id="xtick_9">
     <g id="line2d_9">
      <g>
       <use style="stroke:#000000;stroke-width:0.8;" x="236.654091" xlink:href="#m42c5356c8c" y="226.248967"/>
      </g>
     </g>
     <g id="text_9">
      <!-- 2009-07 -->
      <g transform="translate(199.42927 260.720813)rotate(-30)scale(0.1 -0.1)">
       <use xlink:href="#DejaVuSans-50"/>
       <use x="63.623047" xlink:href="#DejaVuSans-48"/>
       <use x="127.246094" xlink:href="#DejaVuSans-48"/>
       <use x="190.869141" xlink:href="#DejaVuSans-57"/>
       <use x="254.492188" xlink:href="#DejaVuSans-45"/>
       <use x="290.576172" xlink:href="#DejaVuSans-48"/>
       <use x="354.199219" xlink:href="#DejaVuSans-55"/>
      </g>
     </g>
    </g>
    <g id="xtick_10">
     <g id="line2d_10">
      <g>
       <use style="stroke:#000000;stroke-width:0.8;" x="259.199699" xlink:href="#m42c5356c8c" y="226.248967"/>
      </g>
     </g>
     <g id="text_10">
      <!-- 2009-09 -->
      <g transform="translate(221.974879 260.720813)rotate(-30)scale(0.1 -0.1)">
       <use xlink:href="#DejaVuSans-50"/>
       <use x="63.623047" xlink:href="#DejaVuSans-48"/>
       <use x="127.246094" xlink:href="#DejaVuSans-48"/>
       <use x="190.869141" xlink:href="#DejaVuSans-57"/>
       <use x="254.492188" xlink:href="#DejaVuSans-45"/>
       <use x="290.576172" xlink:href="#DejaVuSans-48"/>
       <use x="354.199219" xlink:href="#DejaVuSans-57"/>
      </g>
     </g>
    </g>
    <g id="xtick_11">
     <g id="line2d_11">
      <g>
       <use style="stroke:#000000;stroke-width:0.8;" x="281.381669" xlink:href="#m42c5356c8c" y="226.248967"/>
      </g>
     </g>
     <g id="text_11">
      <!-- 2009-11 -->
      <g transform="translate(244.156848 260.720813)rotate(-30)scale(0.1 -0.1)">
       <use xlink:href="#DejaVuSans-50"/>
       <use x="63.623047" xlink:href="#DejaVuSans-48"/>
       <use x="127.246094" xlink:href="#DejaVuSans-48"/>
       <use x="190.869141" xlink:href="#DejaVuSans-57"/>
       <use x="254.492188" xlink:href="#DejaVuSans-45"/>
       <use x="290.576172" xlink:href="#DejaVuSans-49"/>
       <use x="354.199219" xlink:href="#DejaVuSans-49"/>
      </g>
     </g>
    </g>
    <g id="text_12">
     <!-- Date -->
     <defs>
      <path d="M 19.671875 64.796875 
L 19.671875 8.109375 
L 31.59375 8.109375 
Q 46.6875 8.109375 53.6875 14.9375 
Q 60.6875 21.78125 60.6875 36.53125 
Q 60.6875 51.171875 53.6875 57.984375 
Q 46.6875 64.796875 31.59375 64.796875 
z
M 9.8125 72.90625 
L 30.078125 72.90625 
Q 51.265625 72.90625 61.171875 64.09375 
Q 71.09375 55.28125 71.09375 36.53125 
Q 71.09375 17.671875 61.125 8.828125 
Q 51.171875 0 30.078125 0 
L 9.8125 0 
z
" id="DejaVuSans-68"/>
      <path d="M 34.28125 27.484375 
Q 23.390625 27.484375 19.1875 25 
Q 14.984375 22.515625 14.984375 16.5 
Q 14.984375 11.71875 18.140625 8.90625 
Q 21.296875 6.109375 26.703125 6.109375 
Q 34.1875 6.109375 38.703125 11.40625 
Q 43.21875 16.703125 43.21875 25.484375 
L 43.21875 27.484375 
z
M 52.203125 31.203125 
L 52.203125 0 
L 43.21875 0 
L 43.21875 8.296875 
Q 40.140625 3.328125 35.546875 0.953125 
Q 30.953125 -1.421875 24.3125 -1.421875 
Q 15.921875 -1.421875 10.953125 3.296875 
Q 6 8.015625 6 15.921875 
Q 6 25.140625 12.171875 29.828125 
Q 18.359375 34.515625 30.609375 34.515625 
L 43.21875 34.515625 
L 43.21875 35.40625 
Q 43.21875 41.609375 39.140625 45 
Q 35.0625 48.390625 27.6875 48.390625 
Q 23 48.390625 18.546875 47.265625 
Q 14.109375 46.140625 10.015625 43.890625 
L 10.015625 52.203125 
Q 14.9375 54.109375 19.578125 55.046875 
Q 24.21875 56 28.609375 56 
Q 40.484375 56 46.34375 49.84375 
Q 52.203125 43.703125 52.203125 31.203125 
z
" id="DejaVuSans-97"/>
      <path d="M 18.3125 70.21875 
L 18.3125 54.6875 
L 36.8125 54.6875 
L 36.8125 47.703125 
L 18.3125 47.703125 
L 18.3125 18.015625 
Q 18.3125 11.328125 20.140625 9.421875 
Q 21.96875 7.515625 27.59375 7.515625 
L 36.8125 7.515625 
L 36.8125 0 
L 27.59375 0 
Q 17.1875 0 13.234375 3.875 
Q 9.28125 7.765625 9.28125 18.015625 
L 9.28125 47.703125 
L 2.6875 47.703125 
L 2.6875 54.6875 
L 9.28125 54.6875 
L 9.28125 70.21875 
z
" id="DejaVuSans-116"/>
      <path d="M 56.203125 29.59375 
L 56.203125 25.203125 
L 14.890625 25.203125 
Q 15.484375 15.921875 20.484375 11.0625 
Q 25.484375 6.203125 34.421875 6.203125 
Q 39.59375 6.203125 44.453125 7.46875 
Q 49.3125 8.734375 54.109375 11.28125 
L 54.109375 2.78125 
Q 49.265625 0.734375 44.1875 -0.34375 
Q 39.109375 -1.421875 33.890625 -1.421875 
Q 20.796875 -1.421875 13.15625 6.1875 
Q 5.515625 13.8125 5.515625 26.8125 
Q 5.515625 40.234375 12.765625 48.109375 
Q 20.015625 56 32.328125 56 
Q 43.359375 56 49.78125 48.890625 
Q 56.203125 41.796875 56.203125 29.59375 
z
M 47.21875 32.234375 
Q 47.125 39.59375 43.09375 43.984375 
Q 39.0625 48.390625 32.421875 48.390625 
Q 24.90625 48.390625 20.390625 44.140625 
Q 15.875 39.890625 15.1875 32.171875 
z
" id="DejaVuSans-101"/>
     </defs>
     <g transform="translate(166.521094 274.120313)scale(0.1 -0.1)">
      <use xlink:href="#DejaVuSans-68"/>
      <use x="77.001953" xlink:href="#DejaVuSans-97"/>
      <use x="138.28125" xlink:href="#DejaVuSans-116"/>
      <use x="177.490234" xlink:href="#DejaVuSans-101"/>
     </g>
    </g>
   </g>
   <g id="matplotlib.axis_2">
    <g id="ytick_1">
     <g id="line2d_12">
      <defs>
       <path d="M 0 0 
L -3.5 0 
" id="m71f648e5e6" style="stroke:#000000;stroke-width:0.8;"/>
      </defs>
      <g>
       <use style="stroke:#000000;stroke-width:0.8;" x="53.74375" xlink:href="#m71f648e5e6" y="205.353711"/>
      </g>
     </g>
     <g id="text_13">
      <!-- 0.02 -->
      <defs>
       <path d="M 10.6875 12.40625 
L 21 12.40625 
L 21 0 
L 10.6875 0 
z
" id="DejaVuSans-46"/>
      </defs>
      <g transform="translate(24.478125 209.15293)scale(0.1 -0.1)">
       <use xlink:href="#DejaVuSans-48"/>
       <use x="63.623047" xlink:href="#DejaVuSans-46"/>
       <use x="95.410156" xlink:href="#DejaVuSans-48"/>
       <use x="159.033203" xlink:href="#DejaVuSans-50"/>
      </g>
     </g>
    </g>
    <g id="ytick_2">
     <g id="line2d_13">
      <g>
       <use style="stroke:#000000;stroke-width:0.8;" x="53.74375" xlink:href="#m71f648e5e6" y="163.838607"/>
      </g>
     </g>
     <g id="text_14">
      <!-- 0.04 -->
      <defs>
       <path d="M 37.796875 64.3125 
L 12.890625 25.390625 
L 37.796875 25.390625 
z
M 35.203125 72.90625 
L 47.609375 72.90625 
L 47.609375 25.390625 
L 58.015625 25.390625 
L 58.015625 17.1875 
L 47.609375 17.1875 
L 47.609375 0 
L 37.796875 0 
L 37.796875 17.1875 
L 4.890625 17.1875 
L 4.890625 26.703125 
z
" id="DejaVuSans-52"/>
      </defs>
      <g transform="translate(24.478125 167.637826)scale(0.1 -0.1)">
       <use xlink:href="#DejaVuSans-48"/>
       <use x="63.623047" xlink:href="#DejaVuSans-46"/>
       <use x="95.410156" xlink:href="#DejaVuSans-48"/>
       <use x="159.033203" xlink:href="#DejaVuSans-52"/>
      </g>
     </g>
    </g>
    <g id="ytick_3">
     <g id="line2d_14">
      <g>
       <use style="stroke:#000000;stroke-width:0.8;" x="53.74375" xlink:href="#m71f648e5e6" y="122.323503"/>
      </g>
     </g>
     <g id="text_15">
      <!-- 0.06 -->
      <defs>
       <path d="M 33.015625 40.375 
Q 26.375 40.375 22.484375 35.828125 
Q 18.609375 31.296875 18.609375 23.390625 
Q 18.609375 15.53125 22.484375 10.953125 
Q 26.375 6.390625 33.015625 6.390625 
Q 39.65625 6.390625 43.53125 10.953125 
Q 47.40625 15.53125 47.40625 23.390625 
Q 47.40625 31.296875 43.53125 35.828125 
Q 39.65625 40.375 33.015625 40.375 
z
M 52.59375 71.296875 
L 52.59375 62.3125 
Q 48.875 64.0625 45.09375 64.984375 
Q 41.3125 65.921875 37.59375 65.921875 
Q 27.828125 65.921875 22.671875 59.328125 
Q 17.53125 52.734375 16.796875 39.40625 
Q 19.671875 43.65625 24.015625 45.921875 
Q 28.375 48.1875 33.59375 48.1875 
Q 44.578125 48.1875 50.953125 41.515625 
Q 57.328125 34.859375 57.328125 23.390625 
Q 57.328125 12.15625 50.6875 5.359375 
Q 44.046875 -1.421875 33.015625 -1.421875 
Q 20.359375 -1.421875 13.671875 8.265625 
Q 6.984375 17.96875 6.984375 36.375 
Q 6.984375 53.65625 15.1875 63.9375 
Q 23.390625 74.21875 37.203125 74.21875 
Q 40.921875 74.21875 44.703125 73.484375 
Q 48.484375 72.75 52.59375 71.296875 
z
" id="DejaVuSans-54"/>
      </defs>
      <g transform="translate(24.478125 126.122722)scale(0.1 -0.1)">
       <use xlink:href="#DejaVuSans-48"/>
       <use x="63.623047" xlink:href="#DejaVuSans-46"/>
       <use x="95.410156" xlink:href="#DejaVuSans-48"/>
       <use x="159.033203" xlink:href="#DejaVuSans-54"/>
      </g>
     </g>
    </g>
    <g id="ytick_4">
     <g id="line2d_15">
      <g>
       <use style="stroke:#000000;stroke-width:0.8;" x="53.74375" xlink:href="#m71f648e5e6" y="80.808399"/>
      </g>
     </g>
     <g id="text_16">
      <!-- 0.08 -->
      <g transform="translate(24.478125 84.607617)scale(0.1 -0.1)">
       <use xlink:href="#DejaVuSans-48"/>
       <use x="63.623047" xlink:href="#DejaVuSans-46"/>
       <use x="95.410156" xlink:href="#DejaVuSans-48"/>
       <use x="159.033203" xlink:href="#DejaVuSans-56"/>
      </g>
     </g>
    </g>
    <g id="ytick_5">
     <g id="line2d_16">
      <g>
       <use style="stroke:#000000;stroke-width:0.8;" x="53.74375" xlink:href="#m71f648e5e6" y="39.293295"/>
      </g>
     </g>
     <g id="text_17">
      <!-- 0.10 -->
      <g transform="translate(24.478125 43.092513)scale(0.1 -0.1)">
       <use xlink:href="#DejaVuSans-48"/>
       <use x="63.623047" xlink:href="#DejaVuSans-46"/>
       <use x="95.410156" xlink:href="#DejaVuSans-49"/>
       <use x="159.033203" xlink:href="#DejaVuSans-48"/>
      </g>
     </g>
    </g>
    <g id="text_18">
     <!-- Losses -->
     <defs>
      <path d="M 9.8125 72.90625 
L 19.671875 72.90625 
L 19.671875 8.296875 
L 55.171875 8.296875 
L 55.171875 0 
L 9.8125 0 
z
" id="DejaVuSans-76"/>
      <path d="M 30.609375 48.390625 
Q 23.390625 48.390625 19.1875 42.75 
Q 14.984375 37.109375 14.984375 27.296875 
Q 14.984375 17.484375 19.15625 11.84375 
Q 23.34375 6.203125 30.609375 6.203125 
Q 37.796875 6.203125 41.984375 11.859375 
Q 46.1875 17.53125 46.1875 27.296875 
Q 46.1875 37.015625 41.984375 42.703125 
Q 37.796875 48.390625 30.609375 48.390625 
z
M 30.609375 56 
Q 42.328125 56 49.015625 48.375 
Q 55.71875 40.765625 55.71875 27.296875 
Q 55.71875 13.875 49.015625 6.21875 
Q 42.328125 -1.421875 30.609375 -1.421875 
Q 18.84375 -1.421875 12.171875 6.21875 
Q 5.515625 13.875 5.515625 27.296875 
Q 5.515625 40.765625 12.171875 48.375 
Q 18.84375 56 30.609375 56 
z
" id="DejaVuSans-111"/>
      <path d="M 44.28125 53.078125 
L 44.28125 44.578125 
Q 40.484375 46.53125 36.375 47.5 
Q 32.28125 48.484375 27.875 48.484375 
Q 21.1875 48.484375 17.84375 46.4375 
Q 14.5 44.390625 14.5 40.28125 
Q 14.5 37.15625 16.890625 35.375 
Q 19.28125 33.59375 26.515625 31.984375 
L 29.59375 31.296875 
Q 39.15625 29.25 43.1875 25.515625 
Q 47.21875 21.78125 47.21875 15.09375 
Q 47.21875 7.46875 41.1875 3.015625 
Q 35.15625 -1.421875 24.609375 -1.421875 
Q 20.21875 -1.421875 15.453125 -0.5625 
Q 10.6875 0.296875 5.421875 2 
L 5.421875 11.28125 
Q 10.40625 8.6875 15.234375 7.390625 
Q 20.0625 6.109375 24.8125 6.109375 
Q 31.15625 6.109375 34.5625 8.28125 
Q 37.984375 10.453125 37.984375 14.40625 
Q 37.984375 18.0625 35.515625 20.015625 
Q 33.0625 21.96875 24.703125 23.78125 
L 21.578125 24.515625 
Q 13.234375 26.265625 9.515625 29.90625 
Q 5.8125 33.546875 5.8125 39.890625 
Q 5.8125 47.609375 11.28125 51.796875 
Q 16.75 56 26.8125 56 
Q 31.78125 56 36.171875 55.265625 
Q 40.578125 54.546875 44.28125 53.078125 
z
" id="DejaVuSans-115"/>
     </defs>
     <g transform="translate(18.398438 135.25964)rotate(-90)scale(0.1 -0.1)">
      <use xlink:href="#DejaVuSans-76"/>
      <use x="55.697266" xlink:href="#DejaVuSans-111"/>
      <use x="116.878906" xlink:href="#DejaVuSans-115"/>
      <use x="168.978516" xlink:href="#DejaVuSans-115"/>
      <use x="221.078125" xlink:href="#DejaVuSans-101"/>
      <use x="282.601562" xlink:href="#DejaVuSans-115"/>
     </g>
    </g>
   </g>
   <g id="line2d_17">
    <path clip-path="url(#p1fbb186802)" d="M 53.74375 188.736411 
L 54.107389 188.706295 
L 55.561944 189.174238 
L 55.925583 188.549024 
L 56.289222 190.051025 
L 56.652861 190.12437 
L 57.743777 190.849775 
L 58.107416 190.828961 
L 58.471055 189.931248 
L 58.834694 191.980177 
L 59.198333 189.703875 
L 60.289249 191.089521 
L 60.652888 190.919134 
L 61.016527 192.455462 
L 61.380166 200.79549 
L 61.743805 200.822623 
L 62.834721 200.47578 
L 63.19836 191.894516 
L 63.561999 192.262285 
L 63.925638 192.182522 
L 64.289277 189.987741 
L 65.380193 191.226246 
L 65.743832 170.833674 
L 66.107471 173.581084 
L 66.47111 163.528127 
L 67.925665 163.581274 
L 68.289304 164.27698 
L 68.652943 162.947041 
L 69.016582 162.090081 
L 69.38022 161.768197 
L 70.471137 161.941874 
L 70.834776 155.780945 
L 71.562054 156.311371 
L 71.925692 156.193375 
L 73.016609 156.245365 
L 73.743887 155.74867 
L 75.562081 157.981858 
L 75.92572 158.332942 
L 76.289359 157.404615 
L 76.652997 157.270945 
L 77.016636 158.376936 
L 78.107553 158.263483 
L 78.471192 160.016361 
L 78.834831 164.398483 
L 79.198469 162.973735 
L 79.562108 162.895443 
L 80.653025 165.867626 
L 81.016664 166.305164 
L 81.380302 180.809802 
L 81.743941 180.344201 
L 82.10758 191.797046 
L 83.198497 191.036689 
L 83.562136 191.032482 
L 83.925774 190.826603 
L 84.289413 192.129769 
L 84.653052 192.913433 
L 85.743969 192.807427 
L 86.107608 202.673561 
L 86.471246 202.608022 
L 86.834885 202.336974 
L 87.198524 202.39833 
L 88.289441 202.352876 
L 89.016718 199.724033 
L 89.380357 199.858229 
L 89.743996 199.61804 
L 91.56219 200.388443 
L 91.925829 202.829124 
L 93.380384 204.868344 
L 94.107662 204.876611 
L 94.471301 204.158511 
L 94.83494 204.468646 
L 95.925856 204.043715 
L 96.289495 203.211624 
L 97.016773 199.133752 
L 97.380412 196.433909 
L 98.471328 195.596313 
L 98.834967 195.474575 
L 99.198606 195.525487 
L 99.562245 197.435286 
L 99.925884 196.574935 
L 101.380439 195.390703 
L 101.744078 195.8016 
L 102.107717 193.793452 
L 102.471356 194.201826 
L 103.562272 194.147145 
L 103.925911 193.883542 
L 104.653189 195.90745 
L 106.107744 195.063741 
L 106.835022 189.896871 
L 107.198661 189.983 
L 107.5623 190.375695 
L 108.653216 188.690049 
L 109.016855 188.640334 
L 109.380494 168.656621 
L 109.744133 160.563683 
L 110.107772 160.558821 
L 111.198688 162.978679 
L 111.562327 161.726488 
L 111.925966 161.775487 
L 112.289605 159.681894 
L 112.653243 160.317732 
L 113.74416 160.577365 
L 114.107799 157.85388 
L 114.471438 157.528971 
L 115.198715 157.428625 
L 116.289632 158.148771 
L 116.653271 157.963573 
L 117.01691 158.119803 
L 117.380548 156.754665 
L 117.744187 157.567479 
L 118.835104 157.916664 
L 119.198743 153.63007 
L 119.562382 152.563195 
L 119.92602 152.438598 
L 121.380576 152.428642 
L 121.744215 153.303327 
L 122.107853 155.334322 
L 122.471492 155.221566 
L 122.835131 154.847361 
L 123.926048 155.930276 
L 124.289687 156.592282 
L 124.653325 170.51869 
L 125.016964 176.95135 
L 125.380603 177.304795 
L 126.835159 177.674886 
L 127.198797 180.511791 
L 127.562436 178.235172 
L 127.926075 181.378013 
L 129.38063 177.845414 
L 129.744269 181.099088 
L 130.107908 182.046064 
L 130.471547 181.378792 
L 131.562464 166.11747 
L 131.926102 166.061296 
L 132.289741 150.663526 
L 132.65338 145.328626 
L 133.017019 117.705191 
L 134.107935 116.941671 
L 134.471574 116.938772 
L 134.835213 119.226225 
L 135.198852 118.121185 
L 135.562491 118.028194 
L 136.653407 108.102495 
L 137.017046 101.661937 
L 137.380685 99.387549 
L 137.744324 99.105331 
L 138.107963 96.984956 
L 139.198879 97.111766 
L 139.562518 88.547289 
L 139.926157 88.427124 
L 140.289796 81.629338 
L 140.653435 83.029651 
L 141.744351 41.75812 
L 142.471629 32.869625 
L 143.198907 33.874568 
L 144.289823 34.382342 
L 144.653462 35.387596 
L 145.017101 34.541497 
L 145.38074 34.421135 
L 145.744379 32.920469 
L 146.835295 36.165967 
L 147.198934 33.009756 
L 147.562573 41.144435 
L 147.926212 42.871758 
L 148.289851 57.514112 
L 149.380767 58.723034 
L 149.744406 57.763775 
L 150.108045 54.540609 
L 150.471684 54.180886 
L 150.835323 54.434119 
L 151.926239 59.676658 
L 152.289878 65.567828 
L 152.653517 65.3462 
L 153.017156 63.515733 
L 153.380794 64.040726 
L 154.471711 63.297961 
L 154.83535 69.990518 
L 155.198989 62.035956 
L 155.562628 60.191738 
L 155.926266 60.219724 
L 157.017183 50.666954 
L 157.380822 55.322999 
L 157.744461 56.531501 
L 158.471738 54.648559 
L 159.562655 41.399921 
L 159.926294 40.011656 
L 160.289933 36.501348 
L 160.653571 37.19487 
L 161.01721 36.162957 
L 162.108127 35.703408 
L 162.471766 37.086883 
L 162.835405 39.869525 
L 163.199043 38.342698 
L 163.562682 38.55163 
L 164.653599 39.722991 
L 165.017238 32.137895 
L 165.380876 33.1326 
L 165.744515 36.019314 
L 166.108154 37.620879 
L 167.199071 37.104524 
L 167.56271 38.38436 
L 167.926348 38.23665 
L 168.653626 42.262511 
L 169.744543 43.146448 
L 170.108181 43.693838 
L 170.47182 45.326371 
L 171.199098 45.102722 
L 172.290015 55.133079 
L 172.653653 66.126442 
L 173.017292 64.666956 
L 173.380931 117.380764 
L 173.74457 118.194325 
L 174.835487 117.014894 
L 175.199125 118.918165 
L 175.562764 138.733279 
L 175.926403 137.72894 
L 176.290042 142.104416 
L 177.744597 121.360316 
L 178.108236 86.533932 
L 178.471875 90.047467 
L 178.835514 88.040409 
L 179.92643 88.162864 
L 180.290069 89.237142 
L 180.653708 80.10967 
L 181.017347 78.414038 
L 181.380986 86.786229 
L 183.19918 86.304038 
L 183.562819 86.486231 
L 183.926458 85.047308 
L 185.017374 85.159941 
L 185.381013 79.308567 
L 185.744652 76.791477 
L 186.108291 77.459777 
L 186.47193 77.432985 
L 187.926485 71.681253 
L 188.290124 71.660669 
L 188.653763 72.277489 
L 189.017402 71.381126 
L 190.108318 71.444056 
L 190.471957 60.772474 
L 190.835596 62.886566 
L 191.199235 63.21214 
L 191.562874 60.489168 
L 192.65379 58.566307 
L 193.017429 59.452208 
L 193.381068 74.300858 
L 193.744707 102.236405 
L 194.108345 101.846706 
L 195.199262 105.247965 
L 195.562901 72.727375 
L 195.92654 71.598066 
L 196.290179 77.270877 
L 196.653817 78.621109 
L 197.744734 78.948428 
L 198.108373 77.486136 
L 198.472012 74.400565 
L 198.835651 69.365246 
L 199.199289 69.348537 
L 200.290206 55.416534 
L 200.653845 55.02535 
L 201.017484 60.355645 
L 201.381122 62.145885 
L 201.744761 60.79224 
L 202.835678 57.322592 
L 203.199317 62.700687 
L 203.562956 62.229319 
L 203.926594 63.44905 
L 204.290233 66.376777 
L 205.38115 65.480507 
L 205.744789 74.052323 
L 206.108427 74.006874 
L 206.472066 68.07526 
L 207.926622 73.805713 
L 208.290261 77.006103 
L 208.653899 77.357433 
L 209.017538 77.885094 
L 209.381177 83.024076 
L 210.472094 77.555198 
L 210.835733 77.181305 
L 211.199371 101.87389 
L 211.56301 103.162577 
L 211.926649 105.78944 
L 213.381204 105.506545 
L 213.744843 105.116307 
L 214.108482 109.185624 
L 214.472121 116.275847 
L 215.563038 115.287702 
L 215.926676 137.530402 
L 216.290315 135.061863 
L 217.017593 132.37199 
L 218.108509 132.145547 
L 218.472148 139.036539 
L 218.835787 138.303921 
L 219.199426 138.612175 
L 219.563065 138.327265 
L 220.653981 136.886615 
L 221.01762 138.13301 
L 221.381259 137.211478 
L 221.744898 137.563036 
L 222.108537 148.137293 
L 223.563092 153.764735 
L 223.926731 157.235595 
L 224.29037 157.089678 
L 225.744925 157.140084 
L 226.108564 166.570841 
L 226.472203 170.310719 
L 226.835842 169.53001 
L 227.199481 169.037718 
L 228.290397 169.115149 
L 228.654036 169.857608 
L 229.017675 169.905861 
L 229.381314 173.89417 
L 229.744953 174.055528 
L 230.835869 172.817811 
L 231.199508 177.302178 
L 231.563147 176.202276 
L 231.926786 182.269144 
L 232.290425 183.720905 
L 233.381341 185.221204 
L 233.74498 187.818643 
L 234.108619 187.988006 
L 234.835897 193.556774 
L 235.926813 193.680493 
L 236.290452 199.693075 
L 236.654091 199.701393 
L 237.01773 199.01274 
L 238.472285 199.137507 
L 238.835924 198.672645 
L 239.199563 201.254176 
L 239.563202 200.49848 
L 239.92684 201.697513 
L 241.017757 194.051533 
L 241.381396 193.836009 
L 241.745035 190.973751 
L 242.108673 191.193752 
L 242.472312 194.496193 
L 243.563229 194.693144 
L 244.654145 193.472922 
L 245.017784 193.367784 
L 246.108701 193.351452 
L 246.47234 194.38799 
L 246.835978 194.442369 
L 247.199617 195.992646 
L 247.563256 196.751197 
L 248.654173 196.633854 
L 249.017812 201.584931 
L 249.38145 199.180723 
L 251.199645 199.099113 
L 251.563284 196.826075 
L 251.926922 196.31619 
L 252.290561 196.457655 
L 252.6542 199.113743 
L 253.745117 196.9644 
L 254.472394 198.870027 
L 254.836033 198.201877 
L 255.199672 199.273789 
L 256.290589 205.105851 
L 256.654227 205.144237 
L 257.017866 207.968328 
L 257.745144 208.003605 
L 258.83606 207.955767 
L 259.199699 202.603515 
L 259.563338 202.346572 
L 259.926977 201.921501 
L 260.290616 202.259154 
L 262.472449 202.536015 
L 262.836088 202.301651 
L 263.927004 202.301567 
L 264.290643 200.878996 
L 264.654282 200.076666 
L 265.017921 202.64611 
L 265.38156 202.556558 
L 266.472476 202.707374 
L 266.836115 200.754347 
L 267.199754 201.784341 
L 267.563393 202.334786 
L 269.017948 201.164094 
L 269.381587 203.222972 
L 269.745226 203.744503 
L 270.108865 199.912717 
L 270.472504 201.751929 
L 271.927059 200.723032 
L 272.290698 200.662893 
L 272.654337 200.98448 
L 273.017976 201.808991 
L 274.108892 201.760221 
L 274.472531 201.876244 
L 274.83617 205.712521 
L 275.199809 205.13165 
L 275.563448 205.409188 
L 276.654364 205.417026 
L 277.018003 205.088064 
L 277.381642 205.18879 
L 277.745281 204.366593 
L 278.108919 204.215758 
L 279.199836 203.314266 
L 279.563475 204.653608 
L 279.927114 203.150687 
L 280.290753 200.991159 
L 280.654391 197.075272 
L 281.745308 197.214812 
L 282.108947 199.58355 
L 282.472586 200.078642 
L 282.836224 199.197309 
L 283.199863 199.444011 
L 284.29078 199.178309 
L 284.654419 199.259748 
L 285.018058 199.221376 
L 285.381696 201.958208 
L 285.745335 201.913732 
L 287.199891 203.53489 
L 287.56353 203.718779 
L 287.927168 203.133273 
L 288.290807 203.097075 
L 289.745363 202.486694 
L 290.109001 205.083267 
L 290.836279 204.590842 
L 291.927196 203.364036 
L 292.654473 203.365921 
L 293.018112 203.185929 
L 293.381751 204.221866 
L 294.472668 204.141249 
L 294.836306 204.554119 
L 295.199945 204.44529 
L 295.563584 207.081497 
L 295.927223 211.213063 
L 297.01814 216.429488 
L 297.381778 215.385141 
L 297.745417 215.500013 
L 298.109056 212.556492 
L 298.472695 213.148875 
L 299.563612 212.480066 
L 299.92725 214.97086 
L 300.290889 214.910702 
L 300.654528 214.715609 
L 302.109083 215.259442 
L 302.472722 215.253348 
L 302.836361 216.325799 
L 303.2 216.179301 
L 303.2 216.179301 
" style="fill:none;stroke:#1f77b4;stroke-linecap:square;stroke-width:1.5;"/>
   </g>
   <g id="line2d_18">
    <path clip-path="url(#p1fbb186802)" d="M 53.74375 188.760032 
L 54.107389 188.671731 
L 55.561944 189.070061 
L 55.925583 188.233569 
L 56.289222 189.709974 
L 56.652861 189.652886 
L 57.743777 190.247213 
L 58.107416 190.035767 
L 58.471055 189.187213 
L 58.834694 190.212982 
L 59.198333 188.97483 
L 60.289249 190.142875 
L 60.652888 190.170989 
L 61.016527 192.879062 
L 61.380166 201.254497 
L 61.743805 200.966946 
L 62.834721 201.531413 
L 63.19836 193.621525 
L 63.561999 193.989509 
L 63.925638 193.829614 
L 64.289277 191.79982 
L 65.380193 192.341664 
L 65.743832 170.879476 
L 66.107471 173.200853 
L 66.47111 163.61406 
L 67.925665 163.767376 
L 68.289304 164.578116 
L 68.652943 163.618802 
L 69.016582 162.329188 
L 69.38022 162.178809 
L 70.471137 162.557626 
L 70.834776 157.722807 
L 71.562054 158.472321 
L 71.925692 158.262682 
L 73.016609 158.45797 
L 73.380248 158.404097 
L 73.743887 158.062267 
L 74.107526 158.241959 
L 75.562081 160.089925 
L 75.92572 160.421178 
L 76.289359 158.929603 
L 76.652997 158.85509 
L 77.016636 160.058812 
L 78.107553 159.903223 
L 78.471192 161.180219 
L 78.834831 165.201884 
L 79.198469 163.627213 
L 79.562108 163.597544 
L 80.653025 166.046765 
L 81.016664 166.066522 
L 81.380302 182.565549 
L 81.743941 181.861894 
L 82.10758 193.757115 
L 83.198497 193.10353 
L 83.562136 193.094681 
L 83.925774 192.688263 
L 84.289413 194.642948 
L 84.653052 195.111163 
L 85.743969 194.575175 
L 86.107608 202.444104 
L 86.471246 202.430346 
L 86.834885 202.272087 
L 87.198524 202.566683 
L 88.289441 202.239044 
L 88.653079 200.848955 
L 89.016718 200.223226 
L 89.380357 200.976153 
L 89.743996 200.94756 
L 91.56219 201.616429 
L 91.925829 204.8706 
L 92.289468 205.262733 
L 93.380384 206.17816 
L 94.107662 206.029488 
L 94.471301 205.019053 
L 94.83494 205.199567 
L 96.289495 203.424405 
L 97.016773 199.94178 
L 97.380412 196.071945 
L 98.834967 194.861249 
L 99.198606 194.86205 
L 99.562245 196.336869 
L 99.925884 195.794325 
L 101.0168 195.000482 
L 101.380439 195.121408 
L 101.744078 195.513558 
L 102.107717 194.002327 
L 102.471356 194.272961 
L 103.925911 194.245258 
L 104.653189 195.770084 
L 106.107744 194.338397 
L 106.835022 189.834737 
L 107.198661 189.927949 
L 107.5623 189.85543 
L 108.653216 188.564619 
L 109.016855 188.751387 
L 109.380494 169.253201 
L 109.744133 161.284598 
L 110.107772 161.72298 
L 111.198688 163.653541 
L 111.562327 162.872298 
L 111.925966 162.820231 
L 112.289605 161.624956 
L 113.74416 163.771126 
L 114.107799 161.005125 
L 114.471438 160.613735 
L 115.198715 160.518824 
L 116.289632 161.021716 
L 116.653271 161.066596 
L 117.01691 161.296463 
L 117.380548 160.374453 
L 117.744187 160.992604 
L 118.835104 161.315199 
L 119.198743 156.50166 
L 119.562382 155.502659 
L 119.92602 155.369994 
L 120.289659 155.369496 
L 121.380576 155.832181 
L 121.744215 156.392349 
L 122.107853 158.360763 
L 122.835131 158.039292 
L 123.926048 158.769711 
L 124.289687 159.1486 
L 124.653325 173.577091 
L 125.016964 180.712515 
L 125.380603 180.699717 
L 126.835159 181.858938 
L 127.198797 184.689859 
L 127.562436 182.840266 
L 127.926075 184.957557 
L 129.016992 182.759734 
L 129.38063 181.367797 
L 129.744269 184.765362 
L 130.107908 185.913155 
L 130.471547 185.38726 
L 131.562464 171.258656 
L 131.926102 171.264647 
L 132.289741 151.20724 
L 132.65338 149.472258 
L 133.017019 122.97645 
L 134.107935 121.668046 
L 134.471574 121.437523 
L 134.835213 123.998728 
L 135.198852 121.882534 
L 135.562491 121.917983 
L 136.653407 111.132135 
L 137.017046 105.682977 
L 137.380685 104.155988 
L 138.107963 103.7278 
L 139.198879 104.135596 
L 139.562518 94.921527 
L 139.926157 94.951335 
L 140.289796 86.84257 
L 140.653435 86.998188 
L 141.744351 28.231757 
L 142.471629 21.880777 
L 142.835268 22.054623 
L 143.198907 22.365754 
L 144.289823 22.47998 
L 144.653462 23.336197 
L 145.017101 22.618116 
L 145.38074 22.473088 
L 145.744379 20.999825 
L 146.835295 22.626547 
L 147.198934 20.593135 
L 147.562573 29.857933 
L 147.926212 30.0593 
L 148.289851 41.599765 
L 149.380767 43.216374 
L 149.744406 42.434851 
L 150.108045 40.148884 
L 150.835323 40.483112 
L 151.926239 45.823368 
L 152.289878 49.86753 
L 152.653517 48.48484 
L 153.017156 45.639937 
L 153.380794 44.431967 
L 154.471711 43.700838 
L 154.83535 50.037922 
L 155.198989 45.1344 
L 155.562628 47.7536 
L 155.926266 48.691247 
L 157.017183 77.041494 
L 157.380822 79.185564 
L 157.744461 82.257902 
L 158.471738 82.184281 
L 159.562655 67.968097 
L 159.926294 67.699816 
L 160.289933 63.55086 
L 160.653571 63.854673 
L 161.01721 62.630373 
L 162.108127 62.600156 
L 162.835405 66.335208 
L 163.199043 64.790097 
L 163.562682 65.0937 
L 164.653599 66.728373 
L 165.017238 56.98732 
L 165.380876 57.952695 
L 166.108154 62.192518 
L 167.199071 61.535844 
L 167.56271 63.372844 
L 167.926348 63.305644 
L 168.653626 67.94387 
L 169.744543 70.098068 
L 170.47182 73.633871 
L 171.199098 73.526651 
L 172.290015 81.687507 
L 172.653653 89.219733 
L 173.017292 86.306978 
L 173.380931 120.521034 
L 173.74457 122.548657 
L 174.835487 121.842874 
L 175.199125 122.008249 
L 175.562764 145.661533 
L 175.926403 144.889853 
L 176.290042 149.46586 
L 177.744597 127.435212 
L 178.108236 96.821722 
L 178.471875 99.28289 
L 178.835514 100.03298 
L 179.92643 100.233461 
L 180.290069 101.99708 
L 180.653708 94.698868 
L 181.017347 92.702243 
L 181.380986 102.84236 
L 182.835541 102.839828 
L 183.19918 102.389471 
L 183.562819 102.768206 
L 183.926458 102.258546 
L 185.017374 102.273154 
L 185.381013 96.639226 
L 185.744652 94.736078 
L 186.108291 95.376846 
L 186.47193 95.473451 
L 187.926485 87.989687 
L 188.290124 87.993292 
L 188.653763 88.846188 
L 189.017402 90.281004 
L 190.108318 89.756162 
L 190.471957 81.390976 
L 190.835596 82.372673 
L 191.199235 82.367468 
L 191.562874 82.76844 
L 192.65379 81.467006 
L 193.017429 82.153341 
L 193.381068 100.136306 
L 193.744707 125.568656 
L 194.108345 124.314641 
L 195.199262 126.271392 
L 195.562901 100.454979 
L 195.92654 98.831675 
L 196.290179 103.21639 
L 196.653817 105.656543 
L 197.744734 104.099602 
L 198.108373 102.690088 
L 198.472012 101.908466 
L 198.835651 97.847422 
L 199.199289 97.61607 
L 200.290206 80.295442 
L 200.653845 79.944184 
L 201.017484 84.312155 
L 201.381122 85.994166 
L 201.744761 84.622605 
L 202.835678 81.202263 
L 203.199317 88.093505 
L 203.562956 87.501485 
L 204.290233 87.985541 
L 205.38115 88.178155 
L 205.744789 95.486979 
L 206.108427 95.387973 
L 206.472066 88.416401 
L 207.926622 89.033603 
L 208.290261 85.321656 
L 208.653899 85.482491 
L 209.017538 85.508268 
L 209.381177 90.434923 
L 210.472094 89.072082 
L 210.835733 88.96742 
L 211.199371 107.136932 
L 211.56301 108.95033 
L 211.926649 112.263382 
L 213.017566 112.235263 
L 213.381204 114.46259 
L 213.744843 113.982997 
L 214.108482 115.080321 
L 214.472121 120.379861 
L 215.563038 120.324583 
L 215.926676 143.790686 
L 216.290315 143.288219 
L 216.653954 142.142776 
L 217.017593 140.024055 
L 218.108509 138.909081 
L 218.472148 145.119627 
L 218.835787 144.357866 
L 219.199426 144.455697 
L 219.563065 144.265639 
L 220.653981 142.179641 
L 221.01762 143.000804 
L 221.381259 142.080487 
L 221.744898 142.329944 
L 222.108537 154.058342 
L 223.563092 154.164555 
L 223.926731 164.191226 
L 224.29037 163.915578 
L 224.654009 163.941023 
L 225.744925 163.666806 
L 226.108564 168.783299 
L 226.472203 171.613176 
L 226.835842 171.778959 
L 227.199481 171.464667 
L 228.290397 171.546186 
L 228.654036 172.068651 
L 229.017675 170.907553 
L 229.381314 174.530009 
L 229.744953 174.59295 
L 230.835869 173.595847 
L 231.199508 178.02288 
L 231.563147 177.32124 
L 231.926786 178.961684 
L 232.290425 181.369173 
L 233.381341 182.601827 
L 233.74498 185.738218 
L 234.108619 185.740908 
L 234.835897 190.287268 
L 235.926813 190.318739 
L 236.290452 196.810528 
L 236.654091 196.920665 
L 237.01773 196.252453 
L 238.472285 196.199412 
L 238.835924 195.897327 
L 239.199563 198.55728 
L 239.563202 198.372179 
L 239.92684 200.80799 
L 241.017757 193.891702 
L 241.381396 194.085234 
L 241.745035 192.431076 
L 242.108673 192.65361 
L 242.472312 195.672085 
L 244.290507 195.703053 
L 244.654145 195.399206 
L 245.017784 195.28518 
L 246.108701 195.274072 
L 246.47234 196.502466 
L 246.835978 196.431812 
L 247.199617 196.793268 
L 247.563256 197.773742 
L 248.654173 197.482259 
L 249.017812 202.749072 
L 249.38145 202.730703 
L 249.745089 201.877955 
L 251.199645 201.826506 
L 251.563284 200.710637 
L 252.290561 201.14593 
L 252.6542 204.230678 
L 253.745117 201.039025 
L 254.108755 201.439548 
L 254.472394 202.289928 
L 254.836033 202.633836 
L 255.199672 203.233619 
L 256.290589 210.053911 
L 256.654227 209.854694 
L 257.017866 212.054712 
L 257.381505 212.085255 
L 257.745144 211.790571 
L 258.83606 211.946496 
L 259.199699 208.355945 
L 259.563338 207.896054 
L 259.926977 209.070032 
L 260.290616 209.1619 
L 261.745171 208.958572 
L 262.472449 209.141759 
L 262.836088 210.277118 
L 263.927004 209.985092 
L 264.290643 210.430965 
L 264.654282 208.821218 
L 265.017921 210.126152 
L 265.38156 210.866895 
L 266.472476 211.123065 
L 266.836115 209.329227 
L 267.199754 209.410639 
L 267.927032 208.420684 
L 269.017948 207.8551 
L 269.381587 211.358371 
L 269.745226 211.461658 
L 270.108865 208.041409 
L 270.472504 208.645517 
L 271.927059 206.793324 
L 272.290698 206.7556 
L 272.654337 206.946292 
L 273.017976 206.908215 
L 274.108892 207.165303 
L 274.472531 206.590187 
L 274.83617 208.44506 
L 275.199809 208.878045 
L 275.563448 208.928718 
L 277.018003 208.811994 
L 277.381642 209.073983 
L 277.745281 207.589111 
L 278.108919 206.895168 
L 279.563475 206.572992 
L 279.927114 205.553729 
L 280.290753 203.266076 
L 280.654391 199.214809 
L 281.745308 199.141737 
L 282.108947 201.129527 
L 282.472586 201.599276 
L 282.836224 200.585688 
L 283.199863 200.875724 
L 284.29078 200.250572 
L 285.018058 200.284141 
L 285.381696 202.401524 
L 285.745335 202.316308 
L 287.56353 204.70177 
L 287.927168 203.75414 
L 288.290807 203.818181 
L 289.381724 203.310294 
L 289.745363 203.383691 
L 290.109001 205.958674 
L 290.836279 205.092043 
L 291.927196 203.126326 
L 292.290835 203.131607 
L 293.018112 202.753154 
L 293.381751 204.206525 
L 294.472668 204.179855 
L 294.836306 204.361024 
L 295.199945 204.036188 
L 295.563584 206.471829 
L 295.927223 209.692051 
L 297.01814 214.364319 
L 297.745417 213.410719 
L 298.109056 211.981906 
L 298.472695 213.950482 
L 299.563612 213.106981 
L 299.92725 215.444698 
L 300.290889 215.404122 
L 302.472722 216.020938 
L 302.836361 216.455832 
L 303.2 216.326633 
L 303.2 216.326633 
" style="fill:none;stroke:#ff7f0e;stroke-linecap:square;stroke-width:1.5;"/>
   </g>
   <g id="patch_3">
    <path d="M 53.74375 226.248967 
L 53.74375 10.8 
" style="fill:none;stroke:#000000;stroke-linecap:square;stroke-linejoin:miter;stroke-width:0.8;"/>
   </g>
   <g id="patch_4">
    <path d="M 303.2 226.248967 
L 303.2 10.8 
" style="fill:none;stroke:#000000;stroke-linecap:square;stroke-linejoin:miter;stroke-width:0.8;"/>
   </g>
   <g id="patch_5">
    <path d="M 53.74375 226.248967 
L 303.2 226.248967 
" style="fill:none;stroke:#000000;stroke-linecap:square;stroke-linejoin:miter;stroke-width:0.8;"/>
   </g>
   <g id="patch_6">
    <path d="M 53.74375 10.8 
L 303.2 10.8 
" style="fill:none;stroke:#000000;stroke-linecap:square;stroke-linejoin:miter;stroke-width:0.8;"/>
   </g>
   <g id="legend_1">
    <g id="patch_7">
     <path d="M 205.265625 48.15625 
L 296.2 48.15625 
Q 298.2 48.15625 298.2 46.15625 
L 298.2 17.8 
Q 298.2 15.8 296.2 15.8 
L 205.265625 15.8 
Q 203.265625 15.8 203.265625 17.8 
L 203.265625 46.15625 
Q 203.265625 48.15625 205.265625 48.15625 
z
" style="fill:#ffffff;opacity:0.8;stroke:#cccccc;stroke-linejoin:miter;"/>
    </g>
    <g id="line2d_19">
     <path d="M 207.265625 23.898438 
L 227.265625 23.898438 
" style="fill:none;stroke:#1f77b4;stroke-linecap:square;stroke-width:1.5;"/>
    </g>
    <g id="line2d_20"/>
    <g id="text_19">
     <!-- With Citi -->
     <defs>
      <path d="M 3.328125 72.90625 
L 13.28125 72.90625 
L 28.609375 11.28125 
L 43.890625 72.90625 
L 54.984375 72.90625 
L 70.3125 11.28125 
L 85.59375 72.90625 
L 95.609375 72.90625 
L 77.296875 0 
L 64.890625 0 
L 49.515625 63.28125 
L 33.984375 0 
L 21.578125 0 
z
" id="DejaVuSans-87"/>
      <path d="M 9.421875 54.6875 
L 18.40625 54.6875 
L 18.40625 0 
L 9.421875 0 
z
M 9.421875 75.984375 
L 18.40625 75.984375 
L 18.40625 64.59375 
L 9.421875 64.59375 
z
" id="DejaVuSans-105"/>
      <path d="M 54.890625 33.015625 
L 54.890625 0 
L 45.90625 0 
L 45.90625 32.71875 
Q 45.90625 40.484375 42.875 44.328125 
Q 39.84375 48.1875 33.796875 48.1875 
Q 26.515625 48.1875 22.3125 43.546875 
Q 18.109375 38.921875 18.109375 30.90625 
L 18.109375 0 
L 9.078125 0 
L 9.078125 75.984375 
L 18.109375 75.984375 
L 18.109375 46.1875 
Q 21.34375 51.125 25.703125 53.5625 
Q 30.078125 56 35.796875 56 
Q 45.21875 56 50.046875 50.171875 
Q 54.890625 44.34375 54.890625 33.015625 
z
" id="DejaVuSans-104"/>
      <path id="DejaVuSans-32"/>
      <path d="M 64.40625 67.28125 
L 64.40625 56.890625 
Q 59.421875 61.53125 53.78125 63.8125 
Q 48.140625 66.109375 41.796875 66.109375 
Q 29.296875 66.109375 22.65625 58.46875 
Q 16.015625 50.828125 16.015625 36.375 
Q 16.015625 21.96875 22.65625 14.328125 
Q 29.296875 6.6875 41.796875 6.6875 
Q 48.140625 6.6875 53.78125 8.984375 
Q 59.421875 11.28125 64.40625 15.921875 
L 64.40625 5.609375 
Q 59.234375 2.09375 53.4375 0.328125 
Q 47.65625 -1.421875 41.21875 -1.421875 
Q 24.65625 -1.421875 15.125 8.703125 
Q 5.609375 18.84375 5.609375 36.375 
Q 5.609375 53.953125 15.125 64.078125 
Q 24.65625 74.21875 41.21875 74.21875 
Q 47.75 74.21875 53.53125 72.484375 
Q 59.328125 70.75 64.40625 67.28125 
z
" id="DejaVuSans-67"/>
     </defs>
     <g transform="translate(235.265625 27.398438)scale(0.1 -0.1)">
      <use xlink:href="#DejaVuSans-87"/>
      <use x="98.845703" xlink:href="#DejaVuSans-105"/>
      <use x="126.628906" xlink:href="#DejaVuSans-116"/>
      <use x="165.837891" xlink:href="#DejaVuSans-104"/>
      <use x="229.216797" xlink:href="#DejaVuSans-32"/>
      <use x="261.003906" xlink:href="#DejaVuSans-67"/>
      <use x="330.828125" xlink:href="#DejaVuSans-105"/>
      <use x="358.611328" xlink:href="#DejaVuSans-116"/>
      <use x="397.820312" xlink:href="#DejaVuSans-105"/>
     </g>
    </g>
    <g id="line2d_21">
     <path d="M 207.265625 38.576562 
L 227.265625 38.576562 
" style="fill:none;stroke:#ff7f0e;stroke-linecap:square;stroke-width:1.5;"/>
    </g>
    <g id="line2d_22"/>
    <g id="text_20">
     <!-- Without Citi -->
     <defs>
      <path d="M 8.5 21.578125 
L 8.5 54.6875 
L 17.484375 54.6875 
L 17.484375 21.921875 
Q 17.484375 14.15625 20.5 10.265625 
Q 23.53125 6.390625 29.59375 6.390625 
Q 36.859375 6.390625 41.078125 11.03125 
Q 45.3125 15.671875 45.3125 23.6875 
L 45.3125 54.6875 
L 54.296875 54.6875 
L 54.296875 0 
L 45.3125 0 
L 45.3125 8.40625 
Q 42.046875 3.421875 37.71875 1 
Q 33.40625 -1.421875 27.6875 -1.421875 
Q 18.265625 -1.421875 13.375 4.4375 
Q 8.5 10.296875 8.5 21.578125 
z
M 31.109375 56 
z
" id="DejaVuSans-117"/>
     </defs>
     <g transform="translate(235.265625 42.076562)scale(0.1 -0.1)">
      <use xlink:href="#DejaVuSans-87"/>
      <use x="98.845703" xlink:href="#DejaVuSans-105"/>
      <use x="126.628906" xlink:href="#DejaVuSans-116"/>
      <use x="165.837891" xlink:href="#DejaVuSans-104"/>
      <use x="229.216797" xlink:href="#DejaVuSans-111"/>
      <use x="290.398438" xlink:href="#DejaVuSans-117"/>
      <use x="353.777344" xlink:href="#DejaVuSans-116"/>
      <use x="392.986328" xlink:href="#DejaVuSans-32"/>
      <use x="424.773438" xlink:href="#DejaVuSans-67"/>
      <use x="494.597656" xlink:href="#DejaVuSans-105"/>
      <use x="522.380859" xlink:href="#DejaVuSans-116"/>
      <use x="561.589844" xlink:href="#DejaVuSans-105"/>
     </g>
    </g>
   </g>
  </g>
 </g>
 <defs>
  <clipPath id="p1fbb186802">
   <rect height="215.448967" width="249.45625" x="53.74375" y="10.8"/>
  </clipPath>
 </defs>
</svg>
