<?xml version="1.0" encoding="utf-8" standalone="no"?>
<!DOCTYPE svg PUBLIC "-//W3C//DTD SVG 1.1//EN"
  "http://www.w3.org/Graphics/SVG/1.1/DTD/svg11.dtd">
<!-- Created with matplotlib (https://matplotlib.org/) -->
<svg height="640pt" version="1.1" viewBox="0 0 640 640" width="640pt" xmlns="http://www.w3.org/2000/svg" xmlns:xlink="http://www.w3.org/1999/xlink">
 <defs>
  <style type="text/css">
*{stroke-linecap:butt;stroke-linejoin:round;white-space:pre;}
  </style>
 </defs>
 <g id="figure_1">
  <g id="patch_1">
   <path d="M 0 640 
L 640 640 
L 640 0 
L 0 0 
z
" style="fill:#ffffff;"/>
  </g>
  <g id="axes_1">
   <g id="patch_2">
    <path d="M 48.445312 579.248967 
L 629.2 579.248967 
L 629.2 11.256897 
L 48.445312 11.256897 
z
" style="fill:#ffffff;"/>
   </g>
   <g id="matplotlib.axis_1">
    <g id="xtick_1">
     <g id="line2d_1">
      <defs>
       <path d="M 0 0 
L 0 3.5 
" id="m3d6ad6e1f1" style="stroke:#000000;stroke-width:0.8;"/>
      </defs>
      <g>
       <use style="stroke:#000000;stroke-width:0.8;" x="110.726063" xlink:href="#m3d6ad6e1f1" y="579.248967"/>
      </g>
     </g>
     <g id="text_1">
      <!-- 2007-05 -->
      <defs>
       <path d="M 19.1875 8.296875 
L 53.609375 8.296875 
L 53.609375 0 
L 7.328125 0 
L 7.328125 8.296875 
Q 12.9375 14.109375 22.625 23.890625 
Q 32.328125 33.6875 34.8125 36.53125 
Q 39.546875 41.84375 41.421875 45.53125 
Q 43.3125 49.21875 43.3125 52.78125 
Q 43.3125 58.59375 39.234375 62.25 
Q 35.15625 65.921875 28.609375 65.921875 
Q 23.96875 65.921875 18.8125 64.3125 
Q 13.671875 62.703125 7.8125 59.421875 
L 7.8125 69.390625 
Q 13.765625 71.78125 18.9375 73 
Q 24.125 74.21875 28.421875 74.21875 
Q 39.75 74.21875 46.484375 68.546875 
Q 53.21875 62.890625 53.21875 53.421875 
Q 53.21875 48.921875 51.53125 44.890625 
Q 49.859375 40.875 45.40625 35.40625 
Q 44.1875 33.984375 37.640625 27.21875 
Q 31.109375 20.453125 19.1875 8.296875 
z
" id="DejaVuSans-50"/>
       <path d="M 31.78125 66.40625 
Q 24.171875 66.40625 20.328125 58.90625 
Q 16.5 51.421875 16.5 36.375 
Q 16.5 21.390625 20.328125 13.890625 
Q 24.171875 6.390625 31.78125 6.390625 
Q 39.453125 6.390625 43.28125 13.890625 
Q 47.125 21.390625 47.125 36.375 
Q 47.125 51.421875 43.28125 58.90625 
Q 39.453125 66.40625 31.78125 66.40625 
z
M 31.78125 74.21875 
Q 44.046875 74.21875 50.515625 64.515625 
Q 56.984375 54.828125 56.984375 36.375 
Q 56.984375 17.96875 50.515625 8.265625 
Q 44.046875 -1.421875 31.78125 -1.421875 
Q 19.53125 -1.421875 13.0625 8.265625 
Q 6.59375 17.96875 6.59375 36.375 
Q 6.59375 54.828125 13.0625 64.515625 
Q 19.53125 74.21875 31.78125 74.21875 
z
" id="DejaVuSans-48"/>
       <path d="M 8.203125 72.90625 
L 55.078125 72.90625 
L 55.078125 68.703125 
L 28.609375 0 
L 18.3125 0 
L 43.21875 64.59375 
L 8.203125 64.59375 
z
" id="DejaVuSans-55"/>
       <path d="M 4.890625 31.390625 
L 31.203125 31.390625 
L 31.203125 23.390625 
L 4.890625 23.390625 
z
" id="DejaVuSans-45"/>
       <path d="M 10.796875 72.90625 
L 49.515625 72.90625 
L 49.515625 64.59375 
L 19.828125 64.59375 
L 19.828125 46.734375 
Q 21.96875 47.46875 24.109375 47.828125 
Q 26.265625 48.1875 28.421875 48.1875 
Q 40.625 48.1875 47.75 41.5 
Q 54.890625 34.8125 54.890625 23.390625 
Q 54.890625 11.625 47.5625 5.09375 
Q 40.234375 -1.421875 26.90625 -1.421875 
Q 22.3125 -1.421875 17.546875 -0.640625 
Q 12.796875 0.140625 7.71875 1.703125 
L 7.71875 11.625 
Q 12.109375 9.234375 16.796875 8.0625 
Q 21.484375 6.890625 26.703125 6.890625 
Q 35.15625 6.890625 40.078125 11.328125 
Q 45.015625 15.765625 45.015625 23.390625 
Q 45.015625 31 40.078125 35.4375 
Q 35.15625 39.890625 26.703125 39.890625 
Q 22.75 39.890625 18.8125 39.015625 
Q 14.890625 38.140625 10.796875 36.28125 
z
" id="DejaVuSans-53"/>
      </defs>
      <g transform="translate(73.501242 613.720813)rotate(-30)scale(0.1 -0.1)">
       <use xlink:href="#DejaVuSans-50"/>
       <use x="63.623047" xlink:href="#DejaVuSans-48"/>
       <use x="127.246094" xlink:href="#DejaVuSans-48"/>
       <use x="190.869141" xlink:href="#DejaVuSans-55"/>
       <use x="254.492188" xlink:href="#DejaVuSans-45"/>
       <use x="290.576172" xlink:href="#DejaVuSans-48"/>
       <use x="354.199219" xlink:href="#DejaVuSans-53"/>
      </g>
     </g>
    </g>
    <g id="xtick_2">
     <g id="line2d_2">
      <g>
       <use style="stroke:#000000;stroke-width:0.8;" x="176.200697" xlink:href="#m3d6ad6e1f1" y="579.248967"/>
      </g>
     </g>
     <g id="text_2">
      <!-- 2007-09 -->
      <defs>
       <path d="M 10.984375 1.515625 
L 10.984375 10.5 
Q 14.703125 8.734375 18.5 7.8125 
Q 22.3125 6.890625 25.984375 6.890625 
Q 35.75 6.890625 40.890625 13.453125 
Q 46.046875 20.015625 46.78125 33.40625 
Q 43.953125 29.203125 39.59375 26.953125 
Q 35.25 24.703125 29.984375 24.703125 
Q 19.046875 24.703125 12.671875 31.3125 
Q 6.296875 37.9375 6.296875 49.421875 
Q 6.296875 60.640625 12.9375 67.421875 
Q 19.578125 74.21875 30.609375 74.21875 
Q 43.265625 74.21875 49.921875 64.515625 
Q 56.59375 54.828125 56.59375 36.375 
Q 56.59375 19.140625 48.40625 8.859375 
Q 40.234375 -1.421875 26.421875 -1.421875 
Q 22.703125 -1.421875 18.890625 -0.6875 
Q 15.09375 0.046875 10.984375 1.515625 
z
M 30.609375 32.421875 
Q 37.25 32.421875 41.125 36.953125 
Q 45.015625 41.5 45.015625 49.421875 
Q 45.015625 57.28125 41.125 61.84375 
Q 37.25 66.40625 30.609375 66.40625 
Q 23.96875 66.40625 20.09375 61.84375 
Q 16.21875 57.28125 16.21875 49.421875 
Q 16.21875 41.5 20.09375 36.953125 
Q 23.96875 32.421875 30.609375 32.421875 
z
" id="DejaVuSans-57"/>
      </defs>
      <g transform="translate(138.975877 613.720813)rotate(-30)scale(0.1 -0.1)">
       <use xlink:href="#DejaVuSans-50"/>
       <use x="63.623047" xlink:href="#DejaVuSans-48"/>
       <use x="127.246094" xlink:href="#DejaVuSans-48"/>
       <use x="190.869141" xlink:href="#DejaVuSans-55"/>
       <use x="254.492188" xlink:href="#DejaVuSans-45"/>
       <use x="290.576172" xlink:href="#DejaVuSans-48"/>
       <use x="354.199219" xlink:href="#DejaVuSans-57"/>
      </g>
     </g>
    </g>
    <g id="xtick_3">
     <g id="line2d_3">
      <g>
       <use style="stroke:#000000;stroke-width:0.8;" x="241.143018" xlink:href="#m3d6ad6e1f1" y="579.248967"/>
      </g>
     </g>
     <g id="text_3">
      <!-- 2008-01 -->
      <defs>
       <path d="M 31.78125 34.625 
Q 24.75 34.625 20.71875 30.859375 
Q 16.703125 27.09375 16.703125 20.515625 
Q 16.703125 13.921875 20.71875 10.15625 
Q 24.75 6.390625 31.78125 6.390625 
Q 38.8125 6.390625 42.859375 10.171875 
Q 46.921875 13.96875 46.921875 20.515625 
Q 46.921875 27.09375 42.890625 30.859375 
Q 38.875 34.625 31.78125 34.625 
z
M 21.921875 38.8125 
Q 15.578125 40.375 12.03125 44.71875 
Q 8.5 49.078125 8.5 55.328125 
Q 8.5 64.0625 14.71875 69.140625 
Q 20.953125 74.21875 31.78125 74.21875 
Q 42.671875 74.21875 48.875 69.140625 
Q 55.078125 64.0625 55.078125 55.328125 
Q 55.078125 49.078125 51.53125 44.71875 
Q 48 40.375 41.703125 38.8125 
Q 48.828125 37.15625 52.796875 32.3125 
Q 56.78125 27.484375 56.78125 20.515625 
Q 56.78125 9.90625 50.3125 4.234375 
Q 43.84375 -1.421875 31.78125 -1.421875 
Q 19.734375 -1.421875 13.25 4.234375 
Q 6.78125 9.90625 6.78125 20.515625 
Q 6.78125 27.484375 10.78125 32.3125 
Q 14.796875 37.15625 21.921875 38.8125 
z
M 18.3125 54.390625 
Q 18.3125 48.734375 21.84375 45.5625 
Q 25.390625 42.390625 31.78125 42.390625 
Q 38.140625 42.390625 41.71875 45.5625 
Q 45.3125 48.734375 45.3125 54.390625 
Q 45.3125 60.0625 41.71875 63.234375 
Q 38.140625 66.40625 31.78125 66.40625 
Q 25.390625 66.40625 21.84375 63.234375 
Q 18.3125 60.0625 18.3125 54.390625 
z
" id="DejaVuSans-56"/>
       <path d="M 12.40625 8.296875 
L 28.515625 8.296875 
L 28.515625 63.921875 
L 10.984375 60.40625 
L 10.984375 69.390625 
L 28.421875 72.90625 
L 38.28125 72.90625 
L 38.28125 8.296875 
L 54.390625 8.296875 
L 54.390625 0 
L 12.40625 0 
z
" id="DejaVuSans-49"/>
      </defs>
      <g transform="translate(203.918197 613.720813)rotate(-30)scale(0.1 -0.1)">
       <use xlink:href="#DejaVuSans-50"/>
       <use x="63.623047" xlink:href="#DejaVuSans-48"/>
       <use x="127.246094" xlink:href="#DejaVuSans-48"/>
       <use x="190.869141" xlink:href="#DejaVuSans-56"/>
       <use x="254.492188" xlink:href="#DejaVuSans-45"/>
       <use x="290.576172" xlink:href="#DejaVuSans-48"/>
       <use x="354.199219" xlink:href="#DejaVuSans-49"/>
      </g>
     </g>
    </g>
    <g id="xtick_4">
     <g id="line2d_4">
      <g>
       <use style="stroke:#000000;stroke-width:0.8;" x="305.553025" xlink:href="#m3d6ad6e1f1" y="579.248967"/>
      </g>
     </g>
     <g id="text_4">
      <!-- 2008-05 -->
      <g transform="translate(268.328204 613.720813)rotate(-30)scale(0.1 -0.1)">
       <use xlink:href="#DejaVuSans-50"/>
       <use x="63.623047" xlink:href="#DejaVuSans-48"/>
       <use x="127.246094" xlink:href="#DejaVuSans-48"/>
       <use x="190.869141" xlink:href="#DejaVuSans-56"/>
       <use x="254.492188" xlink:href="#DejaVuSans-45"/>
       <use x="290.576172" xlink:href="#DejaVuSans-48"/>
       <use x="354.199219" xlink:href="#DejaVuSans-53"/>
      </g>
     </g>
    </g>
    <g id="xtick_5">
     <g id="line2d_5">
      <g>
       <use style="stroke:#000000;stroke-width:0.8;" x="371.02766" xlink:href="#m3d6ad6e1f1" y="579.248967"/>
      </g>
     </g>
     <g id="text_5">
      <!-- 2008-09 -->
      <g transform="translate(333.802839 613.720813)rotate(-30)scale(0.1 -0.1)">
       <use xlink:href="#DejaVuSans-50"/>
       <use x="63.623047" xlink:href="#DejaVuSans-48"/>
       <use x="127.246094" xlink:href="#DejaVuSans-48"/>
       <use x="190.869141" xlink:href="#DejaVuSans-56"/>
       <use x="254.492188" xlink:href="#DejaVuSans-45"/>
       <use x="290.576172" xlink:href="#DejaVuSans-48"/>
       <use x="354.199219" xlink:href="#DejaVuSans-57"/>
      </g>
     </g>
    </g>
    <g id="xtick_6">
     <g id="line2d_6">
      <g>
       <use style="stroke:#000000;stroke-width:0.8;" x="435.96998" xlink:href="#m3d6ad6e1f1" y="579.248967"/>
      </g>
     </g>
     <g id="text_6">
      <!-- 2009-01 -->
      <g transform="translate(398.745159 613.720813)rotate(-30)scale(0.1 -0.1)">
       <use xlink:href="#DejaVuSans-50"/>
       <use x="63.623047" xlink:href="#DejaVuSans-48"/>
       <use x="127.246094" xlink:href="#DejaVuSans-48"/>
       <use x="190.869141" xlink:href="#DejaVuSans-57"/>
       <use x="254.492188" xlink:href="#DejaVuSans-45"/>
       <use x="290.576172" xlink:href="#DejaVuSans-48"/>
       <use x="354.199219" xlink:href="#DejaVuSans-49"/>
      </g>
     </g>
    </g>
    <g id="xtick_7">
     <g id="line2d_7">
      <g>
       <use style="stroke:#000000;stroke-width:0.8;" x="499.847673" xlink:href="#m3d6ad6e1f1" y="579.248967"/>
      </g>
     </g>
     <g id="text_7">
      <!-- 2009-05 -->
      <g transform="translate(462.622852 613.720813)rotate(-30)scale(0.1 -0.1)">
       <use xlink:href="#DejaVuSans-50"/>
       <use x="63.623047" xlink:href="#DejaVuSans-48"/>
       <use x="127.246094" xlink:href="#DejaVuSans-48"/>
       <use x="190.869141" xlink:href="#DejaVuSans-57"/>
       <use x="254.492188" xlink:href="#DejaVuSans-45"/>
       <use x="290.576172" xlink:href="#DejaVuSans-48"/>
       <use x="354.199219" xlink:href="#DejaVuSans-53"/>
      </g>
     </g>
    </g>
    <g id="xtick_8">
     <g id="line2d_8">
      <g>
       <use style="stroke:#000000;stroke-width:0.8;" x="565.322308" xlink:href="#m3d6ad6e1f1" y="579.248967"/>
      </g>
     </g>
     <g id="text_8">
      <!-- 2009-09 -->
      <g transform="translate(528.097487 613.720813)rotate(-30)scale(0.1 -0.1)">
       <use xlink:href="#DejaVuSans-50"/>
       <use x="63.623047" xlink:href="#DejaVuSans-48"/>
       <use x="127.246094" xlink:href="#DejaVuSans-48"/>
       <use x="190.869141" xlink:href="#DejaVuSans-57"/>
       <use x="254.492188" xlink:href="#DejaVuSans-45"/>
       <use x="290.576172" xlink:href="#DejaVuSans-48"/>
       <use x="354.199219" xlink:href="#DejaVuSans-57"/>
      </g>
     </g>
    </g>
    <g id="text_9">
     <!-- Date -->
     <defs>
      <path d="M 19.671875 64.796875 
L 19.671875 8.109375 
L 31.59375 8.109375 
Q 46.6875 8.109375 53.6875 14.9375 
Q 60.6875 21.78125 60.6875 36.53125 
Q 60.6875 51.171875 53.6875 57.984375 
Q 46.6875 64.796875 31.59375 64.796875 
z
M 9.8125 72.90625 
L 30.078125 72.90625 
Q 51.265625 72.90625 61.171875 64.09375 
Q 71.09375 55.28125 71.09375 36.53125 
Q 71.09375 17.671875 61.125 8.828125 
Q 51.171875 0 30.078125 0 
L 9.8125 0 
z
" id="DejaVuSans-68"/>
      <path d="M 34.28125 27.484375 
Q 23.390625 27.484375 19.1875 25 
Q 14.984375 22.515625 14.984375 16.5 
Q 14.984375 11.71875 18.140625 8.90625 
Q 21.296875 6.109375 26.703125 6.109375 
Q 34.1875 6.109375 38.703125 11.40625 
Q 43.21875 16.703125 43.21875 25.484375 
L 43.21875 27.484375 
z
M 52.203125 31.203125 
L 52.203125 0 
L 43.21875 0 
L 43.21875 8.296875 
Q 40.140625 3.328125 35.546875 0.953125 
Q 30.953125 -1.421875 24.3125 -1.421875 
Q 15.921875 -1.421875 10.953125 3.296875 
Q 6 8.015625 6 15.921875 
Q 6 25.140625 12.171875 29.828125 
Q 18.359375 34.515625 30.609375 34.515625 
L 43.21875 34.515625 
L 43.21875 35.40625 
Q 43.21875 41.609375 39.140625 45 
Q 35.0625 48.390625 27.6875 48.390625 
Q 23 48.390625 18.546875 47.265625 
Q 14.109375 46.140625 10.015625 43.890625 
L 10.015625 52.203125 
Q 14.9375 54.109375 19.578125 55.046875 
Q 24.21875 56 28.609375 56 
Q 40.484375 56 46.34375 49.84375 
Q 52.203125 43.703125 52.203125 31.203125 
z
" id="DejaVuSans-97"/>
      <path d="M 18.3125 70.21875 
L 18.3125 54.6875 
L 36.8125 54.6875 
L 36.8125 47.703125 
L 18.3125 47.703125 
L 18.3125 18.015625 
Q 18.3125 11.328125 20.140625 9.421875 
Q 21.96875 7.515625 27.59375 7.515625 
L 36.8125 7.515625 
L 36.8125 0 
L 27.59375 0 
Q 17.1875 0 13.234375 3.875 
Q 9.28125 7.765625 9.28125 18.015625 
L 9.28125 47.703125 
L 2.6875 47.703125 
L 2.6875 54.6875 
L 9.28125 54.6875 
L 9.28125 70.21875 
z
" id="DejaVuSans-116"/>
      <path d="M 56.203125 29.59375 
L 56.203125 25.203125 
L 14.890625 25.203125 
Q 15.484375 15.921875 20.484375 11.0625 
Q 25.484375 6.203125 34.421875 6.203125 
Q 39.59375 6.203125 44.453125 7.46875 
Q 49.3125 8.734375 54.109375 11.28125 
L 54.109375 2.78125 
Q 49.265625 0.734375 44.1875 -0.34375 
Q 39.109375 -1.421875 33.890625 -1.421875 
Q 20.796875 -1.421875 13.15625 6.1875 
Q 5.515625 13.8125 5.515625 26.8125 
Q 5.515625 40.234375 12.765625 48.109375 
Q 20.015625 56 32.328125 56 
Q 43.359375 56 49.78125 48.890625 
Q 56.203125 41.796875 56.203125 29.59375 
z
M 47.21875 32.234375 
Q 47.125 39.59375 43.09375 43.984375 
Q 39.0625 48.390625 32.421875 48.390625 
Q 24.90625 48.390625 20.390625 44.140625 
Q 15.875 39.890625 15.1875 32.171875 
z
" id="DejaVuSans-101"/>
     </defs>
     <g transform="translate(326.871875 627.120312)scale(0.1 -0.1)">
      <use xlink:href="#DejaVuSans-68"/>
      <use x="77.001953" xlink:href="#DejaVuSans-97"/>
      <use x="138.28125" xlink:href="#DejaVuSans-116"/>
      <use x="177.490234" xlink:href="#DejaVuSans-101"/>
     </g>
    </g>
   </g>
   <g id="matplotlib.axis_2">
    <g id="ytick_1">
     <g id="line2d_9">
      <defs>
       <path d="M 0 0 
L -3.5 0 
" id="m5e663fed83" style="stroke:#000000;stroke-width:0.8;"/>
      </defs>
      <g>
       <use style="stroke:#000000;stroke-width:0.8;" x="48.445312" xlink:href="#m5e663fed83" y="504.76987"/>
      </g>
     </g>
     <g id="text_10">
      <!-- −0.15 -->
      <defs>
       <path d="M 10.59375 35.5 
L 73.1875 35.5 
L 73.1875 27.203125 
L 10.59375 27.203125 
z
" id="DejaVuSans-8722"/>
       <path d="M 10.6875 12.40625 
L 21 12.40625 
L 21 0 
L 10.6875 0 
z
" id="DejaVuSans-46"/>
      </defs>
      <g transform="translate(10.8 508.569089)scale(0.1 -0.1)">
       <use xlink:href="#DejaVuSans-8722"/>
       <use x="83.789062" xlink:href="#DejaVuSans-48"/>
       <use x="147.412109" xlink:href="#DejaVuSans-46"/>
       <use x="179.199219" xlink:href="#DejaVuSans-49"/>
       <use x="242.822266" xlink:href="#DejaVuSans-53"/>
      </g>
     </g>
    </g>
    <g id="ytick_2">
     <g id="line2d_10">
      <g>
       <use style="stroke:#000000;stroke-width:0.8;" x="48.445312" xlink:href="#m5e663fed83" y="423.244734"/>
      </g>
     </g>
     <g id="text_11">
      <!-- −0.10 -->
      <g transform="translate(10.8 427.043953)scale(0.1 -0.1)">
       <use xlink:href="#DejaVuSans-8722"/>
       <use x="83.789062" xlink:href="#DejaVuSans-48"/>
       <use x="147.412109" xlink:href="#DejaVuSans-46"/>
       <use x="179.199219" xlink:href="#DejaVuSans-49"/>
       <use x="242.822266" xlink:href="#DejaVuSans-48"/>
      </g>
     </g>
    </g>
    <g id="ytick_3">
     <g id="line2d_11">
      <g>
       <use style="stroke:#000000;stroke-width:0.8;" x="48.445312" xlink:href="#m5e663fed83" y="341.719599"/>
      </g>
     </g>
     <g id="text_12">
      <!-- −0.05 -->
      <g transform="translate(10.8 345.518818)scale(0.1 -0.1)">
       <use xlink:href="#DejaVuSans-8722"/>
       <use x="83.789062" xlink:href="#DejaVuSans-48"/>
       <use x="147.412109" xlink:href="#DejaVuSans-46"/>
       <use x="179.199219" xlink:href="#DejaVuSans-48"/>
       <use x="242.822266" xlink:href="#DejaVuSans-53"/>
      </g>
     </g>
    </g>
    <g id="ytick_4">
     <g id="line2d_12">
      <g>
       <use style="stroke:#000000;stroke-width:0.8;" x="48.445312" xlink:href="#m5e663fed83" y="260.194464"/>
      </g>
     </g>
     <g id="text_13">
      <!-- 0.00 -->
      <g transform="translate(19.179688 263.993682)scale(0.1 -0.1)">
       <use xlink:href="#DejaVuSans-48"/>
       <use x="63.623047" xlink:href="#DejaVuSans-46"/>
       <use x="95.410156" xlink:href="#DejaVuSans-48"/>
       <use x="159.033203" xlink:href="#DejaVuSans-48"/>
      </g>
     </g>
    </g>
    <g id="ytick_5">
     <g id="line2d_13">
      <g>
       <use style="stroke:#000000;stroke-width:0.8;" x="48.445312" xlink:href="#m5e663fed83" y="178.669328"/>
      </g>
     </g>
     <g id="text_14">
      <!-- 0.05 -->
      <g transform="translate(19.179688 182.468547)scale(0.1 -0.1)">
       <use xlink:href="#DejaVuSans-48"/>
       <use x="63.623047" xlink:href="#DejaVuSans-46"/>
       <use x="95.410156" xlink:href="#DejaVuSans-48"/>
       <use x="159.033203" xlink:href="#DejaVuSans-53"/>
      </g>
     </g>
    </g>
    <g id="ytick_6">
     <g id="line2d_14">
      <g>
       <use style="stroke:#000000;stroke-width:0.8;" x="48.445312" xlink:href="#m5e663fed83" y="97.144193"/>
      </g>
     </g>
     <g id="text_15">
      <!-- 0.10 -->
      <g transform="translate(19.179688 100.943412)scale(0.1 -0.1)">
       <use xlink:href="#DejaVuSans-48"/>
       <use x="63.623047" xlink:href="#DejaVuSans-46"/>
       <use x="95.410156" xlink:href="#DejaVuSans-49"/>
       <use x="159.033203" xlink:href="#DejaVuSans-48"/>
      </g>
     </g>
    </g>
    <g id="ytick_7">
     <g id="line2d_15">
      <g>
       <use style="stroke:#000000;stroke-width:0.8;" x="48.445312" xlink:href="#m5e663fed83" y="15.619057"/>
      </g>
     </g>
     <g id="text_16">
      <!-- 0.15 -->
      <g transform="translate(19.179688 19.418276)scale(0.1 -0.1)">
       <use xlink:href="#DejaVuSans-48"/>
       <use x="63.623047" xlink:href="#DejaVuSans-46"/>
       <use x="95.410156" xlink:href="#DejaVuSans-49"/>
       <use x="159.033203" xlink:href="#DejaVuSans-53"/>
      </g>
     </g>
    </g>
   </g>
   <g id="line2d_16">
    <path clip-path="url(#p288cbe0df7)" d="M 48.445312 250.719709 
L 48.977627 251.967162 
L 50.574569 259.760407 
L 51.639197 260.62852 
L 52.171511 275.748008 
L 52.703825 258.903961 
L 54.833082 269.634177 
L 55.365396 254.62302 
L 55.89771 261.052814 
L 56.430024 214.50705 
L 58.026966 251.34507 
L 58.55928 251.296639 
L 59.091595 264.204518 
L 59.623909 246.789255 
L 60.156223 248.034944 
L 61.753165 265.609893 
L 62.285479 252.969808 
L 63.350107 268.315557 
L 63.882422 261.993567 
L 65.479364 264.683697 
L 67.076306 243.852837 
L 67.60862 250.585752 
L 69.205563 265.234698 
L 69.737877 266.131044 
L 70.270191 291.794347 
L 70.802505 245.373683 
L 71.334819 247.967258 
L 73.464075 271.067579 
L 73.996389 251.138687 
L 74.528704 236.871659 
L 75.061018 246.317835 
L 76.65796 271.305294 
L 77.190274 228.515088 
L 77.722588 271.912917 
L 78.254902 264.392659 
L 78.787216 254.127036 
L 80.384159 245.16227 
L 80.916473 268.197645 
L 81.448787 241.775846 
L 81.981101 265.883844 
L 82.513415 254.029985 
L 84.110357 265.885499 
L 84.642672 243.539663 
L 85.174986 270.682992 
L 85.7073 270.143852 
L 86.239614 252.619483 
L 87.836556 274.83924 
L 88.36887 264.890574 
L 88.901184 293.153679 
L 89.965813 260.649655 
L 91.562755 268.367383 
L 92.095069 250.655351 
L 92.627383 249.223946 
L 93.159697 260.194464 
L 93.692011 251.456699 
L 95.288954 256.963493 
L 95.821268 261.580004 
L 96.353582 250.471151 
L 96.885896 256.009438 
L 99.015152 248.981756 
L 99.547466 264.875743 
L 100.079781 263.463521 
L 100.612095 270.889331 
L 101.144409 269.437668 
L 102.741351 259.272531 
L 103.273665 252.79984 
L 103.805979 256.94884 
L 104.338293 254.14953 
L 104.870608 266.239397 
L 106.46755 244.805684 
L 106.999864 258.319173 
L 107.532178 290.402731 
L 108.064492 279.875225 
L 108.596806 305.065215 
L 110.193749 261.079369 
L 110.726063 270.77649 
L 111.258377 269.397698 
L 111.790691 261.50502 
L 112.323005 251.876594 
L 113.919947 264.139831 
L 114.452261 253.173996 
L 114.984576 268.090334 
L 115.51689 239.053056 
L 116.049204 268.595794 
L 117.646146 243.793963 
L 118.17846 261.975528 
L 118.710774 268.627628 
L 119.243088 246.858833 
L 119.775402 279.275198 
L 121.372345 266.359016 
L 121.904659 270.708255 
L 122.436973 271.508379 
L 122.969287 250.626199 
L 123.501601 268.027116 
L 125.630858 253.234072 
L 126.163172 274.51812 
L 126.695486 253.699326 
L 127.2278 254.544309 
L 128.824742 275.793294 
L 129.357056 242.417269 
L 129.88937 255.391766 
L 130.421685 236.853912 
L 130.953999 284.846274 
L 132.550941 266.299481 
L 133.083255 242.250253 
L 133.615569 285.954684 
L 134.147883 267.110703 
L 134.680197 273.939638 
L 136.27714 258.054412 
L 136.809454 311.626168 
L 137.341768 251.038921 
L 137.874082 248.887538 
L 138.406396 236.489892 
L 140.003338 258.914764 
L 140.535652 252.066633 
L 141.067967 261.908909 
L 141.600281 262.762934 
L 142.132595 267.023797 
L 143.729537 259.34226 
L 144.261851 278.838804 
L 145.326479 253.439357 
L 145.858794 257.654049 
L 147.455736 266.115952 
L 147.98805 229.509662 
L 148.520364 273.05007 
L 149.052678 293.988441 
L 149.584992 280.965513 
L 151.181935 285.588351 
L 151.714249 283.997817 
L 152.246563 249.747638 
L 152.778877 270.641289 
L 153.311191 236.39111 
L 154.908133 288.397589 
L 155.440447 236.050353 
L 155.972762 268.28222 
L 156.505076 223.891727 
L 157.03739 229.382143 
L 158.634332 280.247083 
L 159.166646 238.880296 
L 159.69896 268.167628 
L 160.231274 263.539984 
L 160.763588 219.159985 
L 162.360531 304.150543 
L 162.892845 275.964377 
L 163.425159 300.173735 
L 163.957473 197.759463 
L 164.489787 230.190948 
L 166.086729 257.633389 
L 166.619044 239.127727 
L 167.151358 226.087774 
L 168.215986 314.082469 
L 169.812928 250.411881 
L 170.345242 265.730981 
L 170.877556 293.441192 
L 171.409871 259.360946 
L 171.942185 272.236979 
L 173.539127 243.142789 
L 174.071441 219.985419 
L 174.603755 288.233918 
L 175.136069 247.084439 
L 175.668383 280.029991 
L 177.79764 267.309938 
L 178.329954 248.037564 
L 178.862268 287.317974 
L 179.394582 233.070954 
L 180.991524 278.604195 
L 181.523839 273.041295 
L 182.056153 276.62274 
L 182.588467 284.933386 
L 183.120781 253.741817 
L 184.717723 253.310488 
L 185.250037 319.95564 
L 185.782351 263.711368 
L 186.314665 239.373499 
L 186.84698 260.589687 
L 188.443922 244.306468 
L 188.976236 270.142583 
L 189.50855 266.924786 
L 190.040864 264.928541 
L 190.573178 260.588378 
L 192.170121 284.43159 
L 192.702435 264.070121 
L 193.234749 237.97859 
L 193.767063 266.070124 
L 194.299377 262.929196 
L 195.896319 250.799075 
L 196.428633 279.319676 
L 196.960948 252.025363 
L 197.493262 251.984269 
L 198.025576 237.698968 
L 199.622518 251.827788 
L 200.154832 258.19605 
L 200.687146 269.366944 
L 201.21946 251.821609 
L 201.751774 229.935631 
L 203.348717 265.479728 
L 203.881031 272.729081 
L 204.413345 250.093462 
L 204.945659 257.354828 
L 205.477973 269.102189 
L 207.074916 267.446529 
L 207.60723 256.975309 
L 208.139544 287.356816 
L 208.671858 227.383179 
L 209.204172 259.790324 
L 210.801114 254.930201 
L 211.333428 259.383099 
L 211.865742 214.93403 
L 212.398057 257.689179 
L 212.930371 233.229534 
L 214.527313 254.662282 
L 215.059627 300.611741 
L 215.591941 251.856484 
L 216.124255 230.670843 
L 216.656569 274.60115 
L 218.253512 239.391033 
L 218.785826 255.059045 
L 219.31814 222.47067 
L 220.382768 281.981337 
L 221.97971 218.991402 
L 222.512025 291.847273 
L 223.044339 303.585412 
L 223.576653 246.571355 
L 224.108967 266.594422 
L 225.705909 201.228193 
L 226.238223 229.891781 
L 226.770537 280.754771 
L 227.302851 284.441936 
L 227.835166 258.881138 
L 229.432108 268.058598 
L 229.964422 243.54767 
L 230.496736 269.852761 
L 231.02905 274.575682 
L 231.561364 230.862426 
L 233.158307 241.08773 
L 233.690621 274.43483 
L 234.222935 249.971697 
L 234.755249 257.963645 
L 235.287563 287.643307 
L 236.884505 277.226787 
L 237.949134 261.063104 
L 238.481448 244.487103 
L 239.013762 266.757577 
L 240.610704 248.361635 
L 241.675332 246.501955 
L 242.207646 261.967826 
L 242.73996 226.168426 
L 244.336903 266.515888 
L 244.869217 224.65821 
L 245.401531 278.514989 
L 245.933845 265.65062 
L 246.466159 225.789596 
L 248.063102 273.583907 
L 248.595416 216.860973 
L 249.12773 261.610487 
L 249.660044 195.225548 
L 250.192358 313.32567 
L 252.321614 247.791515 
L 252.853928 285.849915 
L 253.386243 263.020179 
L 253.918557 229.317305 
L 255.515499 294.362357 
L 256.047813 262.071767 
L 256.580127 268.615972 
L 257.112441 279.677272 
L 257.644755 296.67252 
L 259.241698 224.177535 
L 259.774012 205.823598 
L 260.306326 259.717896 
L 260.83864 261.623946 
L 261.370954 241.510666 
L 263.500211 277.362836 
L 264.032525 288.878959 
L 264.564839 232.458448 
L 265.097153 259.245983 
L 267.226409 255.919362 
L 267.758723 263.995019 
L 268.291037 228.086577 
L 268.823352 253.404854 
L 270.420294 291.958388 
L 270.952608 247.274904 
L 271.484922 264.033196 
L 272.017236 252.026245 
L 272.54955 225.631104 
L 274.146493 272.936558 
L 274.678807 266.04218 
L 275.211121 267.47455 
L 275.743435 220.489852 
L 276.275749 228.630576 
L 277.872691 233.159095 
L 278.405005 345.370529 
L 278.93732 287.305709 
L 279.469634 274.058952 
L 280.001948 239.594259 
L 281.59889 284.598746 
L 282.131204 343.970718 
L 282.663518 235.189709 
L 283.195832 344.996189 
L 285.325089 256.275574 
L 285.857403 254.517068 
L 286.389717 254.058082 
L 286.922031 246.966882 
L 287.454345 250.425695 
L 289.051288 277.912753 
L 289.583602 321.583238 
L 290.115916 242.705616 
L 290.64823 252.456803 
L 291.180544 248.084428 
L 292.777486 247.11906 
L 293.3098 246.572116 
L 293.842114 237.532689 
L 294.374429 274.006844 
L 294.906743 37.074719 
L 296.503685 244.860498 
L 297.035999 271.963358 
L 297.568313 272.89119 
L 298.100627 249.535891 
L 298.632941 293.95971 
L 300.229884 248.682032 
L 300.762198 253.651304 
L 301.294512 261.7068 
L 301.826826 282.712105 
L 302.35914 285.833377 
L 304.488397 242.898494 
L 305.020711 254.221951 
L 305.553025 281.00329 
L 306.085339 270.989363 
L 307.682281 252.350787 
L 308.214595 251.324976 
L 308.746909 238.808861 
L 309.279223 261.195346 
L 309.811538 244.105568 
L 311.40848 266.749764 
L 311.940794 256.667893 
L 312.473108 269.247251 
L 313.005422 253.157778 
L 313.537736 248.060393 
L 315.134679 273.839002 
L 315.666993 225.609784 
L 316.199307 222.231759 
L 316.731621 261.246413 
L 317.263935 229.40928 
L 319.393191 258.586273 
L 319.925506 268.219881 
L 320.45782 264.990821 
L 320.990134 264.446154 
L 322.587076 243.657238 
L 323.11939 262.873132 
L 323.651704 259.659104 
L 324.184018 292.535171 
L 324.716332 204.664447 
L 326.313275 262.365599 
L 326.845589 274.774295 
L 327.377903 233.091025 
L 327.910217 216.992475 
L 328.442531 265.797638 
L 330.039474 250.094961 
L 330.571788 253.991565 
L 331.104102 223.051566 
L 331.636416 242.761953 
L 332.16873 228.934118 
L 334.8303 283.663757 
L 335.362615 172.84653 
L 335.894929 243.515588 
L 337.491871 286.677272 
L 338.024185 286.253938 
L 338.556499 223.101465 
L 339.088813 284.612757 
L 341.21807 271.666275 
L 341.750384 316.954525 
L 342.282698 208.840356 
L 342.815012 286.958785 
L 343.347326 261.373804 
L 344.944268 231.651046 
L 345.476583 228.086207 
L 346.008897 322.024748 
L 346.541211 278.936061 
L 347.073525 260.194464 
L 348.670467 242.04179 
L 349.202781 307.206391 
L 349.735095 307.000917 
L 350.267409 225.358189 
L 350.799724 260.194464 
L 352.396666 201.212357 
L 352.92898 301.4752 
L 353.461294 292.595333 
L 353.993608 221.466018 
L 354.525922 255.577112 
L 356.122865 257.880845 
L 356.655179 321.537251 
L 357.187493 246.198624 
L 357.719807 235.836986 
L 358.252121 320.144159 
L 359.849063 277.159073 
L 360.381377 248.721569 
L 360.913692 236.447549 
L 361.446006 271.835018 
L 361.97832 275.587121 
L 364.107576 224.24678 
L 364.63989 256.783328 
L 365.172204 265.875613 
L 365.704519 281.044491 
L 367.301461 214.77367 
L 367.833775 257.313142 
L 368.366089 257.308102 
L 368.898403 295.063659 
L 369.430717 218.377069 
L 371.559974 284.956266 
L 372.092288 262.478849 
L 372.624602 209.771515 
L 373.156916 270.755516 
L 374.753858 329.466156 
L 375.286172 204.898641 
L 375.818486 258.453972 
L 376.350801 264.252624 
L 376.883115 176.438657 
L 378.480057 123.577965 
L 379.012371 290.401867 
L 379.544685 147.747958 
L 380.076999 354.978405 
L 380.609313 376.322866 
L 382.73857 183.601074 
L 383.270884 236.496714 
L 383.803198 330.913716 
L 384.335512 232.661305 
L 385.932454 115.090168 
L 386.464769 421.362847 
L 386.997083 194.965687 
L 387.529397 95.781738 
L 388.061711 216.93067 
L 389.658653 245.768447 
L 390.190967 175.677284 
L 390.723281 288.067111 
L 391.255595 125.270111 
L 391.78791 460.889351 
L 393.384852 221.827943 
L 393.917166 248.506203 
L 394.44948 130.010379 
L 394.981794 313.521771 
L 395.514108 238.740171 
L 397.111051 302.015063 
L 397.643365 277.107702 
L 398.175679 144.837394 
L 398.707993 246.376486 
L 399.240307 173.819433 
L 400.837249 251.024088 
L 401.369563 414.510799 
L 401.901878 235.751141 
L 402.434192 272.883373 
L 402.966506 273.621121 
L 404.563448 242.549074 
L 405.095762 379.880726 
L 405.628076 192.881707 
L 406.16039 124.631675 
L 406.692705 305.781381 
L 408.821961 202.630715 
L 409.354275 114.739526 
L 409.886589 316.271482 
L 410.418903 176.866004 
L 412.015846 269.329013 
L 412.54816 255.125951 
L 413.080474 87.95267 
L 413.612788 67.584613 
L 414.145102 404.710177 
L 415.742044 397.217197 
L 416.274358 313.796262 
L 416.806672 303.051073 
L 417.871301 356.018991 
L 419.468243 93.355495 
L 420.000557 468.290455 
L 420.532871 307.64389 
L 421.065185 207.180205 
L 421.597499 287.830808 
L 423.194442 351.665131 
L 423.726756 162.316973 
L 424.25907 280.245668 
L 424.791384 171.786025 
L 425.323698 265.9223 
L 426.92064 244.875492 
L 427.452955 350.931309 
L 427.985269 211.243227 
L 428.517583 120.281555 
L 429.049897 314.44912 
L 430.646839 217.139033 
L 431.179153 296.317863 
L 431.711467 228.124571 
L 432.776096 245.962988 
L 434.373038 228.233006 
L 434.905352 276.768842 
L 436.502294 345.488225 
L 438.099237 217.615112 
L 438.631551 282.590408 
L 439.163865 186.000554 
L 439.696179 263.227942 
L 440.228493 245.989556 
L 441.825435 242.777738 
L 442.357749 165.84595 
L 442.890064 166.997388 
L 443.954692 282.538483 
L 446.083948 135.22319 
L 446.616262 272.756069 
L 447.148576 315.554418 
L 447.680891 74.637386 
L 449.277833 312.214916 
L 449.810147 342.120964 
L 450.342461 314.221968 
L 450.874775 163.156516 
L 451.407089 182.755732 
L 453.004032 190.157843 
L 453.536346 224.732029 
L 454.06866 244.343115 
L 454.600974 199.716722 
L 455.133288 297.337265 
L 456.73023 472.031431 
L 457.262544 123.006219 
L 457.794859 304.489237 
L 458.327173 224.297102 
L 458.859487 226.342014 
L 460.988743 167.835727 
L 461.521057 267.718572 
L 462.053371 135.429904 
L 462.585685 146.079844 
L 464.182628 165.360554 
L 464.714942 302.027868 
L 465.247256 247.575936 
L 465.77957 276.400501 
L 466.311884 150.897976 
L 467.908826 75.794904 
L 468.973455 184.01122 
L 469.505769 252.866135 
L 470.038083 355.294608 
L 471.635025 339.086859 
L 472.167339 553.431145 
L 472.699653 188.801726 
L 473.231968 455.437609 
L 473.764282 268.691123 
L 475.361224 266.960126 
L 475.893538 316.595892 
L 476.425852 311.553073 
L 477.49048 162.351479 
L 479.087423 405.6235 
L 479.619737 257.064861 
L 480.152051 272.67683 
L 480.684365 322.708574 
L 481.216679 242.14453 
L 482.813621 126.277825 
L 483.345935 289.485732 
L 483.87825 269.842385 
L 484.410564 349.110484 
L 484.942878 290.278441 
L 486.53982 297.03513 
L 487.072134 179.548892 
L 487.604448 258.662658 
L 488.136762 362.644875 
L 490.266019 371.439858 
L 490.798333 174.649157 
L 491.330647 304.906953 
L 491.862961 319.738119 
L 492.395275 276.063281 
L 493.992218 117.245115 
L 494.524532 309.714552 
L 495.056846 274.071188 
L 495.58916 271.211405 
L 496.121474 291.459772 
L 498.25073 248.011388 
L 498.783045 289.816237 
L 499.315359 316.582627 
L 499.847673 265.341997 
L 501.444615 312.041135 
L 501.976929 260.194464 
L 502.509243 329.639899 
L 503.041557 294.422685 
L 503.573871 325.44618 
L 505.170814 221.587452 
L 505.703128 200.513813 
L 506.235442 165.735107 
L 506.767756 276.531043 
L 507.30007 237.530731 
L 508.897012 335.757233 
L 509.429327 287.800267 
L 509.961641 268.504326 
L 510.493955 196.197543 
L 511.026269 242.861747 
L 513.155525 295.895816 
L 513.687839 210.744091 
L 514.220154 285.107175 
L 514.752468 295.654716 
L 516.34941 305.522305 
L 516.881724 253.120726 
L 517.414038 224.357739 
L 517.946352 290.112832 
L 518.478666 235.100129 
L 520.075609 262.601139 
L 520.607923 261.396408 
L 521.140237 239.639038 
L 521.672551 267.478887 
L 522.204865 266.240222 
L 523.801807 216.157187 
L 524.334122 213.659443 
L 524.866436 191.133604 
L 525.39875 222.493266 
L 525.931064 277.807045 
L 527.528006 180.102913 
L 528.06032 271.478253 
L 528.592634 274.190303 
L 529.124948 282.340829 
L 529.657263 245.001223 
L 531.254205 261.581624 
L 531.786519 254.639016 
L 532.318833 268.520408 
L 532.851147 215.289703 
L 534.980404 263.037572 
L 535.512718 192.035332 
L 536.045032 215.150171 
L 536.577346 282.872076 
L 537.10966 248.139104 
L 538.706602 359.932526 
L 539.238916 285.605275 
L 539.771231 342.146654 
L 540.303545 281.3701 
L 540.835859 158.466901 
L 542.432801 262.991243 
L 542.965115 232.008709 
L 543.497429 282.781999 
L 544.029743 304.451661 
L 544.562057 271.073436 
L 546.159 299.033855 
L 546.691314 286.451155 
L 547.223628 225.977656 
L 547.755942 369.492457 
L 548.288256 295.868881 
L 549.885198 298.674153 
L 550.417513 272.035636 
L 550.949827 280.128875 
L 551.482141 297.069558 
L 552.014455 304.036889 
L 553.611397 245.710914 
L 554.143711 193.960493 
L 554.676025 276.429998 
L 555.740654 239.245402 
L 557.337596 193.243665 
L 557.86991 288.025506 
L 558.402224 252.979876 
L 558.934538 293.592936 
L 559.466852 306.75024 
L 561.063795 259.046553 
L 561.596109 271.636653 
L 562.128423 238.385149 
L 562.660737 269.412989 
L 563.193051 247.505691 
L 564.789993 239.215575 
L 565.322308 193.145201 
L 566.386936 290.786582 
L 566.91925 310.330857 
L 569.048506 332.622046 
L 569.58082 301.278511 
L 570.113134 252.500771 
L 570.645449 245.809209 
L 572.242391 334.073963 
L 572.774705 327.816709 
L 573.307019 359.04303 
L 573.839333 227.253901 
L 574.371647 244.459813 
L 575.96859 285.686907 
L 576.500904 284.336232 
L 577.033218 259.235465 
L 577.565532 219.405505 
L 579.694788 298.584166 
L 580.227102 255.322917 
L 580.759417 231.64888 
L 581.824045 196.694203 
L 583.420987 309.338045 
L 583.953301 285.743381 
L 584.485615 268.286402 
L 585.017929 266.237067 
L 585.550243 256.168585 
L 587.147186 275.240654 
L 587.6795 266.174277 
L 588.211814 304.357705 
L 588.744128 255.345994 
L 589.276442 189.745024 
L 590.873385 235.675188 
L 591.405699 233.209079 
L 591.938013 254.953471 
L 592.470327 240.123159 
L 593.002641 245.245457 
L 594.599583 239.68476 
L 595.131897 251.480897 
L 595.664211 203.524001 
L 596.196526 310.29917 
L 596.72884 191.89697 
L 598.325782 284.031097 
L 598.858096 243.20398 
L 599.39041 245.324817 
L 599.922724 287.541034 
L 600.455038 358.843703 
L 602.051981 314.584458 
L 602.584295 252.977524 
L 603.116609 265.352662 
L 603.648923 251.933516 
L 604.181237 250.850633 
L 605.778179 295.215967 
L 606.310494 262.231344 
L 606.842808 267.303519 
L 607.375122 226.405724 
L 607.907436 242.511066 
L 609.504378 304.557545 
L 610.036692 270.340765 
L 610.569006 266.252138 
L 611.633635 235.827762 
L 613.230577 268.357189 
L 613.762891 275.390336 
L 614.295205 250.079634 
L 614.827519 253.076541 
L 615.359833 280.449449 
L 616.956776 248.07167 
L 617.48909 223.275934 
L 618.021404 253.959297 
L 618.553718 254.980071 
L 619.086032 292.257511 
L 620.682974 263.264005 
L 621.215288 239.620098 
L 622.279917 270.553598 
L 622.812231 239.410176 
L 624.409173 258.101367 
L 624.941487 250.742189 
L 625.473801 252.804634 
L 626.006115 263.365714 
L 628.135372 249.59985 
L 628.667686 270.789077 
L 629.2 250.66237 
L 629.2 250.66237 
" style="fill:none;stroke:#1f77b4;stroke-linecap:square;stroke-width:1.5;"/>
   </g>
   <g id="line2d_17">
    <defs>
     <path d="M 0 3 
C 0.795609 3 1.55874 2.683901 2.12132 2.12132 
C 2.683901 1.55874 3 0.795609 3 0 
C 3 -0.795609 2.683901 -1.55874 2.12132 -2.12132 
C 1.55874 -2.683901 0.795609 -3 0 -3 
C -0.795609 -3 -1.55874 -2.683901 -2.12132 -2.12132 
C -2.683901 -1.55874 -3 -0.795609 -3 0 
C -3 0.795609 -2.683901 1.55874 -2.12132 2.12132 
C -1.55874 2.683901 -0.795609 3 0 3 
z
" id="m0fc9a2e1a6" style="stroke:#ff7f0e;"/>
    </defs>
    <g clip-path="url(#p288cbe0df7)">
     <use style="fill:#ff7f0e;stroke:#ff7f0e;" x="294.906743" xlink:href="#m0fc9a2e1a6" y="37.074719"/>
     <use style="fill:#ff7f0e;stroke:#ff7f0e;" x="387.529397" xlink:href="#m0fc9a2e1a6" y="95.781738"/>
     <use style="fill:#ff7f0e;stroke:#ff7f0e;" x="413.080474" xlink:href="#m0fc9a2e1a6" y="87.95267"/>
     <use style="fill:#ff7f0e;stroke:#ff7f0e;" x="413.612788" xlink:href="#m0fc9a2e1a6" y="67.584613"/>
     <use style="fill:#ff7f0e;stroke:#ff7f0e;" x="419.468243" xlink:href="#m0fc9a2e1a6" y="93.355495"/>
     <use style="fill:#ff7f0e;stroke:#ff7f0e;" x="447.680891" xlink:href="#m0fc9a2e1a6" y="74.637386"/>
     <use style="fill:#ff7f0e;stroke:#ff7f0e;" x="467.908826" xlink:href="#m0fc9a2e1a6" y="75.794904"/>
    </g>
   </g>
   <g id="patch_3">
    <path d="M 48.445312 579.248967 
L 48.445312 11.256897 
" style="fill:none;stroke:#000000;stroke-linecap:square;stroke-linejoin:miter;stroke-width:0.8;"/>
   </g>
   <g id="patch_4">
    <path d="M 629.2 579.248967 
L 629.2 11.256897 
" style="fill:none;stroke:#000000;stroke-linecap:square;stroke-linejoin:miter;stroke-width:0.8;"/>
   </g>
   <g id="patch_5">
    <path d="M 48.445312 579.248967 
L 629.2 579.248967 
" style="fill:none;stroke:#000000;stroke-linecap:square;stroke-linejoin:miter;stroke-width:0.8;"/>
   </g>
   <g id="patch_6">
    <path d="M 48.445312 11.256897 
L 629.2 11.256897 
" style="fill:none;stroke:#000000;stroke-linecap:square;stroke-linejoin:miter;stroke-width:0.8;"/>
   </g>
  </g>
 </g>
 <defs>
  <clipPath id="p288cbe0df7">
   <rect height="567.992069" width="580.754688" x="48.445312" y="11.256897"/>
  </clipPath>
 </defs>
</svg>
