<?xml version="1.0" encoding="utf-8" standalone="no"?>
<!DOCTYPE svg PUBLIC "-//W3C//DTD SVG 1.1//EN"
  "http://www.w3.org/Graphics/SVG/1.1/DTD/svg11.dtd">
<!-- Created with matplotlib (https://matplotlib.org/) -->
<svg height="640pt" version="1.1" viewBox="0 0 640 640" width="640pt" xmlns="http://www.w3.org/2000/svg" xmlns:xlink="http://www.w3.org/1999/xlink">
 <defs>
  <style type="text/css">
*{stroke-linecap:butt;stroke-linejoin:round;white-space:pre;}
  </style>
 </defs>
 <g id="figure_1">
  <g id="patch_1">
   <path d="M 0 640 
L 640 640 
L 640 0 
L 0 0 
z
" style="fill:#ffffff;"/>
  </g>
  <g id="axes_1">
   <g id="patch_2">
    <path d="M 30.525 612.521875 
L 629.2 612.521875 
L 629.2 10.8 
L 30.525 10.8 
z
" style="fill:#ffffff;"/>
   </g>
   <g id="patch_3">
    <path clip-path="url(#pef7343c8df)" d="M 57.7375 612.521875 
L 68.6225 612.521875 
L 68.6225 578.811966 
L 57.7375 578.811966 
z
" style="fill:#ff7f0e;opacity:0.3;"/>
   </g>
   <g id="patch_4">
    <path clip-path="url(#pef7343c8df)" d="M 68.6225 612.521875 
L 79.5075 612.521875 
L 79.5075 612.521875 
L 68.6225 612.521875 
z
" style="fill:#ff7f0e;opacity:0.3;"/>
   </g>
   <g id="patch_5">
    <path clip-path="url(#pef7343c8df)" d="M 79.5075 612.521875 
L 90.3925 612.521875 
L 90.3925 612.521875 
L 79.5075 612.521875 
z
" style="fill:#ff7f0e;opacity:0.3;"/>
   </g>
   <g id="patch_6">
    <path clip-path="url(#pef7343c8df)" d="M 90.3925 612.521875 
L 101.2775 612.521875 
L 101.2775 612.521875 
L 90.3925 612.521875 
z
" style="fill:#ff7f0e;opacity:0.3;"/>
   </g>
   <g id="patch_7">
    <path clip-path="url(#pef7343c8df)" d="M 101.2775 612.521875 
L 112.1625 612.521875 
L 112.1625 612.521875 
L 101.2775 612.521875 
z
" style="fill:#ff7f0e;opacity:0.3;"/>
   </g>
   <g id="patch_8">
    <path clip-path="url(#pef7343c8df)" d="M 112.1625 612.521875 
L 123.0475 612.521875 
L 123.0475 578.811966 
L 112.1625 578.811966 
z
" style="fill:#ff7f0e;opacity:0.3;"/>
   </g>
   <g id="patch_9">
    <path clip-path="url(#pef7343c8df)" d="M 123.0475 612.521875 
L 133.9325 612.521875 
L 133.9325 612.521875 
L 123.0475 612.521875 
z
" style="fill:#ff7f0e;opacity:0.3;"/>
   </g>
   <g id="patch_10">
    <path clip-path="url(#pef7343c8df)" d="M 133.9325 612.521875 
L 144.8175 612.521875 
L 144.8175 545.102057 
L 133.9325 545.102057 
z
" style="fill:#ff7f0e;opacity:0.3;"/>
   </g>
   <g id="patch_11">
    <path clip-path="url(#pef7343c8df)" d="M 144.8175 612.521875 
L 155.7025 612.521875 
L 155.7025 477.682239 
L 144.8175 477.682239 
z
" style="fill:#ff7f0e;opacity:0.3;"/>
   </g>
   <g id="patch_12">
    <path clip-path="url(#pef7343c8df)" d="M 155.7025 612.521875 
L 166.5875 612.521875 
L 166.5875 106.873241 
L 155.7025 106.873241 
z
" style="fill:#ff7f0e;opacity:0.3;"/>
   </g>
   <g id="patch_13">
    <path clip-path="url(#pef7343c8df)" d="M 166.5875 612.521875 
L 177.4725 612.521875 
L 177.4725 208.002967 
L 166.5875 208.002967 
z
" style="fill:#ff7f0e;opacity:0.3;"/>
   </g>
   <g id="patch_14">
    <path clip-path="url(#pef7343c8df)" d="M 177.4725 612.521875 
L 188.3575 612.521875 
L 188.3575 106.873241 
L 177.4725 106.873241 
z
" style="fill:#ff7f0e;opacity:0.3;"/>
   </g>
   <g id="patch_15">
    <path clip-path="url(#pef7343c8df)" d="M 188.3575 612.521875 
L 199.2425 612.521875 
L 199.2425 140.58315 
L 188.3575 140.58315 
z
" style="fill:#ff7f0e;opacity:0.3;"/>
   </g>
   <g id="patch_16">
    <path clip-path="url(#pef7343c8df)" d="M 199.2425 612.521875 
L 210.1275 612.521875 
L 210.1275 275.422785 
L 199.2425 275.422785 
z
" style="fill:#ff7f0e;opacity:0.3;"/>
   </g>
   <g id="patch_17">
    <path clip-path="url(#pef7343c8df)" d="M 210.1275 612.521875 
L 221.0125 612.521875 
L 221.0125 39.453423 
L 210.1275 39.453423 
z
" style="fill:#ff7f0e;opacity:0.3;"/>
   </g>
   <g id="patch_18">
    <path clip-path="url(#pef7343c8df)" d="M 221.0125 612.521875 
L 231.8975 612.521875 
L 231.8975 309.132694 
L 221.0125 309.132694 
z
" style="fill:#ff7f0e;opacity:0.3;"/>
   </g>
   <g id="patch_19">
    <path clip-path="url(#pef7343c8df)" d="M 231.8975 612.521875 
L 242.7825 612.521875 
L 242.7825 410.262421 
L 231.8975 410.262421 
z
" style="fill:#ff7f0e;opacity:0.3;"/>
   </g>
   <g id="patch_20">
    <path clip-path="url(#pef7343c8df)" d="M 242.7825 612.521875 
L 253.6675 612.521875 
L 253.6675 511.392148 
L 242.7825 511.392148 
z
" style="fill:#ff7f0e;opacity:0.3;"/>
   </g>
   <g id="patch_21">
    <path clip-path="url(#pef7343c8df)" d="M 253.6675 612.521875 
L 264.5525 612.521875 
L 264.5525 545.102057 
L 253.6675 545.102057 
z
" style="fill:#ff7f0e;opacity:0.3;"/>
   </g>
   <g id="patch_22">
    <path clip-path="url(#pef7343c8df)" d="M 264.5525 612.521875 
L 275.4375 612.521875 
L 275.4375 477.682239 
L 264.5525 477.682239 
z
" style="fill:#ff7f0e;opacity:0.3;"/>
   </g>
   <g id="patch_23">
    <path clip-path="url(#pef7343c8df)" d="M 275.4375 612.521875 
L 286.3225 612.521875 
L 286.3225 376.552512 
L 275.4375 376.552512 
z
" style="fill:#ff7f0e;opacity:0.3;"/>
   </g>
   <g id="patch_24">
    <path clip-path="url(#pef7343c8df)" d="M 286.3225 612.521875 
L 297.2075 612.521875 
L 297.2075 477.682239 
L 286.3225 477.682239 
z
" style="fill:#ff7f0e;opacity:0.3;"/>
   </g>
   <g id="patch_25">
    <path clip-path="url(#pef7343c8df)" d="M 297.2075 612.521875 
L 308.0925 612.521875 
L 308.0925 545.102057 
L 297.2075 545.102057 
z
" style="fill:#ff7f0e;opacity:0.3;"/>
   </g>
   <g id="patch_26">
    <path clip-path="url(#pef7343c8df)" d="M 308.0925 612.521875 
L 318.9775 612.521875 
L 318.9775 511.392148 
L 308.0925 511.392148 
z
" style="fill:#ff7f0e;opacity:0.3;"/>
   </g>
   <g id="patch_27">
    <path clip-path="url(#pef7343c8df)" d="M 318.9775 612.521875 
L 329.8625 612.521875 
L 329.8625 545.102057 
L 318.9775 545.102057 
z
" style="fill:#ff7f0e;opacity:0.3;"/>
   </g>
   <g id="patch_28">
    <path clip-path="url(#pef7343c8df)" d="M 329.8625 612.521875 
L 340.7475 612.521875 
L 340.7475 545.102057 
L 329.8625 545.102057 
z
" style="fill:#ff7f0e;opacity:0.3;"/>
   </g>
   <g id="patch_29">
    <path clip-path="url(#pef7343c8df)" d="M 340.7475 612.521875 
L 351.6325 612.521875 
L 351.6325 511.392148 
L 340.7475 511.392148 
z
" style="fill:#ff7f0e;opacity:0.3;"/>
   </g>
   <g id="patch_30">
    <path clip-path="url(#pef7343c8df)" d="M 351.6325 612.521875 
L 362.5175 612.521875 
L 362.5175 578.811966 
L 351.6325 578.811966 
z
" style="fill:#ff7f0e;opacity:0.3;"/>
   </g>
   <g id="patch_31">
    <path clip-path="url(#pef7343c8df)" d="M 362.5175 612.521875 
L 373.4025 612.521875 
L 373.4025 578.811966 
L 362.5175 578.811966 
z
" style="fill:#ff7f0e;opacity:0.3;"/>
   </g>
   <g id="patch_32">
    <path clip-path="url(#pef7343c8df)" d="M 373.4025 612.521875 
L 384.2875 612.521875 
L 384.2875 578.811966 
L 373.4025 578.811966 
z
" style="fill:#ff7f0e;opacity:0.3;"/>
   </g>
   <g id="patch_33">
    <path clip-path="url(#pef7343c8df)" d="M 384.2875 612.521875 
L 395.1725 612.521875 
L 395.1725 612.521875 
L 384.2875 612.521875 
z
" style="fill:#ff7f0e;opacity:0.3;"/>
   </g>
   <g id="patch_34">
    <path clip-path="url(#pef7343c8df)" d="M 395.1725 612.521875 
L 406.0575 612.521875 
L 406.0575 578.811966 
L 395.1725 578.811966 
z
" style="fill:#ff7f0e;opacity:0.3;"/>
   </g>
   <g id="patch_35">
    <path clip-path="url(#pef7343c8df)" d="M 406.0575 612.521875 
L 416.9425 612.521875 
L 416.9425 578.811966 
L 406.0575 578.811966 
z
" style="fill:#ff7f0e;opacity:0.3;"/>
   </g>
   <g id="patch_36">
    <path clip-path="url(#pef7343c8df)" d="M 416.9425 612.521875 
L 427.8275 612.521875 
L 427.8275 443.97233 
L 416.9425 443.97233 
z
" style="fill:#ff7f0e;opacity:0.3;"/>
   </g>
   <g id="patch_37">
    <path clip-path="url(#pef7343c8df)" d="M 427.8275 612.521875 
L 438.7125 612.521875 
L 438.7125 545.102057 
L 427.8275 545.102057 
z
" style="fill:#ff7f0e;opacity:0.3;"/>
   </g>
   <g id="patch_38">
    <path clip-path="url(#pef7343c8df)" d="M 438.7125 612.521875 
L 449.5975 612.521875 
L 449.5975 578.811966 
L 438.7125 578.811966 
z
" style="fill:#ff7f0e;opacity:0.3;"/>
   </g>
   <g id="patch_39">
    <path clip-path="url(#pef7343c8df)" d="M 449.5975 612.521875 
L 460.4825 612.521875 
L 460.4825 612.521875 
L 449.5975 612.521875 
z
" style="fill:#ff7f0e;opacity:0.3;"/>
   </g>
   <g id="patch_40">
    <path clip-path="url(#pef7343c8df)" d="M 460.4825 612.521875 
L 471.3675 612.521875 
L 471.3675 612.521875 
L 460.4825 612.521875 
z
" style="fill:#ff7f0e;opacity:0.3;"/>
   </g>
   <g id="patch_41">
    <path clip-path="url(#pef7343c8df)" d="M 471.3675 612.521875 
L 482.2525 612.521875 
L 482.2525 578.811966 
L 471.3675 578.811966 
z
" style="fill:#ff7f0e;opacity:0.3;"/>
   </g>
   <g id="patch_42">
    <path clip-path="url(#pef7343c8df)" d="M 482.2525 612.521875 
L 493.1375 612.521875 
L 493.1375 578.811966 
L 482.2525 578.811966 
z
" style="fill:#ff7f0e;opacity:0.3;"/>
   </g>
   <g id="patch_43">
    <path clip-path="url(#pef7343c8df)" d="M 493.1375 612.521875 
L 504.0225 612.521875 
L 504.0225 612.521875 
L 493.1375 612.521875 
z
" style="fill:#ff7f0e;opacity:0.3;"/>
   </g>
   <g id="patch_44">
    <path clip-path="url(#pef7343c8df)" d="M 504.0225 612.521875 
L 514.9075 612.521875 
L 514.9075 612.521875 
L 504.0225 612.521875 
z
" style="fill:#ff7f0e;opacity:0.3;"/>
   </g>
   <g id="patch_45">
    <path clip-path="url(#pef7343c8df)" d="M 514.9075 612.521875 
L 525.7925 612.521875 
L 525.7925 545.102057 
L 514.9075 545.102057 
z
" style="fill:#ff7f0e;opacity:0.3;"/>
   </g>
   <g id="patch_46">
    <path clip-path="url(#pef7343c8df)" d="M 525.7925 612.521875 
L 536.6775 612.521875 
L 536.6775 612.521875 
L 525.7925 612.521875 
z
" style="fill:#ff7f0e;opacity:0.3;"/>
   </g>
   <g id="patch_47">
    <path clip-path="url(#pef7343c8df)" d="M 536.6775 612.521875 
L 547.5625 612.521875 
L 547.5625 578.811966 
L 536.6775 578.811966 
z
" style="fill:#ff7f0e;opacity:0.3;"/>
   </g>
   <g id="patch_48">
    <path clip-path="url(#pef7343c8df)" d="M 547.5625 612.521875 
L 558.4475 612.521875 
L 558.4475 612.521875 
L 547.5625 612.521875 
z
" style="fill:#ff7f0e;opacity:0.3;"/>
   </g>
   <g id="patch_49">
    <path clip-path="url(#pef7343c8df)" d="M 558.4475 612.521875 
L 569.3325 612.521875 
L 569.3325 612.521875 
L 558.4475 612.521875 
z
" style="fill:#ff7f0e;opacity:0.3;"/>
   </g>
   <g id="patch_50">
    <path clip-path="url(#pef7343c8df)" d="M 569.3325 612.521875 
L 580.2175 612.521875 
L 580.2175 612.521875 
L 569.3325 612.521875 
z
" style="fill:#ff7f0e;opacity:0.3;"/>
   </g>
   <g id="patch_51">
    <path clip-path="url(#pef7343c8df)" d="M 580.2175 612.521875 
L 591.1025 612.521875 
L 591.1025 612.521875 
L 580.2175 612.521875 
z
" style="fill:#ff7f0e;opacity:0.3;"/>
   </g>
   <g id="patch_52">
    <path clip-path="url(#pef7343c8df)" d="M 591.1025 612.521875 
L 601.9875 612.521875 
L 601.9875 578.811966 
L 591.1025 578.811966 
z
" style="fill:#ff7f0e;opacity:0.3;"/>
   </g>
   <g id="matplotlib.axis_1">
    <g id="xtick_1">
     <g id="line2d_1">
      <defs>
       <path d="M 0 0 
L 0 3.5 
" id="m68bd283242" style="stroke:#000000;stroke-width:0.8;"/>
      </defs>
      <g>
       <use style="stroke:#000000;stroke-width:0.8;" x="78.704354" xlink:href="#m68bd283242" y="612.521875"/>
      </g>
     </g>
     <g id="text_1">
      <!-- −0.02 -->
      <defs>
       <path d="M 10.59375 35.5 
L 73.1875 35.5 
L 73.1875 27.203125 
L 10.59375 27.203125 
z
" id="DejaVuSans-8722"/>
       <path d="M 31.78125 66.40625 
Q 24.171875 66.40625 20.328125 58.90625 
Q 16.5 51.421875 16.5 36.375 
Q 16.5 21.390625 20.328125 13.890625 
Q 24.171875 6.390625 31.78125 6.390625 
Q 39.453125 6.390625 43.28125 13.890625 
Q 47.125 21.390625 47.125 36.375 
Q 47.125 51.421875 43.28125 58.90625 
Q 39.453125 66.40625 31.78125 66.40625 
z
M 31.78125 74.21875 
Q 44.046875 74.21875 50.515625 64.515625 
Q 56.984375 54.828125 56.984375 36.375 
Q 56.984375 17.96875 50.515625 8.265625 
Q 44.046875 -1.421875 31.78125 -1.421875 
Q 19.53125 -1.421875 13.0625 8.265625 
Q 6.59375 17.96875 6.59375 36.375 
Q 6.59375 54.828125 13.0625 64.515625 
Q 19.53125 74.21875 31.78125 74.21875 
z
" id="DejaVuSans-48"/>
       <path d="M 10.6875 12.40625 
L 21 12.40625 
L 21 0 
L 10.6875 0 
z
" id="DejaVuSans-46"/>
       <path d="M 19.1875 8.296875 
L 53.609375 8.296875 
L 53.609375 0 
L 7.328125 0 
L 7.328125 8.296875 
Q 12.9375 14.109375 22.625 23.890625 
Q 32.328125 33.6875 34.8125 36.53125 
Q 39.546875 41.84375 41.421875 45.53125 
Q 43.3125 49.21875 43.3125 52.78125 
Q 43.3125 58.59375 39.234375 62.25 
Q 35.15625 65.921875 28.609375 65.921875 
Q 23.96875 65.921875 18.8125 64.3125 
Q 13.671875 62.703125 7.8125 59.421875 
L 7.8125 69.390625 
Q 13.765625 71.78125 18.9375 73 
Q 24.125 74.21875 28.421875 74.21875 
Q 39.75 74.21875 46.484375 68.546875 
Q 53.21875 62.890625 53.21875 53.421875 
Q 53.21875 48.921875 51.53125 44.890625 
Q 49.859375 40.875 45.40625 35.40625 
Q 44.1875 33.984375 37.640625 27.21875 
Q 31.109375 20.453125 19.1875 8.296875 
z
" id="DejaVuSans-50"/>
      </defs>
      <g transform="translate(63.381698 627.120312)scale(0.1 -0.1)">
       <use xlink:href="#DejaVuSans-8722"/>
       <use x="83.789062" xlink:href="#DejaVuSans-48"/>
       <use x="147.412109" xlink:href="#DejaVuSans-46"/>
       <use x="179.199219" xlink:href="#DejaVuSans-48"/>
       <use x="242.822266" xlink:href="#DejaVuSans-50"/>
      </g>
     </g>
    </g>
    <g id="xtick_2">
     <g id="line2d_2">
      <g>
       <use style="stroke:#000000;stroke-width:0.8;" x="145.432173" xlink:href="#m68bd283242" y="612.521875"/>
      </g>
     </g>
     <g id="text_2">
      <!-- 0.00 -->
      <g transform="translate(134.299361 627.120312)scale(0.1 -0.1)">
       <use xlink:href="#DejaVuSans-48"/>
       <use x="63.623047" xlink:href="#DejaVuSans-46"/>
       <use x="95.410156" xlink:href="#DejaVuSans-48"/>
       <use x="159.033203" xlink:href="#DejaVuSans-48"/>
      </g>
     </g>
    </g>
    <g id="xtick_3">
     <g id="line2d_3">
      <g>
       <use style="stroke:#000000;stroke-width:0.8;" x="212.159992" xlink:href="#m68bd283242" y="612.521875"/>
      </g>
     </g>
     <g id="text_3">
      <!-- 0.02 -->
      <g transform="translate(201.02718 627.120312)scale(0.1 -0.1)">
       <use xlink:href="#DejaVuSans-48"/>
       <use x="63.623047" xlink:href="#DejaVuSans-46"/>
       <use x="95.410156" xlink:href="#DejaVuSans-48"/>
       <use x="159.033203" xlink:href="#DejaVuSans-50"/>
      </g>
     </g>
    </g>
    <g id="xtick_4">
     <g id="line2d_4">
      <g>
       <use style="stroke:#000000;stroke-width:0.8;" x="278.887811" xlink:href="#m68bd283242" y="612.521875"/>
      </g>
     </g>
     <g id="text_4">
      <!-- 0.04 -->
      <defs>
       <path d="M 37.796875 64.3125 
L 12.890625 25.390625 
L 37.796875 25.390625 
z
M 35.203125 72.90625 
L 47.609375 72.90625 
L 47.609375 25.390625 
L 58.015625 25.390625 
L 58.015625 17.1875 
L 47.609375 17.1875 
L 47.609375 0 
L 37.796875 0 
L 37.796875 17.1875 
L 4.890625 17.1875 
L 4.890625 26.703125 
z
" id="DejaVuSans-52"/>
      </defs>
      <g transform="translate(267.754999 627.120312)scale(0.1 -0.1)">
       <use xlink:href="#DejaVuSans-48"/>
       <use x="63.623047" xlink:href="#DejaVuSans-46"/>
       <use x="95.410156" xlink:href="#DejaVuSans-48"/>
       <use x="159.033203" xlink:href="#DejaVuSans-52"/>
      </g>
     </g>
    </g>
    <g id="xtick_5">
     <g id="line2d_5">
      <g>
       <use style="stroke:#000000;stroke-width:0.8;" x="345.61563" xlink:href="#m68bd283242" y="612.521875"/>
      </g>
     </g>
     <g id="text_5">
      <!-- 0.06 -->
      <defs>
       <path d="M 33.015625 40.375 
Q 26.375 40.375 22.484375 35.828125 
Q 18.609375 31.296875 18.609375 23.390625 
Q 18.609375 15.53125 22.484375 10.953125 
Q 26.375 6.390625 33.015625 6.390625 
Q 39.65625 6.390625 43.53125 10.953125 
Q 47.40625 15.53125 47.40625 23.390625 
Q 47.40625 31.296875 43.53125 35.828125 
Q 39.65625 40.375 33.015625 40.375 
z
M 52.59375 71.296875 
L 52.59375 62.3125 
Q 48.875 64.0625 45.09375 64.984375 
Q 41.3125 65.921875 37.59375 65.921875 
Q 27.828125 65.921875 22.671875 59.328125 
Q 17.53125 52.734375 16.796875 39.40625 
Q 19.671875 43.65625 24.015625 45.921875 
Q 28.375 48.1875 33.59375 48.1875 
Q 44.578125 48.1875 50.953125 41.515625 
Q 57.328125 34.859375 57.328125 23.390625 
Q 57.328125 12.15625 50.6875 5.359375 
Q 44.046875 -1.421875 33.015625 -1.421875 
Q 20.359375 -1.421875 13.671875 8.265625 
Q 6.984375 17.96875 6.984375 36.375 
Q 6.984375 53.65625 15.1875 63.9375 
Q 23.390625 74.21875 37.203125 74.21875 
Q 40.921875 74.21875 44.703125 73.484375 
Q 48.484375 72.75 52.59375 71.296875 
z
" id="DejaVuSans-54"/>
      </defs>
      <g transform="translate(334.482818 627.120312)scale(0.1 -0.1)">
       <use xlink:href="#DejaVuSans-48"/>
       <use x="63.623047" xlink:href="#DejaVuSans-46"/>
       <use x="95.410156" xlink:href="#DejaVuSans-48"/>
       <use x="159.033203" xlink:href="#DejaVuSans-54"/>
      </g>
     </g>
    </g>
    <g id="xtick_6">
     <g id="line2d_6">
      <g>
       <use style="stroke:#000000;stroke-width:0.8;" x="412.343449" xlink:href="#m68bd283242" y="612.521875"/>
      </g>
     </g>
     <g id="text_6">
      <!-- 0.08 -->
      <defs>
       <path d="M 31.78125 34.625 
Q 24.75 34.625 20.71875 30.859375 
Q 16.703125 27.09375 16.703125 20.515625 
Q 16.703125 13.921875 20.71875 10.15625 
Q 24.75 6.390625 31.78125 6.390625 
Q 38.8125 6.390625 42.859375 10.171875 
Q 46.921875 13.96875 46.921875 20.515625 
Q 46.921875 27.09375 42.890625 30.859375 
Q 38.875 34.625 31.78125 34.625 
z
M 21.921875 38.8125 
Q 15.578125 40.375 12.03125 44.71875 
Q 8.5 49.078125 8.5 55.328125 
Q 8.5 64.0625 14.71875 69.140625 
Q 20.953125 74.21875 31.78125 74.21875 
Q 42.671875 74.21875 48.875 69.140625 
Q 55.078125 64.0625 55.078125 55.328125 
Q 55.078125 49.078125 51.53125 44.71875 
Q 48 40.375 41.703125 38.8125 
Q 48.828125 37.15625 52.796875 32.3125 
Q 56.78125 27.484375 56.78125 20.515625 
Q 56.78125 9.90625 50.3125 4.234375 
Q 43.84375 -1.421875 31.78125 -1.421875 
Q 19.734375 -1.421875 13.25 4.234375 
Q 6.78125 9.90625 6.78125 20.515625 
Q 6.78125 27.484375 10.78125 32.3125 
Q 14.796875 37.15625 21.921875 38.8125 
z
M 18.3125 54.390625 
Q 18.3125 48.734375 21.84375 45.5625 
Q 25.390625 42.390625 31.78125 42.390625 
Q 38.140625 42.390625 41.71875 45.5625 
Q 45.3125 48.734375 45.3125 54.390625 
Q 45.3125 60.0625 41.71875 63.234375 
Q 38.140625 66.40625 31.78125 66.40625 
Q 25.390625 66.40625 21.84375 63.234375 
Q 18.3125 60.0625 18.3125 54.390625 
z
" id="DejaVuSans-56"/>
      </defs>
      <g transform="translate(401.210637 627.120312)scale(0.1 -0.1)">
       <use xlink:href="#DejaVuSans-48"/>
       <use x="63.623047" xlink:href="#DejaVuSans-46"/>
       <use x="95.410156" xlink:href="#DejaVuSans-48"/>
       <use x="159.033203" xlink:href="#DejaVuSans-56"/>
      </g>
     </g>
    </g>
    <g id="xtick_7">
     <g id="line2d_7">
      <g>
       <use style="stroke:#000000;stroke-width:0.8;" x="479.071268" xlink:href="#m68bd283242" y="612.521875"/>
      </g>
     </g>
     <g id="text_7">
      <!-- 0.10 -->
      <defs>
       <path d="M 12.40625 8.296875 
L 28.515625 8.296875 
L 28.515625 63.921875 
L 10.984375 60.40625 
L 10.984375 69.390625 
L 28.421875 72.90625 
L 38.28125 72.90625 
L 38.28125 8.296875 
L 54.390625 8.296875 
L 54.390625 0 
L 12.40625 0 
z
" id="DejaVuSans-49"/>
      </defs>
      <g transform="translate(467.938456 627.120312)scale(0.1 -0.1)">
       <use xlink:href="#DejaVuSans-48"/>
       <use x="63.623047" xlink:href="#DejaVuSans-46"/>
       <use x="95.410156" xlink:href="#DejaVuSans-49"/>
       <use x="159.033203" xlink:href="#DejaVuSans-48"/>
      </g>
     </g>
    </g>
    <g id="xtick_8">
     <g id="line2d_8">
      <g>
       <use style="stroke:#000000;stroke-width:0.8;" x="545.799087" xlink:href="#m68bd283242" y="612.521875"/>
      </g>
     </g>
     <g id="text_8">
      <!-- 0.12 -->
      <g transform="translate(534.666274 627.120312)scale(0.1 -0.1)">
       <use xlink:href="#DejaVuSans-48"/>
       <use x="63.623047" xlink:href="#DejaVuSans-46"/>
       <use x="95.410156" xlink:href="#DejaVuSans-49"/>
       <use x="159.033203" xlink:href="#DejaVuSans-50"/>
      </g>
     </g>
    </g>
    <g id="xtick_9">
     <g id="line2d_9">
      <g>
       <use style="stroke:#000000;stroke-width:0.8;" x="612.526906" xlink:href="#m68bd283242" y="612.521875"/>
      </g>
     </g>
     <g id="text_9">
      <!-- 0.14 -->
      <g transform="translate(601.394093 627.120312)scale(0.1 -0.1)">
       <use xlink:href="#DejaVuSans-48"/>
       <use x="63.623047" xlink:href="#DejaVuSans-46"/>
       <use x="95.410156" xlink:href="#DejaVuSans-49"/>
       <use x="159.033203" xlink:href="#DejaVuSans-52"/>
      </g>
     </g>
    </g>
   </g>
   <g id="matplotlib.axis_2">
    <g id="ytick_1">
     <g id="line2d_10">
      <defs>
       <path d="M 0 0 
L -3.5 0 
" id="m8d5c3cb52a" style="stroke:#000000;stroke-width:0.8;"/>
      </defs>
      <g>
       <use style="stroke:#000000;stroke-width:0.8;" x="30.525" xlink:href="#m8d5c3cb52a" y="612.521875"/>
      </g>
     </g>
     <g id="text_10">
      <!-- 0 -->
      <g transform="translate(17.1625 616.321094)scale(0.1 -0.1)">
       <use xlink:href="#DejaVuSans-48"/>
      </g>
     </g>
    </g>
    <g id="ytick_2">
     <g id="line2d_11">
      <g>
       <use style="stroke:#000000;stroke-width:0.8;" x="30.525" xlink:href="#m8d5c3cb52a" y="526.188497"/>
      </g>
     </g>
     <g id="text_11">
      <!-- 5 -->
      <defs>
       <path d="M 10.796875 72.90625 
L 49.515625 72.90625 
L 49.515625 64.59375 
L 19.828125 64.59375 
L 19.828125 46.734375 
Q 21.96875 47.46875 24.109375 47.828125 
Q 26.265625 48.1875 28.421875 48.1875 
Q 40.625 48.1875 47.75 41.5 
Q 54.890625 34.8125 54.890625 23.390625 
Q 54.890625 11.625 47.5625 5.09375 
Q 40.234375 -1.421875 26.90625 -1.421875 
Q 22.3125 -1.421875 17.546875 -0.640625 
Q 12.796875 0.140625 7.71875 1.703125 
L 7.71875 11.625 
Q 12.109375 9.234375 16.796875 8.0625 
Q 21.484375 6.890625 26.703125 6.890625 
Q 35.15625 6.890625 40.078125 11.328125 
Q 45.015625 15.765625 45.015625 23.390625 
Q 45.015625 31 40.078125 35.4375 
Q 35.15625 39.890625 26.703125 39.890625 
Q 22.75 39.890625 18.8125 39.015625 
Q 14.890625 38.140625 10.796875 36.28125 
z
" id="DejaVuSans-53"/>
      </defs>
      <g transform="translate(17.1625 529.987715)scale(0.1 -0.1)">
       <use xlink:href="#DejaVuSans-53"/>
      </g>
     </g>
    </g>
    <g id="ytick_3">
     <g id="line2d_12">
      <g>
       <use style="stroke:#000000;stroke-width:0.8;" x="30.525" xlink:href="#m8d5c3cb52a" y="439.855118"/>
      </g>
     </g>
     <g id="text_12">
      <!-- 10 -->
      <g transform="translate(10.8 443.654337)scale(0.1 -0.1)">
       <use xlink:href="#DejaVuSans-49"/>
       <use x="63.623047" xlink:href="#DejaVuSans-48"/>
      </g>
     </g>
    </g>
    <g id="ytick_4">
     <g id="line2d_13">
      <g>
       <use style="stroke:#000000;stroke-width:0.8;" x="30.525" xlink:href="#m8d5c3cb52a" y="353.52174"/>
      </g>
     </g>
     <g id="text_13">
      <!-- 15 -->
      <g transform="translate(10.8 357.320959)scale(0.1 -0.1)">
       <use xlink:href="#DejaVuSans-49"/>
       <use x="63.623047" xlink:href="#DejaVuSans-53"/>
      </g>
     </g>
    </g>
    <g id="ytick_5">
     <g id="line2d_14">
      <g>
       <use style="stroke:#000000;stroke-width:0.8;" x="30.525" xlink:href="#m8d5c3cb52a" y="267.188362"/>
      </g>
     </g>
     <g id="text_14">
      <!-- 20 -->
      <g transform="translate(10.8 270.987581)scale(0.1 -0.1)">
       <use xlink:href="#DejaVuSans-50"/>
       <use x="63.623047" xlink:href="#DejaVuSans-48"/>
      </g>
     </g>
    </g>
    <g id="ytick_6">
     <g id="line2d_15">
      <g>
       <use style="stroke:#000000;stroke-width:0.8;" x="30.525" xlink:href="#m8d5c3cb52a" y="180.854983"/>
      </g>
     </g>
     <g id="text_15">
      <!-- 25 -->
      <g transform="translate(10.8 184.654202)scale(0.1 -0.1)">
       <use xlink:href="#DejaVuSans-50"/>
       <use x="63.623047" xlink:href="#DejaVuSans-53"/>
      </g>
     </g>
    </g>
    <g id="ytick_7">
     <g id="line2d_16">
      <g>
       <use style="stroke:#000000;stroke-width:0.8;" x="30.525" xlink:href="#m8d5c3cb52a" y="94.521605"/>
      </g>
     </g>
     <g id="text_16">
      <!-- 30 -->
      <defs>
       <path d="M 40.578125 39.3125 
Q 47.65625 37.796875 51.625 33 
Q 55.609375 28.21875 55.609375 21.1875 
Q 55.609375 10.40625 48.1875 4.484375 
Q 40.765625 -1.421875 27.09375 -1.421875 
Q 22.515625 -1.421875 17.65625 -0.515625 
Q 12.796875 0.390625 7.625 2.203125 
L 7.625 11.71875 
Q 11.71875 9.328125 16.59375 8.109375 
Q 21.484375 6.890625 26.8125 6.890625 
Q 36.078125 6.890625 40.9375 10.546875 
Q 45.796875 14.203125 45.796875 21.1875 
Q 45.796875 27.640625 41.28125 31.265625 
Q 36.765625 34.90625 28.71875 34.90625 
L 20.21875 34.90625 
L 20.21875 43.015625 
L 29.109375 43.015625 
Q 36.375 43.015625 40.234375 45.921875 
Q 44.09375 48.828125 44.09375 54.296875 
Q 44.09375 59.90625 40.109375 62.90625 
Q 36.140625 65.921875 28.71875 65.921875 
Q 24.65625 65.921875 20.015625 65.03125 
Q 15.375 64.15625 9.8125 62.3125 
L 9.8125 71.09375 
Q 15.4375 72.65625 20.34375 73.4375 
Q 25.25 74.21875 29.59375 74.21875 
Q 40.828125 74.21875 47.359375 69.109375 
Q 53.90625 64.015625 53.90625 55.328125 
Q 53.90625 49.265625 50.4375 45.09375 
Q 46.96875 40.921875 40.578125 39.3125 
z
" id="DejaVuSans-51"/>
      </defs>
      <g transform="translate(10.8 98.320824)scale(0.1 -0.1)">
       <use xlink:href="#DejaVuSans-51"/>
       <use x="63.623047" xlink:href="#DejaVuSans-48"/>
      </g>
     </g>
    </g>
   </g>
   <g id="line2d_17">
    <path clip-path="url(#pef7343c8df)" d="M 57.7375 612.484351 
L 63.234975 612.396564 
L 68.732449 612.159664 
L 74.229924 611.600153 
L 79.727399 610.425975 
L 85.224874 608.207261 
L 90.722348 604.388123 
L 96.219823 598.338138 
L 101.717298 589.439087 
L 107.214773 577.18963 
L 112.712247 561.303517 
L 118.209722 541.778438 
L 123.707197 518.921062 
L 129.204672 493.325497 
L 134.702146 465.81293 
L 140.199621 437.346829 
L 145.697096 408.940068 
L 151.194571 381.568352 
L 156.692045 356.100066 
L 162.18952 333.247776 
L 167.686995 313.542166 
L 173.18447 297.326059 
L 178.681944 284.764287 
L 184.179419 275.864561 
L 189.676894 270.50465 
L 195.174369 268.461975 
L 200.671843 269.442597 
L 206.169318 273.107622 
L 211.666793 279.095833 
L 217.164268 287.042084 
L 222.661742 296.591443 
L 228.159217 307.409422 
L 233.656692 319.188793 
L 239.154167 331.653569 
L 244.651641 344.560744 
L 250.149116 357.700322 
L 255.646591 370.894121 
L 261.144066 383.993743 
L 266.64154 396.878033 
L 272.139015 409.450273 
L 277.63649 421.635301 
L 283.133965 433.376679 
L 288.631439 444.634008 
L 294.128914 455.380449 
L 299.626389 465.600466 
L 305.123864 475.28782 
L 310.621338 484.443805 
L 316.118813 493.075713 
L 321.616288 501.195522 
L 327.113763 508.818779 
L 332.611237 515.963661 
L 338.108712 522.650194 
L 343.606187 528.89961 
L 349.103662 534.733825 
L 354.601136 540.175016 
L 360.098611 545.245284 
L 365.596086 549.966396 
L 371.093561 554.359582 
L 376.591035 558.445388 
L 382.08851 562.243565 
L 387.585985 565.772998 
L 393.08346 569.051658 
L 398.580934 572.096582 
L 404.078409 574.923863 
L 409.575884 577.548657 
L 415.073359 579.985207 
L 420.570833 582.246861 
L 426.068308 584.346112 
L 431.565783 586.294626 
L 437.063258 588.103287 
L 442.560732 589.782233 
L 448.058207 591.340897 
L 453.555682 592.788049 
L 459.053157 594.131837 
L 464.550631 595.379821 
L 470.048106 596.539018 
L 475.545581 597.61593 
L 481.043056 598.616587 
L 486.54053 599.546571 
L 492.038005 600.411055 
L 497.53548 601.214828 
L 503.032955 601.962323 
L 508.530429 602.657643 
L 514.027904 603.304585 
L 519.525379 603.906664 
L 525.022854 604.467133 
L 530.520328 604.989001 
L 536.017803 605.475052 
L 541.515278 605.927865 
L 547.012753 606.349826 
L 552.510227 606.743141 
L 558.007702 607.109856 
L 563.505177 607.451864 
L 569.002652 607.770915 
L 574.500126 608.068634 
L 579.997601 608.346524 
L 585.495076 608.605977 
L 590.992551 608.848285 
L 596.490025 609.074642 
L 601.9875 609.286158 
" style="fill:none;stroke:#1f77b4;stroke-linecap:square;stroke-width:1.5;"/>
   </g>
   <g id="patch_53">
    <path d="M 30.525 612.521875 
L 30.525 10.8 
" style="fill:none;stroke:#000000;stroke-linecap:square;stroke-linejoin:miter;stroke-width:0.8;"/>
   </g>
   <g id="patch_54">
    <path d="M 629.2 612.521875 
L 629.2 10.8 
" style="fill:none;stroke:#000000;stroke-linecap:square;stroke-linejoin:miter;stroke-width:0.8;"/>
   </g>
   <g id="patch_55">
    <path d="M 30.525 612.521875 
L 629.2 612.521875 
" style="fill:none;stroke:#000000;stroke-linecap:square;stroke-linejoin:miter;stroke-width:0.8;"/>
   </g>
   <g id="patch_56">
    <path d="M 30.525 10.8 
L 629.2 10.8 
" style="fill:none;stroke:#000000;stroke-linecap:square;stroke-linejoin:miter;stroke-width:0.8;"/>
   </g>
  </g>
 </g>
 <defs>
  <clipPath id="pef7343c8df">
   <rect height="601.721875" width="598.675" x="30.525" y="10.8"/>
  </clipPath>
 </defs>
</svg>
