<?xml version="1.0" encoding="utf-8" standalone="no"?>
<!DOCTYPE svg PUBLIC "-//W3C//DTD SVG 1.1//EN"
  "http://www.w3.org/Graphics/SVG/1.1/DTD/svg11.dtd">
<!-- Created with matplotlib (https://matplotlib.org/) -->
<svg height="289pt" version="1.1" viewBox="0 0 372 289" width="372pt" xmlns="http://www.w3.org/2000/svg" xmlns:xlink="http://www.w3.org/1999/xlink">
 <defs>
  <style type="text/css">
*{stroke-linecap:butt;stroke-linejoin:round;white-space:pre;}
  </style>
 </defs>
 <g id="figure_1">
  <g id="patch_1">
   <path d="M 0 289 
L 372 289 
L 372 0 
L 0 0 
z
" style="fill:#ffffff;"/>
  </g>
  <g id="axes_1">
   <g id="patch_2">
    <path d="M 44.203125 247.84375 
L 361.2 247.84375 
L 361.2 25.918125 
L 44.203125 25.918125 
z
" style="fill:#ffffff;"/>
   </g>
   <g id="patch_3">
    <path clip-path="url(#p8fffd89834)" d="M 58.612074 247.84375 
L 64.375653 247.84375 
L 64.375653 247.416717 
L 58.612074 247.416717 
z
" style="fill:#1f77b4;"/>
   </g>
   <g id="patch_4">
    <path clip-path="url(#p8fffd89834)" d="M 64.375653 247.84375 
L 70.139233 247.84375 
L 70.139233 247.84375 
L 64.375653 247.84375 
z
" style="fill:#1f77b4;"/>
   </g>
   <g id="patch_5">
    <path clip-path="url(#p8fffd89834)" d="M 70.139233 247.84375 
L 75.902813 247.84375 
L 75.902813 247.84375 
L 70.139233 247.84375 
z
" style="fill:#1f77b4;"/>
   </g>
   <g id="patch_6">
    <path clip-path="url(#p8fffd89834)" d="M 75.902812 247.84375 
L 81.666392 247.84375 
L 81.666392 247.416717 
L 75.902812 247.416717 
z
" style="fill:#1f77b4;"/>
   </g>
   <g id="patch_7">
    <path clip-path="url(#p8fffd89834)" d="M 81.666392 247.84375 
L 87.429972 247.84375 
L 87.429972 247.84375 
L 81.666392 247.84375 
z
" style="fill:#1f77b4;"/>
   </g>
   <g id="patch_8">
    <path clip-path="url(#p8fffd89834)" d="M 87.429972 247.84375 
L 93.193551 247.84375 
L 93.193551 247.84375 
L 87.429972 247.84375 
z
" style="fill:#1f77b4;"/>
   </g>
   <g id="patch_9">
    <path clip-path="url(#p8fffd89834)" d="M 93.193551 247.84375 
L 98.957131 247.84375 
L 98.957131 247.84375 
L 93.193551 247.84375 
z
" style="fill:#1f77b4;"/>
   </g>
   <g id="patch_10">
    <path clip-path="url(#p8fffd89834)" d="M 98.957131 247.84375 
L 104.72071 247.84375 
L 104.72071 247.84375 
L 98.957131 247.84375 
z
" style="fill:#1f77b4;"/>
   </g>
   <g id="patch_11">
    <path clip-path="url(#p8fffd89834)" d="M 104.72071 247.84375 
L 110.48429 247.84375 
L 110.48429 246.989684 
L 104.72071 246.989684 
z
" style="fill:#1f77b4;"/>
   </g>
   <g id="patch_12">
    <path clip-path="url(#p8fffd89834)" d="M 110.48429 247.84375 
L 116.247869 247.84375 
L 116.247869 247.84375 
L 110.48429 247.84375 
z
" style="fill:#1f77b4;"/>
   </g>
   <g id="patch_13">
    <path clip-path="url(#p8fffd89834)" d="M 116.247869 247.84375 
L 122.011449 247.84375 
L 122.011449 247.84375 
L 116.247869 247.84375 
z
" style="fill:#1f77b4;"/>
   </g>
   <g id="patch_14">
    <path clip-path="url(#p8fffd89834)" d="M 122.011449 247.84375 
L 127.775028 247.84375 
L 127.775028 247.84375 
L 122.011449 247.84375 
z
" style="fill:#1f77b4;"/>
   </g>
   <g id="patch_15">
    <path clip-path="url(#p8fffd89834)" d="M 127.775028 247.84375 
L 133.538608 247.84375 
L 133.538608 247.84375 
L 127.775028 247.84375 
z
" style="fill:#1f77b4;"/>
   </g>
   <g id="patch_16">
    <path clip-path="url(#p8fffd89834)" d="M 133.538608 247.84375 
L 139.302188 247.84375 
L 139.302188 246.989684 
L 133.538608 246.989684 
z
" style="fill:#1f77b4;"/>
   </g>
   <g id="patch_17">
    <path clip-path="url(#p8fffd89834)" d="M 139.302187 247.84375 
L 145.065767 247.84375 
L 145.065767 247.84375 
L 139.302187 247.84375 
z
" style="fill:#1f77b4;"/>
   </g>
   <g id="patch_18">
    <path clip-path="url(#p8fffd89834)" d="M 145.065767 247.84375 
L 150.829347 247.84375 
L 150.829347 247.84375 
L 145.065767 247.84375 
z
" style="fill:#1f77b4;"/>
   </g>
   <g id="patch_19">
    <path clip-path="url(#p8fffd89834)" d="M 150.829347 247.84375 
L 156.592926 247.84375 
L 156.592926 247.84375 
L 150.829347 247.84375 
z
" style="fill:#1f77b4;"/>
   </g>
   <g id="patch_20">
    <path clip-path="url(#p8fffd89834)" d="M 156.592926 247.84375 
L 162.356506 247.84375 
L 162.356506 247.416717 
L 156.592926 247.416717 
z
" style="fill:#1f77b4;"/>
   </g>
   <g id="patch_21">
    <path clip-path="url(#p8fffd89834)" d="M 162.356506 247.84375 
L 168.120085 247.84375 
L 168.120085 246.989684 
L 162.356506 246.989684 
z
" style="fill:#1f77b4;"/>
   </g>
   <g id="patch_22">
    <path clip-path="url(#p8fffd89834)" d="M 168.120085 247.84375 
L 173.883665 247.84375 
L 173.883665 246.989684 
L 168.120085 246.989684 
z
" style="fill:#1f77b4;"/>
   </g>
   <g id="patch_23">
    <path clip-path="url(#p8fffd89834)" d="M 173.883665 247.84375 
L 179.647244 247.84375 
L 179.647244 247.416717 
L 173.883665 247.416717 
z
" style="fill:#1f77b4;"/>
   </g>
   <g id="patch_24">
    <path clip-path="url(#p8fffd89834)" d="M 179.647244 247.84375 
L 185.410824 247.84375 
L 185.410824 246.989684 
L 179.647244 246.989684 
z
" style="fill:#1f77b4;"/>
   </g>
   <g id="patch_25">
    <path clip-path="url(#p8fffd89834)" d="M 185.410824 247.84375 
L 191.174403 247.84375 
L 191.174403 246.56265 
L 185.410824 246.56265 
z
" style="fill:#1f77b4;"/>
   </g>
   <g id="patch_26">
    <path clip-path="url(#p8fffd89834)" d="M 191.174403 247.84375 
L 196.937983 247.84375 
L 196.937983 245.708584 
L 191.174403 245.708584 
z
" style="fill:#1f77b4;"/>
   </g>
   <g id="patch_27">
    <path clip-path="url(#p8fffd89834)" d="M 196.937983 247.84375 
L 202.701562 247.84375 
L 202.701562 245.281551 
L 196.937983 245.281551 
z
" style="fill:#1f77b4;"/>
   </g>
   <g id="patch_28">
    <path clip-path="url(#p8fffd89834)" d="M 202.701562 247.84375 
L 208.465142 247.84375 
L 208.465142 241.865285 
L 202.701562 241.865285 
z
" style="fill:#1f77b4;"/>
   </g>
   <g id="patch_29">
    <path clip-path="url(#p8fffd89834)" d="M 208.465142 247.84375 
L 214.228722 247.84375 
L 214.228722 243.146385 
L 208.465142 243.146385 
z
" style="fill:#1f77b4;"/>
   </g>
   <g id="patch_30">
    <path clip-path="url(#p8fffd89834)" d="M 214.228722 247.84375 
L 219.992301 247.84375 
L 219.992301 239.303086 
L 214.228722 239.303086 
z
" style="fill:#1f77b4;"/>
   </g>
   <g id="patch_31">
    <path clip-path="url(#p8fffd89834)" d="M 219.992301 247.84375 
L 225.755881 247.84375 
L 225.755881 231.189456 
L 219.992301 231.189456 
z
" style="fill:#1f77b4;"/>
   </g>
   <g id="patch_32">
    <path clip-path="url(#p8fffd89834)" d="M 225.755881 247.84375 
L 231.51946 247.84375 
L 231.51946 214.535161 
L 225.755881 214.535161 
z
" style="fill:#1f77b4;"/>
   </g>
   <g id="patch_33">
    <path clip-path="url(#p8fffd89834)" d="M 231.51946 247.84375 
L 237.28304 247.84375 
L 237.28304 152.615349 
L 231.51946 152.615349 
z
" style="fill:#1f77b4;"/>
   </g>
   <g id="patch_34">
    <path clip-path="url(#p8fffd89834)" d="M 237.28304 247.84375 
L 243.046619 247.84375 
L 243.046619 52.689583 
L 237.28304 52.689583 
z
" style="fill:#1f77b4;"/>
   </g>
   <g id="patch_35">
    <path clip-path="url(#p8fffd89834)" d="M 243.046619 247.84375 
L 248.810199 247.84375 
L 248.810199 103.933565 
L 243.046619 103.933565 
z
" style="fill:#1f77b4;"/>
   </g>
   <g id="patch_36">
    <path clip-path="url(#p8fffd89834)" d="M 248.810199 247.84375 
L 254.573778 247.84375 
L 254.573778 188.059104 
L 248.810199 188.059104 
z
" style="fill:#1f77b4;"/>
   </g>
   <g id="patch_37">
    <path clip-path="url(#p8fffd89834)" d="M 254.573778 247.84375 
L 260.337358 247.84375 
L 260.337358 221.367692 
L 254.573778 221.367692 
z
" style="fill:#1f77b4;"/>
   </g>
   <g id="patch_38">
    <path clip-path="url(#p8fffd89834)" d="M 260.337358 247.84375 
L 266.100937 247.84375 
L 266.100937 232.470555 
L 260.337358 232.470555 
z
" style="fill:#1f77b4;"/>
   </g>
   <g id="patch_39">
    <path clip-path="url(#p8fffd89834)" d="M 266.100937 247.84375 
L 271.864517 247.84375 
L 271.864517 237.594953 
L 266.100937 237.594953 
z
" style="fill:#1f77b4;"/>
   </g>
   <g id="patch_40">
    <path clip-path="url(#p8fffd89834)" d="M 271.864517 247.84375 
L 277.628097 247.84375 
L 277.628097 243.573418 
L 271.864517 243.573418 
z
" style="fill:#1f77b4;"/>
   </g>
   <g id="patch_41">
    <path clip-path="url(#p8fffd89834)" d="M 277.628097 247.84375 
L 283.391676 247.84375 
L 283.391676 244.000451 
L 277.628097 244.000451 
z
" style="fill:#1f77b4;"/>
   </g>
   <g id="patch_42">
    <path clip-path="url(#p8fffd89834)" d="M 283.391676 247.84375 
L 289.155256 247.84375 
L 289.155256 246.989684 
L 283.391676 246.989684 
z
" style="fill:#1f77b4;"/>
   </g>
   <g id="patch_43">
    <path clip-path="url(#p8fffd89834)" d="M 289.155256 247.84375 
L 294.918835 247.84375 
L 294.918835 246.56265 
L 289.155256 246.56265 
z
" style="fill:#1f77b4;"/>
   </g>
   <g id="patch_44">
    <path clip-path="url(#p8fffd89834)" d="M 294.918835 247.84375 
L 300.682415 247.84375 
L 300.682415 245.281551 
L 294.918835 245.281551 
z
" style="fill:#1f77b4;"/>
   </g>
   <g id="patch_45">
    <path clip-path="url(#p8fffd89834)" d="M 300.682415 247.84375 
L 306.445994 247.84375 
L 306.445994 247.84375 
L 300.682415 247.84375 
z
" style="fill:#1f77b4;"/>
   </g>
   <g id="patch_46">
    <path clip-path="url(#p8fffd89834)" d="M 306.445994 247.84375 
L 312.209574 247.84375 
L 312.209574 246.135617 
L 306.445994 246.135617 
z
" style="fill:#1f77b4;"/>
   </g>
   <g id="patch_47">
    <path clip-path="url(#p8fffd89834)" d="M 312.209574 247.84375 
L 317.973153 247.84375 
L 317.973153 246.989684 
L 312.209574 246.989684 
z
" style="fill:#1f77b4;"/>
   </g>
   <g id="patch_48">
    <path clip-path="url(#p8fffd89834)" d="M 317.973153 247.84375 
L 323.736733 247.84375 
L 323.736733 246.56265 
L 317.973153 246.56265 
z
" style="fill:#1f77b4;"/>
   </g>
   <g id="patch_49">
    <path clip-path="url(#p8fffd89834)" d="M 323.736733 247.84375 
L 329.500312 247.84375 
L 329.500312 247.84375 
L 323.736733 247.84375 
z
" style="fill:#1f77b4;"/>
   </g>
   <g id="patch_50">
    <path clip-path="url(#p8fffd89834)" d="M 329.500312 247.84375 
L 335.263892 247.84375 
L 335.263892 247.84375 
L 329.500312 247.84375 
z
" style="fill:#1f77b4;"/>
   </g>
   <g id="patch_51">
    <path clip-path="url(#p8fffd89834)" d="M 335.263892 247.84375 
L 341.027472 247.84375 
L 341.027472 247.84375 
L 335.263892 247.84375 
z
" style="fill:#1f77b4;"/>
   </g>
   <g id="patch_52">
    <path clip-path="url(#p8fffd89834)" d="M 341.027472 247.84375 
L 346.791051 247.84375 
L 346.791051 246.989684 
L 341.027472 246.989684 
z
" style="fill:#1f77b4;"/>
   </g>
   <g id="matplotlib.axis_1">
    <g id="xtick_1">
     <g id="line2d_1">
      <defs>
       <path d="M 0 0 
L 0 3.5 
" id="mf81832723f" style="stroke:#000000;stroke-width:0.8;"/>
      </defs>
      <g>
       <use style="stroke:#000000;stroke-width:0.8;" x="83.452408" xlink:href="#mf81832723f" y="247.84375"/>
      </g>
     </g>
     <g id="text_1">
      <!-- −0.3 -->
      <defs>
       <path d="M 10.59375 35.5 
L 73.1875 35.5 
L 73.1875 27.203125 
L 10.59375 27.203125 
z
" id="DejaVuSans-8722"/>
       <path d="M 31.78125 66.40625 
Q 24.171875 66.40625 20.328125 58.90625 
Q 16.5 51.421875 16.5 36.375 
Q 16.5 21.390625 20.328125 13.890625 
Q 24.171875 6.390625 31.78125 6.390625 
Q 39.453125 6.390625 43.28125 13.890625 
Q 47.125 21.390625 47.125 36.375 
Q 47.125 51.421875 43.28125 58.90625 
Q 39.453125 66.40625 31.78125 66.40625 
z
M 31.78125 74.21875 
Q 44.046875 74.21875 50.515625 64.515625 
Q 56.984375 54.828125 56.984375 36.375 
Q 56.984375 17.96875 50.515625 8.265625 
Q 44.046875 -1.421875 31.78125 -1.421875 
Q 19.53125 -1.421875 13.0625 8.265625 
Q 6.59375 17.96875 6.59375 36.375 
Q 6.59375 54.828125 13.0625 64.515625 
Q 19.53125 74.21875 31.78125 74.21875 
z
" id="DejaVuSans-48"/>
       <path d="M 10.6875 12.40625 
L 21 12.40625 
L 21 0 
L 10.6875 0 
z
" id="DejaVuSans-46"/>
       <path d="M 40.578125 39.3125 
Q 47.65625 37.796875 51.625 33 
Q 55.609375 28.21875 55.609375 21.1875 
Q 55.609375 10.40625 48.1875 4.484375 
Q 40.765625 -1.421875 27.09375 -1.421875 
Q 22.515625 -1.421875 17.65625 -0.515625 
Q 12.796875 0.390625 7.625 2.203125 
L 7.625 11.71875 
Q 11.71875 9.328125 16.59375 8.109375 
Q 21.484375 6.890625 26.8125 6.890625 
Q 36.078125 6.890625 40.9375 10.546875 
Q 45.796875 14.203125 45.796875 21.1875 
Q 45.796875 27.640625 41.28125 31.265625 
Q 36.765625 34.90625 28.71875 34.90625 
L 20.21875 34.90625 
L 20.21875 43.015625 
L 29.109375 43.015625 
Q 36.375 43.015625 40.234375 45.921875 
Q 44.09375 48.828125 44.09375 54.296875 
Q 44.09375 59.90625 40.109375 62.90625 
Q 36.140625 65.921875 28.71875 65.921875 
Q 24.65625 65.921875 20.015625 65.03125 
Q 15.375 64.15625 9.8125 62.3125 
L 9.8125 71.09375 
Q 15.4375 72.65625 20.34375 73.4375 
Q 25.25 74.21875 29.59375 74.21875 
Q 40.828125 74.21875 47.359375 69.109375 
Q 53.90625 64.015625 53.90625 55.328125 
Q 53.90625 49.265625 50.4375 45.09375 
Q 46.96875 40.921875 40.578125 39.3125 
z
" id="DejaVuSans-51"/>
      </defs>
      <g transform="translate(71.311002 262.442187)scale(0.1 -0.1)">
       <use xlink:href="#DejaVuSans-8722"/>
       <use x="83.789062" xlink:href="#DejaVuSans-48"/>
       <use x="147.412109" xlink:href="#DejaVuSans-46"/>
       <use x="179.199219" xlink:href="#DejaVuSans-51"/>
      </g>
     </g>
    </g>
    <g id="xtick_2">
     <g id="line2d_2">
      <g>
       <use style="stroke:#000000;stroke-width:0.8;" x="136.253821" xlink:href="#mf81832723f" y="247.84375"/>
      </g>
     </g>
     <g id="text_2">
      <!-- −0.2 -->
      <defs>
       <path d="M 19.1875 8.296875 
L 53.609375 8.296875 
L 53.609375 0 
L 7.328125 0 
L 7.328125 8.296875 
Q 12.9375 14.109375 22.625 23.890625 
Q 32.328125 33.6875 34.8125 36.53125 
Q 39.546875 41.84375 41.421875 45.53125 
Q 43.3125 49.21875 43.3125 52.78125 
Q 43.3125 58.59375 39.234375 62.25 
Q 35.15625 65.921875 28.609375 65.921875 
Q 23.96875 65.921875 18.8125 64.3125 
Q 13.671875 62.703125 7.8125 59.421875 
L 7.8125 69.390625 
Q 13.765625 71.78125 18.9375 73 
Q 24.125 74.21875 28.421875 74.21875 
Q 39.75 74.21875 46.484375 68.546875 
Q 53.21875 62.890625 53.21875 53.421875 
Q 53.21875 48.921875 51.53125 44.890625 
Q 49.859375 40.875 45.40625 35.40625 
Q 44.1875 33.984375 37.640625 27.21875 
Q 31.109375 20.453125 19.1875 8.296875 
z
" id="DejaVuSans-50"/>
      </defs>
      <g transform="translate(124.112415 262.442187)scale(0.1 -0.1)">
       <use xlink:href="#DejaVuSans-8722"/>
       <use x="83.789062" xlink:href="#DejaVuSans-48"/>
       <use x="147.412109" xlink:href="#DejaVuSans-46"/>
       <use x="179.199219" xlink:href="#DejaVuSans-50"/>
      </g>
     </g>
    </g>
    <g id="xtick_3">
     <g id="line2d_3">
      <g>
       <use style="stroke:#000000;stroke-width:0.8;" x="189.055234" xlink:href="#mf81832723f" y="247.84375"/>
      </g>
     </g>
     <g id="text_3">
      <!-- −0.1 -->
      <defs>
       <path d="M 12.40625 8.296875 
L 28.515625 8.296875 
L 28.515625 63.921875 
L 10.984375 60.40625 
L 10.984375 69.390625 
L 28.421875 72.90625 
L 38.28125 72.90625 
L 38.28125 8.296875 
L 54.390625 8.296875 
L 54.390625 0 
L 12.40625 0 
z
" id="DejaVuSans-49"/>
      </defs>
      <g transform="translate(176.913828 262.442187)scale(0.1 -0.1)">
       <use xlink:href="#DejaVuSans-8722"/>
       <use x="83.789062" xlink:href="#DejaVuSans-48"/>
       <use x="147.412109" xlink:href="#DejaVuSans-46"/>
       <use x="179.199219" xlink:href="#DejaVuSans-49"/>
      </g>
     </g>
    </g>
    <g id="xtick_4">
     <g id="line2d_4">
      <g>
       <use style="stroke:#000000;stroke-width:0.8;" x="241.856647" xlink:href="#mf81832723f" y="247.84375"/>
      </g>
     </g>
     <g id="text_4">
      <!-- 0.0 -->
      <g transform="translate(233.905084 262.442187)scale(0.1 -0.1)">
       <use xlink:href="#DejaVuSans-48"/>
       <use x="63.623047" xlink:href="#DejaVuSans-46"/>
       <use x="95.410156" xlink:href="#DejaVuSans-48"/>
      </g>
     </g>
    </g>
    <g id="xtick_5">
     <g id="line2d_5">
      <g>
       <use style="stroke:#000000;stroke-width:0.8;" x="294.658059" xlink:href="#mf81832723f" y="247.84375"/>
      </g>
     </g>
     <g id="text_5">
      <!-- 0.1 -->
      <g transform="translate(286.706497 262.442187)scale(0.1 -0.1)">
       <use xlink:href="#DejaVuSans-48"/>
       <use x="63.623047" xlink:href="#DejaVuSans-46"/>
       <use x="95.410156" xlink:href="#DejaVuSans-49"/>
      </g>
     </g>
    </g>
    <g id="xtick_6">
     <g id="line2d_6">
      <g>
       <use style="stroke:#000000;stroke-width:0.8;" x="347.459472" xlink:href="#mf81832723f" y="247.84375"/>
      </g>
     </g>
     <g id="text_6">
      <!-- 0.2 -->
      <g transform="translate(339.50791 262.442187)scale(0.1 -0.1)">
       <use xlink:href="#DejaVuSans-48"/>
       <use x="63.623047" xlink:href="#DejaVuSans-46"/>
       <use x="95.410156" xlink:href="#DejaVuSans-50"/>
      </g>
     </g>
    </g>
    <g id="text_7">
     <!-- Losses -->
     <defs>
      <path d="M 9.8125 72.90625 
L 19.671875 72.90625 
L 19.671875 8.296875 
L 55.171875 8.296875 
L 55.171875 0 
L 9.8125 0 
z
" id="DejaVuSans-76"/>
      <path d="M 30.609375 48.390625 
Q 23.390625 48.390625 19.1875 42.75 
Q 14.984375 37.109375 14.984375 27.296875 
Q 14.984375 17.484375 19.15625 11.84375 
Q 23.34375 6.203125 30.609375 6.203125 
Q 37.796875 6.203125 41.984375 11.859375 
Q 46.1875 17.53125 46.1875 27.296875 
Q 46.1875 37.015625 41.984375 42.703125 
Q 37.796875 48.390625 30.609375 48.390625 
z
M 30.609375 56 
Q 42.328125 56 49.015625 48.375 
Q 55.71875 40.765625 55.71875 27.296875 
Q 55.71875 13.875 49.015625 6.21875 
Q 42.328125 -1.421875 30.609375 -1.421875 
Q 18.84375 -1.421875 12.171875 6.21875 
Q 5.515625 13.875 5.515625 27.296875 
Q 5.515625 40.765625 12.171875 48.375 
Q 18.84375 56 30.609375 56 
z
" id="DejaVuSans-111"/>
      <path d="M 44.28125 53.078125 
L 44.28125 44.578125 
Q 40.484375 46.53125 36.375 47.5 
Q 32.28125 48.484375 27.875 48.484375 
Q 21.1875 48.484375 17.84375 46.4375 
Q 14.5 44.390625 14.5 40.28125 
Q 14.5 37.15625 16.890625 35.375 
Q 19.28125 33.59375 26.515625 31.984375 
L 29.59375 31.296875 
Q 39.15625 29.25 43.1875 25.515625 
Q 47.21875 21.78125 47.21875 15.09375 
Q 47.21875 7.46875 41.1875 3.015625 
Q 35.15625 -1.421875 24.609375 -1.421875 
Q 20.21875 -1.421875 15.453125 -0.5625 
Q 10.6875 0.296875 5.421875 2 
L 5.421875 11.28125 
Q 10.40625 8.6875 15.234375 7.390625 
Q 20.0625 6.109375 24.8125 6.109375 
Q 31.15625 6.109375 34.5625 8.28125 
Q 37.984375 10.453125 37.984375 14.40625 
Q 37.984375 18.0625 35.515625 20.015625 
Q 33.0625 21.96875 24.703125 23.78125 
L 21.578125 24.515625 
Q 13.234375 26.265625 9.515625 29.90625 
Q 5.8125 33.546875 5.8125 39.890625 
Q 5.8125 47.609375 11.28125 51.796875 
Q 16.75 56 26.8125 56 
Q 31.78125 56 36.171875 55.265625 
Q 40.578125 54.546875 44.28125 53.078125 
z
" id="DejaVuSans-115"/>
      <path d="M 56.203125 29.59375 
L 56.203125 25.203125 
L 14.890625 25.203125 
Q 15.484375 15.921875 20.484375 11.0625 
Q 25.484375 6.203125 34.421875 6.203125 
Q 39.59375 6.203125 44.453125 7.46875 
Q 49.3125 8.734375 54.109375 11.28125 
L 54.109375 2.78125 
Q 49.265625 0.734375 44.1875 -0.34375 
Q 39.109375 -1.421875 33.890625 -1.421875 
Q 20.796875 -1.421875 13.15625 6.1875 
Q 5.515625 13.8125 5.515625 26.8125 
Q 5.515625 40.234375 12.765625 48.109375 
Q 20.015625 56 32.328125 56 
Q 43.359375 56 49.78125 48.890625 
Q 56.203125 41.796875 56.203125 29.59375 
z
M 47.21875 32.234375 
Q 47.125 39.59375 43.09375 43.984375 
Q 39.0625 48.390625 32.421875 48.390625 
Q 24.90625 48.390625 20.390625 44.140625 
Q 15.875 39.890625 15.1875 32.171875 
z
" id="DejaVuSans-101"/>
     </defs>
     <g transform="translate(185.966406 276.120313)scale(0.1 -0.1)">
      <use xlink:href="#DejaVuSans-76"/>
      <use x="55.697266" xlink:href="#DejaVuSans-111"/>
      <use x="116.878906" xlink:href="#DejaVuSans-115"/>
      <use x="168.978516" xlink:href="#DejaVuSans-115"/>
      <use x="221.078125" xlink:href="#DejaVuSans-101"/>
      <use x="282.601562" xlink:href="#DejaVuSans-115"/>
     </g>
    </g>
   </g>
   <g id="matplotlib.axis_2">
    <g id="ytick_1">
     <g id="line2d_7">
      <defs>
       <path d="M 0 0 
L -3.5 0 
" id="mf4f65abf0a" style="stroke:#000000;stroke-width:0.8;"/>
      </defs>
      <g>
       <use style="stroke:#000000;stroke-width:0.8;" x="44.203125" xlink:href="#mf4f65abf0a" y="247.84375"/>
      </g>
     </g>
     <g id="text_8">
      <!-- 0 -->
      <g transform="translate(30.840625 251.642969)scale(0.1 -0.1)">
       <use xlink:href="#DejaVuSans-48"/>
      </g>
     </g>
    </g>
    <g id="ytick_2">
     <g id="line2d_8">
      <g>
       <use style="stroke:#000000;stroke-width:0.8;" x="44.203125" xlink:href="#mf4f65abf0a" y="212.650828"/>
      </g>
     </g>
     <g id="text_9">
      <!-- 5 -->
      <defs>
       <path d="M 10.796875 72.90625 
L 49.515625 72.90625 
L 49.515625 64.59375 
L 19.828125 64.59375 
L 19.828125 46.734375 
Q 21.96875 47.46875 24.109375 47.828125 
Q 26.265625 48.1875 28.421875 48.1875 
Q 40.625 48.1875 47.75 41.5 
Q 54.890625 34.8125 54.890625 23.390625 
Q 54.890625 11.625 47.5625 5.09375 
Q 40.234375 -1.421875 26.90625 -1.421875 
Q 22.3125 -1.421875 17.546875 -0.640625 
Q 12.796875 0.140625 7.71875 1.703125 
L 7.71875 11.625 
Q 12.109375 9.234375 16.796875 8.0625 
Q 21.484375 6.890625 26.703125 6.890625 
Q 35.15625 6.890625 40.078125 11.328125 
Q 45.015625 15.765625 45.015625 23.390625 
Q 45.015625 31 40.078125 35.4375 
Q 35.15625 39.890625 26.703125 39.890625 
Q 22.75 39.890625 18.8125 39.015625 
Q 14.890625 38.140625 10.796875 36.28125 
z
" id="DejaVuSans-53"/>
      </defs>
      <g transform="translate(30.840625 216.450046)scale(0.1 -0.1)">
       <use xlink:href="#DejaVuSans-53"/>
      </g>
     </g>
    </g>
    <g id="ytick_3">
     <g id="line2d_9">
      <g>
       <use style="stroke:#000000;stroke-width:0.8;" x="44.203125" xlink:href="#mf4f65abf0a" y="177.457905"/>
      </g>
     </g>
     <g id="text_10">
      <!-- 10 -->
      <g transform="translate(24.478125 181.257124)scale(0.1 -0.1)">
       <use xlink:href="#DejaVuSans-49"/>
       <use x="63.623047" xlink:href="#DejaVuSans-48"/>
      </g>
     </g>
    </g>
    <g id="ytick_4">
     <g id="line2d_10">
      <g>
       <use style="stroke:#000000;stroke-width:0.8;" x="44.203125" xlink:href="#mf4f65abf0a" y="142.264983"/>
      </g>
     </g>
     <g id="text_11">
      <!-- 15 -->
      <g transform="translate(24.478125 146.064202)scale(0.1 -0.1)">
       <use xlink:href="#DejaVuSans-49"/>
       <use x="63.623047" xlink:href="#DejaVuSans-53"/>
      </g>
     </g>
    </g>
    <g id="ytick_5">
     <g id="line2d_11">
      <g>
       <use style="stroke:#000000;stroke-width:0.8;" x="44.203125" xlink:href="#mf4f65abf0a" y="107.072061"/>
      </g>
     </g>
     <g id="text_12">
      <!-- 20 -->
      <g transform="translate(24.478125 110.87128)scale(0.1 -0.1)">
       <use xlink:href="#DejaVuSans-50"/>
       <use x="63.623047" xlink:href="#DejaVuSans-48"/>
      </g>
     </g>
    </g>
    <g id="ytick_6">
     <g id="line2d_12">
      <g>
       <use style="stroke:#000000;stroke-width:0.8;" x="44.203125" xlink:href="#mf4f65abf0a" y="71.879139"/>
      </g>
     </g>
     <g id="text_13">
      <!-- 25 -->
      <g transform="translate(24.478125 75.678357)scale(0.1 -0.1)">
       <use xlink:href="#DejaVuSans-50"/>
       <use x="63.623047" xlink:href="#DejaVuSans-53"/>
      </g>
     </g>
    </g>
    <g id="ytick_7">
     <g id="line2d_13">
      <g>
       <use style="stroke:#000000;stroke-width:0.8;" x="44.203125" xlink:href="#mf4f65abf0a" y="36.686216"/>
      </g>
     </g>
     <g id="text_14">
      <!-- 30 -->
      <g transform="translate(24.478125 40.485435)scale(0.1 -0.1)">
       <use xlink:href="#DejaVuSans-51"/>
       <use x="63.623047" xlink:href="#DejaVuSans-48"/>
      </g>
     </g>
    </g>
    <g id="text_15">
     <!-- Histogram, PDF -->
     <defs>
      <path d="M 9.8125 72.90625 
L 19.671875 72.90625 
L 19.671875 43.015625 
L 55.515625 43.015625 
L 55.515625 72.90625 
L 65.375 72.90625 
L 65.375 0 
L 55.515625 0 
L 55.515625 34.71875 
L 19.671875 34.71875 
L 19.671875 0 
L 9.8125 0 
z
" id="DejaVuSans-72"/>
      <path d="M 9.421875 54.6875 
L 18.40625 54.6875 
L 18.40625 0 
L 9.421875 0 
z
M 9.421875 75.984375 
L 18.40625 75.984375 
L 18.40625 64.59375 
L 9.421875 64.59375 
z
" id="DejaVuSans-105"/>
      <path d="M 18.3125 70.21875 
L 18.3125 54.6875 
L 36.8125 54.6875 
L 36.8125 47.703125 
L 18.3125 47.703125 
L 18.3125 18.015625 
Q 18.3125 11.328125 20.140625 9.421875 
Q 21.96875 7.515625 27.59375 7.515625 
L 36.8125 7.515625 
L 36.8125 0 
L 27.59375 0 
Q 17.1875 0 13.234375 3.875 
Q 9.28125 7.765625 9.28125 18.015625 
L 9.28125 47.703125 
L 2.6875 47.703125 
L 2.6875 54.6875 
L 9.28125 54.6875 
L 9.28125 70.21875 
z
" id="DejaVuSans-116"/>
      <path d="M 45.40625 27.984375 
Q 45.40625 37.75 41.375 43.109375 
Q 37.359375 48.484375 30.078125 48.484375 
Q 22.859375 48.484375 18.828125 43.109375 
Q 14.796875 37.75 14.796875 27.984375 
Q 14.796875 18.265625 18.828125 12.890625 
Q 22.859375 7.515625 30.078125 7.515625 
Q 37.359375 7.515625 41.375 12.890625 
Q 45.40625 18.265625 45.40625 27.984375 
z
M 54.390625 6.78125 
Q 54.390625 -7.171875 48.1875 -13.984375 
Q 42 -20.796875 29.203125 -20.796875 
Q 24.46875 -20.796875 20.265625 -20.09375 
Q 16.0625 -19.390625 12.109375 -17.921875 
L 12.109375 -9.1875 
Q 16.0625 -11.328125 19.921875 -12.34375 
Q 23.78125 -13.375 27.78125 -13.375 
Q 36.625 -13.375 41.015625 -8.765625 
Q 45.40625 -4.15625 45.40625 5.171875 
L 45.40625 9.625 
Q 42.625 4.78125 38.28125 2.390625 
Q 33.9375 0 27.875 0 
Q 17.828125 0 11.671875 7.65625 
Q 5.515625 15.328125 5.515625 27.984375 
Q 5.515625 40.671875 11.671875 48.328125 
Q 17.828125 56 27.875 56 
Q 33.9375 56 38.28125 53.609375 
Q 42.625 51.21875 45.40625 46.390625 
L 45.40625 54.6875 
L 54.390625 54.6875 
z
" id="DejaVuSans-103"/>
      <path d="M 41.109375 46.296875 
Q 39.59375 47.171875 37.8125 47.578125 
Q 36.03125 48 33.890625 48 
Q 26.265625 48 22.1875 43.046875 
Q 18.109375 38.09375 18.109375 28.8125 
L 18.109375 0 
L 9.078125 0 
L 9.078125 54.6875 
L 18.109375 54.6875 
L 18.109375 46.1875 
Q 20.953125 51.171875 25.484375 53.578125 
Q 30.03125 56 36.53125 56 
Q 37.453125 56 38.578125 55.875 
Q 39.703125 55.765625 41.0625 55.515625 
z
" id="DejaVuSans-114"/>
      <path d="M 34.28125 27.484375 
Q 23.390625 27.484375 19.1875 25 
Q 14.984375 22.515625 14.984375 16.5 
Q 14.984375 11.71875 18.140625 8.90625 
Q 21.296875 6.109375 26.703125 6.109375 
Q 34.1875 6.109375 38.703125 11.40625 
Q 43.21875 16.703125 43.21875 25.484375 
L 43.21875 27.484375 
z
M 52.203125 31.203125 
L 52.203125 0 
L 43.21875 0 
L 43.21875 8.296875 
Q 40.140625 3.328125 35.546875 0.953125 
Q 30.953125 -1.421875 24.3125 -1.421875 
Q 15.921875 -1.421875 10.953125 3.296875 
Q 6 8.015625 6 15.921875 
Q 6 25.140625 12.171875 29.828125 
Q 18.359375 34.515625 30.609375 34.515625 
L 43.21875 34.515625 
L 43.21875 35.40625 
Q 43.21875 41.609375 39.140625 45 
Q 35.0625 48.390625 27.6875 48.390625 
Q 23 48.390625 18.546875 47.265625 
Q 14.109375 46.140625 10.015625 43.890625 
L 10.015625 52.203125 
Q 14.9375 54.109375 19.578125 55.046875 
Q 24.21875 56 28.609375 56 
Q 40.484375 56 46.34375 49.84375 
Q 52.203125 43.703125 52.203125 31.203125 
z
" id="DejaVuSans-97"/>
      <path d="M 52 44.1875 
Q 55.375 50.25 60.0625 53.125 
Q 64.75 56 71.09375 56 
Q 79.640625 56 84.28125 50.015625 
Q 88.921875 44.046875 88.921875 33.015625 
L 88.921875 0 
L 79.890625 0 
L 79.890625 32.71875 
Q 79.890625 40.578125 77.09375 44.375 
Q 74.3125 48.1875 68.609375 48.1875 
Q 61.625 48.1875 57.5625 43.546875 
Q 53.515625 38.921875 53.515625 30.90625 
L 53.515625 0 
L 44.484375 0 
L 44.484375 32.71875 
Q 44.484375 40.625 41.703125 44.40625 
Q 38.921875 48.1875 33.109375 48.1875 
Q 26.21875 48.1875 22.15625 43.53125 
Q 18.109375 38.875 18.109375 30.90625 
L 18.109375 0 
L 9.078125 0 
L 9.078125 54.6875 
L 18.109375 54.6875 
L 18.109375 46.1875 
Q 21.1875 51.21875 25.484375 53.609375 
Q 29.78125 56 35.6875 56 
Q 41.65625 56 45.828125 52.96875 
Q 50 49.953125 52 44.1875 
z
" id="DejaVuSans-109"/>
      <path d="M 11.71875 12.40625 
L 22.015625 12.40625 
L 22.015625 4 
L 14.015625 -11.625 
L 7.71875 -11.625 
L 11.71875 4 
z
" id="DejaVuSans-44"/>
      <path id="DejaVuSans-32"/>
      <path d="M 19.671875 64.796875 
L 19.671875 37.40625 
L 32.078125 37.40625 
Q 38.96875 37.40625 42.71875 40.96875 
Q 46.484375 44.53125 46.484375 51.125 
Q 46.484375 57.671875 42.71875 61.234375 
Q 38.96875 64.796875 32.078125 64.796875 
z
M 9.8125 72.90625 
L 32.078125 72.90625 
Q 44.34375 72.90625 50.609375 67.359375 
Q 56.890625 61.8125 56.890625 51.125 
Q 56.890625 40.328125 50.609375 34.8125 
Q 44.34375 29.296875 32.078125 29.296875 
L 19.671875 29.296875 
L 19.671875 0 
L 9.8125 0 
z
" id="DejaVuSans-80"/>
      <path d="M 19.671875 64.796875 
L 19.671875 8.109375 
L 31.59375 8.109375 
Q 46.6875 8.109375 53.6875 14.9375 
Q 60.6875 21.78125 60.6875 36.53125 
Q 60.6875 51.171875 53.6875 57.984375 
Q 46.6875 64.796875 31.59375 64.796875 
z
M 9.8125 72.90625 
L 30.078125 72.90625 
Q 51.265625 72.90625 61.171875 64.09375 
Q 71.09375 55.28125 71.09375 36.53125 
Q 71.09375 17.671875 61.125 8.828125 
Q 51.171875 0 30.078125 0 
L 9.8125 0 
z
" id="DejaVuSans-68"/>
      <path d="M 9.8125 72.90625 
L 51.703125 72.90625 
L 51.703125 64.59375 
L 19.671875 64.59375 
L 19.671875 43.109375 
L 48.578125 43.109375 
L 48.578125 34.8125 
L 19.671875 34.8125 
L 19.671875 0 
L 9.8125 0 
z
" id="DejaVuSans-70"/>
     </defs>
     <g transform="translate(18.398438 175.737188)rotate(-90)scale(0.1 -0.1)">
      <use xlink:href="#DejaVuSans-72"/>
      <use x="75.195312" xlink:href="#DejaVuSans-105"/>
      <use x="102.978516" xlink:href="#DejaVuSans-115"/>
      <use x="155.078125" xlink:href="#DejaVuSans-116"/>
      <use x="194.287109" xlink:href="#DejaVuSans-111"/>
      <use x="255.46875" xlink:href="#DejaVuSans-103"/>
      <use x="318.945312" xlink:href="#DejaVuSans-114"/>
      <use x="360.058594" xlink:href="#DejaVuSans-97"/>
      <use x="421.337891" xlink:href="#DejaVuSans-109"/>
      <use x="518.75" xlink:href="#DejaVuSans-44"/>
      <use x="550.537109" xlink:href="#DejaVuSans-32"/>
      <use x="582.324219" xlink:href="#DejaVuSans-80"/>
      <use x="642.626953" xlink:href="#DejaVuSans-68"/>
      <use x="719.628906" xlink:href="#DejaVuSans-70"/>
     </g>
    </g>
   </g>
   <g id="line2d_14">
    <path clip-path="url(#p8fffd89834)" d="M 58.612074 247.793351 
L 136.786751 247.626115 
L 163.902691 247.368034 
L 178.614531 247.023025 
L 188.133957 246.590706 
L 194.768708 246.083417 
L 199.961122 245.46906 
L 203.999666 244.770463 
L 207.172808 244.01015 
L 209.769015 243.184985 
L 212.076754 242.235659 
L 214.096027 241.177236 
L 215.826831 240.044073 
L 217.557636 238.635839 
L 218.999973 237.189858 
L 220.44231 235.424048 
L 221.884648 233.247117 
L 223.038517 231.128381 
L 224.192387 228.586384 
L 225.346257 225.515479 
L 226.500127 221.779727 
L 227.653996 217.204061 
L 228.807866 211.563712 
L 229.961736 204.57277 
L 231.115606 195.874749 
L 232.269476 185.04212 
L 233.423345 171.599834 
L 234.577215 155.101365 
L 235.731085 135.303065 
L 237.173422 106.434887 
L 239.481162 59.130846 
L 240.346564 45.953701 
L 240.923499 40.036473 
L 241.500434 36.916407 
L 241.788901 36.486012 
L 242.077369 36.824439 
L 242.365836 37.925221 
L 242.942771 42.316956 
L 243.519706 49.34226 
L 244.385108 63.749725 
L 245.827445 93.378709 
L 247.846718 134.6601 
L 249.000587 154.556581 
L 250.154457 171.152011 
L 251.308327 184.679809 
L 252.462197 195.583587 
L 253.616066 204.339005 
L 254.769936 211.375532 
L 255.923806 217.051849 
L 257.077676 221.655862 
L 258.231546 225.414009 
L 259.385415 228.502682 
L 260.539285 231.058854 
L 261.981622 233.665083 
L 263.42396 235.761766 
L 264.866297 237.465398 
L 266.308634 238.862708 
L 268.039439 240.225773 
L 269.770243 241.324412 
L 271.789516 242.35227 
L 274.097255 243.27576 
L 276.693462 244.079866 
L 279.866604 244.822106 
L 283.616681 245.464052 
L 288.23216 246.023283 
L 294.289976 246.51611 
L 302.367065 246.9272 
L 313.617295 247.255395 
L 330.636874 247.506247 
L 346.791051 247.625927 
L 346.791051 247.625927 
" style="fill:none;stroke:#ff7f0e;stroke-linecap:square;stroke-width:1.5;"/>
   </g>
   <g id="line2d_15">
    <path clip-path="url(#p8fffd89834)" d="M 58.612074 247.600154 
L 63.227553 247.716857 
L 68.996902 247.809721 
L 74.766251 247.652824 
L 79.093262 247.616685 
L 93.516635 247.84026 
L 99.574451 247.719586 
L 107.651539 247.386141 
L 120.632574 247.841868 
L 128.132728 247.733777 
L 137.075219 247.417131 
L 148.325449 247.833591 
L 154.383266 247.718815 
L 176.018324 246.959833 
L 183.806945 247.164999 
L 186.403152 246.99503 
L 189.287826 246.57775 
L 199.384187 244.735155 
L 203.134264 243.523168 
L 205.730471 242.796955 
L 208.326678 242.333587 
L 211.49982 241.763569 
L 212.942157 241.293716 
L 214.384494 240.605092 
L 215.826831 239.657836 
L 217.269168 238.407599 
L 218.423038 237.147627 
L 219.576908 235.613233 
L 220.730778 233.759103 
L 221.884648 231.534674 
L 223.038517 228.877548 
L 224.192387 225.701164 
L 225.346257 221.880485 
L 226.500127 217.242074 
L 227.653996 211.565846 
L 228.807866 204.604322 
L 229.961736 196.120882 
L 231.115606 185.942518 
L 232.557943 170.774242 
L 234.288748 149.448414 
L 238.327292 97.571952 
L 239.192694 89.144178 
L 240.058097 82.769704 
L 240.635031 79.871057 
L 241.211966 78.16537 
L 241.500434 77.780205 
L 241.788901 77.713187 
L 242.077369 77.966089 
L 242.365836 78.538202 
L 242.942771 80.624677 
L 243.519706 83.917226 
L 244.385108 90.905407 
L 245.250511 99.94673 
L 246.692848 118.047662 
L 250.154457 163.084 
L 251.596794 178.335247 
L 252.750664 188.520093 
L 253.904534 197.064191 
L 255.058404 204.205942 
L 256.212273 210.18706 
L 257.366143 215.215006 
L 258.80848 220.415679 
L 260.250818 224.661522 
L 261.693155 228.161748 
L 263.135492 231.0524 
L 264.577829 233.405475 
L 266.020167 235.278768 
L 267.462504 236.770396 
L 269.481776 238.491063 
L 272.943385 241.133113 
L 274.962657 242.407436 
L 276.693462 243.221889 
L 279.289669 244.126237 
L 286.212888 246.285359 
L 287.943692 246.459026 
L 289.962965 246.435034 
L 296.597716 246.171967 
L 299.193923 246.405081 
L 303.520934 246.837707 
L 306.117141 246.833674 
L 311.88649 246.742371 
L 324.29059 247.187408 
L 330.636874 247.760186 
L 334.386951 247.78801 
L 339.579365 247.583221 
L 344.483312 247.444105 
L 346.791051 247.489444 
L 346.791051 247.489444 
" style="fill:none;stroke:#2ca02c;stroke-linecap:square;stroke-width:1.5;"/>
   </g>
   <g id="patch_53">
    <path d="M 44.203125 247.84375 
L 44.203125 25.918125 
" style="fill:none;stroke:#000000;stroke-linecap:square;stroke-linejoin:miter;stroke-width:0.8;"/>
   </g>
   <g id="patch_54">
    <path d="M 361.2 247.84375 
L 361.2 25.918125 
" style="fill:none;stroke:#000000;stroke-linecap:square;stroke-linejoin:miter;stroke-width:0.8;"/>
   </g>
   <g id="patch_55">
    <path d="M 44.203125 247.84375 
L 361.2 247.84375 
" style="fill:none;stroke:#000000;stroke-linecap:square;stroke-linejoin:miter;stroke-width:0.8;"/>
   </g>
   <g id="patch_56">
    <path d="M 44.203125 25.918125 
L 361.2 25.918125 
" style="fill:none;stroke:#000000;stroke-linecap:square;stroke-linejoin:miter;stroke-width:0.8;"/>
   </g>
   <g id="text_16">
    <!-- Histogram, T and KDE Distributions -->
    <defs>
     <path d="M -0.296875 72.90625 
L 61.375 72.90625 
L 61.375 64.59375 
L 35.5 64.59375 
L 35.5 0 
L 25.59375 0 
L 25.59375 64.59375 
L -0.296875 64.59375 
z
" id="DejaVuSans-84"/>
     <path d="M 54.890625 33.015625 
L 54.890625 0 
L 45.90625 0 
L 45.90625 32.71875 
Q 45.90625 40.484375 42.875 44.328125 
Q 39.84375 48.1875 33.796875 48.1875 
Q 26.515625 48.1875 22.3125 43.546875 
Q 18.109375 38.921875 18.109375 30.90625 
L 18.109375 0 
L 9.078125 0 
L 9.078125 54.6875 
L 18.109375 54.6875 
L 18.109375 46.1875 
Q 21.34375 51.125 25.703125 53.5625 
Q 30.078125 56 35.796875 56 
Q 45.21875 56 50.046875 50.171875 
Q 54.890625 44.34375 54.890625 33.015625 
z
" id="DejaVuSans-110"/>
     <path d="M 45.40625 46.390625 
L 45.40625 75.984375 
L 54.390625 75.984375 
L 54.390625 0 
L 45.40625 0 
L 45.40625 8.203125 
Q 42.578125 3.328125 38.25 0.953125 
Q 33.9375 -1.421875 27.875 -1.421875 
Q 17.96875 -1.421875 11.734375 6.484375 
Q 5.515625 14.40625 5.515625 27.296875 
Q 5.515625 40.1875 11.734375 48.09375 
Q 17.96875 56 27.875 56 
Q 33.9375 56 38.25 53.625 
Q 42.578125 51.265625 45.40625 46.390625 
z
M 14.796875 27.296875 
Q 14.796875 17.390625 18.875 11.75 
Q 22.953125 6.109375 30.078125 6.109375 
Q 37.203125 6.109375 41.296875 11.75 
Q 45.40625 17.390625 45.40625 27.296875 
Q 45.40625 37.203125 41.296875 42.84375 
Q 37.203125 48.484375 30.078125 48.484375 
Q 22.953125 48.484375 18.875 42.84375 
Q 14.796875 37.203125 14.796875 27.296875 
z
" id="DejaVuSans-100"/>
     <path d="M 9.8125 72.90625 
L 19.671875 72.90625 
L 19.671875 42.09375 
L 52.390625 72.90625 
L 65.09375 72.90625 
L 28.90625 38.921875 
L 67.671875 0 
L 54.6875 0 
L 19.671875 35.109375 
L 19.671875 0 
L 9.8125 0 
z
" id="DejaVuSans-75"/>
     <path d="M 9.8125 72.90625 
L 55.90625 72.90625 
L 55.90625 64.59375 
L 19.671875 64.59375 
L 19.671875 43.015625 
L 54.390625 43.015625 
L 54.390625 34.71875 
L 19.671875 34.71875 
L 19.671875 8.296875 
L 56.78125 8.296875 
L 56.78125 0 
L 9.8125 0 
z
" id="DejaVuSans-69"/>
     <path d="M 48.6875 27.296875 
Q 48.6875 37.203125 44.609375 42.84375 
Q 40.53125 48.484375 33.40625 48.484375 
Q 26.265625 48.484375 22.1875 42.84375 
Q 18.109375 37.203125 18.109375 27.296875 
Q 18.109375 17.390625 22.1875 11.75 
Q 26.265625 6.109375 33.40625 6.109375 
Q 40.53125 6.109375 44.609375 11.75 
Q 48.6875 17.390625 48.6875 27.296875 
z
M 18.109375 46.390625 
Q 20.953125 51.265625 25.265625 53.625 
Q 29.59375 56 35.59375 56 
Q 45.5625 56 51.78125 48.09375 
Q 58.015625 40.1875 58.015625 27.296875 
Q 58.015625 14.40625 51.78125 6.484375 
Q 45.5625 -1.421875 35.59375 -1.421875 
Q 29.59375 -1.421875 25.265625 0.953125 
Q 20.953125 3.328125 18.109375 8.203125 
L 18.109375 0 
L 9.078125 0 
L 9.078125 75.984375 
L 18.109375 75.984375 
z
" id="DejaVuSans-98"/>
     <path d="M 8.5 21.578125 
L 8.5 54.6875 
L 17.484375 54.6875 
L 17.484375 21.921875 
Q 17.484375 14.15625 20.5 10.265625 
Q 23.53125 6.390625 29.59375 6.390625 
Q 36.859375 6.390625 41.078125 11.03125 
Q 45.3125 15.671875 45.3125 23.6875 
L 45.3125 54.6875 
L 54.296875 54.6875 
L 54.296875 0 
L 45.3125 0 
L 45.3125 8.40625 
Q 42.046875 3.421875 37.71875 1 
Q 33.40625 -1.421875 27.6875 -1.421875 
Q 18.265625 -1.421875 13.375 4.4375 
Q 8.5 10.296875 8.5 21.578125 
z
M 31.109375 56 
z
" id="DejaVuSans-117"/>
    </defs>
    <g transform="translate(96.615 19.918125)scale(0.12 -0.12)">
     <use xlink:href="#DejaVuSans-72"/>
     <use x="75.195312" xlink:href="#DejaVuSans-105"/>
     <use x="102.978516" xlink:href="#DejaVuSans-115"/>
     <use x="155.078125" xlink:href="#DejaVuSans-116"/>
     <use x="194.287109" xlink:href="#DejaVuSans-111"/>
     <use x="255.46875" xlink:href="#DejaVuSans-103"/>
     <use x="318.945312" xlink:href="#DejaVuSans-114"/>
     <use x="360.058594" xlink:href="#DejaVuSans-97"/>
     <use x="421.337891" xlink:href="#DejaVuSans-109"/>
     <use x="518.75" xlink:href="#DejaVuSans-44"/>
     <use x="550.537109" xlink:href="#DejaVuSans-32"/>
     <use x="582.324219" xlink:href="#DejaVuSans-84"/>
     <use x="643.408203" xlink:href="#DejaVuSans-32"/>
     <use x="675.195312" xlink:href="#DejaVuSans-97"/>
     <use x="736.474609" xlink:href="#DejaVuSans-110"/>
     <use x="799.853516" xlink:href="#DejaVuSans-100"/>
     <use x="863.330078" xlink:href="#DejaVuSans-32"/>
     <use x="895.117188" xlink:href="#DejaVuSans-75"/>
     <use x="960.693359" xlink:href="#DejaVuSans-68"/>
     <use x="1037.695312" xlink:href="#DejaVuSans-69"/>
     <use x="1100.878906" xlink:href="#DejaVuSans-32"/>
     <use x="1132.666016" xlink:href="#DejaVuSans-68"/>
     <use x="1209.667969" xlink:href="#DejaVuSans-105"/>
     <use x="1237.451172" xlink:href="#DejaVuSans-115"/>
     <use x="1289.550781" xlink:href="#DejaVuSans-116"/>
     <use x="1328.759766" xlink:href="#DejaVuSans-114"/>
     <use x="1369.873047" xlink:href="#DejaVuSans-105"/>
     <use x="1397.65625" xlink:href="#DejaVuSans-98"/>
     <use x="1461.132812" xlink:href="#DejaVuSans-117"/>
     <use x="1524.511719" xlink:href="#DejaVuSans-116"/>
     <use x="1563.720703" xlink:href="#DejaVuSans-105"/>
     <use x="1591.503906" xlink:href="#DejaVuSans-111"/>
     <use x="1652.685547" xlink:href="#DejaVuSans-110"/>
     <use x="1716.064453" xlink:href="#DejaVuSans-115"/>
    </g>
   </g>
   <g id="legend_1">
    <g id="patch_57">
     <path d="M 252.56875 63.274375 
L 354.2 63.274375 
Q 356.2 63.274375 356.2 61.274375 
L 356.2 32.918125 
Q 356.2 30.918125 354.2 30.918125 
L 252.56875 30.918125 
Q 250.56875 30.918125 250.56875 32.918125 
L 250.56875 61.274375 
Q 250.56875 63.274375 252.56875 63.274375 
z
" style="fill:#ffffff;opacity:0.8;stroke:#cccccc;stroke-linejoin:miter;"/>
    </g>
    <g id="line2d_16">
     <path d="M 254.56875 39.016563 
L 274.56875 39.016563 
" style="fill:none;stroke:#ff7f0e;stroke-linecap:square;stroke-width:1.5;"/>
    </g>
    <g id="line2d_17"/>
    <g id="text_17">
     <!-- T distribution -->
     <g transform="translate(282.56875 42.516563)scale(0.1 -0.1)">
      <use xlink:href="#DejaVuSans-84"/>
      <use x="61.083984" xlink:href="#DejaVuSans-32"/>
      <use x="92.871094" xlink:href="#DejaVuSans-100"/>
      <use x="156.347656" xlink:href="#DejaVuSans-105"/>
      <use x="184.130859" xlink:href="#DejaVuSans-115"/>
      <use x="236.230469" xlink:href="#DejaVuSans-116"/>
      <use x="275.439453" xlink:href="#DejaVuSans-114"/>
      <use x="316.552734" xlink:href="#DejaVuSans-105"/>
      <use x="344.335938" xlink:href="#DejaVuSans-98"/>
      <use x="407.8125" xlink:href="#DejaVuSans-117"/>
      <use x="471.191406" xlink:href="#DejaVuSans-116"/>
      <use x="510.400391" xlink:href="#DejaVuSans-105"/>
      <use x="538.183594" xlink:href="#DejaVuSans-111"/>
      <use x="599.365234" xlink:href="#DejaVuSans-110"/>
     </g>
    </g>
    <g id="line2d_18">
     <path d="M 254.56875 53.694688 
L 274.56875 53.694688 
" style="fill:none;stroke:#2ca02c;stroke-linecap:square;stroke-width:1.5;"/>
    </g>
    <g id="line2d_19"/>
    <g id="text_18">
     <!-- Gaussian KDE -->
     <defs>
      <path d="M 59.515625 10.40625 
L 59.515625 29.984375 
L 43.40625 29.984375 
L 43.40625 38.09375 
L 69.28125 38.09375 
L 69.28125 6.78125 
Q 63.578125 2.734375 56.6875 0.65625 
Q 49.8125 -1.421875 42 -1.421875 
Q 24.90625 -1.421875 15.25 8.5625 
Q 5.609375 18.5625 5.609375 36.375 
Q 5.609375 54.25 15.25 64.234375 
Q 24.90625 74.21875 42 74.21875 
Q 49.125 74.21875 55.546875 72.453125 
Q 61.96875 70.703125 67.390625 67.28125 
L 67.390625 56.78125 
Q 61.921875 61.421875 55.765625 63.765625 
Q 49.609375 66.109375 42.828125 66.109375 
Q 29.4375 66.109375 22.71875 58.640625 
Q 16.015625 51.171875 16.015625 36.375 
Q 16.015625 21.625 22.71875 14.15625 
Q 29.4375 6.6875 42.828125 6.6875 
Q 48.046875 6.6875 52.140625 7.59375 
Q 56.25 8.5 59.515625 10.40625 
z
" id="DejaVuSans-71"/>
     </defs>
     <g transform="translate(282.56875 57.194688)scale(0.1 -0.1)">
      <use xlink:href="#DejaVuSans-71"/>
      <use x="77.490234" xlink:href="#DejaVuSans-97"/>
      <use x="138.769531" xlink:href="#DejaVuSans-117"/>
      <use x="202.148438" xlink:href="#DejaVuSans-115"/>
      <use x="254.248047" xlink:href="#DejaVuSans-115"/>
      <use x="306.347656" xlink:href="#DejaVuSans-105"/>
      <use x="334.130859" xlink:href="#DejaVuSans-97"/>
      <use x="395.410156" xlink:href="#DejaVuSans-110"/>
      <use x="458.789062" xlink:href="#DejaVuSans-32"/>
      <use x="490.576172" xlink:href="#DejaVuSans-75"/>
      <use x="556.152344" xlink:href="#DejaVuSans-68"/>
      <use x="633.154297" xlink:href="#DejaVuSans-69"/>
     </g>
    </g>
   </g>
  </g>
 </g>
 <defs>
  <clipPath id="p8fffd89834">
   <rect height="221.925625" width="316.996875" x="44.203125" y="25.918125"/>
  </clipPath>
 </defs>
</svg>
