<?xml version="1.0" encoding="utf-8" standalone="no"?>
<!DOCTYPE svg PUBLIC "-//W3C//DTD SVG 1.1//EN"
  "http://www.w3.org/Graphics/SVG/1.1/DTD/svg11.dtd">
<!-- Created with matplotlib (https://matplotlib.org/) -->
<svg height="287pt" version="1.1" viewBox="0 0 314 287" width="314pt" xmlns="http://www.w3.org/2000/svg" xmlns:xlink="http://www.w3.org/1999/xlink">
 <defs>
  <style type="text/css">
*{stroke-linecap:butt;stroke-linejoin:round;white-space:pre;}
  </style>
 </defs>
 <g id="figure_1">
  <g id="patch_1">
   <path d="M 0 287 
L 314 287 
L 314 0 
L 0 0 
z
" style="fill:#ffffff;"/>
  </g>
  <g id="axes_1">
   <g id="patch_2">
    <path d="M 55.760938 245.84375 
L 295.578722 245.84375 
L 295.578722 25.918125 
L 55.760938 25.918125 
z
" style="fill:#ffffff;"/>
   </g>
   <g id="PathCollection_1">
    <defs>
     <path d="M 0 0.5 
C 0.132602 0.5 0.25979 0.447317 0.353553 0.353553 
C 0.447317 0.25979 0.5 0.132602 0.5 0 
C 0.5 -0.132602 0.447317 -0.25979 0.353553 -0.353553 
C 0.25979 -0.447317 0.132602 -0.5 0 -0.5 
C -0.132602 -0.5 -0.25979 -0.447317 -0.353553 -0.353553 
C -0.447317 -0.25979 -0.5 -0.132602 -0.5 0 
C -0.5 0.132602 -0.447317 0.25979 -0.353553 0.353553 
C -0.25979 0.447317 -0.132602 0.5 0 0.5 
z
" id="m85e56710fd" style="stroke:#0000ff;"/>
    </defs>
    <g clip-path="url(#p8a9f24dd54)">
     <use style="fill:#0000ff;stroke:#0000ff;" x="93.471392" xlink:href="#m85e56710fd" y="70.768158"/>
     <use style="fill:#0000ff;stroke:#0000ff;" x="93.471392" xlink:href="#m85e56710fd" y="70.768158"/>
     <use style="fill:#0000ff;stroke:#0000ff;" x="93.471392" xlink:href="#m85e56710fd" y="70.768158"/>
     <use style="fill:#0000ff;stroke:#0000ff;" x="93.471392" xlink:href="#m85e56710fd" y="70.768158"/>
     <use style="fill:#0000ff;stroke:#0000ff;" x="93.471392" xlink:href="#m85e56710fd" y="70.768158"/>
     <use style="fill:#0000ff;stroke:#0000ff;" x="93.471392" xlink:href="#m85e56710fd" y="70.768158"/>
     <use style="fill:#0000ff;stroke:#0000ff;" x="93.471392" xlink:href="#m85e56710fd" y="70.768158"/>
     <use style="fill:#0000ff;stroke:#0000ff;" x="93.471392" xlink:href="#m85e56710fd" y="70.768158"/>
     <use style="fill:#0000ff;stroke:#0000ff;" x="93.471392" xlink:href="#m85e56710fd" y="70.768158"/>
     <use style="fill:#0000ff;stroke:#0000ff;" x="93.471392" xlink:href="#m85e56710fd" y="70.768158"/>
     <use style="fill:#0000ff;stroke:#0000ff;" x="93.471392" xlink:href="#m85e56710fd" y="70.768158"/>
     <use style="fill:#0000ff;stroke:#0000ff;" x="93.471392" xlink:href="#m85e56710fd" y="70.768158"/>
     <use style="fill:#0000ff;stroke:#0000ff;" x="93.471392" xlink:href="#m85e56710fd" y="70.768158"/>
     <use style="fill:#0000ff;stroke:#0000ff;" x="93.471392" xlink:href="#m85e56710fd" y="70.768158"/>
     <use style="fill:#0000ff;stroke:#0000ff;" x="93.471392" xlink:href="#m85e56710fd" y="70.768158"/>
     <use style="fill:#0000ff;stroke:#0000ff;" x="93.471392" xlink:href="#m85e56710fd" y="70.768158"/>
     <use style="fill:#0000ff;stroke:#0000ff;" x="93.471392" xlink:href="#m85e56710fd" y="70.768158"/>
     <use style="fill:#0000ff;stroke:#0000ff;" x="93.471392" xlink:href="#m85e56710fd" y="70.768158"/>
     <use style="fill:#0000ff;stroke:#0000ff;" x="93.471392" xlink:href="#m85e56710fd" y="70.768158"/>
     <use style="fill:#0000ff;stroke:#0000ff;" x="93.471392" xlink:href="#m85e56710fd" y="70.768158"/>
     <use style="fill:#0000ff;stroke:#0000ff;" x="93.471392" xlink:href="#m85e56710fd" y="70.768158"/>
     <use style="fill:#0000ff;stroke:#0000ff;" x="93.471392" xlink:href="#m85e56710fd" y="70.768158"/>
     <use style="fill:#0000ff;stroke:#0000ff;" x="93.471392" xlink:href="#m85e56710fd" y="70.768158"/>
     <use style="fill:#0000ff;stroke:#0000ff;" x="93.471392" xlink:href="#m85e56710fd" y="70.768158"/>
     <use style="fill:#0000ff;stroke:#0000ff;" x="93.471392" xlink:href="#m85e56710fd" y="70.768158"/>
     <use style="fill:#0000ff;stroke:#0000ff;" x="92.979931" xlink:href="#m85e56710fd" y="71.482967"/>
     <use style="fill:#0000ff;stroke:#0000ff;" x="92.491414" xlink:href="#m85e56710fd" y="72.197775"/>
     <use style="fill:#0000ff;stroke:#0000ff;" x="92.005889" xlink:href="#m85e56710fd" y="72.912584"/>
     <use style="fill:#0000ff;stroke:#0000ff;" x="91.523406" xlink:href="#m85e56710fd" y="73.627393"/>
     <use style="fill:#0000ff;stroke:#0000ff;" x="91.044015" xlink:href="#m85e56710fd" y="74.342202"/>
     <use style="fill:#0000ff;stroke:#0000ff;" x="90.567766" xlink:href="#m85e56710fd" y="75.057011"/>
     <use style="fill:#0000ff;stroke:#0000ff;" x="90.09471" xlink:href="#m85e56710fd" y="75.77182"/>
     <use style="fill:#0000ff;stroke:#0000ff;" x="89.624899" xlink:href="#m85e56710fd" y="76.486629"/>
     <use style="fill:#0000ff;stroke:#0000ff;" x="89.158388" xlink:href="#m85e56710fd" y="77.201437"/>
     <use style="fill:#0000ff;stroke:#0000ff;" x="88.695229" xlink:href="#m85e56710fd" y="77.916246"/>
     <use style="fill:#0000ff;stroke:#0000ff;" x="88.235476" xlink:href="#m85e56710fd" y="78.631055"/>
     <use style="fill:#0000ff;stroke:#0000ff;" x="87.779186" xlink:href="#m85e56710fd" y="79.345864"/>
     <use style="fill:#0000ff;stroke:#0000ff;" x="87.326414" xlink:href="#m85e56710fd" y="80.060673"/>
     <use style="fill:#0000ff;stroke:#0000ff;" x="86.877216" xlink:href="#m85e56710fd" y="80.775482"/>
     <use style="fill:#0000ff;stroke:#0000ff;" x="86.431652" xlink:href="#m85e56710fd" y="81.49029"/>
     <use style="fill:#0000ff;stroke:#0000ff;" x="85.989778" xlink:href="#m85e56710fd" y="82.205099"/>
     <use style="fill:#0000ff;stroke:#0000ff;" x="85.551654" xlink:href="#m85e56710fd" y="82.919908"/>
     <use style="fill:#0000ff;stroke:#0000ff;" x="85.11734" xlink:href="#m85e56710fd" y="83.634717"/>
     <use style="fill:#0000ff;stroke:#0000ff;" x="84.686896" xlink:href="#m85e56710fd" y="84.349526"/>
     <use style="fill:#0000ff;stroke:#0000ff;" x="84.260385" xlink:href="#m85e56710fd" y="85.064335"/>
     <use style="fill:#0000ff;stroke:#0000ff;" x="83.837867" xlink:href="#m85e56710fd" y="85.779144"/>
     <use style="fill:#0000ff;stroke:#0000ff;" x="83.419405" xlink:href="#m85e56710fd" y="86.493952"/>
     <use style="fill:#0000ff;stroke:#0000ff;" x="83.005064" xlink:href="#m85e56710fd" y="87.208761"/>
     <use style="fill:#0000ff;stroke:#0000ff;" x="82.594906" xlink:href="#m85e56710fd" y="87.92357"/>
     <use style="fill:#0000ff;stroke:#0000ff;" x="81.44465" xlink:href="#m85e56710fd" y="89.966632"/>
     <use style="fill:#0000ff;stroke:#0000ff;" x="80.327357" xlink:href="#m85e56710fd" y="92.009693"/>
     <use style="fill:#0000ff;stroke:#0000ff;" x="79.244472" xlink:href="#m85e56710fd" y="94.052755"/>
     <use style="fill:#0000ff;stroke:#0000ff;" x="78.197479" xlink:href="#m85e56710fd" y="96.095817"/>
     <use style="fill:#0000ff;stroke:#0000ff;" x="77.18789" xlink:href="#m85e56710fd" y="98.138878"/>
     <use style="fill:#0000ff;stroke:#0000ff;" x="76.21725" xlink:href="#m85e56710fd" y="100.18194"/>
     <use style="fill:#0000ff;stroke:#0000ff;" x="75.28712" xlink:href="#m85e56710fd" y="102.225001"/>
     <use style="fill:#0000ff;stroke:#0000ff;" x="74.399081" xlink:href="#m85e56710fd" y="104.268063"/>
     <use style="fill:#0000ff;stroke:#0000ff;" x="73.554714" xlink:href="#m85e56710fd" y="106.311125"/>
     <use style="fill:#0000ff;stroke:#0000ff;" x="72.755602" xlink:href="#m85e56710fd" y="108.354186"/>
     <use style="fill:#0000ff;stroke:#0000ff;" x="72.003311" xlink:href="#m85e56710fd" y="110.397248"/>
     <use style="fill:#0000ff;stroke:#0000ff;" x="71.299383" xlink:href="#m85e56710fd" y="112.440309"/>
     <use style="fill:#0000ff;stroke:#0000ff;" x="70.645322" xlink:href="#m85e56710fd" y="114.483371"/>
     <use style="fill:#0000ff;stroke:#0000ff;" x="70.042584" xlink:href="#m85e56710fd" y="116.526433"/>
     <use style="fill:#0000ff;stroke:#0000ff;" x="69.492557" xlink:href="#m85e56710fd" y="118.569494"/>
     <use style="fill:#0000ff;stroke:#0000ff;" x="68.996557" xlink:href="#m85e56710fd" y="120.612556"/>
     <use style="fill:#0000ff;stroke:#0000ff;" x="68.555804" xlink:href="#m85e56710fd" y="122.655617"/>
     <use style="fill:#0000ff;stroke:#0000ff;" x="68.171416" xlink:href="#m85e56710fd" y="124.698679"/>
     <use style="fill:#0000ff;stroke:#0000ff;" x="67.844392" xlink:href="#m85e56710fd" y="126.741741"/>
     <use style="fill:#0000ff;stroke:#0000ff;" x="67.575599" xlink:href="#m85e56710fd" y="128.784802"/>
     <use style="fill:#0000ff;stroke:#0000ff;" x="67.365765" xlink:href="#m85e56710fd" y="130.827864"/>
     <use style="fill:#0000ff;stroke:#0000ff;" x="67.215465" xlink:href="#m85e56710fd" y="132.870926"/>
     <use style="fill:#0000ff;stroke:#0000ff;" x="67.125116" xlink:href="#m85e56710fd" y="134.913987"/>
     <use style="fill:#0000ff;stroke:#0000ff;" x="67.094972" xlink:href="#m85e56710fd" y="136.957049"/>
    </g>
   </g>
   <g id="PathCollection_2">
    <defs>
     <path d="M 0 0.5 
C 0.132602 0.5 0.25979 0.447317 0.353553 0.353553 
C 0.447317 0.25979 0.5 0.132602 0.5 0 
C 0.5 -0.132602 0.447317 -0.25979 0.353553 -0.353553 
C 0.25979 -0.447317 0.132602 -0.5 0 -0.5 
C -0.132602 -0.5 -0.25979 -0.447317 -0.353553 -0.353553 
C -0.447317 -0.25979 -0.5 -0.132602 -0.5 0 
C -0.5 0.132602 -0.447317 0.25979 -0.353553 0.353553 
C -0.25979 0.447317 -0.132602 0.5 0 0.5 
z
" id="m1e5de045f3" style="stroke:#ff0000;"/>
    </defs>
    <g clip-path="url(#p8a9f24dd54)">
     <use style="fill:#ff0000;stroke:#ff0000;" x="211.952544" xlink:href="#m1e5de045f3" y="36.014619"/>
     <use style="fill:#ff0000;stroke:#ff0000;" x="211.952544" xlink:href="#m1e5de045f3" y="36.014619"/>
     <use style="fill:#ff0000;stroke:#ff0000;" x="211.952544" xlink:href="#m1e5de045f3" y="36.014619"/>
     <use style="fill:#ff0000;stroke:#ff0000;" x="211.952544" xlink:href="#m1e5de045f3" y="36.014619"/>
     <use style="fill:#ff0000;stroke:#ff0000;" x="211.952544" xlink:href="#m1e5de045f3" y="36.014619"/>
     <use style="fill:#ff0000;stroke:#ff0000;" x="211.952544" xlink:href="#m1e5de045f3" y="36.014619"/>
     <use style="fill:#ff0000;stroke:#ff0000;" x="211.952544" xlink:href="#m1e5de045f3" y="36.014619"/>
     <use style="fill:#ff0000;stroke:#ff0000;" x="211.952544" xlink:href="#m1e5de045f3" y="36.014619"/>
     <use style="fill:#ff0000;stroke:#ff0000;" x="211.952544" xlink:href="#m1e5de045f3" y="36.014619"/>
     <use style="fill:#ff0000;stroke:#ff0000;" x="211.952544" xlink:href="#m1e5de045f3" y="36.014619"/>
     <use style="fill:#ff0000;stroke:#ff0000;" x="211.952544" xlink:href="#m1e5de045f3" y="36.014619"/>
     <use style="fill:#ff0000;stroke:#ff0000;" x="211.952544" xlink:href="#m1e5de045f3" y="36.014619"/>
     <use style="fill:#ff0000;stroke:#ff0000;" x="211.952544" xlink:href="#m1e5de045f3" y="36.014619"/>
     <use style="fill:#ff0000;stroke:#ff0000;" x="211.952544" xlink:href="#m1e5de045f3" y="36.014619"/>
     <use style="fill:#ff0000;stroke:#ff0000;" x="211.952544" xlink:href="#m1e5de045f3" y="36.014619"/>
     <use style="fill:#ff0000;stroke:#ff0000;" x="211.952544" xlink:href="#m1e5de045f3" y="36.014619"/>
     <use style="fill:#ff0000;stroke:#ff0000;" x="211.952544" xlink:href="#m1e5de045f3" y="36.014619"/>
     <use style="fill:#ff0000;stroke:#ff0000;" x="211.952544" xlink:href="#m1e5de045f3" y="36.014619"/>
     <use style="fill:#ff0000;stroke:#ff0000;" x="211.952544" xlink:href="#m1e5de045f3" y="36.014619"/>
     <use style="fill:#ff0000;stroke:#ff0000;" x="211.952544" xlink:href="#m1e5de045f3" y="36.014619"/>
     <use style="fill:#ff0000;stroke:#ff0000;" x="211.952544" xlink:href="#m1e5de045f3" y="36.014619"/>
     <use style="fill:#ff0000;stroke:#ff0000;" x="211.952544" xlink:href="#m1e5de045f3" y="36.014619"/>
     <use style="fill:#ff0000;stroke:#ff0000;" x="211.952544" xlink:href="#m1e5de045f3" y="36.014619"/>
     <use style="fill:#ff0000;stroke:#ff0000;" x="211.952544" xlink:href="#m1e5de045f3" y="36.014619"/>
     <use style="fill:#ff0000;stroke:#ff0000;" x="211.952544" xlink:href="#m1e5de045f3" y="36.014619"/>
     <use style="fill:#ff0000;stroke:#ff0000;" x="211.948757" xlink:href="#m1e5de045f3" y="36.020604"/>
     <use style="fill:#ff0000;stroke:#ff0000;" x="211.94506" xlink:href="#m1e5de045f3" y="36.026589"/>
     <use style="fill:#ff0000;stroke:#ff0000;" x="211.941455" xlink:href="#m1e5de045f3" y="36.032575"/>
     <use style="fill:#ff0000;stroke:#ff0000;" x="211.937941" xlink:href="#m1e5de045f3" y="36.03856"/>
     <use style="fill:#ff0000;stroke:#ff0000;" x="211.934517" xlink:href="#m1e5de045f3" y="36.044546"/>
     <use style="fill:#ff0000;stroke:#ff0000;" x="211.931185" xlink:href="#m1e5de045f3" y="36.050531"/>
     <use style="fill:#ff0000;stroke:#ff0000;" x="211.927943" xlink:href="#m1e5de045f3" y="36.056516"/>
     <use style="fill:#ff0000;stroke:#ff0000;" x="211.924793" xlink:href="#m1e5de045f3" y="36.062502"/>
     <use style="fill:#ff0000;stroke:#ff0000;" x="211.921734" xlink:href="#m1e5de045f3" y="36.068487"/>
     <use style="fill:#ff0000;stroke:#ff0000;" x="211.918765" xlink:href="#m1e5de045f3" y="36.074472"/>
     <use style="fill:#ff0000;stroke:#ff0000;" x="211.915888" xlink:href="#m1e5de045f3" y="36.080458"/>
     <use style="fill:#ff0000;stroke:#ff0000;" x="211.913102" xlink:href="#m1e5de045f3" y="36.086443"/>
     <use style="fill:#ff0000;stroke:#ff0000;" x="211.910407" xlink:href="#m1e5de045f3" y="36.092429"/>
     <use style="fill:#ff0000;stroke:#ff0000;" x="211.907802" xlink:href="#m1e5de045f3" y="36.098414"/>
     <use style="fill:#ff0000;stroke:#ff0000;" x="211.905289" xlink:href="#m1e5de045f3" y="36.104399"/>
     <use style="fill:#ff0000;stroke:#ff0000;" x="211.902867" xlink:href="#m1e5de045f3" y="36.110385"/>
     <use style="fill:#ff0000;stroke:#ff0000;" x="211.900536" xlink:href="#m1e5de045f3" y="36.11637"/>
     <use style="fill:#ff0000;stroke:#ff0000;" x="211.898296" xlink:href="#m1e5de045f3" y="36.122355"/>
     <use style="fill:#ff0000;stroke:#ff0000;" x="211.896147" xlink:href="#m1e5de045f3" y="36.128341"/>
     <use style="fill:#ff0000;stroke:#ff0000;" x="211.894089" xlink:href="#m1e5de045f3" y="36.134326"/>
     <use style="fill:#ff0000;stroke:#ff0000;" x="211.892122" xlink:href="#m1e5de045f3" y="36.140312"/>
     <use style="fill:#ff0000;stroke:#ff0000;" x="211.890247" xlink:href="#m1e5de045f3" y="36.146297"/>
     <use style="fill:#ff0000;stroke:#ff0000;" x="211.888462" xlink:href="#m1e5de045f3" y="36.152282"/>
     <use style="fill:#ff0000;stroke:#ff0000;" x="211.886768" xlink:href="#m1e5de045f3" y="36.158268"/>
     <use style="fill:#ff0000;stroke:#ff0000;" x="211.853862" xlink:href="#m1e5de045f3" y="36.280305"/>
     <use style="fill:#ff0000;stroke:#ff0000;" x="211.822352" xlink:href="#m1e5de045f3" y="36.402343"/>
     <use style="fill:#ff0000;stroke:#ff0000;" x="211.792237" xlink:href="#m1e5de045f3" y="36.524381"/>
     <use style="fill:#ff0000;stroke:#ff0000;" x="211.763519" xlink:href="#m1e5de045f3" y="36.646419"/>
     <use style="fill:#ff0000;stroke:#ff0000;" x="211.736198" xlink:href="#m1e5de045f3" y="36.768456"/>
     <use style="fill:#ff0000;stroke:#ff0000;" x="211.710275" xlink:href="#m1e5de045f3" y="36.890494"/>
     <use style="fill:#ff0000;stroke:#ff0000;" x="211.68575" xlink:href="#m1e5de045f3" y="37.012532"/>
     <use style="fill:#ff0000;stroke:#ff0000;" x="211.662624" xlink:href="#m1e5de045f3" y="37.13457"/>
     <use style="fill:#ff0000;stroke:#ff0000;" x="211.640898" xlink:href="#m1e5de045f3" y="37.256607"/>
     <use style="fill:#ff0000;stroke:#ff0000;" x="211.620571" xlink:href="#m1e5de045f3" y="37.378645"/>
     <use style="fill:#ff0000;stroke:#ff0000;" x="211.601644" xlink:href="#m1e5de045f3" y="37.500683"/>
     <use style="fill:#ff0000;stroke:#ff0000;" x="211.584117" xlink:href="#m1e5de045f3" y="37.62272"/>
     <use style="fill:#ff0000;stroke:#ff0000;" x="211.567992" xlink:href="#m1e5de045f3" y="37.744758"/>
     <use style="fill:#ff0000;stroke:#ff0000;" x="211.553267" xlink:href="#m1e5de045f3" y="37.866796"/>
     <use style="fill:#ff0000;stroke:#ff0000;" x="211.539944" xlink:href="#m1e5de045f3" y="37.988834"/>
     <use style="fill:#ff0000;stroke:#ff0000;" x="211.528023" xlink:href="#m1e5de045f3" y="38.110871"/>
     <use style="fill:#ff0000;stroke:#ff0000;" x="211.517503" xlink:href="#m1e5de045f3" y="38.232909"/>
     <use style="fill:#ff0000;stroke:#ff0000;" x="211.508386" xlink:href="#m1e5de045f3" y="38.354947"/>
     <use style="fill:#ff0000;stroke:#ff0000;" x="211.500671" xlink:href="#m1e5de045f3" y="38.476985"/>
     <use style="fill:#ff0000;stroke:#ff0000;" x="211.494359" xlink:href="#m1e5de045f3" y="38.599022"/>
     <use style="fill:#ff0000;stroke:#ff0000;" x="211.489449" xlink:href="#m1e5de045f3" y="38.72106"/>
     <use style="fill:#ff0000;stroke:#ff0000;" x="211.485942" xlink:href="#m1e5de045f3" y="38.843098"/>
     <use style="fill:#ff0000;stroke:#ff0000;" x="211.483838" xlink:href="#m1e5de045f3" y="38.965136"/>
     <use style="fill:#ff0000;stroke:#ff0000;" x="211.483136" xlink:href="#m1e5de045f3" y="39.087173"/>
    </g>
   </g>
   <g id="PathCollection_3">
    <defs>
     <path d="M 0 0.5 
C 0.132602 0.5 0.25979 0.447317 0.353553 0.353553 
C 0.447317 0.25979 0.5 0.132602 0.5 0 
C 0.5 -0.132602 0.447317 -0.25979 0.353553 -0.353553 
C 0.25979 -0.447317 0.132602 -0.5 0 -0.5 
C -0.132602 -0.5 -0.25979 -0.447317 -0.353553 -0.353553 
C -0.447317 -0.25979 -0.5 -0.132602 -0.5 0 
C -0.5 0.132602 -0.447317 0.25979 -0.353553 0.353553 
C -0.25979 0.447317 -0.132602 0.5 0 0.5 
z
" id="ma7d25494da" style="stroke:#008000;"/>
    </defs>
    <g clip-path="url(#p8a9f24dd54)">
     <use style="fill:#008000;stroke:#008000;" x="284.35408" xlink:href="#ma7d25494da" y="194.471253"/>
     <use style="fill:#008000;stroke:#008000;" x="284.35408" xlink:href="#ma7d25494da" y="194.471253"/>
     <use style="fill:#008000;stroke:#008000;" x="284.35408" xlink:href="#ma7d25494da" y="194.471253"/>
     <use style="fill:#008000;stroke:#008000;" x="284.35408" xlink:href="#ma7d25494da" y="194.471253"/>
     <use style="fill:#008000;stroke:#008000;" x="284.35408" xlink:href="#ma7d25494da" y="194.471253"/>
     <use style="fill:#008000;stroke:#008000;" x="284.35408" xlink:href="#ma7d25494da" y="194.471253"/>
     <use style="fill:#008000;stroke:#008000;" x="284.35408" xlink:href="#ma7d25494da" y="194.471253"/>
     <use style="fill:#008000;stroke:#008000;" x="284.35408" xlink:href="#ma7d25494da" y="194.471253"/>
     <use style="fill:#008000;stroke:#008000;" x="284.35408" xlink:href="#ma7d25494da" y="194.471253"/>
     <use style="fill:#008000;stroke:#008000;" x="284.35408" xlink:href="#ma7d25494da" y="194.471253"/>
     <use style="fill:#008000;stroke:#008000;" x="284.35408" xlink:href="#ma7d25494da" y="194.471253"/>
     <use style="fill:#008000;stroke:#008000;" x="284.35408" xlink:href="#ma7d25494da" y="194.471253"/>
     <use style="fill:#008000;stroke:#008000;" x="284.35408" xlink:href="#ma7d25494da" y="194.471253"/>
     <use style="fill:#008000;stroke:#008000;" x="284.35408" xlink:href="#ma7d25494da" y="194.471253"/>
     <use style="fill:#008000;stroke:#008000;" x="284.35408" xlink:href="#ma7d25494da" y="194.471253"/>
     <use style="fill:#008000;stroke:#008000;" x="284.35408" xlink:href="#ma7d25494da" y="194.471253"/>
     <use style="fill:#008000;stroke:#008000;" x="284.35408" xlink:href="#ma7d25494da" y="194.471253"/>
     <use style="fill:#008000;stroke:#008000;" x="284.35408" xlink:href="#ma7d25494da" y="194.471253"/>
     <use style="fill:#008000;stroke:#008000;" x="284.35408" xlink:href="#ma7d25494da" y="194.471253"/>
     <use style="fill:#008000;stroke:#008000;" x="284.35408" xlink:href="#ma7d25494da" y="194.471253"/>
     <use style="fill:#008000;stroke:#008000;" x="284.35408" xlink:href="#ma7d25494da" y="194.471253"/>
     <use style="fill:#008000;stroke:#008000;" x="284.35408" xlink:href="#ma7d25494da" y="194.471253"/>
     <use style="fill:#008000;stroke:#008000;" x="284.35408" xlink:href="#ma7d25494da" y="194.471253"/>
     <use style="fill:#008000;stroke:#008000;" x="284.35408" xlink:href="#ma7d25494da" y="194.471253"/>
     <use style="fill:#008000;stroke:#008000;" x="284.35408" xlink:href="#ma7d25494da" y="194.471253"/>
     <use style="fill:#008000;stroke:#008000;" x="284.35408" xlink:href="#ma7d25494da" y="194.471253"/>
     <use style="fill:#008000;stroke:#008000;" x="284.35408" xlink:href="#ma7d25494da" y="194.471253"/>
     <use style="fill:#008000;stroke:#008000;" x="284.35408" xlink:href="#ma7d25494da" y="194.471253"/>
     <use style="fill:#008000;stroke:#008000;" x="284.35408" xlink:href="#ma7d25494da" y="194.471253"/>
     <use style="fill:#008000;stroke:#008000;" x="284.35408" xlink:href="#ma7d25494da" y="194.471253"/>
     <use style="fill:#008000;stroke:#008000;" x="284.35408" xlink:href="#ma7d25494da" y="194.471253"/>
     <use style="fill:#008000;stroke:#008000;" x="284.35408" xlink:href="#ma7d25494da" y="194.471253"/>
     <use style="fill:#008000;stroke:#008000;" x="284.35408" xlink:href="#ma7d25494da" y="194.471253"/>
     <use style="fill:#008000;stroke:#008000;" x="282.08408" xlink:href="#ma7d25494da" y="195.757351"/>
     <use style="fill:#008000;stroke:#008000;" x="279.868426" xlink:href="#ma7d25494da" y="197.04345"/>
     <use style="fill:#008000;stroke:#008000;" x="277.70843" xlink:href="#ma7d25494da" y="198.329548"/>
     <use style="fill:#008000;stroke:#008000;" x="275.605414" xlink:href="#ma7d25494da" y="199.615646"/>
     <use style="fill:#008000;stroke:#008000;" x="273.560706" xlink:href="#ma7d25494da" y="200.901745"/>
     <use style="fill:#008000;stroke:#008000;" x="271.575637" xlink:href="#ma7d25494da" y="202.187843"/>
     <use style="fill:#008000;stroke:#008000;" x="269.651537" xlink:href="#ma7d25494da" y="203.473942"/>
     <use style="fill:#008000;stroke:#008000;" x="267.789734" xlink:href="#ma7d25494da" y="204.76004"/>
     <use style="fill:#008000;stroke:#008000;" x="265.99155" xlink:href="#ma7d25494da" y="206.046138"/>
     <use style="fill:#008000;stroke:#008000;" x="264.258298" xlink:href="#ma7d25494da" y="207.332237"/>
     <use style="fill:#008000;stroke:#008000;" x="262.591276" xlink:href="#ma7d25494da" y="208.618335"/>
     <use style="fill:#008000;stroke:#008000;" x="260.991769" xlink:href="#ma7d25494da" y="209.904434"/>
     <use style="fill:#008000;stroke:#008000;" x="259.461036" xlink:href="#ma7d25494da" y="211.190532"/>
     <use style="fill:#008000;stroke:#008000;" x="258.000317" xlink:href="#ma7d25494da" y="212.47663"/>
     <use style="fill:#008000;stroke:#008000;" x="256.61082" xlink:href="#ma7d25494da" y="213.762729"/>
     <use style="fill:#008000;stroke:#008000;" x="255.293719" xlink:href="#ma7d25494da" y="215.048827"/>
     <use style="fill:#008000;stroke:#008000;" x="254.050155" xlink:href="#ma7d25494da" y="216.334926"/>
     <use style="fill:#008000;stroke:#008000;" x="252.881223" xlink:href="#ma7d25494da" y="217.621024"/>
     <use style="fill:#008000;stroke:#008000;" x="251.787975" xlink:href="#ma7d25494da" y="218.907122"/>
     <use style="fill:#008000;stroke:#008000;" x="250.771411" xlink:href="#ma7d25494da" y="220.193221"/>
     <use style="fill:#008000;stroke:#008000;" x="249.832479" xlink:href="#ma7d25494da" y="221.479319"/>
     <use style="fill:#008000;stroke:#008000;" x="248.972065" xlink:href="#ma7d25494da" y="222.765417"/>
     <use style="fill:#008000;stroke:#008000;" x="248.190996" xlink:href="#ma7d25494da" y="224.051516"/>
     <use style="fill:#008000;stroke:#008000;" x="247.490032" xlink:href="#ma7d25494da" y="225.337614"/>
     <use style="fill:#008000;stroke:#008000;" x="246.869863" xlink:href="#ma7d25494da" y="226.623713"/>
     <use style="fill:#008000;stroke:#008000;" x="246.331106" xlink:href="#ma7d25494da" y="227.909811"/>
     <use style="fill:#008000;stroke:#008000;" x="245.874302" xlink:href="#ma7d25494da" y="229.195909"/>
     <use style="fill:#008000;stroke:#008000;" x="245.499914" xlink:href="#ma7d25494da" y="230.482008"/>
     <use style="fill:#008000;stroke:#008000;" x="245.208323" xlink:href="#ma7d25494da" y="231.768106"/>
     <use style="fill:#008000;stroke:#008000;" x="244.99983" xlink:href="#ma7d25494da" y="233.054205"/>
     <use style="fill:#008000;stroke:#008000;" x="244.874647" xlink:href="#ma7d25494da" y="234.340303"/>
     <use style="fill:#008000;stroke:#008000;" x="244.832905" xlink:href="#ma7d25494da" y="235.626401"/>
    </g>
   </g>
   <g id="matplotlib.axis_1">
    <g id="xtick_1">
     <g id="line2d_1">
      <defs>
       <path d="M 0 0 
L 0 3.5 
" id="m5933fb2f21" style="stroke:#000000;stroke-width:0.8;"/>
      </defs>
      <g>
       <use style="stroke:#000000;stroke-width:0.8;" x="88.715854" xlink:href="#m5933fb2f21" y="245.84375"/>
      </g>
     </g>
     <g id="text_1">
      <!-- 0.2 -->
      <defs>
       <path d="M 31.78125 66.40625 
Q 24.171875 66.40625 20.328125 58.90625 
Q 16.5 51.421875 16.5 36.375 
Q 16.5 21.390625 20.328125 13.890625 
Q 24.171875 6.390625 31.78125 6.390625 
Q 39.453125 6.390625 43.28125 13.890625 
Q 47.125 21.390625 47.125 36.375 
Q 47.125 51.421875 43.28125 58.90625 
Q 39.453125 66.40625 31.78125 66.40625 
z
M 31.78125 74.21875 
Q 44.046875 74.21875 50.515625 64.515625 
Q 56.984375 54.828125 56.984375 36.375 
Q 56.984375 17.96875 50.515625 8.265625 
Q 44.046875 -1.421875 31.78125 -1.421875 
Q 19.53125 -1.421875 13.0625 8.265625 
Q 6.59375 17.96875 6.59375 36.375 
Q 6.59375 54.828125 13.0625 64.515625 
Q 19.53125 74.21875 31.78125 74.21875 
z
" id="DejaVuSans-48"/>
       <path d="M 10.6875 12.40625 
L 21 12.40625 
L 21 0 
L 10.6875 0 
z
" id="DejaVuSans-46"/>
       <path d="M 19.1875 8.296875 
L 53.609375 8.296875 
L 53.609375 0 
L 7.328125 0 
L 7.328125 8.296875 
Q 12.9375 14.109375 22.625 23.890625 
Q 32.328125 33.6875 34.8125 36.53125 
Q 39.546875 41.84375 41.421875 45.53125 
Q 43.3125 49.21875 43.3125 52.78125 
Q 43.3125 58.59375 39.234375 62.25 
Q 35.15625 65.921875 28.609375 65.921875 
Q 23.96875 65.921875 18.8125 64.3125 
Q 13.671875 62.703125 7.8125 59.421875 
L 7.8125 69.390625 
Q 13.765625 71.78125 18.9375 73 
Q 24.125 74.21875 28.421875 74.21875 
Q 39.75 74.21875 46.484375 68.546875 
Q 53.21875 62.890625 53.21875 53.421875 
Q 53.21875 48.921875 51.53125 44.890625 
Q 49.859375 40.875 45.40625 35.40625 
Q 44.1875 33.984375 37.640625 27.21875 
Q 31.109375 20.453125 19.1875 8.296875 
z
" id="DejaVuSans-50"/>
      </defs>
      <g transform="translate(80.764291 260.442187)scale(0.1 -0.1)">
       <use xlink:href="#DejaVuSans-48"/>
       <use x="63.623047" xlink:href="#DejaVuSans-46"/>
       <use x="95.410156" xlink:href="#DejaVuSans-50"/>
      </g>
     </g>
    </g>
    <g id="xtick_2">
     <g id="line2d_2">
      <g>
       <use style="stroke:#000000;stroke-width:0.8;" x="131.69187" xlink:href="#m5933fb2f21" y="245.84375"/>
      </g>
     </g>
     <g id="text_2">
      <!-- 0.3 -->
      <defs>
       <path d="M 40.578125 39.3125 
Q 47.65625 37.796875 51.625 33 
Q 55.609375 28.21875 55.609375 21.1875 
Q 55.609375 10.40625 48.1875 4.484375 
Q 40.765625 -1.421875 27.09375 -1.421875 
Q 22.515625 -1.421875 17.65625 -0.515625 
Q 12.796875 0.390625 7.625 2.203125 
L 7.625 11.71875 
Q 11.71875 9.328125 16.59375 8.109375 
Q 21.484375 6.890625 26.8125 6.890625 
Q 36.078125 6.890625 40.9375 10.546875 
Q 45.796875 14.203125 45.796875 21.1875 
Q 45.796875 27.640625 41.28125 31.265625 
Q 36.765625 34.90625 28.71875 34.90625 
L 20.21875 34.90625 
L 20.21875 43.015625 
L 29.109375 43.015625 
Q 36.375 43.015625 40.234375 45.921875 
Q 44.09375 48.828125 44.09375 54.296875 
Q 44.09375 59.90625 40.109375 62.90625 
Q 36.140625 65.921875 28.71875 65.921875 
Q 24.65625 65.921875 20.015625 65.03125 
Q 15.375 64.15625 9.8125 62.3125 
L 9.8125 71.09375 
Q 15.4375 72.65625 20.34375 73.4375 
Q 25.25 74.21875 29.59375 74.21875 
Q 40.828125 74.21875 47.359375 69.109375 
Q 53.90625 64.015625 53.90625 55.328125 
Q 53.90625 49.265625 50.4375 45.09375 
Q 46.96875 40.921875 40.578125 39.3125 
z
" id="DejaVuSans-51"/>
      </defs>
      <g transform="translate(123.740308 260.442187)scale(0.1 -0.1)">
       <use xlink:href="#DejaVuSans-48"/>
       <use x="63.623047" xlink:href="#DejaVuSans-46"/>
       <use x="95.410156" xlink:href="#DejaVuSans-51"/>
      </g>
     </g>
    </g>
    <g id="xtick_3">
     <g id="line2d_3">
      <g>
       <use style="stroke:#000000;stroke-width:0.8;" x="174.667887" xlink:href="#m5933fb2f21" y="245.84375"/>
      </g>
     </g>
     <g id="text_3">
      <!-- 0.4 -->
      <defs>
       <path d="M 37.796875 64.3125 
L 12.890625 25.390625 
L 37.796875 25.390625 
z
M 35.203125 72.90625 
L 47.609375 72.90625 
L 47.609375 25.390625 
L 58.015625 25.390625 
L 58.015625 17.1875 
L 47.609375 17.1875 
L 47.609375 0 
L 37.796875 0 
L 37.796875 17.1875 
L 4.890625 17.1875 
L 4.890625 26.703125 
z
" id="DejaVuSans-52"/>
      </defs>
      <g transform="translate(166.716324 260.442187)scale(0.1 -0.1)">
       <use xlink:href="#DejaVuSans-48"/>
       <use x="63.623047" xlink:href="#DejaVuSans-46"/>
       <use x="95.410156" xlink:href="#DejaVuSans-52"/>
      </g>
     </g>
    </g>
    <g id="xtick_4">
     <g id="line2d_4">
      <g>
       <use style="stroke:#000000;stroke-width:0.8;" x="217.643903" xlink:href="#m5933fb2f21" y="245.84375"/>
      </g>
     </g>
     <g id="text_4">
      <!-- 0.5 -->
      <defs>
       <path d="M 10.796875 72.90625 
L 49.515625 72.90625 
L 49.515625 64.59375 
L 19.828125 64.59375 
L 19.828125 46.734375 
Q 21.96875 47.46875 24.109375 47.828125 
Q 26.265625 48.1875 28.421875 48.1875 
Q 40.625 48.1875 47.75 41.5 
Q 54.890625 34.8125 54.890625 23.390625 
Q 54.890625 11.625 47.5625 5.09375 
Q 40.234375 -1.421875 26.90625 -1.421875 
Q 22.3125 -1.421875 17.546875 -0.640625 
Q 12.796875 0.140625 7.71875 1.703125 
L 7.71875 11.625 
Q 12.109375 9.234375 16.796875 8.0625 
Q 21.484375 6.890625 26.703125 6.890625 
Q 35.15625 6.890625 40.078125 11.328125 
Q 45.015625 15.765625 45.015625 23.390625 
Q 45.015625 31 40.078125 35.4375 
Q 35.15625 39.890625 26.703125 39.890625 
Q 22.75 39.890625 18.8125 39.015625 
Q 14.890625 38.140625 10.796875 36.28125 
z
" id="DejaVuSans-53"/>
      </defs>
      <g transform="translate(209.692341 260.442187)scale(0.1 -0.1)">
       <use xlink:href="#DejaVuSans-48"/>
       <use x="63.623047" xlink:href="#DejaVuSans-46"/>
       <use x="95.410156" xlink:href="#DejaVuSans-53"/>
      </g>
     </g>
    </g>
    <g id="xtick_5">
     <g id="line2d_5">
      <g>
       <use style="stroke:#000000;stroke-width:0.8;" x="260.61992" xlink:href="#m5933fb2f21" y="245.84375"/>
      </g>
     </g>
     <g id="text_5">
      <!-- 0.6 -->
      <defs>
       <path d="M 33.015625 40.375 
Q 26.375 40.375 22.484375 35.828125 
Q 18.609375 31.296875 18.609375 23.390625 
Q 18.609375 15.53125 22.484375 10.953125 
Q 26.375 6.390625 33.015625 6.390625 
Q 39.65625 6.390625 43.53125 10.953125 
Q 47.40625 15.53125 47.40625 23.390625 
Q 47.40625 31.296875 43.53125 35.828125 
Q 39.65625 40.375 33.015625 40.375 
z
M 52.59375 71.296875 
L 52.59375 62.3125 
Q 48.875 64.0625 45.09375 64.984375 
Q 41.3125 65.921875 37.59375 65.921875 
Q 27.828125 65.921875 22.671875 59.328125 
Q 17.53125 52.734375 16.796875 39.40625 
Q 19.671875 43.65625 24.015625 45.921875 
Q 28.375 48.1875 33.59375 48.1875 
Q 44.578125 48.1875 50.953125 41.515625 
Q 57.328125 34.859375 57.328125 23.390625 
Q 57.328125 12.15625 50.6875 5.359375 
Q 44.046875 -1.421875 33.015625 -1.421875 
Q 20.359375 -1.421875 13.671875 8.265625 
Q 6.984375 17.96875 6.984375 36.375 
Q 6.984375 53.65625 15.1875 63.9375 
Q 23.390625 74.21875 37.203125 74.21875 
Q 40.921875 74.21875 44.703125 73.484375 
Q 48.484375 72.75 52.59375 71.296875 
z
" id="DejaVuSans-54"/>
      </defs>
      <g transform="translate(252.668357 260.442187)scale(0.1 -0.1)">
       <use xlink:href="#DejaVuSans-48"/>
       <use x="63.623047" xlink:href="#DejaVuSans-46"/>
       <use x="95.410156" xlink:href="#DejaVuSans-54"/>
      </g>
     </g>
    </g>
    <g id="text_6">
     <!-- Standard Deviation -->
     <defs>
      <path d="M 53.515625 70.515625 
L 53.515625 60.890625 
Q 47.90625 63.578125 42.921875 64.890625 
Q 37.9375 66.21875 33.296875 66.21875 
Q 25.25 66.21875 20.875 63.09375 
Q 16.5 59.96875 16.5 54.203125 
Q 16.5 49.359375 19.40625 46.890625 
Q 22.3125 44.4375 30.421875 42.921875 
L 36.375 41.703125 
Q 47.40625 39.59375 52.65625 34.296875 
Q 57.90625 29 57.90625 20.125 
Q 57.90625 9.515625 50.796875 4.046875 
Q 43.703125 -1.421875 29.984375 -1.421875 
Q 24.8125 -1.421875 18.96875 -0.25 
Q 13.140625 0.921875 6.890625 3.21875 
L 6.890625 13.375 
Q 12.890625 10.015625 18.65625 8.296875 
Q 24.421875 6.59375 29.984375 6.59375 
Q 38.421875 6.59375 43.015625 9.90625 
Q 47.609375 13.234375 47.609375 19.390625 
Q 47.609375 24.75 44.3125 27.78125 
Q 41.015625 30.8125 33.5 32.328125 
L 27.484375 33.5 
Q 16.453125 35.6875 11.515625 40.375 
Q 6.59375 45.0625 6.59375 53.421875 
Q 6.59375 63.09375 13.40625 68.65625 
Q 20.21875 74.21875 32.171875 74.21875 
Q 37.3125 74.21875 42.625 73.28125 
Q 47.953125 72.359375 53.515625 70.515625 
z
" id="DejaVuSans-83"/>
      <path d="M 18.3125 70.21875 
L 18.3125 54.6875 
L 36.8125 54.6875 
L 36.8125 47.703125 
L 18.3125 47.703125 
L 18.3125 18.015625 
Q 18.3125 11.328125 20.140625 9.421875 
Q 21.96875 7.515625 27.59375 7.515625 
L 36.8125 7.515625 
L 36.8125 0 
L 27.59375 0 
Q 17.1875 0 13.234375 3.875 
Q 9.28125 7.765625 9.28125 18.015625 
L 9.28125 47.703125 
L 2.6875 47.703125 
L 2.6875 54.6875 
L 9.28125 54.6875 
L 9.28125 70.21875 
z
" id="DejaVuSans-116"/>
      <path d="M 34.28125 27.484375 
Q 23.390625 27.484375 19.1875 25 
Q 14.984375 22.515625 14.984375 16.5 
Q 14.984375 11.71875 18.140625 8.90625 
Q 21.296875 6.109375 26.703125 6.109375 
Q 34.1875 6.109375 38.703125 11.40625 
Q 43.21875 16.703125 43.21875 25.484375 
L 43.21875 27.484375 
z
M 52.203125 31.203125 
L 52.203125 0 
L 43.21875 0 
L 43.21875 8.296875 
Q 40.140625 3.328125 35.546875 0.953125 
Q 30.953125 -1.421875 24.3125 -1.421875 
Q 15.921875 -1.421875 10.953125 3.296875 
Q 6 8.015625 6 15.921875 
Q 6 25.140625 12.171875 29.828125 
Q 18.359375 34.515625 30.609375 34.515625 
L 43.21875 34.515625 
L 43.21875 35.40625 
Q 43.21875 41.609375 39.140625 45 
Q 35.0625 48.390625 27.6875 48.390625 
Q 23 48.390625 18.546875 47.265625 
Q 14.109375 46.140625 10.015625 43.890625 
L 10.015625 52.203125 
Q 14.9375 54.109375 19.578125 55.046875 
Q 24.21875 56 28.609375 56 
Q 40.484375 56 46.34375 49.84375 
Q 52.203125 43.703125 52.203125 31.203125 
z
" id="DejaVuSans-97"/>
      <path d="M 54.890625 33.015625 
L 54.890625 0 
L 45.90625 0 
L 45.90625 32.71875 
Q 45.90625 40.484375 42.875 44.328125 
Q 39.84375 48.1875 33.796875 48.1875 
Q 26.515625 48.1875 22.3125 43.546875 
Q 18.109375 38.921875 18.109375 30.90625 
L 18.109375 0 
L 9.078125 0 
L 9.078125 54.6875 
L 18.109375 54.6875 
L 18.109375 46.1875 
Q 21.34375 51.125 25.703125 53.5625 
Q 30.078125 56 35.796875 56 
Q 45.21875 56 50.046875 50.171875 
Q 54.890625 44.34375 54.890625 33.015625 
z
" id="DejaVuSans-110"/>
      <path d="M 45.40625 46.390625 
L 45.40625 75.984375 
L 54.390625 75.984375 
L 54.390625 0 
L 45.40625 0 
L 45.40625 8.203125 
Q 42.578125 3.328125 38.25 0.953125 
Q 33.9375 -1.421875 27.875 -1.421875 
Q 17.96875 -1.421875 11.734375 6.484375 
Q 5.515625 14.40625 5.515625 27.296875 
Q 5.515625 40.1875 11.734375 48.09375 
Q 17.96875 56 27.875 56 
Q 33.9375 56 38.25 53.625 
Q 42.578125 51.265625 45.40625 46.390625 
z
M 14.796875 27.296875 
Q 14.796875 17.390625 18.875 11.75 
Q 22.953125 6.109375 30.078125 6.109375 
Q 37.203125 6.109375 41.296875 11.75 
Q 45.40625 17.390625 45.40625 27.296875 
Q 45.40625 37.203125 41.296875 42.84375 
Q 37.203125 48.484375 30.078125 48.484375 
Q 22.953125 48.484375 18.875 42.84375 
Q 14.796875 37.203125 14.796875 27.296875 
z
" id="DejaVuSans-100"/>
      <path d="M 41.109375 46.296875 
Q 39.59375 47.171875 37.8125 47.578125 
Q 36.03125 48 33.890625 48 
Q 26.265625 48 22.1875 43.046875 
Q 18.109375 38.09375 18.109375 28.8125 
L 18.109375 0 
L 9.078125 0 
L 9.078125 54.6875 
L 18.109375 54.6875 
L 18.109375 46.1875 
Q 20.953125 51.171875 25.484375 53.578125 
Q 30.03125 56 36.53125 56 
Q 37.453125 56 38.578125 55.875 
Q 39.703125 55.765625 41.0625 55.515625 
z
" id="DejaVuSans-114"/>
      <path id="DejaVuSans-32"/>
      <path d="M 19.671875 64.796875 
L 19.671875 8.109375 
L 31.59375 8.109375 
Q 46.6875 8.109375 53.6875 14.9375 
Q 60.6875 21.78125 60.6875 36.53125 
Q 60.6875 51.171875 53.6875 57.984375 
Q 46.6875 64.796875 31.59375 64.796875 
z
M 9.8125 72.90625 
L 30.078125 72.90625 
Q 51.265625 72.90625 61.171875 64.09375 
Q 71.09375 55.28125 71.09375 36.53125 
Q 71.09375 17.671875 61.125 8.828125 
Q 51.171875 0 30.078125 0 
L 9.8125 0 
z
" id="DejaVuSans-68"/>
      <path d="M 56.203125 29.59375 
L 56.203125 25.203125 
L 14.890625 25.203125 
Q 15.484375 15.921875 20.484375 11.0625 
Q 25.484375 6.203125 34.421875 6.203125 
Q 39.59375 6.203125 44.453125 7.46875 
Q 49.3125 8.734375 54.109375 11.28125 
L 54.109375 2.78125 
Q 49.265625 0.734375 44.1875 -0.34375 
Q 39.109375 -1.421875 33.890625 -1.421875 
Q 20.796875 -1.421875 13.15625 6.1875 
Q 5.515625 13.8125 5.515625 26.8125 
Q 5.515625 40.234375 12.765625 48.109375 
Q 20.015625 56 32.328125 56 
Q 43.359375 56 49.78125 48.890625 
Q 56.203125 41.796875 56.203125 29.59375 
z
M 47.21875 32.234375 
Q 47.125 39.59375 43.09375 43.984375 
Q 39.0625 48.390625 32.421875 48.390625 
Q 24.90625 48.390625 20.390625 44.140625 
Q 15.875 39.890625 15.1875 32.171875 
z
" id="DejaVuSans-101"/>
      <path d="M 2.984375 54.6875 
L 12.5 54.6875 
L 29.59375 8.796875 
L 46.6875 54.6875 
L 56.203125 54.6875 
L 35.6875 0 
L 23.484375 0 
z
" id="DejaVuSans-118"/>
      <path d="M 9.421875 54.6875 
L 18.40625 54.6875 
L 18.40625 0 
L 9.421875 0 
z
M 9.421875 75.984375 
L 18.40625 75.984375 
L 18.40625 64.59375 
L 9.421875 64.59375 
z
" id="DejaVuSans-105"/>
      <path d="M 30.609375 48.390625 
Q 23.390625 48.390625 19.1875 42.75 
Q 14.984375 37.109375 14.984375 27.296875 
Q 14.984375 17.484375 19.15625 11.84375 
Q 23.34375 6.203125 30.609375 6.203125 
Q 37.796875 6.203125 41.984375 11.859375 
Q 46.1875 17.53125 46.1875 27.296875 
Q 46.1875 37.015625 41.984375 42.703125 
Q 37.796875 48.390625 30.609375 48.390625 
z
M 30.609375 56 
Q 42.328125 56 49.015625 48.375 
Q 55.71875 40.765625 55.71875 27.296875 
Q 55.71875 13.875 49.015625 6.21875 
Q 42.328125 -1.421875 30.609375 -1.421875 
Q 18.84375 -1.421875 12.171875 6.21875 
Q 5.515625 13.875 5.515625 27.296875 
Q 5.515625 40.765625 12.171875 48.375 
Q 18.84375 56 30.609375 56 
z
" id="DejaVuSans-111"/>
     </defs>
     <g transform="translate(127.329986 274.120313)scale(0.1 -0.1)">
      <use xlink:href="#DejaVuSans-83"/>
      <use x="63.476562" xlink:href="#DejaVuSans-116"/>
      <use x="102.685547" xlink:href="#DejaVuSans-97"/>
      <use x="163.964844" xlink:href="#DejaVuSans-110"/>
      <use x="227.34375" xlink:href="#DejaVuSans-100"/>
      <use x="290.820312" xlink:href="#DejaVuSans-97"/>
      <use x="352.099609" xlink:href="#DejaVuSans-114"/>
      <use x="393.197266" xlink:href="#DejaVuSans-100"/>
      <use x="456.673828" xlink:href="#DejaVuSans-32"/>
      <use x="488.460938" xlink:href="#DejaVuSans-68"/>
      <use x="565.462891" xlink:href="#DejaVuSans-101"/>
      <use x="626.986328" xlink:href="#DejaVuSans-118"/>
      <use x="686.166016" xlink:href="#DejaVuSans-105"/>
      <use x="713.949219" xlink:href="#DejaVuSans-97"/>
      <use x="775.228516" xlink:href="#DejaVuSans-116"/>
      <use x="814.4375" xlink:href="#DejaVuSans-105"/>
      <use x="842.220703" xlink:href="#DejaVuSans-111"/>
      <use x="903.402344" xlink:href="#DejaVuSans-110"/>
     </g>
    </g>
   </g>
   <g id="matplotlib.axis_2">
    <g id="ytick_1">
     <g id="line2d_6">
      <defs>
       <path d="M 0 0 
L -3.5 0 
" id="m7201983712" style="stroke:#000000;stroke-width:0.8;"/>
      </defs>
      <g>
       <use style="stroke:#000000;stroke-width:0.8;" x="55.760938" xlink:href="#m7201983712" y="223.0283"/>
      </g>
     </g>
     <g id="text_7">
      <!-- −0.1 -->
      <defs>
       <path d="M 10.59375 35.5 
L 73.1875 35.5 
L 73.1875 27.203125 
L 10.59375 27.203125 
z
" id="DejaVuSans-8722"/>
       <path d="M 12.40625 8.296875 
L 28.515625 8.296875 
L 28.515625 63.921875 
L 10.984375 60.40625 
L 10.984375 69.390625 
L 28.421875 72.90625 
L 38.28125 72.90625 
L 38.28125 8.296875 
L 54.390625 8.296875 
L 54.390625 0 
L 12.40625 0 
z
" id="DejaVuSans-49"/>
      </defs>
      <g transform="translate(24.478125 226.827519)scale(0.1 -0.1)">
       <use xlink:href="#DejaVuSans-8722"/>
       <use x="83.789062" xlink:href="#DejaVuSans-48"/>
       <use x="147.412109" xlink:href="#DejaVuSans-46"/>
       <use x="179.199219" xlink:href="#DejaVuSans-49"/>
      </g>
     </g>
    </g>
    <g id="ytick_2">
     <g id="line2d_7">
      <g>
       <use style="stroke:#000000;stroke-width:0.8;" x="55.760938" xlink:href="#m7201983712" y="188.77767"/>
      </g>
     </g>
     <g id="text_8">
      <!-- 0.0 -->
      <g transform="translate(32.857813 192.576888)scale(0.1 -0.1)">
       <use xlink:href="#DejaVuSans-48"/>
       <use x="63.623047" xlink:href="#DejaVuSans-46"/>
       <use x="95.410156" xlink:href="#DejaVuSans-48"/>
      </g>
     </g>
    </g>
    <g id="ytick_3">
     <g id="line2d_8">
      <g>
       <use style="stroke:#000000;stroke-width:0.8;" x="55.760938" xlink:href="#m7201983712" y="154.527039"/>
      </g>
     </g>
     <g id="text_9">
      <!-- 0.1 -->
      <g transform="translate(32.857813 158.326258)scale(0.1 -0.1)">
       <use xlink:href="#DejaVuSans-48"/>
       <use x="63.623047" xlink:href="#DejaVuSans-46"/>
       <use x="95.410156" xlink:href="#DejaVuSans-49"/>
      </g>
     </g>
    </g>
    <g id="ytick_4">
     <g id="line2d_9">
      <g>
       <use style="stroke:#000000;stroke-width:0.8;" x="55.760938" xlink:href="#m7201983712" y="120.276409"/>
      </g>
     </g>
     <g id="text_10">
      <!-- 0.2 -->
      <g transform="translate(32.857813 124.075628)scale(0.1 -0.1)">
       <use xlink:href="#DejaVuSans-48"/>
       <use x="63.623047" xlink:href="#DejaVuSans-46"/>
       <use x="95.410156" xlink:href="#DejaVuSans-50"/>
      </g>
     </g>
    </g>
    <g id="ytick_5">
     <g id="line2d_10">
      <g>
       <use style="stroke:#000000;stroke-width:0.8;" x="55.760938" xlink:href="#m7201983712" y="86.025778"/>
      </g>
     </g>
     <g id="text_11">
      <!-- 0.3 -->
      <g transform="translate(32.857813 89.824997)scale(0.1 -0.1)">
       <use xlink:href="#DejaVuSans-48"/>
       <use x="63.623047" xlink:href="#DejaVuSans-46"/>
       <use x="95.410156" xlink:href="#DejaVuSans-51"/>
      </g>
     </g>
    </g>
    <g id="ytick_6">
     <g id="line2d_11">
      <g>
       <use style="stroke:#000000;stroke-width:0.8;" x="55.760938" xlink:href="#m7201983712" y="51.775148"/>
      </g>
     </g>
     <g id="text_12">
      <!-- 0.4 -->
      <g transform="translate(32.857813 55.574367)scale(0.1 -0.1)">
       <use xlink:href="#DejaVuSans-48"/>
       <use x="63.623047" xlink:href="#DejaVuSans-46"/>
       <use x="95.410156" xlink:href="#DejaVuSans-52"/>
      </g>
     </g>
    </g>
    <g id="text_13">
     <!-- Expected Return -->
     <defs>
      <path d="M 9.8125 72.90625 
L 55.90625 72.90625 
L 55.90625 64.59375 
L 19.671875 64.59375 
L 19.671875 43.015625 
L 54.390625 43.015625 
L 54.390625 34.71875 
L 19.671875 34.71875 
L 19.671875 8.296875 
L 56.78125 8.296875 
L 56.78125 0 
L 9.8125 0 
z
" id="DejaVuSans-69"/>
      <path d="M 54.890625 54.6875 
L 35.109375 28.078125 
L 55.90625 0 
L 45.3125 0 
L 29.390625 21.484375 
L 13.484375 0 
L 2.875 0 
L 24.125 28.609375 
L 4.6875 54.6875 
L 15.28125 54.6875 
L 29.78125 35.203125 
L 44.28125 54.6875 
z
" id="DejaVuSans-120"/>
      <path d="M 18.109375 8.203125 
L 18.109375 -20.796875 
L 9.078125 -20.796875 
L 9.078125 54.6875 
L 18.109375 54.6875 
L 18.109375 46.390625 
Q 20.953125 51.265625 25.265625 53.625 
Q 29.59375 56 35.59375 56 
Q 45.5625 56 51.78125 48.09375 
Q 58.015625 40.1875 58.015625 27.296875 
Q 58.015625 14.40625 51.78125 6.484375 
Q 45.5625 -1.421875 35.59375 -1.421875 
Q 29.59375 -1.421875 25.265625 0.953125 
Q 20.953125 3.328125 18.109375 8.203125 
z
M 48.6875 27.296875 
Q 48.6875 37.203125 44.609375 42.84375 
Q 40.53125 48.484375 33.40625 48.484375 
Q 26.265625 48.484375 22.1875 42.84375 
Q 18.109375 37.203125 18.109375 27.296875 
Q 18.109375 17.390625 22.1875 11.75 
Q 26.265625 6.109375 33.40625 6.109375 
Q 40.53125 6.109375 44.609375 11.75 
Q 48.6875 17.390625 48.6875 27.296875 
z
" id="DejaVuSans-112"/>
      <path d="M 48.78125 52.59375 
L 48.78125 44.1875 
Q 44.96875 46.296875 41.140625 47.34375 
Q 37.3125 48.390625 33.40625 48.390625 
Q 24.65625 48.390625 19.8125 42.84375 
Q 14.984375 37.3125 14.984375 27.296875 
Q 14.984375 17.28125 19.8125 11.734375 
Q 24.65625 6.203125 33.40625 6.203125 
Q 37.3125 6.203125 41.140625 7.25 
Q 44.96875 8.296875 48.78125 10.40625 
L 48.78125 2.09375 
Q 45.015625 0.34375 40.984375 -0.53125 
Q 36.96875 -1.421875 32.421875 -1.421875 
Q 20.0625 -1.421875 12.78125 6.34375 
Q 5.515625 14.109375 5.515625 27.296875 
Q 5.515625 40.671875 12.859375 48.328125 
Q 20.21875 56 33.015625 56 
Q 37.15625 56 41.109375 55.140625 
Q 45.0625 54.296875 48.78125 52.59375 
z
" id="DejaVuSans-99"/>
      <path d="M 44.390625 34.1875 
Q 47.5625 33.109375 50.5625 29.59375 
Q 53.5625 26.078125 56.59375 19.921875 
L 66.609375 0 
L 56 0 
L 46.6875 18.703125 
Q 43.0625 26.03125 39.671875 28.421875 
Q 36.28125 30.8125 30.421875 30.8125 
L 19.671875 30.8125 
L 19.671875 0 
L 9.8125 0 
L 9.8125 72.90625 
L 32.078125 72.90625 
Q 44.578125 72.90625 50.734375 67.671875 
Q 56.890625 62.453125 56.890625 51.90625 
Q 56.890625 45.015625 53.6875 40.46875 
Q 50.484375 35.9375 44.390625 34.1875 
z
M 19.671875 64.796875 
L 19.671875 38.921875 
L 32.078125 38.921875 
Q 39.203125 38.921875 42.84375 42.21875 
Q 46.484375 45.515625 46.484375 51.90625 
Q 46.484375 58.296875 42.84375 61.546875 
Q 39.203125 64.796875 32.078125 64.796875 
z
" id="DejaVuSans-82"/>
      <path d="M 8.5 21.578125 
L 8.5 54.6875 
L 17.484375 54.6875 
L 17.484375 21.921875 
Q 17.484375 14.15625 20.5 10.265625 
Q 23.53125 6.390625 29.59375 6.390625 
Q 36.859375 6.390625 41.078125 11.03125 
Q 45.3125 15.671875 45.3125 23.6875 
L 45.3125 54.6875 
L 54.296875 54.6875 
L 54.296875 0 
L 45.3125 0 
L 45.3125 8.40625 
Q 42.046875 3.421875 37.71875 1 
Q 33.40625 -1.421875 27.6875 -1.421875 
Q 18.265625 -1.421875 13.375 4.4375 
Q 8.5 10.296875 8.5 21.578125 
z
M 31.109375 56 
z
" id="DejaVuSans-117"/>
     </defs>
     <g transform="translate(18.398438 177.699688)rotate(-90)scale(0.1 -0.1)">
      <use xlink:href="#DejaVuSans-69"/>
      <use x="63.183594" xlink:href="#DejaVuSans-120"/>
      <use x="122.363281" xlink:href="#DejaVuSans-112"/>
      <use x="185.839844" xlink:href="#DejaVuSans-101"/>
      <use x="247.363281" xlink:href="#DejaVuSans-99"/>
      <use x="302.34375" xlink:href="#DejaVuSans-116"/>
      <use x="341.552734" xlink:href="#DejaVuSans-101"/>
      <use x="403.076172" xlink:href="#DejaVuSans-100"/>
      <use x="466.552734" xlink:href="#DejaVuSans-32"/>
      <use x="498.339844" xlink:href="#DejaVuSans-82"/>
      <use x="567.759766" xlink:href="#DejaVuSans-101"/>
      <use x="629.283203" xlink:href="#DejaVuSans-116"/>
      <use x="668.492188" xlink:href="#DejaVuSans-117"/>
      <use x="731.871094" xlink:href="#DejaVuSans-114"/>
      <use x="772.96875" xlink:href="#DejaVuSans-110"/>
     </g>
    </g>
   </g>
   <g id="patch_3">
    <path d="M 55.760938 245.84375 
L 55.760938 25.918125 
" style="fill:none;stroke:#000000;stroke-linecap:square;stroke-linejoin:miter;stroke-width:0.8;"/>
   </g>
   <g id="patch_4">
    <path d="M 295.578722 245.84375 
L 295.578722 25.918125 
" style="fill:none;stroke:#000000;stroke-linecap:square;stroke-linejoin:miter;stroke-width:0.8;"/>
   </g>
   <g id="patch_5">
    <path d="M 55.760938 245.84375 
L 295.578722 245.84375 
" style="fill:none;stroke:#000000;stroke-linecap:square;stroke-linejoin:miter;stroke-width:0.8;"/>
   </g>
   <g id="patch_6">
    <path d="M 55.760938 25.918125 
L 295.578722 25.918125 
" style="fill:none;stroke:#000000;stroke-linecap:square;stroke-linejoin:miter;stroke-width:0.8;"/>
   </g>
   <g id="text_14">
    <!-- Efficient Frontiers for the Crisis Subperiods -->
    <defs>
     <path d="M 37.109375 75.984375 
L 37.109375 68.5 
L 28.515625 68.5 
Q 23.6875 68.5 21.796875 66.546875 
Q 19.921875 64.59375 19.921875 59.515625 
L 19.921875 54.6875 
L 34.71875 54.6875 
L 34.71875 47.703125 
L 19.921875 47.703125 
L 19.921875 0 
L 10.890625 0 
L 10.890625 47.703125 
L 2.296875 47.703125 
L 2.296875 54.6875 
L 10.890625 54.6875 
L 10.890625 58.5 
Q 10.890625 67.625 15.140625 71.796875 
Q 19.390625 75.984375 28.609375 75.984375 
z
" id="DejaVuSans-102"/>
     <path d="M 9.8125 72.90625 
L 51.703125 72.90625 
L 51.703125 64.59375 
L 19.671875 64.59375 
L 19.671875 43.109375 
L 48.578125 43.109375 
L 48.578125 34.8125 
L 19.671875 34.8125 
L 19.671875 0 
L 9.8125 0 
z
" id="DejaVuSans-70"/>
     <path d="M 44.28125 53.078125 
L 44.28125 44.578125 
Q 40.484375 46.53125 36.375 47.5 
Q 32.28125 48.484375 27.875 48.484375 
Q 21.1875 48.484375 17.84375 46.4375 
Q 14.5 44.390625 14.5 40.28125 
Q 14.5 37.15625 16.890625 35.375 
Q 19.28125 33.59375 26.515625 31.984375 
L 29.59375 31.296875 
Q 39.15625 29.25 43.1875 25.515625 
Q 47.21875 21.78125 47.21875 15.09375 
Q 47.21875 7.46875 41.1875 3.015625 
Q 35.15625 -1.421875 24.609375 -1.421875 
Q 20.21875 -1.421875 15.453125 -0.5625 
Q 10.6875 0.296875 5.421875 2 
L 5.421875 11.28125 
Q 10.40625 8.6875 15.234375 7.390625 
Q 20.0625 6.109375 24.8125 6.109375 
Q 31.15625 6.109375 34.5625 8.28125 
Q 37.984375 10.453125 37.984375 14.40625 
Q 37.984375 18.0625 35.515625 20.015625 
Q 33.0625 21.96875 24.703125 23.78125 
L 21.578125 24.515625 
Q 13.234375 26.265625 9.515625 29.90625 
Q 5.8125 33.546875 5.8125 39.890625 
Q 5.8125 47.609375 11.28125 51.796875 
Q 16.75 56 26.8125 56 
Q 31.78125 56 36.171875 55.265625 
Q 40.578125 54.546875 44.28125 53.078125 
z
" id="DejaVuSans-115"/>
     <path d="M 54.890625 33.015625 
L 54.890625 0 
L 45.90625 0 
L 45.90625 32.71875 
Q 45.90625 40.484375 42.875 44.328125 
Q 39.84375 48.1875 33.796875 48.1875 
Q 26.515625 48.1875 22.3125 43.546875 
Q 18.109375 38.921875 18.109375 30.90625 
L 18.109375 0 
L 9.078125 0 
L 9.078125 75.984375 
L 18.109375 75.984375 
L 18.109375 46.1875 
Q 21.34375 51.125 25.703125 53.5625 
Q 30.078125 56 35.796875 56 
Q 45.21875 56 50.046875 50.171875 
Q 54.890625 44.34375 54.890625 33.015625 
z
" id="DejaVuSans-104"/>
     <path d="M 64.40625 67.28125 
L 64.40625 56.890625 
Q 59.421875 61.53125 53.78125 63.8125 
Q 48.140625 66.109375 41.796875 66.109375 
Q 29.296875 66.109375 22.65625 58.46875 
Q 16.015625 50.828125 16.015625 36.375 
Q 16.015625 21.96875 22.65625 14.328125 
Q 29.296875 6.6875 41.796875 6.6875 
Q 48.140625 6.6875 53.78125 8.984375 
Q 59.421875 11.28125 64.40625 15.921875 
L 64.40625 5.609375 
Q 59.234375 2.09375 53.4375 0.328125 
Q 47.65625 -1.421875 41.21875 -1.421875 
Q 24.65625 -1.421875 15.125 8.703125 
Q 5.609375 18.84375 5.609375 36.375 
Q 5.609375 53.953125 15.125 64.078125 
Q 24.65625 74.21875 41.21875 74.21875 
Q 47.75 74.21875 53.53125 72.484375 
Q 59.328125 70.75 64.40625 67.28125 
z
" id="DejaVuSans-67"/>
     <path d="M 48.6875 27.296875 
Q 48.6875 37.203125 44.609375 42.84375 
Q 40.53125 48.484375 33.40625 48.484375 
Q 26.265625 48.484375 22.1875 42.84375 
Q 18.109375 37.203125 18.109375 27.296875 
Q 18.109375 17.390625 22.1875 11.75 
Q 26.265625 6.109375 33.40625 6.109375 
Q 40.53125 6.109375 44.609375 11.75 
Q 48.6875 17.390625 48.6875 27.296875 
z
M 18.109375 46.390625 
Q 20.953125 51.265625 25.265625 53.625 
Q 29.59375 56 35.59375 56 
Q 45.5625 56 51.78125 48.09375 
Q 58.015625 40.1875 58.015625 27.296875 
Q 58.015625 14.40625 51.78125 6.484375 
Q 45.5625 -1.421875 35.59375 -1.421875 
Q 29.59375 -1.421875 25.265625 0.953125 
Q 20.953125 3.328125 18.109375 8.203125 
L 18.109375 0 
L 9.078125 0 
L 9.078125 75.984375 
L 18.109375 75.984375 
z
" id="DejaVuSans-98"/>
    </defs>
    <g transform="translate(46.955767 19.918125)scale(0.12 -0.12)">
     <use xlink:href="#DejaVuSans-69"/>
     <use x="63.183594" xlink:href="#DejaVuSans-102"/>
     <use x="98.388672" xlink:href="#DejaVuSans-102"/>
     <use x="133.59375" xlink:href="#DejaVuSans-105"/>
     <use x="161.376953" xlink:href="#DejaVuSans-99"/>
     <use x="216.357422" xlink:href="#DejaVuSans-105"/>
     <use x="244.140625" xlink:href="#DejaVuSans-101"/>
     <use x="305.664062" xlink:href="#DejaVuSans-110"/>
     <use x="369.042969" xlink:href="#DejaVuSans-116"/>
     <use x="408.251953" xlink:href="#DejaVuSans-32"/>
     <use x="440.039062" xlink:href="#DejaVuSans-70"/>
     <use x="497.449219" xlink:href="#DejaVuSans-114"/>
     <use x="538.53125" xlink:href="#DejaVuSans-111"/>
     <use x="599.712891" xlink:href="#DejaVuSans-110"/>
     <use x="663.091797" xlink:href="#DejaVuSans-116"/>
     <use x="702.300781" xlink:href="#DejaVuSans-105"/>
     <use x="730.083984" xlink:href="#DejaVuSans-101"/>
     <use x="791.607422" xlink:href="#DejaVuSans-114"/>
     <use x="832.720703" xlink:href="#DejaVuSans-115"/>
     <use x="884.820312" xlink:href="#DejaVuSans-32"/>
     <use x="916.607422" xlink:href="#DejaVuSans-102"/>
     <use x="951.8125" xlink:href="#DejaVuSans-111"/>
     <use x="1012.994141" xlink:href="#DejaVuSans-114"/>
     <use x="1054.107422" xlink:href="#DejaVuSans-32"/>
     <use x="1085.894531" xlink:href="#DejaVuSans-116"/>
     <use x="1125.103516" xlink:href="#DejaVuSans-104"/>
     <use x="1188.482422" xlink:href="#DejaVuSans-101"/>
     <use x="1250.005859" xlink:href="#DejaVuSans-32"/>
     <use x="1281.792969" xlink:href="#DejaVuSans-67"/>
     <use x="1351.617188" xlink:href="#DejaVuSans-114"/>
     <use x="1392.730469" xlink:href="#DejaVuSans-105"/>
     <use x="1420.513672" xlink:href="#DejaVuSans-115"/>
     <use x="1472.613281" xlink:href="#DejaVuSans-105"/>
     <use x="1500.396484" xlink:href="#DejaVuSans-115"/>
     <use x="1552.496094" xlink:href="#DejaVuSans-32"/>
     <use x="1584.283203" xlink:href="#DejaVuSans-83"/>
     <use x="1647.759766" xlink:href="#DejaVuSans-117"/>
     <use x="1711.138672" xlink:href="#DejaVuSans-98"/>
     <use x="1774.615234" xlink:href="#DejaVuSans-112"/>
     <use x="1838.091797" xlink:href="#DejaVuSans-101"/>
     <use x="1899.615234" xlink:href="#DejaVuSans-114"/>
     <use x="1940.728516" xlink:href="#DejaVuSans-105"/>
     <use x="1968.511719" xlink:href="#DejaVuSans-111"/>
     <use x="2029.693359" xlink:href="#DejaVuSans-100"/>
     <use x="2093.169922" xlink:href="#DejaVuSans-115"/>
    </g>
   </g>
   <g id="legend_1">
    <g id="patch_7">
     <path d="M 222.966222 77.9525 
L 288.578722 77.9525 
Q 290.578722 77.9525 290.578722 75.9525 
L 290.578722 32.918125 
Q 290.578722 30.918125 288.578722 30.918125 
L 222.966222 30.918125 
Q 220.966222 30.918125 220.966222 32.918125 
L 220.966222 75.9525 
Q 220.966222 77.9525 222.966222 77.9525 
z
" style="fill:#ffffff;opacity:0.8;stroke:#cccccc;stroke-linejoin:miter;"/>
    </g>
    <g id="PathCollection_4">
     <g>
      <use style="fill:#0000ff;stroke:#0000ff;" x="234.966222" xlink:href="#m85e56710fd" y="39.891563"/>
     </g>
    </g>
    <g id="text_15">
     <!-- Before -->
     <defs>
      <path d="M 19.671875 34.8125 
L 19.671875 8.109375 
L 35.5 8.109375 
Q 43.453125 8.109375 47.28125 11.40625 
Q 51.125 14.703125 51.125 21.484375 
Q 51.125 28.328125 47.28125 31.5625 
Q 43.453125 34.8125 35.5 34.8125 
z
M 19.671875 64.796875 
L 19.671875 42.828125 
L 34.28125 42.828125 
Q 41.5 42.828125 45.03125 45.53125 
Q 48.578125 48.25 48.578125 53.8125 
Q 48.578125 59.328125 45.03125 62.0625 
Q 41.5 64.796875 34.28125 64.796875 
z
M 9.8125 72.90625 
L 35.015625 72.90625 
Q 46.296875 72.90625 52.390625 68.21875 
Q 58.5 63.53125 58.5 54.890625 
Q 58.5 48.1875 55.375 44.234375 
Q 52.25 40.28125 46.1875 39.3125 
Q 53.46875 37.75 57.5 32.78125 
Q 61.53125 27.828125 61.53125 20.40625 
Q 61.53125 10.640625 54.890625 5.3125 
Q 48.25 0 35.984375 0 
L 9.8125 0 
z
" id="DejaVuSans-66"/>
     </defs>
     <g transform="translate(252.966222 42.516563)scale(0.1 -0.1)">
      <use xlink:href="#DejaVuSans-66"/>
      <use x="68.603516" xlink:href="#DejaVuSans-101"/>
      <use x="130.126953" xlink:href="#DejaVuSans-102"/>
      <use x="165.332031" xlink:href="#DejaVuSans-111"/>
      <use x="226.513672" xlink:href="#DejaVuSans-114"/>
      <use x="267.595703" xlink:href="#DejaVuSans-101"/>
     </g>
    </g>
    <g id="PathCollection_5">
     <g>
      <use style="fill:#ff0000;stroke:#ff0000;" x="234.966222" xlink:href="#m1e5de045f3" y="54.569688"/>
     </g>
    </g>
    <g id="text_16">
     <!-- After -->
     <defs>
      <path d="M 34.1875 63.1875 
L 20.796875 26.90625 
L 47.609375 26.90625 
z
M 28.609375 72.90625 
L 39.796875 72.90625 
L 67.578125 0 
L 57.328125 0 
L 50.6875 18.703125 
L 17.828125 18.703125 
L 11.1875 0 
L 0.78125 0 
z
" id="DejaVuSans-65"/>
     </defs>
     <g transform="translate(252.966222 57.194688)scale(0.1 -0.1)">
      <use xlink:href="#DejaVuSans-65"/>
      <use x="68.361328" xlink:href="#DejaVuSans-102"/>
      <use x="103.550781" xlink:href="#DejaVuSans-116"/>
      <use x="142.759766" xlink:href="#DejaVuSans-101"/>
      <use x="204.283203" xlink:href="#DejaVuSans-114"/>
     </g>
    </g>
    <g id="PathCollection_6">
     <g>
      <use style="fill:#008000;stroke:#008000;" x="234.966222" xlink:href="#ma7d25494da" y="69.247813"/>
     </g>
    </g>
    <g id="text_17">
     <!-- During -->
     <defs>
      <path d="M 45.40625 27.984375 
Q 45.40625 37.75 41.375 43.109375 
Q 37.359375 48.484375 30.078125 48.484375 
Q 22.859375 48.484375 18.828125 43.109375 
Q 14.796875 37.75 14.796875 27.984375 
Q 14.796875 18.265625 18.828125 12.890625 
Q 22.859375 7.515625 30.078125 7.515625 
Q 37.359375 7.515625 41.375 12.890625 
Q 45.40625 18.265625 45.40625 27.984375 
z
M 54.390625 6.78125 
Q 54.390625 -7.171875 48.1875 -13.984375 
Q 42 -20.796875 29.203125 -20.796875 
Q 24.46875 -20.796875 20.265625 -20.09375 
Q 16.0625 -19.390625 12.109375 -17.921875 
L 12.109375 -9.1875 
Q 16.0625 -11.328125 19.921875 -12.34375 
Q 23.78125 -13.375 27.78125 -13.375 
Q 36.625 -13.375 41.015625 -8.765625 
Q 45.40625 -4.15625 45.40625 5.171875 
L 45.40625 9.625 
Q 42.625 4.78125 38.28125 2.390625 
Q 33.9375 0 27.875 0 
Q 17.828125 0 11.671875 7.65625 
Q 5.515625 15.328125 5.515625 27.984375 
Q 5.515625 40.671875 11.671875 48.328125 
Q 17.828125 56 27.875 56 
Q 33.9375 56 38.28125 53.609375 
Q 42.625 51.21875 45.40625 46.390625 
L 45.40625 54.6875 
L 54.390625 54.6875 
z
" id="DejaVuSans-103"/>
     </defs>
     <g transform="translate(252.966222 71.872813)scale(0.1 -0.1)">
      <use xlink:href="#DejaVuSans-68"/>
      <use x="77.001953" xlink:href="#DejaVuSans-117"/>
      <use x="140.380859" xlink:href="#DejaVuSans-114"/>
      <use x="181.494141" xlink:href="#DejaVuSans-105"/>
      <use x="209.277344" xlink:href="#DejaVuSans-110"/>
      <use x="272.65625" xlink:href="#DejaVuSans-103"/>
     </g>
    </g>
   </g>
  </g>
 </g>
 <defs>
  <clipPath id="p8a9f24dd54">
   <rect height="219.925625" width="239.817785" x="55.760938" y="25.918125"/>
  </clipPath>
 </defs>
</svg>
